<?xml version="1.0" encoding="UTF-8" standalone="no"?>
<!-- Created with Inkscape (http://www.inkscape.org/) -->

<svg
   width="78.05056mm"
   height="19.231991mm"
   viewBox="0 0 78.050561 19.231991"
   version="1.1"
   id="svg5"
   inkscape:version="1.1.2 (b8e25be833, 2022-02-05)"
   sodipodi:docname="logo_snes.svg"
   xmlns:inkscape="http://www.inkscape.org/namespaces/inkscape"
   xmlns:sodipodi="http://sodipodi.sourceforge.net/DTD/sodipodi-0.dtd"
   xmlns="http://www.w3.org/2000/svg"
   xmlns:svg="http://www.w3.org/2000/svg">
  <sodipodi:namedview
     id="namedview7"
     pagecolor="#ffffff"
     bordercolor="#666666"
     borderopacity="1.0"
     inkscape:pageshadow="2"
     inkscape:pageopacity="0.0"
     inkscape:pagecheckerboard="0"
     inkscape:document-units="mm"
     showgrid="false"
     fit-margin-top="0"
     fit-margin-left="0"
     fit-margin-right="0"
     fit-margin-bottom="0"
     inkscape:zoom="0.90509668"
     inkscape:cx="183.40582"
     inkscape:cy="88.940775"
     inkscape:window-width="1453"
     inkscape:window-height="970"
     inkscape:window-x="527"
     inkscape:window-y="36"
     inkscape:window-maximized="0"
     inkscape:current-layer="layer1" />
  <defs
     id="defs2">
    <linearGradient
       id="path6288-1-5-9-9_1_"
       gradientUnits="userSpaceOnUse"
       x1="280.50699"
       y1="64.777"
       x2="280.50699"
       y2="4.777"
       gradientTransform="matrix(1.1804939,0,0,-1.1804939,-237.53298,-113.07607)">
      <stop
         offset="0"
         stop-color="#f1f3f2"
         id="stop1097" />
      <stop
         offset=".194"
         stop-color="#a4b5d3"
         id="stop1099" />
      <stop
         offset=".586"
         stop-color="#f1f3f2"
         id="stop1101" />
      <stop
         offset=".6"
         stop-color="#5878b5"
         id="stop1103" />
      <stop
         offset="1"
         stop-color="#f1f3f2"
         id="stop1105" />
    </linearGradient>
    <linearGradient
       id="path7243_1_"
       gradientUnits="userSpaceOnUse"
       x1="-162.882"
       y1="511.83401"
       x2="-162.882"
       y2="509.73401"
       gradientTransform="matrix(2.9657548,0,0,-14.69408,638.49303,7362.6294)">
      <stop
         offset="0"
         stop-color="#f1f3f2"
         id="stop1109" />
      <stop
         offset=".898"
         stop-color="#a4b5d3"
         id="stop1111" />
      <stop
         offset="1"
         stop-color="#5878b5"
         id="stop1113" />
    </linearGradient>
    <linearGradient
       id="rect7344_1_"
       gradientUnits="userSpaceOnUse"
       x1="280.91501"
       y1="64.777"
       x2="280.91501"
       y2="0.77700001"
       gradientTransform="matrix(1.1804939,0,0,-1.1804939,-127.17349,295.97392)">
      <stop
         offset="0"
         stop-color="#f1f3f2"
         id="stop1123" />
      <stop
         offset=".194"
         stop-color="#a4b5d3"
         id="stop1125" />
      <stop
         offset=".586"
         stop-color="#f1f3f2"
         id="stop1127" />
      <stop
         offset=".6"
         stop-color="#5878b5"
         id="stop1129" />
      <stop
         offset="1"
         stop-color="#f1f3f2"
         id="stop1131" />
    </linearGradient>
    <linearGradient
       id="left-dark"
       x1="-0.0098969955"
       x2="645.80023"
       y1="-0.066799954"
       y2="-0.066799954"
       gradientTransform="matrix(0.49738843,0,0,0.1407438,-77.192275,-86.273644)"
       gradientUnits="userSpaceOnUse">
      <stop
         id="stop5213"
         offset="0"
         stop-color="#00274f" />
      <stop
         id="stop5215"
         offset="1"
         stop-color="#68cafb" />
    </linearGradient>
    <linearGradient
       id="right-dark"
       x1="-0.0098969955"
       x2="645.80023"
       y1="-0.066799954"
       y2="-0.066799954"
       gradientTransform="matrix(0.49738843,0,0,0.1407438,-77.192275,-86.273644)"
       gradientUnits="userSpaceOnUse">
      <stop
         id="stop4"
         offset="0"
         stop-color="#68cafb" />
      <stop
         id="stop6"
         offset="1"
         stop-color="#00274f" />
    </linearGradient>
  </defs>
  <g
     inkscape:label="Layer 1"
     inkscape:groupmode="layer"
     id="layer1"
     transform="translate(-821.42382,-146.04862)">
    <path
       d="m 825.22472,146.04862 c -0.7343,0 -1.4481,0.6036 -1.5792,1.35173 v 0.0134 0.0134 0.0134 l -0.013,0.0134 v 0.0268 0.0134 l -0.013,0.0268 v 0.0268 l -0.013,0.0268 v 0.0402 l -0.013,0.0268 v 0.0401 l -0.013,0.0401 -0.013,0.0401 -0.013,0.0803 -0.027,0.0937 -0.013,0.0937 -0.027,0.0937 -0.013,0.10707 -0.027,0.10707 -0.027,0.12045 -0.027,0.10707 -0.04,0.22752 -0.027,0.12045 -0.027,0.10706 -0.013,0.10707 -0.027,0.10707 -0.027,0.10707 -0.013,0.10707 -0.013,0.0937 -0.027,0.0803 -0.013,0.0937 v 0.0402 l -0.013,0.0268 v 0.0401 0.0268 l -0.013,0.0401 v 0.0268 0.0268 l -0.013,0.0268 v 0.0134 0.0134 c -0.014,0.32713 0.032,0.77372 0.1339,0.85654 0.1297,0.72052 2.5315,4.05581 2.4625,4.56376 -0.065,0.50933 -0.348,2.00752 -0.348,2.00752 -0.087,0.50519 -0.4316,0.91007 -0.9368,0.91007 -0.5052,10e-6 -0.8498,-0.4035 -0.7629,-0.91007 l 0.4551,-2.48932 h -1.7934 l -0.6023,3.45293 c -0.1228,0.70119 0.352,1.25804 1.0573,1.25804 h 2.5563 c 0.7081,0 1.3826,-0.55685 1.5123,-1.25804 0,0 0.6586,-3.22518 0.6558,-3.45293 0,-0.22913 -0.067,-0.25429 -0.067,-0.25429 0,-0.26226 -2.1374,-3.79023 -2.3555,-3.92135 -0.094,-0.0552 -0.1712,-0.40446 -0.174,-0.61564 0,-0.20981 0.2811,-1.6194 0.2811,-1.6194 0.087,-0.50519 0.5654,-0.91008 1.0706,-0.91008 0.5052,0 0.716,0.40489 0.6291,0.91008 l -0.3882,2.23504 h 1.8068 l 0.629,-3.35925 c 0.1422,-0.74813 -0.3363,-1.35173 -1.0707,-1.35173 z m 4.9251,0 -2.1413,12.33955 c -0.1229,0.70119 0.3519,1.25804 1.0573,1.25804 h 2.5562 c 0.7081,0 1.3946,-0.55685 1.5257,-1.25804 l 2.2886,-12.33955 h -1.606 l -2.1815,11.99158 c -0.032,0.17392 -0.2008,0.3212 -0.3748,0.3212 h -1.2714 c -0.178,0 -0.2966,-0.1459 -0.2677,-0.3212 l 2.128,-11.99158 z m 6.1564,0 -2.583,13.59759 h 1.7131 l 1.1778,-6.15639 h 2.1815 c 0.7094,0 1.3825,-0.56099 1.5123,-1.25804 l 0.9368,-4.83143 c 0.1408,-0.74951 -0.3363,-1.35173 -1.0706,-1.35173 h -2.1548 z m 6.1163,0 -2.6767,13.59759 h 3.8544 l 0.2677,-1.68631 h -1.9005 l 0.7763,-4.59053 h 1.9004 l 0.2677,-1.41865 h -1.9005 l 0.8432,-4.21579 h 1.9005 l 0.2676,-1.68631 z m 4.6039,0 -2.5696,13.59759 h 1.713 l 1.1644,-6.15639 h 1.2179 c 0.1601,0.14907 0.1787,0.42408 0.2008,0.56211 0.032,0.20014 0.065,0.45564 0.04,0.65579 -0.022,0.19876 -0.9368,4.93849 -0.9368,4.93849 h 1.713 c 0,0 0.9637,-5.1635 0.9637,-5.24631 0,-0.0842 10e-5,-0.34888 -0.094,-0.49519 -0.062,-0.0939 -0.1702,-0.30944 -0.2945,-0.38812 -0.2388,-0.15321 -0.5085,-0.25429 -0.5085,-0.25429 h -0.1205 c 0.49,-0.19324 1.4143,-0.51153 1.5123,-1.03052 l 0.9369,-4.83143 c 0.1422,-0.74951 -0.3364,-1.35173 -1.0707,-1.35173 z m 9.1677,0 -2.5831,13.59759 h 1.9674 l 1.5927,-7.88286 0.629,7.88286 h 1.7131 l 2.583,-13.59759 h -1.9674 l -1.3383,7.10662 -0.8834,-7.10662 z m 6.7988,0 -2.5831,13.59759 h 1.7131 l 2.583,-13.59759 z m 2.6097,0 -2.583,13.59759 h 1.9808 l 1.5926,-7.88286 0.629,7.88286 h 1.7131 l 2.583,-13.59759 h -1.9807 l -1.325,7.10662 -0.8833,-7.10662 z m 6.6382,0 -0.3212,1.68631 h 1.0707 l -2.1146,11.91128 h 1.954 l 2.1547,-11.91128 h 1.0306 l 0.2676,-1.68631 z m 4.711,0 -2.6767,13.59759 h 3.8545 l 0.2676,-1.68631 h -1.9004 l 0.7896,-4.59053 h 1.9004 l 0.2677,-1.41865 h -1.9004 l 0.8297,-4.21579 h 1.9005 l 0.2677,-1.68631 z m 4.3496,0 -2.583,13.59759 h 1.9808 l 1.5926,-7.88286 0.629,7.88286 h 1.7131 l 2.583,-13.59759 h -1.9807 l -1.325,7.10662 -0.8833,-7.10662 z m 6.8122,0 -2.583,13.59759 h 3.908 c 0.7095,0 1.3946,-0.55685 1.5257,-1.25804 l 2.0744,-10.98782 c 0.1408,-0.74951 -0.3363,-1.35173 -1.0706,-1.35173 z m 7.3475,0 c -0.7343,-1e-5 -1.4347,0.6036 -1.5658,1.35173 l -1.9139,10.98782 c -0.1242,0.70119 0.34,1.25804 1.0439,1.25804 h 2.824 c 0.7081,0 1.3945,-0.55685 1.5257,-1.25804 l 2.0744,-10.98782 c 0.1422,-0.74813 -0.3377,-1.35173 -1.0707,-1.35173 z m -5.8887,1.56586 h 0.7896 c 0.5052,0 0.8499,0.40489 0.7629,0.91008 l -1.6863,8.9 c -0.088,0.50519 -0.5789,0.92346 -1.0841,0.92346 h -0.7762 z m 6.8925,0 h 0.053 c 0.5052,0 0.8365,0.40489 0.7495,0.91008 l -1.606,8.9 c -0.087,0.50381 -0.5521,0.92346 -1.0573,0.92346 -0.5052,0 -0.716,-0.41827 -0.629,-0.92346 l 1.5926,-8.9 0.013,-0.0401 0.013,-0.0401 0.013,-0.0535 0.013,-0.0402 0.013,-0.0535 0.013,-0.0401 0.013,-0.0401 0.027,-0.0402 0.013,-0.0401 0.027,-0.0401 0.013,-0.0401 0.027,-0.0401 0.027,-0.0268 0.027,-0.0401 0.027,-0.0401 0.04,-0.0268 0.027,-0.0268 0.027,-0.0268 0.04,-0.0268 0.04,-0.0268 0.027,-0.0268 0.04,-0.0268 0.04,-0.0134 0.04,-0.0268 0.027,-0.0134 0.054,-0.0134 0.04,-0.0134 h 0.04 l 0.04,-0.0134 h 0.054 z m -58.5125,0.0535 h 0.8298 c 0.1822,-1e-5 0.5684,0.41729 0.5353,0.60225 l -0.7093,3.35925 c -0.033,0.17392 -0.2677,0.57549 -0.4417,0.57549 h -1.0037 -0.013 -0.013 l -0.013,-0.0134 h -0.013 -0.013 -0.013 -0.013 v -0.0134 h -0.013 -0.013 l -0.013,-0.0134 h -0.013 l -0.013,-0.0134 -0.013,-0.0134 h -0.013 v -0.0134 l -0.013,-0.0134 -0.013,-0.0134 v -0.0134 l -0.013,-0.0134 -0.013,-0.0134 v -0.0134 -0.0134 l -0.013,-0.0134 v -0.0134 -0.0134 l -0.013,-0.0134 v -0.0134 c 0,-0.0221 0,-0.0555 0,-0.0803 l 0.803,-4.10873 c 0.073,-0.0607 0.1632,-0.10706 0.2543,-0.10706 z m 10.6666,0 h 0.013 0.013 0.013 0.013 0.7762 c 0.1822,-1e-5 0.5712,0.41729 0.5353,0.60225 l -0.7093,3.34587 c -0.032,0.1753 -0.4671,0.58887 -0.6424,0.58887 h -0.7361 c -0.1518,0 -0.2566,-0.10011 -0.2677,-0.2409 0,-0.0221 0,-0.0541 0,-0.0803 l 0.7897,-4.10873 0.013,-0.0134 0.013,-0.0134 0.027,-0.0134 h 0.013 l 0.013,-0.0134 0.013,-0.0134 h 0.013 l 0.013,-0.0134 h 0.013 l 0.027,-0.0134 h 0.013 0.013 0.013 z m -27.1952,13.15594 v 4.45669 h 76.3928 v -4.45669 z m 56.157,0.46842 h 0.013 0.013 0.013 0.013 0.013 0.5889 c 0.1588,0 0.2727,0.12729 0.2409,0.29444 l -0.1472,0.74947 h -0.3613 l 0.08,-0.49519 c 0.018,-0.11207 -0.047,-0.20075 -0.1606,-0.20075 -0.1118,0 -0.2216,0.0881 -0.241,0.20075 l -0.067,0.36136 c -0.011,0.0215 0.022,0.12307 0.04,0.13383 0.05,0.0286 0.5219,0.81168 0.5219,0.86993 0.011,0.0291 0.018,0.0428 0.013,0.0535 -0.014,0.0981 -0.1472,0.76286 -0.1472,0.76286 -0.029,0.15266 -0.1772,0.28105 -0.3346,0.28105 h -0.5621 c -0.156,0 -0.2565,-0.12839 -0.2275,-0.28105 l 0.1338,-0.76286 h 0.3881 l -0.094,0.54872 c -0.018,0.11208 0.047,0.21414 0.1606,0.21414 0.1076,0 0.2229,-0.10151 0.2409,-0.21414 l 0.08,-0.44165 c -0.072,-0.18482 -0.5452,-0.85704 -0.5755,-1.01714 -0.021,-0.0178 -0.029,-0.1145 -0.027,-0.18737 0,-0.0798 0.1071,-0.57548 0.1071,-0.57549 h 0.013 v -0.0134 -0.0134 -0.0134 l 0.013,-0.0268 v -0.0134 l 0.013,-0.0134 v -0.0134 l 0.013,-0.0134 v -0.0134 l 0.013,-0.0134 0.013,-0.0134 v -0.0134 h 0.013 l 0.013,-0.0134 0.013,-0.0134 0.013,-0.0134 v -0.0134 h 0.013 l 0.013,-0.0134 0.013,-0.0134 h 0.013 l 0.013,-0.0134 h 0.013 l 0.013,-0.0134 h 0.013 0.027 z m 3.0782,0 h 0.4818 l 0.067,1.1376 0.6156,-1.1376 h 0.4818 l -0.9904,1.73985 -0.2409,1.27143 h -0.4283 l 0.2142,-1.36511 z m 4.3764,0 h 0.013 0.013 0.013 0.013 0.013 0.5889 c 0.1588,0 0.2699,0.12729 0.2409,0.29444 l -0.1472,0.74947 h -0.3614 l 0.08,-0.49519 c 0.018,-0.11207 -0.047,-0.20075 -0.1606,-0.20075 -0.1118,0 -0.2229,0.0881 -0.2409,0.20075 l -0.067,0.36136 c -0.014,0.0215 0.018,0.12307 0.04,0.13383 0.047,0.0286 0.5219,0.81168 0.5219,0.86993 0.014,0.0291 0.013,0.0428 0.013,0.0535 -0.018,0.0981 -0.1338,0.76286 -0.1338,0.76286 -0.029,0.15266 -0.1786,0.28105 -0.3346,0.28105 h -0.5755 c -0.156,0 -0.2565,-0.12839 -0.2275,-0.28105 l 0.1338,-0.76286 h 0.3881 l -0.094,0.54872 c -0.018,0.11208 0.052,0.21414 0.1606,0.21414 0.1118,0 0.2188,-0.10151 0.2409,-0.21414 l 0.08,-0.44165 c -0.073,-0.18482 -0.5452,-0.85704 -0.5755,-1.01714 -0.021,-0.0178 -0.03,-0.1145 -0.027,-0.18737 0,-0.0798 0.1071,-0.57548 0.1071,-0.57549 l 0.013,-0.0134 v -0.0134 -0.0134 l 0.013,-0.0268 v -0.0134 l 0.013,-0.0134 v -0.0134 l 0.013,-0.0134 v -0.0134 l 0.013,-0.0134 0.013,-0.0134 v -0.0134 h 0.013 l 0.013,-0.0134 0.013,-0.0134 0.013,-0.0134 0.013,-0.0134 0.013,-0.0134 0.013,-0.0134 h 0.013 l 0.013,-0.0134 h 0.013 l 0.013,-0.0134 h 0.013 0.027 z m 3.1184,0 h 0.8967 l -0.067,0.36135 h -0.2275 l -0.4684,2.64993 h -0.4417 l 0.4685,-2.64993 h -0.2276 z m 3.5064,0 h 0.803 l -0.067,0.36135 h -0.4149 l -0.1873,0.95023 h 0.4282 l -0.067,0.30782 h -0.4149 l -0.1739,1.01715 h 0.4148 l -0.054,0.37473 h -0.8565 z m 3.3057,0 h 0.4952 l 0.08,1.73985 0.7629,-1.72647 0.4818,-0.0134 -0.5086,3.01128 h -0.3747 l 0.2409,-1.59263 -0.6692,1.59263 h -0.2676 l -0.08,-1.63278 -0.2945,1.63278 h -0.4416 z m -71.8825,0.10707 h 0.7896 l -0.053,0.37474 h -0.4283 l -0.174,0.93684 h 0.4149 l -0.053,0.3212 h -0.4283 l -0.1606,1.01714 h 0.4149 l -0.067,0.37474 h -0.8566 z m 3.6938,0 h 0.3747 l 0.2008,1.57925 0.2944,-1.57925 h 0.4417 l -0.5755,3.02466 h -0.3747 l -0.1473,-1.75323 -0.3479,1.75323 h -0.4417 z m 4.015,0 h 0.8834 l -0.054,0.37474 h -0.2275 l -0.4818,2.64992 h -0.4283 l 0.4684,-2.64992 h -0.2409 z m 3.8946,0 h 0.803 l -0.067,0.37474 h -0.4149 l -0.1873,0.93684 h 0.4149 l -0.054,0.3212 h -0.4149 l -0.174,1.01714 h 0.4149 l -0.053,0.37474 h -0.8565 z m 3.7742,0 h 0.8565 c 0.1587,0 0.2593,0.14067 0.2275,0.30782 l -0.2007,1.07068 c -0.022,0.11594 -0.2256,0.21053 -0.3346,0.25428 h 0.027 0.013 0.013 v 0.0134 h 0.013 0.013 0.013 0.013 l 0.013,0.0134 h 0.013 0.013 0.013 v 0.0134 h 0.013 0.013 v 0.0134 h 0.013 c 0.018,0.0324 0.027,0.12887 0.027,0.14722 0,0.0178 -0.2141,1.19114 -0.2141,1.19113 h -0.3881 c 0,0 0.2072,-1.05368 0.2141,-1.09744 0,-0.0469 -0.01,-0.10345 -0.013,-0.14722 0,-0.0323 0,-0.0876 -0.04,-0.12045 h -0.2677 l -0.2543,1.36511 h -0.3881 z m 3.8276,0 h 0.8967 l -0.053,0.37474 h -0.2275 l -0.4818,2.64992 h -0.4283 l 0.4684,-2.64992 h -0.2409 z m 4.4567,0 h 0.5086 l -0.1606,3.02466 h -0.5086 l 0.067,-0.69594 h -0.3078 l -0.2543,0.69594 h -0.455 z m 3.56,0 h 0.3882 l -0.5755,3.02466 h -0.3748 z m 3.453,0 h 0.3747 l 0.2008,1.57925 0.2944,-1.57925 h 0.4283 l -0.5621,3.02466 h -0.3882 l -0.1338,-1.75323 -0.348,1.75323 h -0.4416 z m 4.4299,0 h 0.4952 l 0.08,1.75323 0.7628,-1.73985 h 0.4818 l -0.5085,3.01128 h -0.3748 l 0.2409,-1.59263 -0.6691,1.59263 h -0.2677 l -0.08,-1.63278 -0.2944,1.63278 h -0.4283 z m 4.8582,0 h 0.7896 l -0.053,0.37474 h -0.4283 l -0.174,0.93684 h 0.4149 l -0.053,0.3212 h -0.4283 l -0.174,1.01714 h 0.4283 l -0.067,0.37474 h -0.8432 z m 3.8812,0 h 0.3747 l 0.2008,1.57925 0.2944,-1.57925 h 0.4283 l -0.5621,3.02466 h -0.3748 l -0.1472,-1.75323 -0.3479,1.75323 h -0.4417 z m 3.9749,0 h 0.8967 l -0.067,0.37474 h -0.2276 l -0.4684,2.64992 h -0.4283 l 0.4685,-2.64992 h -0.2409 z m -32.0802,0.36135 c -0.021,0 -0.038,0.0123 -0.053,0.0268 l -0.174,0.91007 c 0,0.007 0,0.006 0,0.0134 0,0.0291 0.02,0.0535 0.053,0.0535 h 0.1606 c 0.04,0 0.1404,-0.0806 0.1473,-0.12045 l 0.1472,-0.74947 c 0.01,-0.0431 -0.067,-0.13384 -0.1071,-0.13384 z m 7.923,0.91008 -0.281,0.76286 h 0.2141 z"
       style="font-style:normal;font-variant:normal;font-weight:normal;font-stretch:normal;letter-spacing:normal;word-spacing:normal;text-anchor:start;fill:#fc0c18;fill-opacity:1;fill-rule:nonzero;stroke:#fc0c18;stroke-width:0;stroke-linecap:butt;stroke-linejoin:miter;stroke-miterlimit:10.433;stroke-dasharray:none;stroke-dashoffset:0;stroke-opacity:1"
       id="polyline2177" />
  </g>
  <style
     id="style1092">.st0{stroke:#000}.st1{fill:url(#path6288-1-5-9-9_1_)}.st2{fill:url(#path7243_1_)}.st3,.st4{stroke:#000;stroke-width:1}.st4{stroke-width:1.2393}.st5{fill:url(#rect7344_1_)}</style>
</svg>
