<?xml version="1.0" encoding="UTF-8" standalone="no"?>
<!-- Created with Inkscape (http://www.inkscape.org/) -->

<svg
   width="420.01801mm"
   height="109.9002mm"
   viewBox="0 0 420.018 109.9002"
   version="1.1"
   id="svg5"
   xml:space="preserve"
   inkscape:version="1.2.2 (732a01da63, 2022-12-09)"
   sodipodi:docname="logo_cave.svg"
   xmlns:inkscape="http://www.inkscape.org/namespaces/inkscape"
   xmlns:sodipodi="http://sodipodi.sourceforge.net/DTD/sodipodi-0.dtd"
   xmlns="http://www.w3.org/2000/svg"
   xmlns:svg="http://www.w3.org/2000/svg"><sodipodi:namedview
     id="namedview7"
     pagecolor="#ffffff"
     bordercolor="#000000"
     borderopacity="0.25"
     inkscape:showpageshadow="2"
     inkscape:pageopacity="0.0"
     inkscape:pagecheckerboard="0"
     inkscape:deskcolor="#d1d1d1"
     inkscape:document-units="mm"
     showgrid="false"
     inkscape:zoom="0.74564394"
     inkscape:cx="781.20396"
     inkscape:cy="309.79934"
     inkscape:window-width="1920"
     inkscape:window-height="1017"
     inkscape:window-x="-8"
     inkscape:window-y="352"
     inkscape:window-maximized="1"
     inkscape:current-layer="layer1" /><defs
     id="defs2"><clipPath
       clipPathUnits="userSpaceOnUse"
       id="clipPath3033"><path
         inkscape:connector-curvature="0"
         d="m 187.087,42.52 h 62.362 v 62.362 h -62.362 z"
         clip-rule="evenodd"
         id="path3035" /></clipPath><clipPath
       clipPathUnits="userSpaceOnUse"
       id="clipPath3041"><path
         inkscape:connector-curvature="0"
         d="m -948.174,452.103 h 141.731 v 158.165 h -141.731 z"
         id="path3043" /></clipPath><clipPath
       clipPathUnits="userSpaceOnUse"
       id="clipPath3049"><path
         inkscape:connector-curvature="0"
         d="m -948.174,452.103 h 141.731 v 158.165 h -141.731 z"
         id="path3051" /></clipPath></defs><g
     inkscape:label="Layer 1"
     inkscape:groupmode="layer"
     id="layer1"
     transform="translate(-85.579927,-66.911857)"><g
       id="g2628"
       transform="matrix(2.0943495,0,0,2.0943495,-203.11749,-91.805571)"><path
         inkscape:connector-curvature="0"
         d="m 183.66022,100.2373 c 0,-2.269596 0.42003,-3.377706 2.21497,-4.851206 l 2.75541,-2.26684 c 1.76787,-1.41274 2.66767,-1.4468 4.83971,-1.4468 h 5.92619 c 1.24423,0 2.579,0.2623 2.579,1.85268 0,1.58946 -1.48319,1.81219 -2.579,1.81219 h -6.58798 c -0.73926,0 -1.47945,0.39759 -2.15056,0.92403 l -2.25418,1.91067 c -0.58618,0.45281 -1.00901,0.82924 -1.00901,1.55908 v 4.570496 c 0,0.72248 0.42283,1.12376 1.00901,1.56921 l 2.25418,1.88397 c 0.67111,0.54301 1.4113,0.93508 2.15056,0.93508 h 6.58798 c 1.09581,0 2.579,0.21905 2.579,1.82415 0,1.59866 -1.33477,1.85544 -2.579,1.85544 h -5.92619 c -2.17204,0 -3.07184,-0.0359 -4.83971,-1.44864 l -2.75541,-2.27788 c -1.79494,-1.46153 -2.21497,-2.56136 -2.21497,-4.8374 z"
         style="fill:#009944;fill-opacity:1;fill-rule:nonzero;stroke:none;stroke-width:0.926859"
         id="path3053" /><path
         inkscape:connector-curvature="0"
         d="m 227.57414,103.10329 c -1.00528,0 -2.5062,0.27151 -2.5062,1.62075 v 2.45736 c 0,1.25168 1.52519,1.50846 2.43713,1.50846 h 4.11631 l 4.12846,-2.14075 v -0.78414 c 0,-2.04412 -0.58432,-2.66168 -2.64247,-2.66168 z m 0.0411,-7.765966 c -1.08742,0 -2.56687,-0.22273 -2.56687,-1.81219 0,-1.59038 1.31144,-1.85268 2.56687,-1.85268 h 5.13186 c 1.95642,0 3.35559,0.17947 4.83971,1.64284 1.44211,1.41643 1.62786,2.5273 1.68293,4.3809 l 0.38083,12.526986 c 0.0364,1.07498 -0.50404,2.14627 -1.74267,2.14627 -0.97448,0 -1.95829,-0.81635 -1.93028,-1.85544 l -2.55287,1.31243 c -1.06315,0.54301 -1.09955,0.54301 -2.30738,0.54301 h -3.58614 c -1.66986,0 -2.88049,-0.19603 -4.23859,-1.30322 -1.56159,-1.26733 -1.94522,-2.6083 -1.94522,-4.53737 v -1.60878 c 0,-1.77077 0.43683,-2.88164 1.82201,-4.11124 1.30583,-1.120986 2.72928,-1.386976 4.3618,-1.386976 h 8.02729 v -0.8412 c 0,-2.76108 -0.62165,-3.24334 -3.31452,-3.24334 z"
         style="fill:#009944;fill-opacity:1;fill-rule:nonzero;stroke:none;stroke-width:0.926859"
         id="path3055" /><path
         inkscape:connector-curvature="0"
         d="m 274.45722,96.261354 v -1.86004 c 0,-1.31059 0.23335,-2.72886 1.90322,-2.72886 1.33477,0 1.8332,1.03172 1.8332,2.22175 v 2.60829 c 0,0.61296 -0.15681,0.92864 -0.43496,1.50294 l -5.56963,12.064966 c -0.35563,0.76206 -1.00621,2.29905 -1.95455,2.29905 h -2.40819 c -0.93527,0 -1.60079,-1.53699 -1.94242,-2.29905 l -5.56776,-12.064966 c -0.29029,-0.5743 -0.42656,-0.88998 -0.42656,-1.50294 v -2.60829 c 0,-1.19003 0.5087,-2.22175 1.80707,-2.22175 1.68479,0 1.91441,1.41827 1.91441,2.72886 v 1.86004 l 5.42215,12.261006 z"
         style="fill:#009944;fill-opacity:1;fill-rule:nonzero;stroke:none;stroke-width:0.926859"
         id="path3057" /><path
         inkscape:connector-curvature="0"
         d="m 301.40184,101.00672 h 10.8135 v -2.253956 c 0,-0.67922 0.0411,-1.2388 -0.46577,-1.70542 l -1.43465,-1.22776 c -0.46857,-0.43349 -1.20036,-0.48226 -1.79587,-0.48226 h -3.17078 c -0.68698,0 -1.26943,0 -1.88828,0.43533 l -1.2993,0.936 c -0.45083,0.33869 -0.75885,0.61664 -0.75885,1.68057 z m 3.09423,11.36273 c -1.54385,0 -2.1711,0 -3.34159,-1.00135 l -1.59332,-1.38053 c -1.47665,-1.29771 -1.90975,-2.14996 -1.90975,-4.13977 v -7.118046 c 0,-1.95392 0.26789,-3.12093 1.81921,-4.41311 l 1.32917,-1.10719 c 1.76693,-1.50294 2.62193,-1.537 4.14712,-1.537 h 3.40786 c 1.83788,0 2.70501,0.17947 4.13032,1.34096 l 1.51958,1.19371 c 1.72774,1.33175 1.94802,2.76383 1.94802,4.79414 v 2.970906 c 0,2.09106 -0.34629,2.7215 -2.57246,2.7215 h -11.97839 v 1.2296 c 0,0.34881 0.25388,0.79059 0.54044,1.0713 l 0.939,0.99398 c 0.51058,0.53381 1.2377,0.70131 2.46699,0.70131 h 8.03196 c 1.26569,0 2.57246,0.26599 2.57246,1.82415 0,1.6272 -1.46918,1.85544 -2.57246,1.85544 z"
         style="fill:#009944;fill-opacity:1;fill-rule:nonzero;stroke:none;stroke-width:0.926859"
         id="path3059" /></g><path
       inkscape:connector-curvature="0"
       d="m 158.92022,153.08012 c -3.68322,4.14069 -6.9044,4.04037 -7.03881,4.03485 l -0.014,0.006 c -0.0112,0 -0.0271,-0.006 -0.0271,-0.006 l -4.46728,-0.0994 c 1.00901,-0.75377 2.06469,-1.7091 3.13344,-2.9028 0.0289,-0.0451 0.07,-0.0985 0.11201,-0.14266 7.98622,-11.61307 5.33535,-19.43151 3.04477,-23.06508 -0.11014,-0.17303 -0.23428,-0.34145 -0.36029,-0.49331 l 1.69319,0.55313 c 3.51334,0.93969 6.28742,3.38232 7.46445,6.56123 1.14342,3.0381 1.44304,8.22432 -3.54041,15.55404 m -17.99979,19.16829 c -1.43371,0.21905 -3.18198,0.45282 -4.89478,0.64149 3.50027,-3.99067 4.95172,-9.99784 5.35215,-13.06816 l 8.77588,0.21905 c -0.46111,3.35102 -2.27098,11.15013 -9.23325,12.20762 m -13.73973,1.59774 c -3.49093,-0.2715 -12.70178,-1.19186 -18.1902,-1.7634 l -4.10325,-0.40036 c -1.95175,-0.17302 -3.8447,-2.20978 -5.159864,-4.08638 5.406284,0.39943 18.070724,1.12191 20.565724,1.09338 3.43959,-0.10676 7.39817,-1.80114 8.28864,-4.90919 0.58991,-2.0119 0.62538,-2.27604 0.72338,-3.43937 0.0653,-0.62677 0.13441,-1.59774 0.40137,-3.58848 0.66645,-4.85028 3.15771,-5.79825 3.58894,-5.92526 0.92127,-0.0543 4.7389,-0.49239 8.03102,-3.8609 0.0364,-0.0543 0.0653,-0.10584 0.11761,-0.15094 3.07464,-3.99067 1.73894,-10.22609 1.70347,-10.49668 -0.0149,-0.0451 -0.53111,-3.32617 -3.21839,-5.14296 -1.69039,-1.16885 -3.77189,-1.48729 -6.19594,-0.99674 -0.84193,0.17394 -1.61946,0.46846 -2.30084,0.80623 1.82107,-2.29721 4.32073,-3.72377 7.26842,-4.15265 1.78187,-0.24206 3.53201,-0.0911 5.20467,0.37734 0.12321,0.0589 0.23055,0.11965 0.36403,0.15646 l 1.53918,0.52277 c 2.15524,0.96453 4.04818,2.56319 5.31201,4.55945 1.91349,3.02337 4.04725,9.5846 -2.93462,19.79597 -3.89977,4.40207 -7.36177,4.60455 -7.95915,4.62112 l -0.13721,-0.0166 c -0.0859,0 -0.13908,0.0248 -0.22122,0.0248 -0.0121,0 -0.0233,0 -0.0364,0.0147 -0.58151,0.0902 -1.07528,0.51909 -1.22556,1.07682 0,0 0,0.0156 -0.0112,0.023 0,0.0598 -0.0149,0.11505 -0.0149,0.16751 -0.014,0.0506 -0.014,0.081 -0.014,0.11964 -0.0915,1.77998 -1.3721,9.79537 -5.73951,13.63326 -0.953,0.85869 -1.97695,1.40907 -3.12037,1.70358 -0.24175,0.0221 -0.36123,0.0221 -0.39203,0.0433 -0.17548,0.0239 -0.30989,0.0635 -0.4471,0.12977 -0.55725,0.0699 -1.10235,0.0847 -1.68667,0.0607 M 91.74677,150.53073 c -3.218382,-0.53288 -3.181046,-4.46833 -3.181046,-4.61467 0,0.0294 1.821074,-36.79498 1.821074,-36.79498 0,-0.18315 0.126943,-3.51576 3.336924,-4.55669 0.157746,-0.0506 0.308024,-0.11228 0.441501,-0.24205 2.734878,-2.08277 3.277186,-4.19867 3.900701,-8.903537 0.235218,-3.176155 2.401656,-4.640444 2.487526,-4.685541 10.62215,-5.766961 31.07213,-16.834261 31.80205,-17.205165 0.7654,-0.379188 1.94055,-0.716039 2.73301,-0.354338 0.47697,0.226408 0.84194,0.755614 1.06875,1.54436 0.19602,4.110317 1.06782,15.768487 1.14809,17.03674 -0.0271,0.579825 -0.47603,5.736589 -5.24387,6.928452 -1.43838,0.378267 -2.5818,0.300037 -3.34439,-0.242054 -1.18729,-0.804393 -1.35624,-2.479443 -1.35624,-2.487727 -0.0103,-0.06719 -0.0103,-0.105841 -0.0317,-0.15646 l -0.61795,-3.131057 c -0.21748,-1.102588 -0.841,-1.998096 -1.78094,-2.558594 -2.08336,-1.257209 -5.11319,-0.473984 -5.46322,-0.390232 -0.098,0.03129 -0.17548,0.06627 -0.25762,0.112284 -0.0971,0.03865 -8.79174,4.383663 -12.27801,6.056873 -4.15646,1.98153 -3.78309,7.872736 -3.76723,8.119396 0,-0.0976 -0.22868,41.186 -0.22868,41.186 0,0.38747 0.0523,3.65842 2.02269,5.58105 0.89327,0.85317 2.08896,1.30415 3.4088,1.26733 4.03137,-0.0911 12.66257,-0.69579 13.02007,-0.70867 0.10734,-0.0166 0.18574,-0.0221 0.27722,-0.0377 0.25949,-0.0838 6.46756,-1.74224 6.91747,-6.91649 0.25482,-2.7804 0.61418,-5.674 0.62538,-5.69793 0.0159,-0.11413 0.99407,-4.74444 5.11786,-5.61234 1.60546,-0.3166 2.90009,-0.1583 3.8587,0.51356 1.63346,1.11455 2.00402,3.26727 2.00402,3.28199 0.0224,0.15002 1.09768,5.20923 -1.07529,8.1194 -2.79088,2.79881 -5.91312,2.889 -6.04286,2.889 -0.084,0 -0.16801,0.0212 -0.24269,0.0368 -0.21188,0.0433 -5.07866,0.95625 -6.0886,8.45348 -0.26602,2.06528 -0.35936,3.07768 -0.4135,3.74125 -0.0821,0.96454 -0.0821,1.02436 -0.63005,2.87244 -0.44336,1.58117 -3.19038,2.70493 -5.48655,2.74267 -2.62007,0.0598 -18.28261,-0.85226 -22.035838,-1.19739 -1.465446,-0.14542 -2.050691,-3.58939 -2.050691,-5.48441 0.179213,-0.85777 0.700054,-4.03117 -0.868067,-6.3247 -0.789661,-1.16793 -2.007755,-1.91434 -3.506804,-2.18033 m 51.54264,-80.010362 c 1.2405,0.572462 3.39387,2.125106 4.05472,5.753155 0.27348,5.694253 1.18262,16.708173 1.19569,16.800208 0.0187,0.415082 0.44897,10.834449 -11.72637,14.803029 -1.6568,0.54853 -3.15305,0.57246 -4.50928,0.104 -0.35563,-0.17303 -0.57031,-0.2715 -0.57031,-0.2715 -0.0849,-0.0442 -0.15122,-0.0607 -0.24642,-0.0902 -0.0383,-0.0147 -0.0821,-0.0377 -0.12321,-0.0543 -2.95796,-1.63456 -4.50182,-5.46508 -5.1076,-7.31316 0.21562,0.20524 0.45457,0.39944 0.71312,0.58719 1.54106,1.07958 3.50121,1.32163 5.84126,0.70315 5.71897,-1.46337 7.3991,-7.022327 7.49337,-9.765913 v -0.127009 c -0.0121,-0.150939 -0.97354,-13.225539 -1.16955,-17.247502 0,-0.110443 -0.0103,-0.209842 -0.0373,-0.291753 -0.43777,-1.598662 -1.17049,-2.527302 -1.91441,-3.100685 l 1.31983,-0.699472 c 1.2853,-0.650693 3.17265,-0.605595 4.7865,0.210762 m 14.86635,15.176697 c 0.24829,5.052763 1.02301,14.676945 1.02301,14.766215 0.0289,0.35342 0.3911,9.49349 -10.31133,13.03779 -1.58865,0.52828 -5.31481,-0.24298 -6.20901,-0.72341 -0.0261,-0.0156 -2.26911,-1.04184 -4.69503,-2.18032 14.18963,-4.76561 13.56518,-17.6046 13.56518,-17.719645 -0.0112,-0.152779 -0.86993,-10.557422 -1.17049,-16.295852 l 4.46075,4.122282 c 1.47944,1.238801 2.90289,2.575161 3.33692,4.99294 m -42.58569,56.714275 -0.13907,-36.29891 8.43425,3.37772 0.98194,31.96218 z m 9.81943,-35.49451 -7.53725,-3.00865 5.68724,-2.33495 c 0.47417,1.34004 1.3077,3.30685 2.61167,5.11075 z m -4.37114,41.48236 c -1.18916,0.081 -9.05123,0.59363 -12.72231,0.69303 -0.52831,0.0212 -0.92034,-0.12241 -1.2489,-0.43809 -0.925,-0.87342 -1.13035,-2.81998 -1.13035,-3.4311 l 0.21655,-41.29829 c 0,-0.16566 -0.18482,-4.284257 2.11043,-5.384084 3.24545,-1.537918 10.98991,-5.414464 12.14453,-6.003493 0.73739,-0.173027 2.25604,-0.353417 2.97663,0.0902 0.16335,0.09756 0.32483,0.250337 0.4079,0.61848 l 0.61138,3.054667 c 0.0112,0.272426 0.13815,0.995827 0.49191,1.848078 -0.31363,-0.08467 -0.66179,-0.08467 -0.95768,0.06166 l -10.57828,4.326602 c -0.10641,0.0663 -0.23149,0.13713 -0.34256,0.21628 -0.0261,0.0166 -0.0401,0.0313 -0.0653,0.0617 -0.0933,0.0838 -0.17361,0.16475 -0.25855,0.27887 v 0.008 c -0.0588,0.0755 -0.0999,0.16475 -0.15588,0.2485 -0.0103,0.0515 -0.0103,0.0837 -0.0243,0.0902 -0.0121,0.0313 -0.0121,0.0626 -0.0271,0.0975 -0.0261,0.11505 -0.0373,0.24206 -0.0373,0.36999 0,0.0166 -0.014,0.0166 -0.014,0.0166 v 0.0157 l 0.17268,40.10458 c 0,0.42337 0.18295,0.809 0.50684,1.10259 0.30896,0.26507 0.71779,0.4068 1.15463,0.37183 l 11.3138,-1.1707 c -0.4051,2.66904 -3.8699,3.84618 -4.54475,4.0505 m 44.23408,-11.91587 c -1.52238,-4.0551 -5.01612,-7.17879 -9.40499,-8.34857 0.0793,0.0239 -6.15488,-2.0662 -9.11377,-3.0519 -2.61354,-1.12468 -5.55376,-1.5775 -8.45385,-1.15505 -4.7249,0.64149 -8.50239,3.37863 -10.75003,7.60951 l -0.65525,-21.98734 1.48691,-0.48319 c 0.47511,0.3976 0.98381,0.74365 1.52052,1.06118 0.3967,0.23469 0.81766,0.40311 1.24236,0.5743 l 10.18999,4.7288 c 1.43838,0.76941 6.0158,1.68057 8.49025,0.8366 12.9482,-4.23917 12.37136,-15.88721 12.36016,-16.00133 0,-0.13622 -0.8018,-9.862555 -1.02115,-14.861017 -0.007,-0.04694 -0.007,-0.129771 -0.0215,-0.175789 -0.58618,-3.249782 -2.41192,-5.14848 -4.3058,-6.725973 0.0355,0.06903 -10.01544,-9.266161 -10.01544,-9.266161 -0.0831,-0.05338 -0.16054,-0.08927 -0.26882,-0.145416 -0.57591,-0.465701 -1.21436,-0.895508 -1.90321,-1.226837 -2.49126,-1.214872 -5.36521,-1.266412 -7.53071,-0.165664 0,0 -34.87576,18.774375 -38.078276,20.510169 -0.21935,0.12885 -3.589877,2.293532 -3.911902,6.92201 -0.617914,4.358814 -1.023945,5.482568 -2.623802,6.734258 -4.933047,1.83243 -5.09266,6.92937 -5.09266,7.17878 0,-0.0607 -1.808939,36.76093 -1.808939,36.76093 -0.0644,2.31286 1.016478,6.86034 5.663903,7.65001 0.691654,0.11505 1.184492,0.38839 1.523318,0.89091 0.837265,1.22867 0.570311,3.44674 0.39483,4.18946 -0.01213,0.10308 -0.02987,0.21261 -0.02987,0.29912 -0.014,0.67186 0,5.49454 2.46139,7.64449 0.420033,0.89183 3.911902,7.68131 9.004558,8.14885 l 4.09485,0.40219 c 5.5015,0.55774 14.72167,1.49374 18.25928,1.75144 1.16209,0.081 2.26817,0 3.31359,-0.2577 1.86121,-0.19695 7.47004,-0.83016 11.09446,-1.3566 9.30885,-1.40447 11.37354,-11.58178 11.82437,-15.21628 1.74827,-0.33316 4.86118,-1.39894 8.02916,-5.00674 0.0672,-0.0626 0.0924,-0.11505 0.12041,-0.15278 5.78058,-8.38446 5.32601,-14.5757 3.91563,-18.30867"
       style="fill:#e60013;fill-opacity:1;fill-rule:nonzero;stroke:none;stroke-width:0.926859"
       id="path3061" /></g></svg>
