<?xml version="1.0" encoding="UTF-8" standalone="no"?>
<!-- Creator: CorelDRAW -->

<svg
   xml:space="preserve"
   width="307.16226"
   height="63.7253"
   style="clip-rule:evenodd;fill-rule:evenodd;image-rendering:optimizeQuality;shape-rendering:geometricPrecision;text-rendering:geometricPrecision"
   viewBox="0 0 307.16226 63.721458"
   version="1.1"
   id="svg1"
   sodipodi:docname="logo_sunsoft.svg"
   inkscape:version="1.4.2 (2aeb623e1d, 2025-05-12)"
   xmlns:inkscape="http://www.inkscape.org/namespaces/inkscape"
   xmlns:sodipodi="http://sodipodi.sourceforge.net/DTD/sodipodi-0.dtd"
   xmlns="http://www.w3.org/2000/svg"
   xmlns:svg="http://www.w3.org/2000/svg"><sodipodi:namedview
   id="namedview1"
   pagecolor="#ffffff"
   bordercolor="#000000"
   borderopacity="0.25"
   inkscape:showpageshadow="2"
   inkscape:pageopacity="0.0"
   inkscape:pagecheckerboard="0"
   inkscape:deskcolor="#d1d1d1"
   inkscape:zoom="2.4113136"
   inkscape:cx="129.39006"
   inkscape:cy="35.872564"
   inkscape:window-width="1854"
   inkscape:window-height="1011"
   inkscape:window-x="0"
   inkscape:window-y="0"
   inkscape:window-maximized="1"
   inkscape:current-layer="Capa_x0020_1" />
 <defs
   id="defs1">
  <style
   type="text/css"
   id="style1">
   <![CDATA[
    .str0 {stroke:#014898;stroke-width:0.899998}
    .fil0 {fill:none}
    .fil1 {fill:#014898}
    .fil2 {fill:#014898;fill-rule:nonzero}
   ]]>
  </style>
 
   
   
  
    
    
    
    
    
    
    
    
    
   </defs>
 <g
   id="Capa_x0020_1"
   inkscape:label="Capa 1"
   inkscape:groupmode="layer"
   transform="translate(-30.167982,150.15178)">
  <metadata
   id="CorelCorpID_0Corel-Layer" />
  <g
   id="_48001888-7"
   class="fil1"
   style="opacity:1"
   transform="translate(-12.12694,47.13401)"><path
     style="baseline-shift:baseline;display:inline;overflow:visible;vector-effect:none;fill:#ffffff;stroke-linecap:round;stroke-linejoin:round;enable-background:accumulate;stop-color:#000000;stop-opacity:1"
     d="m 138.51367,-190.2833 v 49.28711 l 11.89258,-0.01 v -22.08398 c -0.004,-7.14099 7.64766,22.0367 15.29883,22.08789 h 11.89453 l -0.006,-49.2793 -11.89063,0.002 -0.0137,22.09179 c -0.0111,7.57582 -9.12246,-22.13695 -15.27734,-22.09375 z m -65.025389,0.002 c -20.828477,3.84213 4.59175,36.89251 -3.314453,37.35547 l -20.878906,0.0312 0.002,11.8711 29.443359,-0.0293 c 20.053229,-2.76561 -6.510946,-36.04969 3.638672,-36.51367 8.976739,0.20888 13.636719,0.0176 13.636719,0.0176 v -12.73243 z m 25.083985,0 -0.0098,39.83985 c -0.03515,6.46816 7.159384,9.85578 17.472664,9.8789 12.01745,-0.0522 18.20107,-2.47152 18.20507,-9.8164 l 0.0234,-39.90235 h -11.89453 l -0.043,33.0586 c -0.011,1.82165 -0.93762,2.59799 -2.52929,2.58593 h -5.11329 c -2.35489,0.009 -3.4025,-0.90643 -3.39648,-2.5664 l 0.0371,-33.07422 z m 106.494144,0 c -20.82848,3.84213 4.59174,36.89251 -3.31446,37.35547 l -20.8789,0.0312 0.002,11.8711 29.44531,-0.0293 c 20.05323,-2.76561 -6.5129,-36.04969 3.63672,-36.51367 8.97674,0.20888 13.63672,0.0176 13.63672,0.0176 v -12.73243 z m 88.09179,0 -13.5957,0.002 c -6.73528,-0.002 -11.04578,4.79362 -11.05078,10.19531 l 0.004,39.08594 h 12.74415 v -15.29493 l 11.89843,-0.002 v -12.74414 l -11.90039,0.002 0.002,-7.65234 11.89843,-0.004 z m 4.24805,0 -0.01,11.88672 h 8.49805 l 0.008,37.39649 h 12.7461 v -37.38868 l 8.49609,0.002 v -11.89649 z m -60.00781,0.0547 c -4.39847,0 -7.99414,2.56791 -7.99414,5.70508 v 37.80664 c 0,3.13717 3.59567,5.70508 7.99414,5.70508 h 20.56445 c 4.39848,0 7.99414,-2.56791 7.99414,-5.70508 v -37.80664 c 0,-3.13717 -3.59566,-5.70508 -7.99414,-5.70508 z m 99.89258,0.0469 a 5.1656957,5.1656957 0 0 0 -5.16602,5.16601 5.1656957,5.1656957 0 0 0 5.16602,5.16602 5.1656957,5.1656957 0 0 0 5.16601,-5.16602 5.1656957,5.1656957 0 0 0 -5.16601,-5.16601 z m -92.18555,12.89648 h 4.32226 c 2.08677,0 3.79297,1.87428 3.79297,4.16992 v 15.85156 c 0,2.29563 -1.70621,4.16993 -3.79297,4.16993 h -4.32226 c -2.08677,0 -3.79297,-1.87429 -3.79297,-4.16993 v -15.85156 c 0,-2.29563 1.70621,-4.16992 3.79297,-4.16992 z"
     id="path19" /><path
     style="baseline-shift:baseline;display:inline;overflow:visible;vector-effect:none;fill:#ffffff;stroke-linecap:round;stroke-linejoin:round;enable-background:accumulate;stop-color:#000000;stop-opacity:1"
     d="m 138.51562,-197.2832 c -0.75353,0.17464 -1.47291,0.47295 -2.1289,0.88281 -0.65432,-0.40858 -1.37167,-0.70622 -2.12305,-0.88086 h -11.89453 c -2.29331,0.16796 -4.35793,1.4514 -5.52344,3.43359 -1.16567,-1.97961 -3.2284,-3.26133 -5.51953,-3.42968 l -12.751951,-0.004 c -0.442874,0.13373 -0.871401,0.31103 -1.279297,0.5293 -0.407896,-0.21827 -0.836423,-0.39557 -1.279297,-0.5293 H 73.488281 c -0.425801,-2.8e-4 -0.850739,0.0383 -1.269531,0.11523 -7.217543,1.33139 -12.735602,7.16937 -13.808594,13.01368 -1.072991,5.8443 0.388509,11.10928 1.896485,15.91211 1.064467,3.39028 1.988678,5.8326 2.876953,8.32421 l -13.898438,0.0215 c -3.86278,0.006 -6.990928,3.13917 -6.990234,7.00195 l 0.002,11.8711 c 0.0015,3.86812 3.139694,7.00197 7.007812,6.99804 l 29.44336,-0.0293 c 0.317546,-5.8e-4 0.634685,-0.0228 0.949219,-0.0664 3.551482,-0.4898 6.917445,-1.83135 9.414062,-4.25195 2.00608,-1.945 3.047716,-4.39583 3.654297,-6.78321 1.481274,3.54219 4.193192,6.54415 7.335938,8.23438 4.6356,2.49312 9.99855,3.34415 15.91797,3.35742 0.0156,5e-5 0.0313,5e-5 0.0469,0 6.47323,-0.0281 11.84628,-0.47348 16.71484,-2.91602 0.16845,-0.0845 0.30151,-0.24154 0.4668,-0.33398 1.24799,1.67939 3.18173,2.71253 5.27148,2.81641 l 11.89258,-0.01 c 2.79242,-0.22967 5.17896,-2.10216 6.06641,-4.75976 0.57328,0.64216 1.16582,1.27724 1.87695,1.87304 1.70005,1.42435 4.12585,2.86937 7.30273,2.89063 0.0156,5e-5 0.0313,5e-5 0.0469,0 l 44.62304,-0.0508 c 0.31754,-5.8e-4 0.63468,-0.0228 0.94922,-0.0664 3.55149,-0.4898 6.91746,-1.83126 9.41407,-4.25195 1.19577,-1.15942 2.07442,-2.5176 2.74609,-3.91993 0.97337,2.20385 2.50651,4.0596 4.24805,5.30274 2.81145,2.00686 6.15141,2.97851 9.71289,2.97851 l 43.86133,0.0117 c 3.86583,-3.9e-4 6.99961,-3.13417 7,-7 v -8.29687 h 4.90039 c 2.48212,-0.20581 4.66798,-1.71487 5.74023,-3.96289 l 0.002,12.26172 c 10e-4,3.86507 3.13493,6.99765 7,6.99804 h 12.7461 c 3.86583,-3.9e-4 6.99961,-3.13417 7,-7 v -30.38672 h 1.49414 c 2.02329,-0.0795 3.91306,-1.03115 5.18164,-2.60937 1.53064,0.70491 3.19392,1.1466 4.9668,1.14648 6.63657,4.1e-4 12.16643,-5.52944 12.16601,-12.16601 4.1e-4,-6.63656 -5.52945,-12.16642 -12.16601,-12.16602 -2.12542,-1.3e-4 -4.03591,0.71603 -5.78907,1.70508 -1.19975,-1.08816 -2.73969,-1.72664 -4.35742,-1.80664 h -29.73828 c -0.75206,0.17444 -1.47008,0.47208 -2.125,0.88086 -0.65492,-0.40878 -1.37295,-0.70642 -2.125,-0.88086 l -13.5957,0.002 c -4.20397,-3.8e-4 -7.99667,1.46235 -11.04493,3.76953 -0.28348,-0.2406 -0.54649,-0.52888 -0.83984,-0.73828 -2.81145,-2.00686 -6.15141,-2.97851 -9.71289,-2.97851 h -20.56445 c -2.27264,0 -4.38973,0.54759 -6.40235,1.35547 -0.98793,-0.7653 -2.1627,-1.2522 -3.40234,-1.41016 -16.73834,-0.0676 -33.29758,0.4407 -50.00204,-3e-5 l -11.89063,0.002 c -3.04281,0.21462 -5.59639,2.37474 -6.3125,5.33985 -0.56979,-0.72344 -1.01781,-1.49382 -1.74023,-2.17774 -1.50461,-1.42441 -3.6939,-3.18927 -7.28516,-3.16406 z m -59.82812,43.40239 c 0.511526,2.27567 0.833017,4.24956 0.720703,5.05859 -0.08843,0.63701 -0.114353,0.46961 -0.04297,0.4004 0.06062,-0.0588 -0.408266,0.18113 -1.34375,0.36914 l -2.423828,0.004 c 0.248067,-0.20207 0.557249,-0.29193 0.779297,-0.52734 1.620428,-1.71793 2.158818,-3.73105 2.314453,-5.18555 0.005,-0.0472 -0.0085,-0.0726 -0.0039,-0.11914 z"
     id="path20"
     sodipodi:nodetypes="cccccccccccsscccccccscsscsccccsccccscssccccccccccccccccccccccssscccccscccssccscsc" /></g><g
   id="g1"
   transform="matrix(0.85023908,0,0,0.85023908,32.215554,-147.05801)">
    <path
   id="_48001888"
   class="fil1"
   d="M 60.5503,4.76101 H 34.0547 c -24.4972,4.51889 5.39999,43.3912 -3.89881,43.9357 l -24.5562,0.03661 0.00236,13.9618 34.631,-0.03425 c 23.5854,-3.25275 -7.65943,-42.4003 4.27794,-42.946 10.5579,0.245669 16.0393,0.02126 16.0393,0.02126 V 4.76093 Z" />
    <path
   id="_47451944"
   class="fil1"
   d="M 78.5561,4.76692 63.5573,4.76101 63.54549,51.61761 c -0.04134,7.60746 8.42124,11.5925 20.5511,11.6197 14.1342,-0.06142 21.4063,-2.906689 21.411,-11.545299 L 105.53599,4.76101 H 91.547035 l -0.05079,38.8806 c -0.01299,2.14251 -1.10433,3.056691 -2.97637,3.04251 l -6.01416,0.0012 c -2.76968,0.01063 -4.00038,-1.06653 -3.9933,-3.01889 l 0.0437,-38.8994999 z" />
    <path
   id="_48536336"
   class="fil1"
   d="m 215.305,4.76101 h -26.4956 c -24.4972,4.51889 5.39999,43.3912 -3.89881,43.9357 l -24.5562,0.03661 0.002,13.9618 34.631,-0.03425 c 23.5854,-3.25275 -7.65943,-42.4003 4.27794,-42.946 10.5579,0.245669 16.0393,0.02126 16.0393,0.02126 V 4.76093 Z" />
    <path
   id="_47587320"
   class="fil1"
   d="M 124.528,4.76101 110.5331,4.75865 v 57.968398 l 13.9889,-0.01063 v -25.9736 c -0.005,-8.3988 8.99526,25.9181 17.9941,25.9783 h 13.9889 l -0.007,-57.9589001 -13.9842,0.00118 -0.0165,25.9830001 C 142.4843,39.656618 131.767,4.7101979 124.528,4.7609979 Z" />
    <path
   id="_4167544"
   class="fil1"
   d="m 226.836,4.82597 h 24.1866 c 5.17322,0 9.40274,3.01889 9.40274,6.70865 v 44.4672 c 0,3.68976 -4.22952,6.70865 -9.40274,6.70865 H 226.836 c -5.17322,0 -9.40274,-3.01889 -9.40274,-6.70865 v -44.4672 c 0,-3.68976 4.22952,-6.70865 9.40274,-6.70865 z m 9.06494,15.2232 h 5.08463 c 2.45433,0 4.46101,2.20511 4.46101,4.90511 v 18.6425 c 0,2.69999 -2.00669,4.90511 -4.46101,4.90511 h -5.08463 c -2.45433,0 -4.46101,-2.20511 -4.46101,-4.90511 v -18.6425 c 0,-2.69999 2.00669,-4.90511 4.46101,-4.90511 z" />
    <path
   id="_48324760"
   class="fil1"
   d="m 263.429,16.7539 c 0.006,-6.35314 5.07637,-11.9929 12.998,-11.9905 l 15.9897,-0.00236 v 15.981498 l -13.9925,0.0035 -0.002,9.00116 13.9949,-0.0012 v 14.987 l -13.9925,0.0024 v 17.9905 h -14.9893 l -0.006,-45.9719 z" />
    <polygon
   id="_49004288"
   class="fil1"
   points="307.406,62.7247 322.397,62.7247 322.397,18.75 332.391,18.7535 332.391,4.76219 297.414,4.76219 297.402,18.7417 307.398,18.7417 " />
    <circle
   id="_48318880"
   class="fil0 str0"
   cx="344.32401"
   cy="10.9559"
   r="6.0755801" />
    <path
   id="_47532632"
   class="fil2"
   d="m 347.567,14.3858 h -0.98386 l -0.64606,-1.8307 c -0.11457,-0.323621 -0.3059,-0.589369 -0.57401,-0.79488 -0.26929,-0.20433 -0.57874,-0.308267 -0.92716,-0.308267 h -1.67952 v 2.93385 h -0.90945 v -6.85983 h 3.03779 c 0.53031,0 0.96377,0.050787 1.30039,0.154724 0.33661,0.101575 0.61181,0.318897 0.82441,0.649605 0.21259,0.330708 0.31771,0.702754 0.31771,1.1185 0,0.474802 -0.13701,0.870471 -0.4122,1.18819 -0.2752,0.320078 -0.64961,0.525589 -1.12795,0.62244 v 0.02008 c 0.47834,0.151181 0.84212,0.564566 1.09134,1.23897 l 0.68858,1.86732 z m -4.81062,-3.74881 h 2.0244 c 0.56575,0 0.97441,-0.0874 1.22834,-0.266929 0.2563,-0.177165 0.38268,-0.484251 0.38268,-0.921258 0,-0.779526 -0.48898,-1.16929 -1.47047,-1.16929 h -2.16496 v 2.35748 z" />
   </g>
 </g>
</svg>
