<?xml version="1.0" encoding="UTF-8" standalone="no"?>
<svg
   id="logo"
   xml:space="preserve"
   viewBox="0 0 382.382 85.000604"
   height="85.000603"
   width="382.38199"
   version="1.1"
   y="0px"
   x="0px"
   sodipodi:docname="logo_snk.svg"
   inkscape:version="1.2.2 (732a01da63, 2022-12-09)"
   xmlns:inkscape="http://www.inkscape.org/namespaces/inkscape"
   xmlns:sodipodi="http://sodipodi.sourceforge.net/DTD/sodipodi-0.dtd"
   xmlns="http://www.w3.org/2000/svg"
   xmlns:svg="http://www.w3.org/2000/svg"
   xmlns:rdf="http://www.w3.org/1999/02/22-rdf-syntax-ns#"
   xmlns:cc="http://creativecommons.org/ns#"
   xmlns:dc="http://purl.org/dc/elements/1.1/"><defs
     id="defs3711" /><sodipodi:namedview
     id="namedview3709"
     pagecolor="#ffffff"
     bordercolor="#000000"
     borderopacity="0.25"
     inkscape:showpageshadow="2"
     inkscape:pageopacity="0.0"
     inkscape:pagecheckerboard="0"
     inkscape:deskcolor="#d1d1d1"
     showgrid="false"
     inkscape:zoom="3.025"
     inkscape:cx="182.47934"
     inkscape:cy="42.644628"
     inkscape:window-width="1920"
     inkscape:window-height="1017"
     inkscape:window-x="-8"
     inkscape:window-y="-8"
     inkscape:window-maximized="1"
     inkscape:current-layer="logo" /><metadata
     id="metadata14"><rdf:RDF><cc:Work
         rdf:about=""><dc:format>image/svg+xml</dc:format><dc:type
           rdf:resource="http://purl.org/dc/dcmitype/StillImage" /><dc:title /></cc:Work></rdf:RDF></metadata><style
     id="style3"
     type="text/css">
	.st0{fill:#0097E0;}
	.st1{fill:#0096DF;}
</style><path
     id="S"
     d="m 0.238,27.143 c 0,15 10,27.143 22.381,27.143 h 62.143 c 1.4286,0 2.8571,1.4286 2.8571,3.3333 0,1.9048 -1.1905,3.3333 -2.8571,3.3333 H 0 v 24.048 h 94.762 c 12.381,0 22.381,-12.381 22.381,-27.381 0,-15 -10,-27.381 -22.381,-27.381 H 32.857 c -1.4286,0 -2.8571,-1.4286 -2.8571,-3.3333 0,-1.9048 1.1905,-3.3333 2.8571,-3.3333 h 84.048 V 0 H 22.623 C 10.242,0 0.242,12.143 0.242,27.143 Z"
     fill="#0097e0"
     class="st0" /><polygon
     id="N"
     transform="matrix(2.381,0,0,2.381,-17.14281,0)"
     class="st0"
     points="71.7,35.5 71.7,13.2 95.5,35.5 108.5,35.5 108.5,0 96,0 96,22.2 72.2,0 59.2,0 59.2,35.5 "
     fill="#0097e0" /><polygon
     id="K"
     transform="matrix(2.381,0,0,2.381,-17.14281,0)"
     class="st0"
     points="111.2,0 111.2,35.5 123.9,35.5 123.9,19.8 144.1,35.5 160.4,35.5 137.4,17.8 160.4,0 144.1,0 123.9,15.6 123.9,0 "
     fill="#0097e0" /><path
     id="mark"
     d="M 379.761,2.619 C 378.091,0.9524 375.951,0 373.571,0 c -2.38,0 -4.52,0.95238 -6.19,2.619 -1.6667,1.6667 -2.619,3.8095 -2.619,6.1905 0,2.381 0.95239,4.5238 2.619,6.1905 1.6667,1.6667 3.8095,2.619 6.1905,2.619 2.381,0 4.5238,-0.95238 6.1905,-2.619 1.67,-1.667 2.62,-3.81 2.62,-6.1905 -0.24,-2.619 -0.95,-4.5238 -2.62,-6.1905 z m -0.95238,11.429 c -1.4286,1.4286 -3.0952,2.1429 -5.2381,2.1429 -2.1429,0 -3.8095,-0.71429 -5.2381,-2.1429 -1.4286,-1.42861 -2.1428,-3.3333 -2.1428,-5.2381 0,-2.1429 0.71428,-3.8095 2.1428,-5.2381 1.4286,-1.4286 3.3333,-2.1429 5.2381,-2.1429 2.1429,0 3.8095,0.71429 5.2381,2.1429 1.4286,1.42861 2.1429,3.3333 2.1429,5.2381 0,1.9048 -0.71428,3.8095 -2.1429,5.2381 z"
     fill="#0096df"
     class="st1" /><path
     id="R"
     d="M 377.621,7.381 V 7.1429 c 0,-1.4286 -1.1905,-2.619 -2.619,-2.619 h -5 v 8.8095 h 1.4286 v -3.3333 h 3.0952 c 0.71429,0 1.1905,0.47619 1.1905,0.95238 l 0.23809,2.1429 h 1.4286 l -0.23809,-2.1429 c 0,-0.71429 -0.47619,-1.1905 -0.71429,-1.6667 0.71429,-0.2381 1.1905,-0.95238 1.1905,-1.9048 z m -6.1905,-1.4286 h 3.5714 c 0.71429,0 1.1905,0.47619 1.1905,1.1905 v 0.47619 c 0,0.71428 -0.47619,1.1905 -1.1905,1.1905 h -3.5714 v -2.8571 z"
     fill="#0096df"
     class="st1" /></svg>
