<?xml version="1.0" encoding="UTF-8" standalone="no"?>
<!-- Created with Inkscape (http://www.inkscape.org/) -->

<svg
   width="216.95903mm"
   height="64.000092mm"
   viewBox="0 0 216.95903 64.000092"
   version="1.1"
   id="svg5"
   xml:space="preserve"
   sodipodi:docname="logo_nintendo.svg"
   inkscape:version="1.4.2 (2aeb623e1d, 2025-05-12)"
   xmlns:inkscape="http://www.inkscape.org/namespaces/inkscape"
   xmlns:sodipodi="http://sodipodi.sourceforge.net/DTD/sodipodi-0.dtd"
   xmlns="http://www.w3.org/2000/svg"
   xmlns:svg="http://www.w3.org/2000/svg"><sodipodi:namedview
     id="namedview1"
     pagecolor="#ffffff"
     bordercolor="#000000"
     borderopacity="0.25"
     inkscape:showpageshadow="2"
     inkscape:pageopacity="0.0"
     inkscape:pagecheckerboard="0"
     inkscape:deskcolor="#d1d1d1"
     inkscape:document-units="mm"
     inkscape:zoom="0.83830828"
     inkscape:cx="307.76268"
     inkscape:cy="133.00596"
     inkscape:window-width="1854"
     inkscape:window-height="1011"
     inkscape:window-x="0"
     inkscape:window-y="0"
     inkscape:window-maximized="1"
     inkscape:current-layer="svg5" /><defs
     id="defs2" /><g
     id="path29-9"
     style="opacity:1"
     transform="translate(23.771484,161.78915)"><path
       style="baseline-shift:baseline;display:inline;overflow:visible;vector-effect:none;fill:#ffffff;stroke-linecap:round;stroke-linejoin:round;enable-background:accumulate;stop-color:#000000;stop-opacity:1"
       d="m 9.7740832,-104.7891 c -15.912863,-0.006 -26.5456942,-11.28239 -26.5456942,-24.95549 v 0 c 0,-13.6731 10.6570882,-25.07946 26.5214342,-25.04443 H 159.66601 c 15.86435,-0.0351 26.52144,11.37133 26.52144,25.04443 v 0 c 0,13.6731 -10.63284,24.95009 -26.5457,24.95549 z m 0.04851,-43.84932 c -12.597682,0.0243 -20.3304062,8.44428 -20.3304062,18.86149 v 0 c 0,10.41451 7.6842092,18.90461 20.3304042,18.85878 H 159.59324 c 12.6462,0.0431 20.33309,-8.44427 20.33309,-18.85878 v 0 c 0,-10.41452 -7.73272,-18.83454 -20.3304,-18.85879 z m 157.8268068,8.79197 c 1.14548,0 1.71419,0.38811 1.71419,1.15627 0,0.52827 -0.32883,0.92717 -0.87597,1.06463 l 0.89753,1.79235 h -1.0862 l -0.76815,-1.64411 h -0.47706 v 1.64411 h -0.97839 v -4.01325 z m -0.089,-1.56865 c -1.99988,0 -3.62244,1.62255 -3.62244,3.62244 0,1.99989 1.62256,3.62245 3.62244,3.62245 1.99989,0 3.62245,-1.62256 3.62245,-3.62245 0,-1.99989 -1.62256,-3.62244 -3.62245,-3.62244 z m 2.92976,3.62514 c 0,1.61716 -1.31259,2.92975 -2.92976,2.92975 -1.61716,0 -2.92975,-1.31259 -2.92975,-2.92975 0,-1.61717 1.31259,-2.92976 2.92975,-2.92976 1.61717,0 2.92976,1.3099 2.92976,2.92976 z m -3.43647,-0.27493 h 0.47706 c 0.55793,0 0.82746,-0.16979 0.82746,-0.56869 0,-0.41777 -0.2884,-0.59835 -0.87597,-0.59835 h -0.42855 z m -81.871433,9.80808 c -0.0105,-1.37189 0.0189,-2.28828 0.46897,-3.0699 0.55253,-0.9649 1.56865,-1.4231 2.49042,-1.42849 h -0.003 c 0.92178,0.006 1.93791,0.46359 2.49043,1.42849 0.45012,0.78432 0.46898,1.70071 0.45821,3.0726 z m 5.88107,4.71941 c 0,0 0.006,0.0701 0.006,0.94875 0,2.86237 -1.884,3.49845 -2.92975,3.49845 -1.04578,0 -2.96211,-0.63608 -2.96211,-3.49845 0,-0.8571 0.006,-3.23163 0.006,-3.23163 0,0 13.33349,0.006 13.33349,-0.003 0,-4.85418 -4.68707,-8.87551 -10.44417,-8.87551 -5.7571,0 -10.4226,3.93508 -10.4226,8.78926 0,4.85417 4.6655,8.78657 10.4226,8.78657 4.77602,0 8.81084,-2.7249 10.04258,-6.42012 z m 22.271003,-10.89965 c 2.64673,-0.0755 8.01572,1.65759 7.97798,7.85401 -0.006,1.09966 -0.003,8.51704 -0.003,8.51704 h -7.03196 c 0,0 0,-9.30136 0,-10.27974 0,-1.36382 -1.30449,-2.88125 -3.23431,-2.88125 -1.92712,0 -3.361,1.51743 -3.361,2.88125 0,0.66843 0.007,10.27974 0.007,10.27974 h -7.02656 l 0.006,-15.65142 7.02385,-0.006 c 0,0 -0.007,1.25868 0,1.64681 1.35303,-1.29103 3.30441,-2.29367 5.64121,-2.36106 z m -57.522423,0 c 2.64675,-0.0755 8.01573,1.65759 7.97799,7.85401 -0.005,1.09966 -0.003,8.51704 -0.003,8.51704 h -7.03196 c 0,0 0,-9.30136 0,-10.27974 0,-1.36382 -1.3045,-2.88125 -3.234314,-2.88125 -1.927116,0 -3.360998,1.51743 -3.360998,2.88125 0,0.66843 0.0081,10.27974 0.0081,10.27974 h -7.026561 l -0.0028,-15.65142 7.031951,-0.006 c 0,0 -0.0081,1.25868 0,1.64681 1.353028,-1.29103 3.301704,-2.29367 5.641192,-2.36106 z m 80.755613,-7.16133 h 6.98613 v 23.53778 h -6.99692 c 0,0 -0.003,-0.76007 -0.003,-0.90562 -2.70874,1.70072 -5.76517,1.69803 -8.14509,0.58757 -0.63879,-0.29648 -4.84071,-2.31253 -4.84071,-7.75967 0,-4.13184 3.89737,-8.64372 8.9995,-8.19631 1.67914,0.14817 2.87315,0.76006 4.00516,1.39615 -0.006,-3.62245 -0.006,-8.6599 -0.006,-8.6599 z m 0.0512,15.63256 c 0,0 0,-1.96216 0,-2.79769 0,-2.42036 -1.67107,-3.03757 -2.77074,-3.03757 -1.12661,0 -2.77612,0.61721 -2.77612,3.03757 0,0.80318 0.003,2.7896 0.003,2.7896 0,0 -0.003,1.95137 -0.003,2.78421 0,2.41766 1.64951,3.05105 2.77343,3.05105 1.10236,0 2.77613,-0.63339 2.77613,-3.05105 0,-1.00533 -0.003,-2.77612 -0.003,-2.77612 z m 22.42733,-0.0458 c 0,0 -0.003,2.36644 -0.003,3.31517 0,2.49582 -1.47431,3.52541 -2.89202,3.52541 -1.4204,0 -2.9001,-1.02959 -2.9001,-3.52541 0,-0.94873 0.003,-3.37447 0.003,-3.37447 0,0 0.006,-2.31523 0.006,-3.26396 0,-2.48504 1.4824,-3.50655 2.89201,-3.50655 1.41233,0 2.89203,1.02151 2.89203,3.50655 0,0.94873 -0.003,2.70334 0.006,3.33134 z m -2.84352,-8.77041 c -5.71396,0 -10.34443,3.9351 -10.34443,8.78927 0,4.85418 4.63316,8.78927 10.34443,8.78927 5.71397,0 10.34444,-3.93509 10.34444,-8.78927 0,-4.85417 -4.63047,-8.78927 -10.34444,-8.78927 z m -124.055029,-2.01068 v -4.81104 h 7.093943 v 4.81104 z m 0.01617,18.73212 v -15.65413 l 7.077774,0.003 v 15.65143 z m 35.510156,0 0.003,-15.62178 h -3.84884 v -2.32332 l 3.85153,-0.003 -0.005,-3.16962 h 7.08317 v 3.16692 h 3.83267 v 2.32872 h -3.83262 l 0.005,15.62177 z m -64.3144808,0 0.0027,-23.53778 h 7.3338228 l 10.144987,16.41418 -0.0054,-16.41418 h 7.277224 v 23.53778 H 20.846241 L 10.64735,-134.47475 v 16.41419 z"
       id="path1" /><path
       style="baseline-shift:baseline;display:inline;overflow:visible;vector-effect:none;fill:#ffffff;stroke-linecap:round;stroke-linejoin:round;enable-background:accumulate;stop-color:#000000;stop-opacity:1"
       d="m 9.765625,-161.78906 c -19.2265461,-0.0425 -33.537109,14.73453 -33.537109,32.04492 0,17.30211 14.3243248,31.947831 33.5429684,31.955078 h 0.00195 149.8691456 0.002 c 19.21894,-0.0065 33.54297,-14.652958 33.54297,-31.955078 0,-17.31039 -14.31053,-32.08746 -33.53711,-32.04492 z"
       id="path2"
       sodipodi:nodetypes="cssccsscc" /></g><path
     d="M 33.54568,57.000044 C 17.632817,56.994044 6.999986,45.717658 6.999986,32.044559 v 0 c 0,-13.673101 10.657088,-25.0794614 26.521434,-25.0444314 h 149.91619 c 15.86435,-0.0351 26.52144,11.3713304 26.52144,25.0444314 v 0 c 0,13.673099 -10.63284,24.950091 -26.5457,24.955485 z m 0.04851,-43.849316 c -12.597682,0.0243 -20.330406,8.44428 -20.330406,18.861485 v 0 c 0,10.414511 7.684209,18.904618 20.330404,18.858787 H 183.36484 c 12.6462,0.04315 20.33309,-8.444276 20.33309,-18.858787 v 0 c 0,-10.414515 -7.73272,-18.834535 -20.3304,-18.858785 z m 157.82681,8.79197 c 1.14548,0 1.71419,0.38811 1.71419,1.15627 0,0.52827 -0.32883,0.92717 -0.87597,1.06463 l 0.89753,1.792354 h -1.0862 l -0.76815,-1.644114 h -0.47706 v 1.644114 h -0.97839 v -4.013254 z m -0.089,-1.56865 c -1.99988,0 -3.62244,1.62255 -3.62244,3.62244 0,1.999886 1.62256,3.622445 3.62244,3.622445 1.99989,0 3.62245,-1.622559 3.62245,-3.622445 0,-1.99989 -1.62256,-3.62244 -3.62245,-3.62244 z m 2.92976,3.62514 c 0,1.617162 -1.31259,2.929754 -2.92976,2.929754 -1.61716,0 -2.92975,-1.312592 -2.92975,-2.929754 0,-1.61717 1.31259,-2.92976 2.92975,-2.92976 1.61717,0 2.92976,1.3099 2.92976,2.92976 z m -3.43647,-0.27493 h 0.47706 c 0.55793,0 0.82746,-0.16979 0.82746,-0.56869 0,-0.41777 -0.2884,-0.59835 -0.87597,-0.59835 h -0.42855 z m -81.87144,9.80808 c -0.0105,-1.371891 0.0189,-2.288279 0.46897,-3.069901 0.55253,-0.964899 1.56865,-1.4231 2.49042,-1.428494 h -0.003 c 0.92178,0.006 1.93791,0.463595 2.49043,1.428494 0.45012,0.784319 0.46898,1.700706 0.45821,3.072598 z m 5.88107,4.719413 c 0,0 0.006,0.07012 0.006,0.948748 0,2.862367 -1.884,3.498452 -2.92975,3.498452 -1.04578,0 -2.96211,-0.636085 -2.96211,-3.498452 0,-0.857102 0.006,-3.231633 0.006,-3.231633 0,0 13.33349,0.006 13.33349,-0.003 0,-4.854177 -4.68707,-8.875509 -10.44417,-8.875509 -5.7571,0 -10.4226,3.935079 -10.4226,8.789257 0,4.854177 4.6655,8.786574 10.4226,8.786574 4.77602,0 8.81084,-2.724905 10.04258,-6.420119 z m 22.271,-10.899651 c 2.64674,-0.07551 8.01573,1.657587 7.97799,7.854006 -0.006,1.099665 -0.003,8.517044 -0.003,8.517044 h -7.03196 c 0,0 0,-9.301363 0,-10.279746 0,-1.363816 -1.3045,-2.881245 -3.23432,-2.881245 -1.92712,0 -3.361,1.517429 -3.361,2.881245 0,0.668431 0.007,10.279746 0.007,10.279746 h -7.02656 l 0.006,-15.651425 7.02385,-0.006 c 0,0 -0.007,1.258685 0,1.646815 1.35303,-1.291033 3.30441,-2.293673 5.64121,-2.361063 z m -57.522421,0 c 2.646754,-0.07551 8.015731,1.657587 7.977997,7.854006 -0.0054,1.099665 -0.0028,8.517044 -0.0028,8.517044 h -7.031958 c 0,0 0,-9.301363 0,-10.279746 0,-1.363816 -1.304507,-2.881245 -3.234318,-2.881245 -1.927116,0 -3.360998,1.517429 -3.360998,2.881245 0,0.668431 0.0081,10.279746 0.0081,10.279746 h -7.026561 l -0.0028,-15.651425 7.031951,-0.006 c 0,0 -0.0081,1.258685 0,1.646815 1.353028,-1.291033 3.301704,-2.293673 5.641197,-2.361063 z m 80.755621,-7.161332 h 6.98613 v 23.537776 h -6.99692 c 0,0 -0.003,-0.760063 -0.003,-0.905615 -2.70874,1.700721 -5.76517,1.698024 -8.14509,0.587573 -0.63879,-0.296484 -4.84071,-2.312535 -4.84071,-7.759679 0,-4.13184 3.89737,-8.643719 8.9995,-8.196305 1.67914,0.148174 2.87315,0.760063 4.00516,1.396148 -0.006,-3.622445 -0.006,-8.659898 -0.006,-8.659898 z m 0.0512,15.63256 c 0,0 0,-1.96216 0,-2.797688 0,-2.420362 -1.67107,-3.03757 -2.77074,-3.03757 -1.12661,0 -2.77612,0.617208 -2.77612,3.03757 0,0.803181 0.003,2.789598 0.003,2.789598 0,0 -0.003,1.951373 -0.003,2.784205 0,2.417665 1.64951,3.051053 2.77343,3.051053 1.10236,0 2.77613,-0.633388 2.77613,-3.051053 0,-1.005322 -0.003,-2.776115 -0.003,-2.776115 z m 22.42733,-0.04584 c 0,0 -0.003,2.366441 -0.003,3.315174 0,2.495812 -1.47431,3.525405 -2.89202,3.525405 -1.4204,0 -2.9001,-1.029593 -2.9001,-3.525405 0,-0.948733 0.003,-3.374474 0.003,-3.374474 0,0 0.006,-2.315231 0.006,-3.263965 0,-2.48504 1.4824,-3.506542 2.89201,-3.506542 1.41233,0 2.89203,1.021502 2.89203,3.506542 0,0.948734 -0.003,2.703346 0.006,3.33134 z m -2.84352,-8.770409 c -5.71396,0 -10.34443,3.935094 -10.34443,8.789271 0,4.854178 4.63316,8.789271 10.34443,8.789271 5.71397,0 10.34444,-3.935093 10.34444,-8.789271 0,-4.854177 -4.63047,-8.789271 -10.34444,-8.789271 z M 55.919098,24.996401 v -4.811043 h 7.093943 v 4.811043 z m 0.01617,18.732113 V 28.074392 l 7.077774,0.003 v 15.651425 z m 35.510154,0 0.0028,-15.621775 h -3.848841 v -2.323322 l 3.851536,-0.003 -0.0054,-3.169619 h 7.083164 v 3.166923 h 3.832669 v 2.328715 h -3.83262 l 0.0054,15.621775 z m -64.314479,0 0.0027,-23.537776 h 7.333823 l 10.144987,16.414183 -0.0054,-16.414183 h 7.277224 V 43.728514 H 44.617838 L 34.418947,27.314359 v 16.414185 z"
     style="fill:#e60012;fill-opacity:1;stroke-width:0.396404"
     id="path29" /><style
     type="text/css"
     id="style7">.logo{fill:#939598}</style></svg>
