<?xml version="1.0" encoding="UTF-8" standalone="no"?>
<!-- Generator: Adobe Illustrator 22.0.0, SVG Export Plug-In . SVG Version: 6.00 Build 0)  -->

<svg
   version="1.1"
   id="Layer_1"
   x="0px"
   y="0px"
   viewBox="0 0 210.19155 64.032919"
   xml:space="preserve"
   sodipodi:docname="logo_midway.svg"
   width="210.19154"
   height="64.032921"
   inkscape:version="1.4.2 (2aeb623e1d, 2025-05-12)"
   xmlns:inkscape="http://www.inkscape.org/namespaces/inkscape"
   xmlns:sodipodi="http://sodipodi.sourceforge.net/DTD/sodipodi-0.dtd"
   xmlns="http://www.w3.org/2000/svg"
   xmlns:svg="http://www.w3.org/2000/svg"><defs
   id="defs9" /><sodipodi:namedview
   id="namedview9"
   pagecolor="#ffffff"
   bordercolor="#000000"
   borderopacity="0.25"
   inkscape:showpageshadow="2"
   inkscape:pageopacity="0.0"
   inkscape:pagecheckerboard="0"
   inkscape:deskcolor="#d1d1d1"
   inkscape:zoom="5.440287"
   inkscape:cx="118.00848"
   inkscape:cy="37.222301"
   inkscape:window-width="1854"
   inkscape:window-height="1011"
   inkscape:window-x="0"
   inkscape:window-y="0"
   inkscape:window-maximized="1"
   inkscape:current-layer="Layer_1" />
<style
   type="text/css"
   id="style1">
	.st0{fill:#D73648;}
</style>








<g
   id="path1-7"
   style="opacity:1;fill:#ffffff"
   transform="translate(-142.93441,173.1683)"><path
     style="baseline-shift:baseline;display:inline;overflow:visible;vector-effect:none;fill:#ffffff;stroke-linecap:round;stroke-linejoin:round;enable-background:accumulate;stop-color:#000000;stop-opacity:1"
     d="m 205.2168,-166.16992 -9.41016,11.125 c -2.37467,-0.30783 -4.08905,-0.43842 -6.68359,-0.48242 -18.51364,-0.43976 -35.88568,6.41876 -38.83203,15.25781 -2.06684,6.15655 3.29939,11.21398 11.03906,13.89648 l 12.26953,-12.92773 -6.24609,23.13086 24.1875,-28.62891 -6.11329,21.10938 c 12.22515,-0.65963 28.75967,-6.24494 31.75,-15.08399 2.28672,-6.68425 -4.61748,-12.57726 -15.61132,-15.25976 z m -16.88672,11.87304 c 2.37467,0.088 4.22122,0.21953 6.33203,0.52735 l -15.43359,18.20508 4.2207,-16.88477 -20.88867,19.34766 c -4.70536,-1.84697 -6.9912,-4.57228 -5.58399,-8.83789 2.37467,-7.16799 16.44587,-12.70922 31.35352,-12.35743 z m 12.70898,2.33008 c 7.47582,2.55057 11.43361,6.72812 9.98242,11.60938 -1.31926,4.48549 -8.70689,7.60847 -16.05078,8.92773 z m 22.86719,0.61524 -7.21094,23.52734 h 6.28711 l 4.83789,-16.22656 h 0.0449 l -0.96875,16.22656 h 5.05664 l 9.06055,-16.22656 h 0.043 l -5.18945,16.22656 h 6.33398 l 7.25586,-23.52734 h -9.67578 l -7.43164,12.66601 h -0.043 l 1.09961,-12.66601 z m 27.92383,0 -7.21094,23.52734 h 6.81641 l 7.21093,-23.52734 z m 9.32422,0 -7.21289,23.52734 h 10.95117 c 7.69569,0 12.88392,-5.32083 14.11523,-13.14844 1.23131,-7.69569 -3.60661,-10.3789 -7.65234,-10.3789 z m 20.22851,0 -0.96875,23.52734 h 6.55274 l 6.15625,-12.18164 h 0.0449 l -1.36328,12.18164 h 6.55273 l 13.23633,-23.52734 h -6.94922 l -6.72656,13.67773 h -0.0449 l 1.49609,-13.67773 h -5.9375 l -6.81641,13.67773 h -0.043 l 1.49414,-13.67773 z m 33.28907,0 -13.54493,23.52734 h 6.94922 l 1.80274,-3.3418 h 7.21093 l 0.26368,3.3418 h 6.68554 l -2.68359,-23.52734 z m 9.10351,0 3.51758,14.9082 -2.375,8.61914 h 6.81641 l 2.375,-8.70703 12.0039,-14.82031 h -8.00195 l -6.11328,8.75195 -1.40625,-8.75195 z m -57.60937,6.02539 h 2.50781 c 2.28672,0 3.91336,0.88041 3.51758,4.39844 -0.21988,2.15479 -1.80263,7.08007 -6.24414,7.08007 h -3.29883 z m 50.04492,2.0664 h 0.0449 l 0.52734,7.03711 h -4.26562 z m 18.64648,12.66602 c -0.65963,0 -1.23242,0.52687 -1.23242,1.23047 0,0.70361 0.57279,1.23242 1.23242,1.23242 0.65963,0 1.23047,-0.52881 1.23047,-1.23242 0,-0.7036 -0.57084,-1.23047 -1.23047,-1.23047 z m 0,0.26367 c 0.5277,0 0.9668,0.44004 0.9668,1.01172 0,0.57168 -0.39512,1.01172 -0.9668,1.01172 -0.5277,0 -0.96772,-0.44004 -1.01172,-1.01172 0,-0.57168 0.44004,-1.01172 1.01172,-1.01172 z m -0.4414,0.26367 v 1.40625 h 0.2207 v -0.61523 h 0.26367 l 0.35156,0.61523 h 0.22071 l -0.39649,-0.61523 c 0.1759,-0.044 0.35156,-0.13068 0.35156,-0.39453 0,-0.26386 -0.13062,-0.39649 -0.48242,-0.39649 z m 0.17578,0.21875 h 0.30859 c 0.13192,0 0.30859,0.0448 0.30859,0.22071 0,0.21988 -0.17566,0.2207 -0.35156,0.2207 h -0.26562 z m -138.6543,5.58594 c -0.65963,0 -1.23047,0.52686 -1.23047,1.23047 0,0.7036 0.57084,1.18842 1.23047,1.23242 0.65963,0 1.23242,-0.52882 1.23242,-1.23242 0,-0.70361 -0.57279,-1.23047 -1.23242,-1.23047 z m 0,0.2207 c 0.5277,0 0.96875,0.43809 0.96875,1.00977 0,0.57168 -0.39707,1.01172 -0.96875,1.01172 -0.57168,0 -0.96577,-0.44004 -1.00977,-1.01172 0,-0.57168 0.43809,-1.00977 1.00977,-1.00977 z m -0.48242,0.30664 v 1.40821 h 0.21875 v -0.61719 h 0.26367 l 0.35352,0.61719 h 0.21875 l -0.39649,-0.61719 c 0.1759,-0.044 0.35352,-0.13068 0.35352,-0.39453 0,-0.26385 -0.13258,-0.39649 -0.48438,-0.39649 z m 0.21875,0.17579 h 0.30859 c 0.13192,0 0.3086,0.0448 0.3086,0.2207 0,0.21988 -0.17762,0.21875 -0.35352,0.21875 h -0.26367 z"
     id="path308" /><path
     style="baseline-shift:baseline;display:inline;overflow:visible;vector-effect:none;fill:#ffffff;stroke-linecap:round;stroke-linejoin:round;enable-background:accumulate;stop-color:#000000;stop-opacity:1"
     d="m 205.50977,-173.16211 c -2.15957,-0.0908 -4.23998,0.82112 -5.63672,2.4707 l -7.1211,8.41993 c -1.12854,-0.0782 -2.19761,-0.23167 -3.49804,-0.25391 -10.15962,-0.23681 -19.90052,1.46641 -27.94727,4.63281 -8.05466,3.16951 -15.04658,7.58921 -17.6543,15.40625 -1.79282,5.35631 -0.0412,11.31852 3.1875,15.04883 3.23103,3.73298 7.51428,6.05465 12.19727,7.67773 0.66182,0.12851 1.33873,0.16074 2.00976,0.0957 l -0.45117,1.66992 c -1.94725,7.22499 7.2742,12.05591 12.10547,6.3418 l 7.10352,-8.40821 c 1.27388,2.09332 3.54955,3.3682 6,3.36133 1.40972,-0.0761 2.92046,-0.43976 4.3789,-0.62109 0.45,0.44609 0.75286,1.19696 1.85845,1.70363 1.10559,0.50667 2.08995,0.58923 3.42866,0.80223 0.15538,0.0104 0.31107,0.0156 0.4668,0.0156 3.44566,0 6.47042,-2.31318 7.65234,-5.4668 1.3243,-0.45953 2.65293,-0.9155 3.93164,-1.46289 1.27699,-0.54664 2.51753,-1.18679 3.75586,-1.82617 1.2973,1.6861 3.29092,2.69082 5.41797,2.73047 h 48.19727 c 3.76025,0 7.19747,-1.09229 10.19922,-2.87109 1.24794,1.71343 3.205,2.76917 5.32226,2.87109 h 27.66211 c 1.66053,-0.30225 3.15596,-1.19424 4.21094,-2.51172 1.26049,1.51241 3.09955,2.42414 5.06641,2.51172 h 14.38085 c 0.60691,-0.1191 1.19537,-0.3181 1.75,-0.5918 0.46288,0.0851 0.89235,0.28516 1.37305,0.28516 4.40079,0 8.23047,-3.74274 8.23047,-8.23242 0,-1.84712 -0.76075,-3.48585 -1.83203,-4.87109 l 10.29687,-12.71094 c 3.70585,-4.57657 0.44938,-11.40522 -5.43945,-11.40625 h -8.00195 c -1.15809,0.26809 -2.22883,0.82665 -3.11133,1.62304 -1.23862,-1.03257 -2.79573,-1.60587 -4.4082,-1.62304 h -49.20899 c -1.29635,0.1366 -2.52881,0.63243 -3.55859,1.43164 -2.15202,-0.97531 -4.39288,-1.43164 -6.46875,-1.43164 h -31.57422 c -1.03297,0.30836 -1.98077,0.85111 -2.76953,1.58594 -1.02527,-0.86282 -2.27663,-1.41325 -3.60547,-1.58594 h -9.5 c -2.70258,0.0958 -5.10827,1.73968 -6.17969,4.22265 -2.20505,-1.78778 -4.71825,-3.23527 -7.50195,-4.39257 l 1.69531,-5.63282 c 1.31364,-4.3748 -1.84643,-8.81546 -6.41015,-9.00781 z m 125.23437,50.7207 c 0.0845,0.0515 0.15781,0.11754 0.24414,0.16602 h -0.15039 z"
     id="path309"
     sodipodi:nodetypes="scccscsccccccczsccsccscccccccssccccccccscccccccsscccc" /></g><g
   id="g309"
   transform="translate(-139.64415,82.904318)"><path
     d="m 220.65981,-61.086283 h 9.49868 l -1.09938,12.664906 h 0.044 l 7.43184,-12.664906 h 9.67458 l -7.25594,23.526824 h -6.33245 l 5.1891,-16.226912 h -0.044 l -9.05893,16.226912 h -5.05717 l 0.96746,-16.226912 h -0.044 l -4.83729,16.226912 h -6.28848 z"
     id="path1"
     style="stroke-width:0.439754" /><path
     d="m 248.58417,-61.086283 h 6.81619 l -7.21197,23.526824 h -6.81618 z"
     id="path2"
     style="stroke-width:0.439754" /><path
     d="m 257.90695,-61.086283 h 10.20229 c 4.04573,0 8.88302,2.682498 7.65171,10.378188 -1.23131,7.827615 -6.4204,13.148636 -14.11609,13.148636 h -10.94987 z m 1.49516,17.502197 h 3.29816 c 4.44151,0 6.02462,-4.925242 6.2445,-7.080033 0.39578,-3.51803 -1.23131,-4.397538 -3.51803,-4.397538 h -2.5066 z"
     id="path3"
     style="stroke-width:0.439754" /><path
     d="m 295.11012,-37.559459 h -6.55233 l 1.36323,-12.181179 h -0.044 l -6.15655,12.181179 h -6.55233 l 0.96745,-23.526824 h 6.68426 l -1.49516,13.67634 h 0.044 l 6.81619,-13.67634 h 5.93667 l -1.49516,13.67634 h 0.044 l 6.72824,-13.67634 h 6.94811 z"
     id="path4"
     style="stroke-width:0.439754" /><path
     d="m 311.42498,-61.086283 h 6.68426 l 2.6825,23.526824 h -6.68426 l -0.26385,-3.342129 h -7.21196 l -1.80299,3.342129 h -6.94811 z m -2.15479,15.127527 h 4.26561 l -0.5277,-7.036058 h -0.044 z"
     id="path5"
     style="stroke-width:0.439754" /><path
     d="m 324.04592,-46.178633 -3.51803,-14.90765 h 6.81618 l 1.40721,8.7511 6.11258,-8.7511 h 8.00352 l -12.00528,14.8197 -2.37467,8.707124 h -6.81618 z"
     id="path6"
     style="stroke-width:0.439754" /><path
     d="m 330.37837,-39.098597 c 0,-0.703606 0.57168,-1.231311 1.23131,-1.231311 0.65963,0 1.23131,0.527705 1.23131,1.231311 0,0.703606 -0.57168,1.23131 -1.23131,1.23131 -0.65963,0 -1.23131,-0.527704 -1.23131,-1.23131 z m 1.23131,1.055409 c 0.57168,0 0.96746,-0.439754 0.96746,-1.011434 0,-0.57168 -0.43976,-1.011434 -0.96746,-1.011434 -0.57168,0 -1.01143,0.439754 -1.01143,1.011434 0.044,0.57168 0.48373,1.011434 1.01143,1.011434 z m -0.21988,-0.351803 h -0.21987 v -1.407212 h 0.5277 c 0.3518,0 0.48373,0.131926 0.48373,0.395778 0,0.263852 -0.1759,0.351803 -0.3518,0.395778 l 0.39578,0.615656 h -0.21988 l -0.3518,-0.615656 h -0.26386 z m 0.21988,-0.747582 c 0.1759,0 0.3518,0 0.3518,-0.219877 0,-0.175901 -0.1759,-0.219876 -0.30782,-0.219876 h -0.30783 v 0.439753 z"
     id="path7"
     style="stroke-width:0.439754" /><path
     class="st0"
     d="m 158.08285,-36.108272 c -7.73967,-2.682498 -13.10466,-7.739666 -11.03782,-13.896217 2.94635,-8.83905 20.31662,-15.699208 38.83026,-15.259455 2.59454,0.04398 4.30958,0.175902 6.68425,0.483729 l 9.41073,-11.125769 -3.64995,12.137203 c 10.99384,2.682498 17.89798,8.575198 15.61126,15.259453 -2.99033,8.839051 -19.52507,14.423923 -31.75022,15.083554 l 6.11257,-21.108178 -24.18645,28.627967 6.2445,-23.131047 z m 49.69217,-13.984167 c 1.45119,-4.881267 -2.50659,-9.058928 -9.98241,-11.609499 l -6.0686,20.536498 c 7.34389,-1.319261 14.73175,-4.441513 16.05101,-8.926999 z m -16.35884,-13.41249 c -2.11081,-0.307827 -3.95778,-0.439753 -6.33245,-0.527704 -14.90765,-0.351803 -28.97977,5.189094 -31.35444,12.35708 -1.40721,4.26561 0.87951,6.992083 5.58487,8.839049 l 20.8883,-19.349163 -4.22163,16.886542 15.43535,-18.205804"
     id="path8"
     style="stroke-width:0.439754" /><path
     class="st0"
     d="m 191.46016,-32.766143 c 0,-0.703606 0.57168,-1.231311 1.23131,-1.231311 0.65963,0 1.23131,0.527705 1.23131,1.231311 0,0.703606 -0.57168,1.23131 -1.23131,1.23131 -0.65963,-0.04397 -1.23131,-0.527704 -1.23131,-1.23131 z m 1.23131,1.011433 c 0.57168,0 0.96746,-0.439753 0.96746,-1.011433 0,-0.57168 -0.43976,-1.011434 -0.96746,-1.011434 -0.57168,0 -1.01143,0.439754 -1.01143,1.011434 0.044,0.57168 0.43975,1.011433 1.01143,1.011433 z m -0.26385,-0.307827 h -0.21988 v -1.407212 h 0.52771 c 0.3518,0 0.48372,0.131926 0.48372,0.395778 0,0.263852 -0.1759,0.351803 -0.3518,0.395778 l 0.39578,0.615656 h -0.21988 l -0.3518,-0.615656 h -0.26385 z m 0.26385,-0.791557 c 0.1759,0 0.3518,0 0.3518,-0.219877 0,-0.175901 -0.1759,-0.219877 -0.30782,-0.219877 h -0.30783 v 0.439754 z"
     id="path9"
     style="stroke-width:0.439754" /></g>
</svg>
