<?xml version="1.0" encoding="UTF-8" standalone="no"?>
<!-- Created with Inkscape (http://www.inkscape.org/) -->

<svg
   version="1.1"
   width="295.04898"
   height="64"
   id="svg2"
   sodipodi:docname="logo_capcom.svg"
   inkscape:version="1.4.2 (2aeb623e1d, 2025-05-12)"
   xmlns:inkscape="http://www.inkscape.org/namespaces/inkscape"
   xmlns:sodipodi="http://sodipodi.sourceforge.net/DTD/sodipodi-0.dtd"
   xmlns="http://www.w3.org/2000/svg"
   xmlns:svg="http://www.w3.org/2000/svg">
  <sodipodi:namedview
     id="namedview3065"
     pagecolor="#ffffff"
     bordercolor="#000000"
     borderopacity="0.25"
     inkscape:showpageshadow="2"
     inkscape:pageopacity="0.0"
     inkscape:pagecheckerboard="0"
     inkscape:deskcolor="#d1d1d1"
     showgrid="false"
     inkscape:zoom="3.4620886"
     inkscape:cx="140.66653"
     inkscape:cy="42.604341"
     inkscape:window-width="1854"
     inkscape:window-height="1011"
     inkscape:window-x="0"
     inkscape:window-y="0"
     inkscape:window-maximized="1"
     inkscape:current-layer="svg2" />
  <defs
     id="defs4" />
  <g
     transform="matrix(0.0506009,0,0,0.0506009,129.75778,4.4105151)"
     id="layer1-0"
     style="fill:#ffffff;stroke:#ffffff;stroke-width:276.675;stroke-linecap:round;stroke-linejoin:round;stroke-dasharray:none">
    <g
       id="path3840-9"
       style="opacity:1;fill:#ffffff">
      <path
         style="baseline-shift:baseline;display:inline;overflow:visible;vector-effect:none;stroke:none;enable-background:accumulate;stop-color:#000000;stop-opacity:1;fill:#ffffff"
         d="m 1321.875,54.424683 c -166.6776,0 -315.3087,71.988637 -411.9375,184.406247 -28.5276,-36.63982 -63.401,-75.12648 -101.5,-102.21875 C 728.4745,76.91758 624.799,58.751886 514,55.768433 326.4255,50.71767 176.4018,152.0523 107.3125,265.98718 48.9513,149.54865 -3.4061,88.74496 -206.4688,78.64343 h -492.0803 l 0.1116,205.09375 c 0,0 23.4011,7.47335 31.3125,16.15625 6.6004,7.24407 11,27.25 11,27.25 l -1.1562,456.5 c 0,0 -12.8696,-9.33294 -18,-15.3125 -9.5491,-11.12871 -23.0938,-37.4375 -23.0938,-37.4375 L -950.5,78.42468 l -319.6875,0.21875 -277.7813,726.1875 v -155.4375 h -199.9062 c -15.7424,43.40396 -59.9402,72.71875 -113.25,72.71875 -28.0932,0 -58.13,-6.62565 -82.4688,-21.25 -31.7176,-19.0581 -55.4185,-41.69206 -74.9375,-81.90625 -15.3567,-37.21359 -27.109,-82.77963 -28.4687,-123.09375 4.6791,-79.72921 28.9019,-108.14789 73.25,-141.03125 9.8313,-7.28971 37.2996,-13.1189 45.2187,-13.15625 17.4221,-0.0822 31.9427,10.48615 39.8125,26.0625 11.4471,22.65651 -5.3079,50.1006 -21.875,69.625 l 161.625,111.34375 249.625,-261.1875 c -87.0859,-138.79748 -246.2201,-231.718747 -428.0937,-231.718747 -275.3534,0 -498.5625,212.989027 -498.5625,475.718747 0,262.72972 216.0662,461.41517 498.5625,482.84377 l 35.7187,1.4375 h 380 v -0.1875 H -627 v -0.062 l 332.625,-0.4688 v -0.5312 h 52.0312 V 819.11268 c 0,0 -27.8733,-5.81326 -39.3437,-13.625 -12.0454,-8.20329 -13.1875,-21.125 -13.1875,-21.125 -0.2158,-4.98391 0.7879,-8.80271 3.4062,-12.0625 2.5668,-3.19557 8.5725,-5.36854 10.8438,-5.84375 34.3492,-7.18693 69.3766,-17.0151 104.4375,-29.625 93.5498,-33.64584 172.271,-81.51341 228.1563,-134.40625 37.3957,220.94624 231.5684,382.17352 466.3124,409.09372 15.3291,1.758 28.5364,3.0874 42.875,3.5938 3.8075,0.1344 11.4376,-0.1563 11.4376,-0.1563 h 332 l -1.0102,-163.37655 c 86.3414,95.84593 254.5574,187.71955 424.3523,187.71955 138.7352,0 263.1783,-60.7472 350.89,-135.86529 l -0.7142,112.99109 h 419.2321 l 2.1429,-172.86609 109.2945,1.42857 v -1.90625 l 146.6563,1.28125 v 171.43752 h 447.125 V 788.64393 c 0,0 -19.0914,-1.22398 -26.5625,-6.4375 -10.1018,-7.04923 -20.5625,-30.71875 -20.5625,-30.71875 l -62.8437,-417.34375 c 0,0 1.8846,-27.91969 10,-38.34375 6.6769,-8.57661 28.5624,-15.71875 28.5624,-15.71875 V 78.64393 h -40 -64.3124 -341.4063 v 5.71875 L 2254,190.08143 2208.7812,83.67518 v -5.03125 h -2.125 l -1.2187,-2.84375 -0.094,2.84375 h -430.0938 v 211.4375 l -29.375,-40 C 1665.1912,132.45201 1523.5658,54.424683 1362.2812,54.424683 c -6.576,0 -13.1167,0.118185 -19.625,0.375 -6.8966,-0.248953 -13.819,-0.375 -20.7812,-0.375 z M -1553.5,846.14343 l -0.031,2.0625 h -1.875 c 0.6407,-0.68471 1.27,-1.37525 1.9062,-2.0625 v 0 z"
         id="path1" />
      <path
         style="baseline-shift:baseline;display:inline;overflow:visible;vector-effect:none;fill:#ffffff;stroke:none;enable-background:accumulate;stop-color:#000000;stop-opacity:1"
         d="m 1321.875,-83.912109 c -151.2088,0 -291.8498,47.928475 -404.80273,129.832031 C 908.40771,38.751814 899.46364,31.698961 889.97852,24.902344 775.12851,-60.270846 640.87412,-79.203467 517.72266,-82.519531 360.2412,-86.759988 222.78696,-34.310301 119.75391,47.285156 108.25555,36.954124 95.840594,27.10297 82.296875,17.923828 7.3238565,-32.888508 -84.89711,-53.817657 -199.5957,-59.523437 c -2.28926,-0.113565 -4.58098,-0.170223 -6.87305,-0.169922 h -492.08008 c -54.58478,0.181752 -103.96044,32.440916 -126.05273,82.355468 -22.01778,-49.980104 -71.37778,-82.330231 -125.99219,-82.574218 l -319.68755,0.21875 c -57.2967,0.04271 -108.6385,35.398604 -129.1132,88.912109 l -40.836,106.75586 c -117.6882,-134.6420531 -293.3568,-218.511719 -487.207,-218.511719 -346.6905,0 -636.9004,272.972739 -636.9004,614.054689 0,338.5746 284.9381,594.88092 626.4375,620.78512 1.6317,0.124 3.2654,0.2191 4.9004,0.2852 l 35.7187,1.4375 c 1.8532,0.074 3.7078,0.1115 5.5625,0.1113 h 380 c 0.5544,-0.059 1.1085,-0.1217 1.6622,-0.1875 l 1215.87691,-0.5312 c 1.55497,-0.1508 3.10728,-0.3279 4.65625,-0.5313 h 47.17969 c 76.39806,-0.01 138.32937,-61.9378 138.33789,-138.3359 V 857.23633 c 30.548502,-11.97055 59.941173,-25.10309 87.75586,-39.6211 103.434033,183.45177 300.02629,306.25457 518.76953,331.33987 16.42208,1.8833 33.87521,3.7061 53.75391,4.4082 h 0.002 c 14.60094,0.5154 18.91213,0.092 20.22852,-0.07 H 904.5938 c 41.47499,-0.092 80.72111,-18.7852 106.9277,-50.9317 93.0852,46.2493 200.651,75.2754 316.414,75.2754 95.387,0 183.244,-21.6647 261.0724,-55.873 24.8743,21.1734 56.4381,32.8625 89.1035,32.998 h 419.2324 c 57.9016,-0.3872 109.4373,-36.7906 129.1562,-91.2324 19.8977,54.1209 71.276,90.2257 128.9375,90.6074 h 447.1251 c 76.398,-0.01 138.3293,-61.9378 138.3379,-138.3359 V 788.64453 c -0.2896,-43.79769 -21.3007,-84.87155 -56.6466,-110.73633 l -46.7324,-310.35742 c 20.4452,-24.58544 31.7432,-55.4938 31.9726,-87.46875 V 78.644531 c -0.01,-76.3987976 -61.939,-138.330419 -138.3378,-138.33789 h -40 -64.3125 -555.3399 -296.2539 c -43.0464,0.118264 -83.5851,20.266323 -109.6719,54.5078121 -89.3051,-50.3127411 -193.2387,-78.7265621 -303.2968,-78.7265621 -6.419,0 -12.9803,0.178707 -19.5528,0.376953 -6.9306,-0.202598 -13.8688,-0.376953 -20.8535,-0.376953 z m 0,276.673829 c 5.2925,0 10.5472,0.0959 15.791,0.28515 3.4807,0.12562 6.965,0.11975 10.4453,-0.0176 4.5304,-0.17877 9.2514,-0.26758 14.17,-0.26758 116.6673,0 215.4017,56.67796 269.5136,135.56836 0.8405,1.22536 1.7006,2.43711 2.5801,3.63476 l 29.375,40 c 35.406,48.18132 97.7574,68.16627 154.5752,49.5446 56.8177,-18.62166 95.2441,-71.63591 95.2627,-131.42741 v -73.10156 h 201.5312 l 11.5625,27.20703 c 22.8292,53.68032 76.8751,87.2746 135.1154,83.98617 58.2404,-3.28843 108.1611,-42.75299 124.8026,-98.66195 l 3.7266,-12.53125 h 198.6367 c -32.242,43.59936 -27.7401,61.66589 -30.5762,77.47851 -2.9723,16.57261 -3.8164,30.36915 -3.8164,30.36914 -0.6738,9.98644 -0.2619,20.01651 1.2285,29.91407 l 62.8438,417.34375 c 1.8338,12.17843 5.2856,24.05748 10.2637,35.32226 0,0 5.1287,11.78147 12.8613,25.33789 5.1787,9.07899 7.6778,19.85692 22.457,35.60157 v 9.11523 h -170.4492 v -33.09958 c -0.01,-75.92695 -61.2049,-137.66116 -137.1289,-138.33203 L 2209.9902,704.75 c -5.4263,0.24608 -10.8335,0.81151 -16.1933,1.69336 l -92.502,-1.20899 c -76.4279,-0.99123 -139.1788,60.18108 -140.1347,136.60938 l -0.4493,36.24414 h -146.3964 c -9.166,-48.39795 -43.3734,-88.27235 -89.8141,-104.6931 -46.4407,-16.42075 -98.1096,-6.91102 -135.6606,24.96849 -66.5983,57.03621 -162.5511,102.59766 -260.9043,102.59766 -119.8932,0 -265.607,-79.8491 -321.5683,-141.97071 -38.43992,-42.65032 -99.22809,-57.12566 -152.76492,-36.37755 -53.53683,20.74811 -88.69472,72.40718 -88.35423,129.82287 l 0.15039,24.18359 H 572.59375 c -1.75633,-2.4e-4 -3.51251,0.033 -5.26758,0.0996 0,0 -10.60157,-0.19152 -1.3457,0.13867 -8.78074,-0.31229 -17.73126,-1.14616 -31.9375,-2.77539 C 352.83322,853.30108 214.46196,733.51644 188.36719,579.33984 179.83539,528.98813 144.25933,487.43123 95.824646,471.23962 47.389965,455.048 -6.025598,466.85517 -43.123047,501.95312 c -39.043866,36.95321 -102.395673,76.83434 -179.882813,104.70313 -28.99059,10.42667 -57.89284,18.52426 -85.94922,24.39453 -37.16649,7.77612 -40.99894,-6.84443 -90.36719,54.61719 v 0.002 c -24.84154,30.92778 -34.90962,78.12175 -33.75976,104.67774 0.0891,2.06788 0.22451,4.13351 0.40625,6.19531 0,0 6.64519,61.18719 51.99414,105.86523 v 4.04883 c -32.87555,26.24695 -52.03125,-29.51763 -52.03125,-29.51763 l -123.68359,0.17383 c 23.70027,-25.25732 37.06489,-58.48557 37.45312,-93.11914 l 1.15625,-456.5 c 0.0253,-10.10869 -1.0573,-20.18971 -3.22851,-30.0625 0,0 -2.36099,-11.03975 -6.60352,-24.05859 -3.84191,-11.78945 -2.30489,-24.95663 -28.42969,-56.39258 h 345.19727 c 86.41179,4.55299 121.531913,18.86185 137.925779,29.97265 16.561656,11.22453 30.489111,28.99374 56.566406,81.02149 22.5676349,45.00509 67.801964,74.19819 118.107565,76.22367 50.3056,2.02548 97.74053,-23.43644 123.85337,-66.48148 41.90829,-69.11079 148.85449,-147.31738 284.67578,-143.66016 98.01611,2.63925 170.59316,19.95739 215.4043,53.41016 0.85469,0.6382 1.71672,1.2665 2.58594,1.88476 20.16463,14.33911 48.71295,43.89551 72.51562,74.4668 25.49167,32.73225 64.32692,52.29705 105.8024,53.30215 41.47549,1.0051 81.21284,-16.6556 108.2601,-48.11465 69.9488,-81.37818 180.184,-136.24414 307.0293,-136.24414 z m -3249.3125,1.375 c 94.378,0 178.7975,33.84036 242.1035,87.76562 l -64.9687,67.97852 c -2.7588,-14.75485 -7.4875,-29.7703 -14.9434,-44.52734 -27.3983,-54.22822 -90.2104,-102.36348 -163.9375,-102.01563 -37.1471,0.1752 -39.3528,3.94748 -56.1992,8.34766 -16.8464,4.40018 -30.5032,2.17254 -70.7617,32.02343 -55.6202,41.24144 -122.7507,138.36386 -128.9531,244.04883 -0.2499,4.25113 -0.3033,8.51152 -0.1602,12.76758 2.1466,63.64381 17.799,120.18481 38.8516,171.20117 1.064,2.57886 2.2058,5.12495 3.4238,7.63477 29.8241,61.44524 81.0539,111.78519 128.1406,140.07812 51.5974,31.00305 103.8748,41.00977 153.7188,41.00977 61.7821,0 122.7495,-21.74421 169.9707,-60.79297 l 0.1797,-11.92578 h 4.668 v 7.91797 c 2.1967,-1.91091 4.3262,-3.89234 6.457,-5.88086 -2.4477,4.90358 -4.6019,9.94828 -6.4512,15.10742 0.1109,1.05802 0.234,2.11473 0.3692,3.16992 -3.5456,11.69369 -5.5264,23.80557 -5.8907,36.01953 l 0.2188,-14.54883 c -2.2887,15.94909 -1.7738,32.17538 1.5215,47.94727 h -198.8535 l -29.67,-1.19531 c -222.5688,-17.51967 -369.0566,-158.32471 -369.0566,-344.75 0,-184.3775 156.2083,-337.38086 360.2246,-337.38086 z m 882.1113,22.68945 217.91214,563.92969 c 1.77415,4.59065 3.79199,9.08336 6.04492,13.45898 0,0 3.48677,20.36415 41.10156,64.20118 6.85718,7.9919 12.43431,13.92765 17.33008,18.85937 h -655.6973 c 1.2098,-6.15147 2,-12.37806 2.3653,-18.63672 0.3286,-2.17343 0.6053,-4.35439 0.83,-6.54101 0.081,-0.60365 0.1577,-1.20783 0.2305,-1.8125 l 0.031,-2.0625 -0.4805,0.47265 c -0.041,-0.72822 -0.088,-1.45611 -0.1406,-2.18359 l 240.832,-629.5957 z M 2791.2871,403.9043 c -11.5507,10.58293 -13.8545,6.39188 -14.8086,6.82422 -1.3623,0.61734 -2.4043,0.86523 -2.4043,0.86523 5.9058,-2.1688 11.6568,-4.73791 17.2129,-7.68945 z m -4682.9941,62.29297 c -8.5439,6.32006 -14.1261,10.03862 -17.877,12.24023 -2.3755,-11.39145 -6.1374,5.4143 17.877,-12.24023 z m -23.7559,13.18359 c 0.5093,-0.13304 2.6844,-0.008 4.0352,0.10156 -0.088,0.0473 -0.2099,0.123 -0.295,0.16797 -0.6357,0.0695 -1.8391,0.12874 -4.1425,0.18945 0.1568,-0.14847 0.2778,-0.42647 0.4023,-0.45898 z m 4734.1465,170.45898 c 2.1673,-0.0854 6.071,0.89032 12.6973,4.21289 -6.562,-1.64084 -13.2355,-2.79824 -19.9668,-3.46289 0,0 1.5985,0.0314 3.5644,0.36133 0.7372,0.12372 1.3062,-1.01684 3.7051,-1.11133 z m -3040.39454,30.41407 c 0.63849,0.13265 2.44286,1.03674 5.55274,2.89843 -0.9282,-0.2259 -1.35554,-0.30274 -3.125,-0.81445 -1.46759,-0.42441 -3.6412,-2.33609 -2.42774,-2.08398 z m -1468.09376,29.61523 h 3.4981 v 34.69922 l -4.0625,2.84766 z M -213.875,892.83398 c -12.88515,10.88596 -16.81753,4.50761 -38.41992,9.02735 12.75765,-2.6693 25.57828,-5.75033 38.41992,-9.02735 z"
         id="path2"
         sodipodi:nodetypes="sccscsscccccccssscccccccccccssscccsccccccccccccccccccscssssssscsccccscccscsscscccccccccccscscscccccccscsscccccccccccsccscscssccscscccssssccscssccccccccccccscccccscccccccccccscccccscccssccssscsscccccccc" />
    </g>
    <g
       id="path3950-3"
       style="opacity:1;fill:#ffffff">
      <path
         style="baseline-shift:baseline;display:inline;overflow:visible;vector-effect:none;stroke:none;enable-background:accumulate;stop-color:#000000;stop-opacity:1;fill:#ffffff"
         d="m -1927.7708,145.18332 c -226.9823,1.42857 -412.3662,166.7661 -412.3662,383.05133 0,216.28523 204.6469,402.07109 452.3662,396.47808 l 240.7127,0.6783 V 735.88379 h -45.4634 c -14.2837,35.73115 -80.9968,70.68064 -129.3669,70.68064 -25.4902,0 -89.6606,-3.46506 -113.3988,-11.7792 -41.9106,-14.67892 -101.712,-35.75045 -153.7082,-123.14142 -13.9338,-30.6351 -53.1686,-105.28898 -44.4023,-214.19078 4.2456,-65.63495 45.9366,-147.56776 120.7486,-184.67165 32.6212,-16.17886 65.4607,-18.83348 123.1208,-13.60101 41.3957,3.75653 82.5276,32.86328 96.8886,67.79717 11.107,27.01833 7.9153,59.94169 -5.16,78.69532 -0.9328,1.33796 -0.9528,2.52293 -0.7595,3.80017 0.1471,0.97218 1.408,2.592 1.408,2.592 l 22.7845,17.79932 c 0,0 6.4866,4.50696 14.0636,4.30516 4.4004,-0.11719 12.2667,-4.89104 12.2667,-4.89104 l 130.1212,-136.55317 c -80.4452,-108.54703 -223.4056,-147.54198 -309.8556,-147.54198 z"
         id="path3" />
      <path
         style="baseline-shift:baseline;display:inline;overflow:visible;vector-effect:none;stroke:none;enable-background:accumulate;stop-color:#000000;stop-opacity:1;fill:#ffffff"
         d="m -1927.7715,6.8457031 a 138.35133,138.35133 0 0 0 -0.8691,0.00195 c -293.6825,1.848364 -549.834,226.0529638 -549.834,521.3867138 0,303.54759 275.2734,541.97353 593.8262,534.78123 l -3.5118,0.033 240.7129,0.6797 a 138.35133,138.35133 0 0 0 138.7266,-138.33788 V 735.88477 a 138.35133,138.35133 0 0 0 -138.3379,-138.3379 h -45.4629 a 138.35133,138.35133 0 0 0 -114.1914,60.84375 c 0.5102,0.19431 -0.093,1.75965 -1.7793,3.26172 a 138.35133,138.35133 0 0 0 -12.4824,22.88086 c 4.4557,-11.14608 7.7468,-17.52191 10.1465,-21.38086 -7.3067,3.58283 -19.8983,5.07422 -11.0606,5.07422 -6.4767,0 -27.6754,-0.73142 -45.5234,-2.26367 -17.848,-1.53225 -41.3215,-8.45418 -22.1465,-1.73828 -40.1214,-14.05227 -47.1497,-8.64828 -77.1855,-57.90625 -17.9474,-38.76407 -34.1001,-71.4487 -28.7618,-137.76563 a 138.35133,138.35133 0 0 0 0.1563,-2.16992 c 0.9586,-14.82023 23.6488,-59.49416 44.166,-69.66992 3.2838,-1.62861 3.613,-2.77849 17.2227,-2.15234 -2.0778,15.79614 -2.3322,29.31473 -1.3789,35.61328 7.1204,47.05512 16.4325,48.29102 20.6875,55.00586 4.2551,6.71504 8.3378,11.85937 8.3378,11.85937 a 138.35133,138.35133 0 0 0 24,24.04102 l 22.7852,17.80078 a 138.35133,138.35133 0 0 0 6.2266,4.58984 c 0,0 32.207,30.70355 96.6836,28.98633 49.9779,-1.33129 54.7539,-11.64181 63.9668,-16.06445 9.2129,-4.42271 16.3867,-8.85156 16.3867,-8.85156 a 138.35133,138.35133 0 0 0 28.3789,-22.83008 l 130.1211,-136.55274 a 138.35133,138.35133 0 0 0 10.9922,-177.80078 C -1624.4638,51.554359 -1799.7216,6.8457031 -1927.7715,6.8457031 Z m 16.4766,319.7304669 c -7.2115,10.35034 -12.3467,23.29068 -16.1426,36.52149 -1.4577,-7.26376 1.5531,-15.59293 16.1426,-36.52149 z m -2.6094,69.4082 c 4.0939,0.34013 6.6215,0.49024 11.873,0.9668 -9.1237,-0.82795 -9.8737,2.779 -11.873,-0.9668 z m -357.3848,50.36915 c -0.029,0.3609 -0.026,0.70781 -0.055,1.06835 -0.025,0.36698 -0.08,0.73465 -0.1035,1.10157 z"
         id="path4" />
    </g>
    <g
       id="path3990-6"
       style="opacity:1;fill:#ffffff"
       transform="translate(-2446,20.362183)">
      <path
         style="baseline-shift:baseline;display:inline;overflow:visible;vector-effect:none;stroke:none;enable-background:accumulate;stop-color:#000000;stop-opacity:1;fill:#ffffff"
         d="m 3770,121.15625 c -240.6384,0 -435.7188,181.00042 -435.7188,404.28125 0,223.28083 195.0804,404.28125 435.7188,404.28125 240.6384,0 435.7188,-181.00042 435.7188,-404.28125 0,-223.28083 -195.0804,-404.28125 -435.7188,-404.28125 z m 2.8438,125.6875 c 123.8694,0 190.2581,88.64355 217.1696,194.30357 7.7034,30.245 4.5802,130.80895 -0.01,164.29464 C 3976.0095,707.55415 3892.545,807.06375 3771.4364,804 3653.419,801.01445 3574.4747,746.06966 3550.0122,598.29911 c -7.1559,-43.22671 -7.2805,-95.15491 -1.4508,-138.58036 16.9036,-125.91479 100.4117,-212.875 224.2813,-212.875 v 0 z"
         id="path5" />
      <path
         style="baseline-shift:baseline;display:inline;overflow:visible;vector-effect:none;stroke:none;enable-background:accumulate;stop-color:#000000;stop-opacity:1;fill:#ffffff"
         d="m 3770,-17.181641 c -310.0071,0 -574.0566,238.761361 -574.0566,542.619141 0,303.85778 264.0495,542.6191 574.0566,542.6191 310.0071,0 574.0566,-238.76132 574.0566,-542.6191 0,-303.85778 -264.0495,-542.619141 -574.0566,-542.619141 z m 2.8418,402.363281 h 0 c 28.9356,0 35.1361,5.04891 47.2304,17.11719 11.3293,11.30483 24.9392,34.50959 34.041,66.50781 -2.7298,-7.53598 2.4718,26.61545 2.1758,51.63672 -0.3412,28.84088 -3.0059,63.74627 -3.3437,66.21094 a 138.35133,138.35133 0 0 0 0,0.004 c -5.589,40.78194 -34.214,80.15681 -78.0118,79.04883 -38.3404,-0.96992 -50.9758,-8.10511 -58.6289,-14.74609 -7.653,-6.64099 -21.048,-22.3009 -29.8144,-75.25586 -4.2827,-25.87035 -4.6844,-68.8259 -0.8242,-97.58008 10.027,-74.69165 28.0489,-92.94336 87.1738,-92.94336 z"
         id="path6" />
    </g>
    <g
       id="path4001-0"
       style="opacity:1;fill:#ffffff"
       transform="translate(-2446,20.362183)">
      <path
         style="baseline-shift:baseline;display:inline;overflow:visible;vector-effect:none;stroke:none;enable-background:accumulate;stop-color:#000000;stop-opacity:1;fill:#ffffff"
         d="m 1235.625,146.25 c 0,0 -191.3393,517.74554 -225.625,612.03125 -34.28571,94.28572 -72.84375,91.4375 -72.84375,91.4375 l 2.84375,57.125 231.25,-0.0625 0.1875,-54.875 c 0,0 -14.838,-0.76195 -25.7187,-10.75 -21.1033,-19.37177 -7.75,-58.34375 -7.75,-58.34375 l 53.4687,-136.78125 237.4687,0.5 c 0,0 46.2886,115.5722 57.625,153.71875 14.7908,49.76976 -31.4062,50.65625 -31.4062,50.65625 v 55.78125 l 292.4375,-0.15625 -0.1875,-55.15625 c 0,0 -17.4155,-2.65648 -35.9375,-18.8125 -21.0102,-18.32633 -35.3125,-56.125 -35.3125,-56.125 l -239.5,-629.65625 z m 68.6562,159.1875 79.2813,220.71875 -153.5625,0.6875 z"
         id="path7" />
      <path
         style="baseline-shift:baseline;display:inline;overflow:visible;vector-effect:none;stroke:none;enable-background:accumulate;stop-color:#000000;stop-opacity:1;fill:#ffffff"
         d="m 1235.9902,7.9121094 a 138.35133,138.35133 0 0 0 -130.125,90.3828126 c 0,0 -190.68145,515.934118 -225.87301,612.710938 -2.70308,7.43346 -5.1207,12.93494 -7.09961,17.01953 a 138.35133,138.35133 0 0 0 -73.90235,128.57227 l 2.84375,57.125 a 138.35133,138.35133 0 0 0 138.20313,131.45894 l 231.24999,-0.062 a 138.35133,138.35133 0 0 0 138.2988,-137.86519 l 0.1875,-54.875 a 138.35133,138.35133 0 0 0 -18.3613,-67.79883 l 42.1758,0.0898 c 0.1108,0.29243 0.2118,0.55798 0.3223,0.84961 a 138.35133,138.35133 0 0 0 -17.1231,65.38672 v 55.78125 a 138.35133,138.35133 0 0 0 138.4121,138.3379 l 292.4375,-0.1563 a 138.35133,138.35133 0 0 0 138.2617,-138.80855 l -0.1875,-55.15625 A 138.35133,138.35133 0 0 0 1805.0605,726.29297 L 1565.9258,97.599609 A 138.35133,138.35133 0 0 0 1436.9902,8.4433594 Z M 1448.6387,712.24023 c 2.4941,0.0822 3.832,0.35352 3.832,0.35352 a 138.35133,138.35133 0 0 0 -26.2559,3.43555 c 10.2403,-3.32904 18.1269,-3.93068 22.4239,-3.78907 z m -265.2149,1.27344 c 4.7882,0.0695 12.8299,0.9497 22.7735,4.70703 a 138.35133,138.35133 0 0 0 -27.666,-4.4707 c 0,0 1.7526,-0.28188 4.8925,-0.23633 z m -274.07614,1.3711 a 138.35133,138.35133 0 0 0 -5.14258,1.28125 c 0.31366,-0.0948 0.5901,-0.22453 0.90625,-0.31641 1.24489,-0.36178 2.74273,-0.66392 4.23633,-0.96484 z"
         id="path8" />
    </g>
    <g
       id="rect3593-6"
       style="opacity:1;fill:#ffffff"
       transform="translate(-2446,20.362183)">
      <path
         style="baseline-shift:baseline;display:inline;overflow:visible;vector-effect:none;stroke:none;enable-background:accumulate;stop-color:#000000;stop-opacity:1;fill:#ffffff"
         d="m 1841,145.4375 -1.125,63.46875 c 0,0 18.5873,5.32601 36.375,25.0625 9.4309,10.4641 3.5938,143.28125 3.5938,143.28125 l -0.3126,425.15625 c 0,0 6.0586,16.7572 -14.2812,33.59375 -7.6779,6.35547 -14.4784,13.09219 -26.3438,14.125 l -1.4062,56.5625 271.0312,0.65625 0.6563,-57.53125 c 0,0 -9.5873,-3.78169 -24.625,-17.34375 -8.488,-7.65511 -13.7169,-18.67175 -13.5937,-29.65625 0.2278,-38.40715 1.1259,-75.31081 0.9374,-112.8125 94.9385,-22.86724 176.8968,-61.6423 208.8438,-73.40625 120.0869,-47.918 213.2691,-123.99838 207.8125,-259.71875 C 2487.532,260.71939 2438.7604,181.90437 2334.2812,164.09375 2286.6543,150.33259 2264.7886,147.92804 2246,146.875 Z m 309.9688,107.79219 c 29.2343,-0.56143 63.6671,6.13685 90.1758,19.48827 33.0369,21.93314 53.1366,44.65398 53.1366,92.71954 1.3623,22.59657 -5.1304,42.02538 -16,61.78125 -11.318,18.89081 -45.5547,55.15612 -67.1726,75.90229 -63.2001,45.18182 -85.8164,58.42722 -136.0234,81.53802 l -0.804,-322.09656 c 26.7572,-5.04664 50.758,-9.16086 76.6876,-9.33281 z"
         id="path9" />
      <path
         style="baseline-shift:baseline;display:inline;overflow:visible;vector-effect:none;stroke:none;enable-background:accumulate;stop-color:#000000;stop-opacity:1;fill:#ffffff"
         d="M 1841.4902,7.1015625 A 138.35133,138.35133 0 0 0 1702.6836,142.98633 l -1.125,63.46875 a 138.35133,138.35133 0 0 0 41.6875,100.49804 c -0,0.5037 0.01,0.95335 0,1.45704 -0.2546,31.33401 -1.6094,62.76562 -1.6094,62.76562 a 138.35133,138.35133 0 0 0 -0.1347,5.97266 l -0.2774,376.01172 a 138.35133,138.35133 0 0 0 -40.6172,93.52734 l -1.4062,56.5625 a 138.35133,138.35133 0 0 0 137.9609,141.7754 l 271.0293,0.6562 a 138.35133,138.35133 0 0 0 138.6641,-136.75973 l 0.6562,-57.53125 a 138.35133,138.35133 0 0 0 -16.6211,-65.85546 c 52.7477,-19.29641 90.9209,-36.64408 97.6582,-39.125 a 138.35133,138.35133 0 0 0 3.4668,-1.33008 c 72.0109,-28.73434 144.3434,-67.94766 202.7285,-133.08399 57.898,-64.59281 95.395,-158.62166 92.0782,-258.17187 -1.0161,-70.57684 -19.642,-143.79405 -65.8145,-205.55274 C 2516.1423,88.255762 2444.8133,44.953632 2366.1777,29.40625 2315.207,15.159268 2277.2783,10.073031 2253.7422,8.7539063 a 138.35133,138.35133 0 0 0 -7.252,-0.2148438 z M 2150.0508,114.89453 c -0.365,0.002 -0.7084,0.0239 -1.0723,0.0273 -0.2232,0.004 -0.4427,-0.008 -0.666,-0.004 z m -407.6406,150.4082 c 0.086,0.90806 0.1761,1.73543 0.2578,3.19532 0.2392,4.27569 0.4159,10.44644 0.5175,17.50781 -7.852,-15.85537 -1.0081,-18.51457 -0.7753,-20.70313 z m 689.957,91.81055 0.2519,8.32422 c 0,-1.4133 -0.164,-2.82965 -0.1992,-4.24414 -0.055,-1.36842 0.03,-2.70678 -0.053,-4.08008 z m -605.457,355.19531 a 138.35133,138.35133 0 0 0 -16.7696,3.24414 c 5.3322,-1.47864 10.8834,-2.73178 16.7696,-3.24414 z m 350.3007,17.42969 c 0.2197,0.19808 0.4129,0.41773 0.6309,0.61719 a 138.35133,138.35133 0 0 0 -0.5703,-0.29297 c 0.199,0.0243 0.2555,-0.0391 -0.061,-0.32422 z"
         id="path10" />
    </g>
    <g
       id="path3622-2"
       style="opacity:1;fill:#ffffff">
      <path
         style="baseline-shift:baseline;display:inline;overflow:visible;vector-effect:none;stroke:none;enable-background:accumulate;stop-color:#000000;stop-opacity:1;fill:#ffffff"
         d="m 540.75458,145.6884 c -226.9823,1.42857 -412.3662,166.7661 -412.3662,383.05133 0,216.28523 204.6469,402.07109 452.3662,396.47808 l 240.7127,0.6783 V 736.38887 h -45.4634 c -14.2837,35.73115 -80.9968,70.68064 -129.3669,70.68064 -25.4902,0 -89.6606,-3.46506 -113.3988,-11.7792 -41.9106,-14.67892 -101.712,-35.75045 -153.7082,-123.14142 -13.9338,-30.6351 -53.1686,-105.28898 -44.4023,-214.19078 4.2456,-65.63495 45.9366,-147.56776 120.7486,-184.67165 32.6212,-16.17886 65.4607,-18.83348 123.1208,-13.60101 41.3957,3.75653 82.5276,32.86328 96.8886,67.79717 11.107,27.01833 7.9153,59.94169 -5.16,78.69532 -0.9328,1.33796 -0.9528,2.52293 -0.7595,3.80017 0.1471,0.97218 1.408,2.592 1.408,2.592 l 22.7845,17.79932 c 0,0 6.4866,4.50696 14.0636,4.30516 4.4004,-0.11719 12.2667,-4.89104 12.2667,-4.89104 L 850.61018,293.23038 C 770.16498,184.68335 627.20458,145.6884 540.75458,145.6884 Z"
         id="path11" />
      <path
         style="baseline-shift:baseline;display:inline;overflow:visible;vector-effect:none;stroke:none;enable-background:accumulate;stop-color:#000000;stop-opacity:1;fill:#ffffff"
         d="m 540.75391,7.3515625 a 138.35133,138.35133 0 0 0 -0.86914,0.00195 C 246.20234,9.2018796 -9.9492188,233.40647 -9.9492188,528.74023 c 1e-7,303.54759 275.2734388,541.97157 593.8261688,534.77927 l -3.51172,0.035 240.71289,0.6777 A 138.35133,138.35133 0 0 0 959.80469,925.89648 V 736.38867 A 138.35133,138.35133 0 0 0 821.4668,598.05078 H 776.00391 A 138.35133,138.35133 0 0 0 661.8125,658.89453 c 0.51005,0.19444 -0.0927,1.76161 -1.7793,3.26367 a 138.35133,138.35133 0 0 0 -12.48242,22.88086 c 4.45661,-11.14835 7.74871,-17.52425 10.14844,-21.38281 -7.30646,3.58341 -19.90087,5.07617 -11.0625,5.07617 -6.47671,0 -27.67541,-0.73338 -45.52344,-2.26562 -17.84803,-1.53225 -41.32146,-8.45419 -22.14648,-1.73828 -40.12141,-14.05227 -47.14975,-8.64634 -77.18555,-57.9043 -17.94738,-38.76407 -34.10005,-71.4487 -28.76172,-137.76563 a 138.35133,138.35133 0 0 0 0.15625,-2.16992 c 0.95865,-14.82023 23.6488,-59.49416 44.16602,-69.66992 3.28374,-1.62861 3.61303,-2.77849 17.22265,-2.15234 -2.07751,15.79532 -2.3321,29.31303 -1.3789,35.61132 7.12043,47.05512 16.43251,48.29103 20.6875,55.00586 4.25511,6.71505 8.33789,11.86133 8.33789,11.86133 a 138.35133,138.35133 0 0 0 24,24.04102 l 22.78515,17.79883 a 138.35133,138.35133 0 0 0 6.22657,4.59179 c 0,0 32.20699,30.70355 96.68359,28.98633 49.97795,-1.33129 54.75397,-11.64377 63.9668,-16.06641 9.21296,-4.4227 16.38672,-8.84961 16.38672,-8.84961 a 138.35133,138.35133 0 0 0 28.3789,-22.83007 L 950.75977,388.66211 A 138.35133,138.35133 0 0 0 961.75195,210.86133 C 844.06155,52.058265 668.80378,7.3515625 540.75391,7.3515625 Z M 557.23047,327.08008 c -7.21135,10.35015 -12.34674,23.29094 -16.14258,36.52148 -1.4568,-7.26332 1.5543,-15.59472 16.14258,-36.52148 z m -2.60742,69.41015 c 4.09338,0.3401 6.62041,0.49032 11.87109,0.9668 -9.12241,-0.82783 -9.87251,2.77619 -11.87109,-0.9668 z m -357.38672,50.36719 c -0.0292,0.3622 -0.0264,0.71043 -0.0547,1.07227 -0.0247,0.36629 -0.0798,0.73336 -0.10352,1.09961 z"
         id="path12" />
    </g>
    <g
       id="path3624-6"
       style="opacity:1;fill:#ffffff"
       transform="translate(-2446,20.362183)">
      <path
         style="baseline-shift:baseline;display:inline;overflow:visible;vector-effect:none;stroke:none;enable-background:accumulate;stop-color:#000000;stop-opacity:1;fill:#ffffff"
         d="m 4314.625,146.9375 0.25,54.53125 c 0,0 23.8448,6.41919 33.3125,13.90625 10.8238,8.55957 8.0937,23.75 8.0937,23.75 0,0 -86.497,537.5233 -88.375,547.5 -2.0203,10.73288 -4.8812,35.80842 -19.9687,49.75 -15.0022,13.86285 -32.3125,16.65625 -32.3125,16.65625 l -0.25,53.78125 h 242.1875 v -50.25 c 0,0 -19.7118,-1.52427 -32.8437,-14.65625 -13.132,-13.13198 -9.3438,-49.21875 -9.3438,-49.21875 l 59.5938,-406.09375 121.2187,349.5 147.6563,2.03125 119.9374,-376.375 66.9376,432.9375 c 0,0 8.0739,32.54659 -9.3438,49.25 -13.404,12.85426 -32.8125,14.65625 -32.8125,14.65625 v 50.25 h 280.5625 l -0.25,-53.78125 c 0,0 -6.2803,2.15034 -22.2188,-10.625 -9.3731,-7.51301 -13.8859,-41.01712 -15.9062,-51.75 -1.8779,-9.9767 -77.4688,-550.84375 -77.4688,-550.84375 0,0 -1.3149,-22.33329 10.9376,-33.75 8.8308,-8.22857 26.9062,-16.03125 26.9062,-16.03125 l -0.4375,-44.53125 -291.2813,-0.34375 -106.5937,307.03125 -101.6563,-307.03125 z"
         id="path13" />
      <path
         style="baseline-shift:baseline;display:inline;overflow:visible;vector-effect:none;stroke:none;enable-background:accumulate;stop-color:#000000;stop-opacity:1;fill:#ffffff"
         d="M 4314.75,8.5996094 A 138.35133,138.35133 0 0 0 4176.2891,147.57227 l 0.25,54.53125 a 138.35133,138.35133 0 0 0 31.6113,86.76562 c -7.3279,45.52731 -15.8785,98.67348 -31.9277,198.25391 -10.9278,67.80291 -21.913,135.91672 -30.2793,187.66992 -4.1832,25.8766 -7.7141,47.66879 -10.2461,63.24219 -0.1412,0.86822 -0.2828,1.65234 -0.4317,2.55468 a 138.35133,138.35133 0 0 0 -57.9765,111.79883 l -0.25,53.78125 a 138.35133,138.35133 0 0 0 138.3359,138.98048 h 242.1875 a 138.35133,138.35133 0 0 0 138.3379,-138.3379 v -32.37305 l 146.041,2.00977 a 138.35133,138.35133 0 0 0 8.2832,-0.76953 v 33.16406 a 138.35133,138.35133 0 0 0 138.3379,138.33785 h 280.5625 a 138.35133,138.35133 0 0 0 138.3359,-138.98043 l -0.25,-53.78125 a 138.35133,138.35133 0 0 0 -41.8691,-97.30273 c -0.4852,-3.37088 -0.8709,-6.02873 -1.5098,-10.50586 -2.2265,-15.60296 -5.328,-37.50866 -8.998,-63.52539 -7.34,-52.03346 -16.9619,-120.55727 -26.5254,-188.76953 -15.1356,-107.95564 -24.4907,-174.90542 -30.0879,-214.93946 a 138.35133,138.35133 0 0 0 31.2344,-88.67383 l -0.4375,-44.53125 A 138.35133,138.35133 0 0 0 5090.8516,9.1933594 l -291.2813,-0.34375 A 138.35133,138.35133 0 0 0 4695.3477,56.599609 138.35133,138.35133 0 0 0 4591.2812,8.8496094 Z M 4220.125,214.6543 a 138.35133,138.35133 0 0 0 -0.4238,2.49218 c 0,0 -1.5512,9.63626 -1.6094,9.99805 0.7473,-7.63358 2.0332,-12.49023 2.0332,-12.49023 z m 971.7891,19.66601 c 1.4916,1.64115 7.017,8.99025 3.3007,23.58399 -0.398,-2.8478 -3.1633,-22.6005 -3.3007,-23.58399 z m -40.9102,81.82617 c -14.997,13.57873 -5.0527,2.92579 -5.0527,2.92579 a 138.35133,138.35133 0 0 0 5.0527,-2.92579 z m -875.4219,17.60547 a 138.35133,138.35133 0 0 0 3.3321,1.29883 c 0,0 1.1329,0.34106 2.7168,0.9043 1.1985,0.4262 3.4743,4.28828 -6.0489,-2.20313 z m -81.9961,382.70899 a 138.35133,138.35133 0 0 0 -19.4004,5.52148 c 10.7027,-4.55759 19.4004,-5.52148 19.4004,-5.52148 z m 973.7325,0.40039 c 6.1175,-0.0145 11.871,0.46891 17.2968,1.19922 a 138.35133,138.35133 0 0 0 -23.7129,-0.60938 c 2.1742,-0.20926 4.6529,-0.58568 6.4161,-0.58984 z m 27.6601,2.98242 c 2.895,0.63893 5.6489,1.34044 8.1953,2.09766 0.4625,0.13753 0.7527,0.29051 1.2032,0.42968 a 138.35133,138.35133 0 0 0 -9.3985,-2.52734 z m -51.1523,0.10156 a 138.35133,138.35133 0 0 0 -19.7637,4.23828 c 0,0 9.2511,-2.22467 19.7637,-4.23828 z m -1011.8614,40.19336 c -0.1942,1.13419 -0.2537,1.52466 -0.3945,2.35547 -3.5818,16.53532 -9.6717,13.41877 0.3945,-2.35547 z"
         id="path14" />
    </g>
    <g
       id="path3629-1"
       style="opacity:1;fill:#ffffff">
      <path
         style="baseline-shift:baseline;display:inline;overflow:visible;vector-effect:none;stroke:none;enable-background:accumulate;stop-color:#000000;stop-opacity:1;fill:#ffffff"
         d="m 2988.7239,51.174683 c -77.0466,0 -139.5051,62.458547 -139.5051,139.505077 0,77.04653 62.4585,139.50508 139.5051,139.50508 77.0464,0 139.5051,-62.45855 139.5051,-139.50508 0,-77.04653 -62.4587,-139.505077 -139.5051,-139.505077 z m 0,18.755404 c 66.6879,0 120.7495,54.061653 120.7495,120.749673 0,66.68802 -54.0616,120.74967 -120.7495,120.74967 -66.6881,0 -120.7498,-54.06165 -120.7498,-120.74967 0,-66.68802 54.0617,-120.749673 120.7498,-120.749673 z"
         id="path15" />
      <path
         style="baseline-shift:baseline;display:inline;overflow:visible;vector-effect:none;stroke:none;enable-background:accumulate;stop-color:#000000;stop-opacity:1;fill:#ffffff"
         d="m 2988.7246,-87.162109 c -151.8096,0 -277.8437,126.032199 -277.8437,277.841799 0,151.80959 126.0341,277.84179 277.8437,277.84179 151.8097,0 277.8418,-126.03196 277.8418,-277.84179 0,-151.809839 -126.0321,-277.841799 -277.8418,-277.841799 z m -1.4414,276.402339 c 0.01,-0.006 0.2996,0.27149 1.4414,0.27149 2.2832,0 1.166,-1.11526 1.166,1.16797 0,2.28322 1.1172,1.16797 -1.166,1.16797 -2.2835,0 -1.168,1.11549 -1.168,-1.16797 0,-1.14173 -0.2799,-1.43299 -0.2734,-1.43946 z"
         id="path16" />
    </g>
    <g
       id="rect3634-8"
       style="opacity:1;fill:#ffffff"
       transform="translate(-2446,20.362183)">
      <path
         style="baseline-shift:baseline;display:inline;overflow:visible;vector-effect:none;stroke:none;enable-background:accumulate;stop-color:#000000;stop-opacity:1;fill:#ffffff"
         d="m 5362.9062,86.0625 v 165.15625 h 34.8438 v -57.25 h 46.2812 l 38.3126,57.96875 39.125,-0.25 -46.75,-61.4375 c 19.1951,-7.83723 32.7812,-27.16764 32.7812,-49.8125 0,-29.19505 -22.5791,-52.938554 -50.6562,-53.5625 V 86.1875 H 5397.75 v -0.125 z m 34.8438,33.34375 57.9688,0.3125 c 11.7756,1.99937 19.5944,3.20968 19.2767,20.90179 -0.34,18.93233 -14.9177,21.45513 -19.2767,21.59821 l -57.9688,0.6875 z"
         id="path17" />
      <path
         style="baseline-shift:baseline;display:inline;overflow:visible;vector-effect:none;stroke:none;enable-background:accumulate;stop-color:#000000;stop-opacity:1;fill:#ffffff"
         d="M 5362.9062,-52.275391 A 138.35133,138.35133 0 0 0 5224.5684,86.0625 v 165.15625 a 138.35133,138.35133 0 0 0 138.3378,138.33789 h 34.8438 a 138.35133,138.35133 0 0 0 40.9004,-7.01172 138.35133,138.35133 0 0 0 44.5781,7.72656 l 39.125,-0.25 a 138.35133,138.35133 0 0 0 118.5879,-206.43359 c 3.2063,-13.96999 4.8965,-28.42696 4.8965,-43.15039 0,-91.013106 -66.9429,-172.369562 -157.0527,-188.710937 a 138.35133,138.35133 0 0 0 -4.1075,-0.738282 c -6.2258,-0.983611 -12.5055,-1.790553 -18.9297,-2.134765 a 138.35133,138.35133 0 0 0 -8.9043,-1.003907 h -57.9843 a 138.35133,138.35133 0 0 0 -1.1094,-0.125 z m 4.0293,380.488281 a 138.35133,138.35133 0 0 0 3.334,4.09375 h -0.6289 z"
         id="path18" />
    </g>
  </g>
  <g
     transform="matrix(0.0506009,0,0,0.0506009,129.75778,4.4105151)"
     id="layer1">
    <path
       d="m 1321.875,54.424683 c -166.6776,0 -315.3087,71.988637 -411.9375,184.406247 -28.5276,-36.63982 -63.401,-75.12648 -101.5,-102.21875 C 728.4745,76.91758 624.799,58.751886 514,55.768433 326.4255,50.71767 176.4018,152.0523 107.3125,265.98718 48.9513,149.54865 -3.4061,88.74496 -206.4688,78.64343 h -492.0803 l 0.1116,205.09375 c 0,0 23.4011,7.47335 31.3125,16.15625 6.6004,7.24407 11,27.25 11,27.25 l -1.1562,456.5 c 0,0 -12.8696,-9.33294 -18,-15.3125 -9.5491,-11.12871 -23.0938,-37.4375 -23.0938,-37.4375 L -950.5,78.42468 l -319.6875,0.21875 -277.7813,726.1875 v -155.4375 h -199.9062 c -15.7424,43.40396 -59.9402,72.71875 -113.25,72.71875 -28.0932,0 -58.13,-6.62565 -82.4688,-21.25 -31.7176,-19.0581 -55.4185,-41.69206 -74.9375,-81.90625 -15.3567,-37.21359 -27.109,-82.77963 -28.4687,-123.09375 4.6791,-79.72921 28.9019,-108.14789 73.25,-141.03125 9.8313,-7.28971 37.2996,-13.1189 45.2187,-13.15625 17.4221,-0.0822 31.9427,10.48615 39.8125,26.0625 11.4471,22.65651 -5.3079,50.1006 -21.875,69.625 l 161.625,111.34375 249.625,-261.1875 c -87.0859,-138.79748 -246.2201,-231.718747 -428.0937,-231.718747 -275.3534,0 -498.5625,212.989027 -498.5625,475.718747 0,262.72972 216.0662,461.41517 498.5625,482.84377 l 35.7187,1.4375 h 380 v -0.1875 H -627 v -0.062 l 332.625,-0.4688 v -0.5312 h 52.0312 V 819.11268 c 0,0 -27.8733,-5.81326 -39.3437,-13.625 -12.0454,-8.20329 -13.1875,-21.125 -13.1875,-21.125 -0.2158,-4.98391 0.7879,-8.80271 3.4062,-12.0625 2.5668,-3.19557 8.5725,-5.36854 10.8438,-5.84375 34.3492,-7.18693 69.3766,-17.0151 104.4375,-29.625 93.5498,-33.64584 172.271,-81.51341 228.1563,-134.40625 37.3957,220.94624 231.5684,382.17352 466.3124,409.09372 15.3291,1.758 28.5364,3.0874 42.875,3.5938 3.8075,0.1344 11.4376,-0.1563 11.4376,-0.1563 h 332 l -1.0102,-163.37655 c 86.3414,95.84593 254.5574,187.71955 424.3523,187.71955 138.7352,0 263.1783,-60.7472 350.89,-135.86529 l -0.7142,112.99109 h 419.2321 l 2.1429,-172.86609 109.2945,1.42857 v -1.90625 l 146.6563,1.28125 v 171.43752 h 447.125 V 788.64393 c 0,0 -19.0914,-1.22398 -26.5625,-6.4375 -10.1018,-7.04923 -20.5625,-30.71875 -20.5625,-30.71875 l -62.8437,-417.34375 c 0,0 1.8846,-27.91969 10,-38.34375 6.6769,-8.57661 28.5624,-15.71875 28.5624,-15.71875 V 78.64393 h -40 -64.3124 -341.4063 v 5.71875 L 2254,190.08143 2208.7812,83.67518 v -5.03125 h -2.125 l -1.2187,-2.84375 -0.094,2.84375 h -430.0938 v 211.4375 l -29.375,-40 C 1665.1912,132.45201 1523.5658,54.424683 1362.2812,54.424683 c -6.576,0 -13.1167,0.118185 -19.625,0.375 -6.8966,-0.248953 -13.819,-0.375 -20.7812,-0.375 z M -1553.5,846.14343 l -0.031,2.0625 h -1.875 c 0.6407,-0.68471 1.27,-1.37525 1.9062,-2.0625 v 0 z"
       id="path3840"
       style="fill:#0c4da2;fill-opacity:1;stroke:none" />
    <path
       d="m -1927.7708,145.18332 c -226.9823,1.42857 -412.3662,166.7661 -412.3662,383.05133 0,216.28523 204.6469,402.07109 452.3662,396.47808 l 240.7127,0.6783 V 735.88379 h -45.4634 c -14.2837,35.73115 -80.9968,70.68064 -129.3669,70.68064 -25.4902,0 -89.6606,-3.46506 -113.3988,-11.7792 -41.9106,-14.67892 -101.712,-35.75045 -153.7082,-123.14142 -13.9338,-30.6351 -53.1686,-105.28898 -44.4023,-214.19078 4.2456,-65.63495 45.9366,-147.56776 120.7486,-184.67165 32.6212,-16.17886 65.4607,-18.83348 123.1208,-13.60101 41.3957,3.75653 82.5276,32.86328 96.8886,67.79717 11.107,27.01833 7.9153,59.94169 -5.16,78.69532 -0.9328,1.33796 -0.9528,2.52293 -0.7595,3.80017 0.1471,0.97218 1.408,2.592 1.408,2.592 l 22.7845,17.79932 c 0,0 6.4866,4.50696 14.0636,4.30516 4.4004,-0.11719 12.2667,-4.89104 12.2667,-4.89104 l 130.1212,-136.55317 c -80.4452,-108.54703 -223.4056,-147.54198 -309.8556,-147.54198 z"
       id="path3950"
       style="fill:#ffcb08;fill-opacity:1;stroke:none" />
    <path
       d="m 3770,121.15625 c -240.6384,0 -435.7188,181.00042 -435.7188,404.28125 0,223.28083 195.0804,404.28125 435.7188,404.28125 240.6384,0 435.7188,-181.00042 435.7188,-404.28125 0,-223.28083 -195.0804,-404.28125 -435.7188,-404.28125 z m 2.8438,125.6875 c 123.8694,0 190.2581,88.64355 217.1696,194.30357 7.7034,30.245 4.5802,130.80895 -0.01,164.29464 C 3976.0095,707.55415 3892.545,807.06375 3771.4364,804 3653.419,801.01445 3574.4747,746.06966 3550.0122,598.29911 c -7.1559,-43.22671 -7.2805,-95.15491 -1.4508,-138.58036 16.9036,-125.91479 100.4117,-212.875 224.2813,-212.875 v 0 z"
       transform="translate(-2446,20.362183)"
       id="path3990"
       style="fill:#ffcb08;fill-opacity:1;stroke:none" />
    <path
       d="m 1235.625,146.25 c 0,0 -191.3393,517.74554 -225.625,612.03125 -34.28571,94.28572 -72.84375,91.4375 -72.84375,91.4375 l 2.84375,57.125 231.25,-0.0625 0.1875,-54.875 c 0,0 -14.838,-0.76195 -25.7187,-10.75 -21.1033,-19.37177 -7.75,-58.34375 -7.75,-58.34375 l 53.4687,-136.78125 237.4687,0.5 c 0,0 46.2886,115.5722 57.625,153.71875 14.7908,49.76976 -31.4062,50.65625 -31.4062,50.65625 v 55.78125 l 292.4375,-0.15625 -0.1875,-55.15625 c 0,0 -17.4155,-2.65648 -35.9375,-18.8125 -21.0102,-18.32633 -35.3125,-56.125 -35.3125,-56.125 l -239.5,-629.65625 z m 68.6562,159.1875 79.2813,220.71875 -153.5625,0.6875 z"
       transform="translate(-2446,20.362183)"
       id="path4001"
       style="fill:#ffcb08;fill-opacity:1;stroke:none" />
    <path
       d="m 1841,145.4375 -1.125,63.46875 c 0,0 18.5873,5.32601 36.375,25.0625 9.4309,10.4641 3.5938,143.28125 3.5938,143.28125 l -0.3126,425.15625 c 0,0 6.0586,16.7572 -14.2812,33.59375 -7.6779,6.35547 -14.4784,13.09219 -26.3438,14.125 l -1.4062,56.5625 271.0312,0.65625 0.6563,-57.53125 c 0,0 -9.5873,-3.78169 -24.625,-17.34375 -8.488,-7.65511 -13.7169,-18.67175 -13.5937,-29.65625 0.2278,-38.40715 1.1259,-75.31081 0.9374,-112.8125 94.9385,-22.86724 176.8968,-61.6423 208.8438,-73.40625 120.0869,-47.918 213.2691,-123.99838 207.8125,-259.71875 C 2487.532,260.71939 2438.7604,181.90437 2334.2812,164.09375 2286.6543,150.33259 2264.7886,147.92804 2246,146.875 Z m 309.9688,107.79219 c 29.2343,-0.56143 63.6671,6.13685 90.1758,19.48827 33.0369,21.93314 53.1366,44.65398 53.1366,92.71954 1.3623,22.59657 -5.1304,42.02538 -16,61.78125 -11.318,18.89081 -45.5547,55.15612 -67.1726,75.90229 -63.2001,45.18182 -85.8164,58.42722 -136.0234,81.53802 l -0.804,-322.09656 c 26.7572,-5.04664 50.758,-9.16086 76.6876,-9.33281 z"
       transform="translate(-2446,20.362183)"
       id="rect3593"
       style="fill:#ffcb08;fill-opacity:1;stroke:none" />
    <path
       d="m 540.75458,145.6884 c -226.9823,1.42857 -412.3662,166.7661 -412.3662,383.05133 0,216.28523 204.6469,402.07109 452.3662,396.47808 l 240.7127,0.6783 V 736.38887 h -45.4634 c -14.2837,35.73115 -80.9968,70.68064 -129.3669,70.68064 -25.4902,0 -89.6606,-3.46506 -113.3988,-11.7792 -41.9106,-14.67892 -101.712,-35.75045 -153.7082,-123.14142 -13.9338,-30.6351 -53.1686,-105.28898 -44.4023,-214.19078 4.2456,-65.63495 45.9366,-147.56776 120.7486,-184.67165 32.6212,-16.17886 65.4607,-18.83348 123.1208,-13.60101 41.3957,3.75653 82.5276,32.86328 96.8886,67.79717 11.107,27.01833 7.9153,59.94169 -5.16,78.69532 -0.9328,1.33796 -0.9528,2.52293 -0.7595,3.80017 0.1471,0.97218 1.408,2.592 1.408,2.592 l 22.7845,17.79932 c 0,0 6.4866,4.50696 14.0636,4.30516 4.4004,-0.11719 12.2667,-4.89104 12.2667,-4.89104 L 850.61018,293.23038 C 770.16498,184.68335 627.20458,145.6884 540.75458,145.6884 Z"
       id="path3622"
       style="fill:#ffcb08;fill-opacity:1;stroke:none" />
    <path
       d="m 4314.625,146.9375 0.25,54.53125 c 0,0 23.8448,6.41919 33.3125,13.90625 10.8238,8.55957 8.0937,23.75 8.0937,23.75 0,0 -86.497,537.5233 -88.375,547.5 -2.0203,10.73288 -4.8812,35.80842 -19.9687,49.75 -15.0022,13.86285 -32.3125,16.65625 -32.3125,16.65625 l -0.25,53.78125 h 242.1875 v -50.25 c 0,0 -19.7118,-1.52427 -32.8437,-14.65625 -13.132,-13.13198 -9.3438,-49.21875 -9.3438,-49.21875 l 59.5938,-406.09375 121.2187,349.5 147.6563,2.03125 119.9374,-376.375 66.9376,432.9375 c 0,0 8.0739,32.54659 -9.3438,49.25 -13.404,12.85426 -32.8125,14.65625 -32.8125,14.65625 v 50.25 h 280.5625 l -0.25,-53.78125 c 0,0 -6.2803,2.15034 -22.2188,-10.625 -9.3731,-7.51301 -13.8859,-41.01712 -15.9062,-51.75 -1.8779,-9.9767 -77.4688,-550.84375 -77.4688,-550.84375 0,0 -1.3149,-22.33329 10.9376,-33.75 8.8308,-8.22857 26.9062,-16.03125 26.9062,-16.03125 l -0.4375,-44.53125 -291.2813,-0.34375 -106.5937,307.03125 -101.6563,-307.03125 z"
       transform="translate(-2446,20.362183)"
       id="path3624"
       style="fill:#ffcb08;fill-opacity:1;stroke:none" />
    <path
       d="m 2988.7239,51.174683 c -77.0466,0 -139.5051,62.458547 -139.5051,139.505077 0,77.04653 62.4585,139.50508 139.5051,139.50508 77.0464,0 139.5051,-62.45855 139.5051,-139.50508 0,-77.04653 -62.4587,-139.505077 -139.5051,-139.505077 z m 0,18.755404 c 66.6879,0 120.7495,54.061653 120.7495,120.749673 0,66.68802 -54.0616,120.74967 -120.7495,120.74967 -66.6881,0 -120.7498,-54.06165 -120.7498,-120.74967 0,-66.68802 54.0617,-120.749673 120.7498,-120.749673 z"
       id="path3629"
       style="fill:#0c4da2;fill-opacity:1;stroke:none" />
    <path
       d="m 5362.9062,86.0625 v 165.15625 h 34.8438 v -57.25 h 46.2812 l 38.3126,57.96875 39.125,-0.25 -46.75,-61.4375 c 19.1951,-7.83723 32.7812,-27.16764 32.7812,-49.8125 0,-29.19505 -22.5791,-52.938554 -50.6562,-53.5625 V 86.1875 H 5397.75 v -0.125 z m 34.8438,33.34375 57.9688,0.3125 c 11.7756,1.99937 19.5944,3.20968 19.2767,20.90179 -0.34,18.93233 -14.9177,21.45513 -19.2767,21.59821 l -57.9688,0.6875 z"
       transform="translate(-2446,20.362183)"
       id="rect3634"
       style="fill:#0c4da2;fill-opacity:1;stroke:none" />
  </g>
</svg>
