<?xml version="1.0" encoding="UTF-8" standalone="no"?>
<svg
   version="1.1"
   id="Ebene_1"
   x="0px"
   y="0px"
   width="159.77148"
   height="64"
   viewBox="0 0 159.77148 64"
   sodipodi:docname="logo_data_east.svg"
   inkscape:version="1.4.2 (2aeb623e1d, 2025-05-12)"
   xmlns:inkscape="http://www.inkscape.org/namespaces/inkscape"
   xmlns:sodipodi="http://sodipodi.sourceforge.net/DTD/sodipodi-0.dtd"
   xmlns="http://www.w3.org/2000/svg"
   xmlns:svg="http://www.w3.org/2000/svg">
  <defs
     id="defs1" />
  <sodipodi:namedview
     id="namedview1"
     pagecolor="#ffffff"
     bordercolor="#000000"
     borderopacity="0.25"
     inkscape:showpageshadow="2"
     inkscape:pageopacity="0.0"
     inkscape:pagecheckerboard="0"
     inkscape:deskcolor="#d1d1d1"
     inkscape:zoom="5.8480984"
     inkscape:cx="80.197009"
     inkscape:cy="31.206725"
     inkscape:window-width="1854"
     inkscape:window-height="1011"
     inkscape:window-x="0"
     inkscape:window-y="0"
     inkscape:window-maximized="1"
     inkscape:current-layer="Ebene_1" />
  <g
     id="path1-9"
     style="opacity:1"
     transform="translate(-408.81055,184.83594)">
    <path
       style="baseline-shift:baseline;display:inline;overflow:visible;vector-effect:none;fill:#ffffff;stroke-linecap:round;stroke-linejoin:round;enable-background:accumulate;stop-color:#000000;stop-opacity:1"
       d="m 481.56583,-177.4719 h 11.30953 c 6.21963,0 8.98931,2.29592 8.98931,8.56414 v 4.61613 c 0,6.02527 -1.96793,8.87998 -8.18756,8.87998 h -12.11128 z m 5.95238,16.94606 h 5.21137 c 2.19874,0 3.00049,-1.44558 3.00049,-3.76579 v -4.61613 c 0,-2.85472 -0.92323,-3.43781 -3.00049,-3.43781 h -5.21137 z m 21.90234,1.3241 -1.10545,3.79009 h -6.19533 l 6.70554,-22.06025 h 9.05004 l 6.77843,22.06025 h -6.07386 l -1.16618,-3.79009 z m 4.04519,-13.84839 h -0.0607 l -2.70895,9.5481 h 5.53936 z m 21.05198,17.63848 h -5.95238 v -16.93392 h -6.88775 v -5.12633 h 20.03158 v 5.11419 h -7.19145 z m 11.47959,-3.79009 -1.10544,3.79009 h -6.19533 l 6.70554,-22.06025 h 9.05005 l 6.79057,22.06025 h -6.07386 l -1.16618,-3.79009 z m 4.04519,-13.84839 h -0.0607 l -2.70894,9.56025 h 5.53935 z m -62.172,31.45043 h 10.31341 v 4.09378 H 487.8705 v 4.30029 h 11.1516 v 4.8105 h -17.10398 v -22.06025 h 16.88532 v 4.82264 H 487.8705 Z m 20.04373,9.41448 -1.10544,3.79009 h -6.19534 l 6.69339,-22.06025 h 9.05005 l 6.79057,22.06025 h -6.07386 l -1.16618,-3.79009 z m 4.04519,-13.84839 h -0.0607 l -2.70894,9.56025 h 5.53936 z m 22.70408,4.2274 c 6.88775,0.47376 8.60058,1.29981 8.60058,6.35326 0,3.64431 0.15792,7.24004 -10.08261,7.24004 -5.92808,0 -9.87609,-0.12148 -9.87609,-7.34937 h 5.96453 c 0,2.29592 0.87464,2.52672 3.91156,2.52672 2.91546,0 3.87513,-0.18221 3.87513,-2.02867 0,-1.90719 -0.34014,-1.88289 -3.25559,-2.06511 l -1.36055,-0.085 c -5.74587,-0.37658 -9.09864,-0.35228 -9.09864,-6.68124 0,-6.32896 3.75365,-6.72984 9.83965,-6.72984 5.0899,0 9.43878,0.085 9.43878,6.17104 v 0.91108 h -5.96453 c 0,-2.25947 -0.99611,-2.25947 -3.47425,-2.25947 -3.35277,0 -3.63216,0.64383 -3.63216,1.88289 0,1.76142 0.89893,1.82216 2.55102,1.94364 z m 20.90622,13.41108 h -5.95239 v -16.93392 h -5.70942 v -5.11418 h 17.67492 v 5.11418 h -6.01311 z m -102.78183,-25.01215 h 19.75219 v -14.57726 c -1.29981,-0.35228 -2.6725,-0.54664 -4.08163,-0.54664 -8.46696,0 -15.37901,6.74198 -15.67056,15.1239 z m 15.67056,16.25365 c 1.40913,0 2.78182,-0.19437 4.08163,-0.54665 v -14.57726 h -19.75219 c 0.29155,8.38192 7.2036,15.12391 15.67056,15.12391 z m 0,-40.6827 c -11.74684,0 -21.61079,8.11467 -24.28329,19.03547 -2.6725,-10.9208 -12.52429,-19.03547 -24.28328,-19.03547 -1.38484,0 -2.75753,0.12147 -4.08164,0.34013 v 8.35763 c 1.31196,-0.32799 2.6725,-0.49806 4.08164,-0.49806 9.2687,0 16.81244,7.54374 16.81244,16.81244 0,9.26871 -7.54374,16.78815 -16.81244,16.78815 -1.40914,0 -2.78183,-0.17007 -4.08164,-0.49806 v 8.35763 c 1.32411,0.21866 2.6968,0.34014 4.08164,0.34014 11.74684,0 21.61078,-8.11468 24.28328,-19.03548 2.6725,10.93295 12.5243,19.03548 24.28329,19.03548 1.39698,0 2.75753,-0.12148 4.08163,-0.34014 v -8.35763 c -1.31195,0.32799 -2.6725,0.49806 -4.08163,0.49806 -9.26871,0 -16.81244,-7.54373 -16.81244,-16.81244 0,-9.26871 7.54373,-16.80029 16.81244,-16.80029 1.40913,0 2.78182,0.17006 4.08163,0.49805 v -8.34548 c -1.3241,-0.21866 -2.69679,-0.34013 -4.08163,-0.34013 z m -32.87172,25 c 0,-8.64918 -7.03353,-15.68271 -15.6827,-15.68271 -1.42129,-0.0121 -2.79398,0.18222 -4.09379,0.5345 v 30.28426 c 1.29981,0.35228 2.6725,0.54665 4.08164,0.54665 8.64917,0 15.69485,-7.03353 15.69485,-15.6827 z"
       id="path2" />
    <path
       style="baseline-shift:baseline;display:inline;overflow:visible;vector-effect:none;fill:#ffffff;stroke-linecap:round;stroke-linejoin:round;enable-background:accumulate;stop-color:#000000;stop-opacity:1"
       d="m 419.89258,-184.83594 c -1.79417,0 -3.54241,0.15612 -5.22266,0.4336 -3.37976,0.55848 -5.85898,3.48066 -5.85937,6.90625 v 8.35742 c 0.0709,0.16038 0.14775,0.31804 0.23047,0.47265 -0.0885,0.22312 -0.16538,0.45063 -0.23047,0.68165 v 30.2832 c 0.0661,0.23373 0.14434,0.46385 0.23437,0.68945 -0.0842,0.15647 -0.16235,0.3161 -0.23437,0.47852 v 8.35742 c 3.9e-4,3.42559 2.47961,6.34777 5.85937,6.90625 1.68022,0.27747 3.42845,0.43359 5.22266,0.43359 9.70387,0 18.39688,-4.39657 24.28125,-11.27539 5.8837,6.87983 14.57816,11.27539 24.28515,11.27539 1.80279,0 3.54728,-0.15724 5.22071,-0.43359 1.38139,-0.3017 2.63905,-1.01462 3.60742,-2.04492 1.25371,1.18966 2.90317,1.87351 4.63086,1.91992 h 17.10351 c 0.29882,-0.10064 0.5905,-0.22136 0.87305,-0.36133 0.23246,0.13412 0.47244,0.25476 0.71875,0.36133 h 6.19531 c 2.02742,-0.12698 3.89971,-1.12834 5.13086,-2.74414 1.23203,1.6168 3.10596,2.61827 5.13477,2.74414 h 6.07226 c 0.55247,-0.19646 1.07808,-0.46156 1.56446,-0.78906 3.21244,1.17185 5.97317,0.9707 8.4707,0.9707 4.543,0 8.35522,-0.50992 11.41992,-2.39258 1.30188,1.38806 3.11274,2.18631 5.01563,2.21094 h 5.95312 c 3.86583,-3.9e-4 6.99961,-3.13417 7,-7 v -10.34375 c 3.32508,-0.4704 5.84774,-3.23565 6.01172,-6.58984 v -5.11524 c -0.1682,-1.14538 -0.61781,-2.23117 -1.30859,-3.16016 0.58412,-1.1998 0.81317,-2.54155 0.66015,-3.86718 l -6.79101,-22.06055 c -0.90403,-2.93735 -3.61809,-4.9416 -6.69141,-4.94141 h -9.04883 c -0.71598,0.11869 -1.40916,0.34799 -2.05468,0.67969 -0.51519,-0.29514 -1.06584,-0.52353 -1.63868,-0.67969 h -20.03125 c -0.58985,0.15792 -1.15651,0.39233 -1.68554,0.69727 -0.66396,-0.34401 -1.37875,-0.57941 -2.11719,-0.69727 h -9.04883 c -2.17175,0.13615 -4.15671,1.27444 -5.37109,3.08008 -3.18704,-2.41817 -6.9795,-3.08008 -10.58008,-3.08008 h -11.30859 c -1.72581,0.0463 -3.37365,0.72867 -4.62696,1.91602 -0.89875,-0.89992 -2.02569,-1.538 -3.25976,-1.8457 -1.68025,-0.27748 -3.42653,-0.4336 -5.22071,-0.4336 -9.70431,0 -18.39882,4.39603 -24.2832,11.27539 -5.88248,-6.87781 -14.57452,-11.27539 -24.2832,-11.27539 z m 140.71094,23.28735 0.0898,0.28906 c -0.0482,-0.0706 -0.0977,-0.14023 -0.14844,-0.20898 z m -95.0625,0.58594 v 0.55469 h -1.14258 c 0.378,-0.20218 0.73226,-0.40934 1.14258,-0.55469 z m -42.73047,0.0195 c 3.37331,1.18504 5.77539,4.28926 5.77539,8.10742 0,3.80942 -2.40391,6.91435 -5.77539,8.10352 z m 41.58789,15.66602 h 1.14258 v 0.55468 c -0.41032,-0.14535 -0.76458,-0.3525 -1.14258,-0.55468 z"
       id="path3"
       sodipodi:nodetypes="sccccccccccscscccccccccccscccccccccccccccccccscccscscccccccccscccccc" />
  </g>
  <path
     d="m 72.75504,7.36443 h 11.30953 c 6.21963,0 8.98931,2.29592 8.98931,8.56414 v 4.61613 c 0,6.02527 -1.96793,8.87998 -8.18756,8.87998 H 72.75503 Z m 5.95238,16.94606 h 5.21137 c 2.19874,0 3.00049,-1.44558 3.00049,-3.76579 v -4.61613 c 0,-2.85472 -0.92323,-3.43781 -3.00049,-3.43781 h -5.21137 z m 21.90233,1.3241 -1.10545,3.79009 h -6.19533 l 6.70555,-22.06025 h 9.05003 l 6.77844,22.06025 h -6.07386 l -1.16618,-3.79009 z m 4.0452,-13.84839 h -0.0607 l -2.70895,9.5481 h 5.53936 z m 21.05198,17.63848 h -5.95238 V 12.49076 h -6.88776 V 7.36443 h 20.03159 v 5.11419 h -7.19145 z m 11.47959,-3.79009 -1.10545,3.79009 h -6.19533 l 6.70555,-22.06025 h 9.05005 l 6.79057,22.06025 h -6.07386 l -1.16618,-3.79009 z m 4.04519,-13.84839 h -0.0607 l -2.70894,9.56025 h 5.53935 z m -62.172,31.45043 h 10.31341 v 4.09378 H 79.05971 v 4.30029 h 11.1516 v 4.8105 H 73.10732 V 34.38095 h 16.88533 v 4.82264 H 79.05971 Z m 20.04373,9.41448 -1.10545,3.79009 h -6.19533 l 6.69339,-22.06025 h 9.05005 l 6.79057,22.06025 h -6.07386 l -1.16618,-3.79009 z m 4.04519,-13.84839 h -0.0607 l -2.70894,9.56025 h 5.53936 z m 22.70408,4.2274 c 6.88775,0.47376 8.60058,1.29981 8.60058,6.35326 0,3.64431 0.15792,7.24004 -10.08261,7.24004 -5.92808,0 -9.87609,-0.12148 -9.87609,-7.34937 h 5.96453 c 0,2.29592 0.87464,2.52672 3.91156,2.52672 2.91546,0 3.87513,-0.18221 3.87513,-2.02867 0,-1.90719 -0.34014,-1.88289 -3.25559,-2.06511 l -1.36055,-0.085 c -5.74587,-0.37658 -9.09864,-0.35228 -9.09864,-6.68124 0,-6.32896 3.75365,-6.72984 9.83965,-6.72984 5.0899,0 9.43878,0.085 9.43878,6.17104 v 0.91108 h -5.96453 c 0,-2.25947 -0.99612,-2.25947 -3.47425,-2.25947 -3.35278,0 -3.63216,0.64383 -3.63216,1.88289 0,1.76142 0.89893,1.82216 2.55102,1.94364 z m 20.90622,13.41108 h -5.9524 V 39.50728 h -5.70942 V 34.3931 h 17.67493 v 5.11418 h -6.01311 z M 43.9771,31.42905 H 63.72928 V 16.85179 c -1.29981,-0.35228 -2.67249,-0.54664 -4.08162,-0.54664 -8.46697,0 -15.37902,6.74198 -15.67056,15.1239 z M 59.64766,47.6827 c 1.40913,0 2.78181,-0.19437 4.08163,-0.54665 V 32.55879 H 43.9771 c 0.29155,8.38192 7.2036,15.12391 15.67056,15.12391 z M 59.64766,7 C 47.90082,7 38.03687,15.11467 35.36436,26.03547 32.69187,15.11467 22.84008,7 11.08109,7 9.69625,7 8.32355,7.12147 6.99944,7.34013 v 8.35763 c 1.31196,-0.32799 2.67251,-0.49806 4.08165,-0.49806 9.2687,0 16.81243,7.54374 16.81243,16.81244 0,9.26871 -7.54374,16.78815 -16.81243,16.78815 -1.40914,0 -2.78184,-0.17007 -4.08165,-0.49806 v 8.35763 C 8.32355,56.87852 9.69625,57 11.08109,57 22.82793,57 32.69187,48.88532 35.36436,37.96452 38.03687,48.89747 47.88866,57 59.64766,57 c 1.39698,0 2.75753,-0.12148 4.08163,-0.34014 v -8.35763 c -1.31195,0.32799 -2.6725,0.49806 -4.08163,0.49806 -9.26872,0 -16.81244,-7.54373 -16.81244,-16.81244 0,-9.26871 7.54372,-16.80029 16.81244,-16.80029 1.40913,0 2.78181,0.17006 4.08163,0.49805 V 7.34013 C 62.40519,7.12147 61.03249,7 59.64766,7 Z M 26.77594,32 c 0,-8.64918 -7.03353,-15.68271 -15.6827,-15.68271 -1.42129,-0.0121 -2.79398,0.18222 -4.0938,0.5345 v 30.28426 c 1.29981,0.35228 2.67251,0.54665 4.08165,0.54665 8.64916,0 15.69484,-7.03353 15.69485,-15.6827 z"
     id="path1"
     style="stroke-width:0.121477" />
</svg>
