<?xml version="1.0" encoding="UTF-8" standalone="no"?>
<!-- Created with Inkscape (http://www.inkscape.org/) -->

<svg
   version="1.1"
   width="170.72461"
   height="64"
   id="svg4426"
   sodipodi:docname="logo_taito.svg"
   inkscape:version="1.4.2 (2aeb623e1d, 2025-05-12)"
   xmlns:inkscape="http://www.inkscape.org/namespaces/inkscape"
   xmlns:sodipodi="http://sodipodi.sourceforge.net/DTD/sodipodi-0.dtd"
   xmlns="http://www.w3.org/2000/svg"
   xmlns:svg="http://www.w3.org/2000/svg"
   xmlns:rdf="http://www.w3.org/1999/02/22-rdf-syntax-ns#"
   xmlns:cc="http://creativecommons.org/ns#"
   xmlns:dc="http://purl.org/dc/elements/1.1/">
  <sodipodi:namedview
     id="namedview3753"
     pagecolor="#ffffff"
     bordercolor="#000000"
     borderopacity="0.25"
     inkscape:showpageshadow="2"
     inkscape:pageopacity="0.0"
     inkscape:pagecheckerboard="0"
     inkscape:deskcolor="#d1d1d1"
     showgrid="false"
     inkscape:zoom="2.2925831"
     inkscape:cx="46.672245"
     inkscape:cy="70.008367"
     inkscape:window-width="1854"
     inkscape:window-height="1011"
     inkscape:window-x="0"
     inkscape:window-y="0"
     inkscape:window-maximized="1"
     inkscape:current-layer="svg4426" />
  <defs
     id="defs4428" />
  <metadata
     id="metadata4431">
    <rdf:RDF>
      <cc:Work
         rdf:about="">
        <dc:format>image/svg+xml</dc:format>
        <dc:type
           rdf:resource="http://purl.org/dc/dcmitype/StillImage" />
      </cc:Work>
    </rdf:RDF>
  </metadata>
  <g
     id="path3027-2"
     style="opacity:1"
     transform="translate(28.683594,139.19336)">
    <path
       style="baseline-shift:baseline;display:inline;overflow:visible;vector-effect:none;fill:#ffffff;stroke-linecap:round;stroke-linejoin:round;enable-background:accumulate;stop-color:#000000;stop-opacity:1"
       d="m 49.097656,-132.19336 c -3.338747,0 -6.044922,2.70593 -6.044922,6.04297 0,3.33704 2.706175,6.04297 6.044922,6.04297 3.337041,0 6.044922,-2.70593 6.044922,-6.04297 0,-3.33704 -2.707881,-6.04297 -6.044922,-6.04297 z m 80.890624,7.74414 c -2.79166,0 -5.05469,2.26302 -5.05469,5.05469 0.002,2.78825 2.26497,5.05273 5.05664,5.05273 2.79166,0 5.05179,-2.26642 5.05079,-5.05468 0,-2.79337 -2.26108,-5.05374 -5.05274,-5.05274 z m 0,0.63086 c 2.44228,0 4.42188,1.9796 4.42188,4.42188 0.002,2.44058 -1.97766,4.42087 -4.41993,4.42187 -2.44399,0 -4.42578,-1.97935 -4.42578,-4.41992 0,-2.44228 1.98155,-4.42283 4.42383,-4.42383 z m -2.0664,1.9082 v 5.13477 h 0.9375 v -2.0293 -0.002 h 1.23437 l 1.40039,1.96875 1.05078,0.008 -1.41211,-2.0293 c 0.75842,0 1.39063,-0.73953 1.39063,-1.55078 0,-0.81125 -0.70218,-1.5 -1.33789,-1.5 z m -104.277349,0.125 -20.9843748,38.611332 H 14.072266 c 1.233921,-11.74441 6.607582,-22.030112 14.501953,-29.541012 z m 4.929688,9.07032 1.523437,2.80468 c 2.737036,-3.77304 6.137429,-7.05638 10.046875,-9.66211 l -0.533203,-0.97656 c -4.037514,2.07074 -7.754605,4.71169 -11.037109,7.83399 z m 1.523437,2.80468 c -5.407447,7.46137 -8.228854,16.843116 -7.294922,26.736332 h 21.828125 z m 98.759764,-11.17187 h 2.09961 c 0.44142,0 0.6892,0.39057 0.6875,0.72461 0.001,0.3528 -0.31873,0.70508 -0.72265,0.70508 -0.40564,0 -2.0625,0.002 -2.0625,0.002 h -0.002 z m -19.46289,3.25781 c -11.545006,0 -20.14453,7.16591 -20.14453,17.81445 0,10.648538 8.599524,17.816411 20.14453,17.816411 11.54671,0 20.14453,-7.167873 20.14453,-17.816411 0,-10.64854 -8.59782,-17.81445 -20.14453,-17.81445 z m -131.078124,1.07617 v 6.54688 h 12.7578128 v 27.027342 h 8.0585937 V -110.20117 H 11.890625 v -6.54688 z m 66.751953,0 v 33.574222 h 8.058594 v -33.574222 z m 10.605469,0 v 6.54688 h 12.759766 v 27.027342 h 8.058594 v -27.027342 h 12.759765 v -6.54688 z m 53.720702,5.13282 c 6.41673,0 11.61328,4.61778 11.61328,11.60546 0,6.987677 -5.19655,11.609379 -11.61328,11.609379 -6.41673,0 -11.61328,-4.621702 -11.61328,-11.609379 0,-6.98768 5.19655,-11.60546 11.61328,-11.60546 z"
       id="path1" />
    <path
       style="baseline-shift:baseline;display:inline;overflow:visible;vector-effect:none;fill:#ffffff;stroke-linecap:round;stroke-linejoin:round;enable-background:accumulate;stop-color:#000000;stop-opacity:1"
       d="m 49.097656,-139.19336 c -6.972763,0 -12.760644,5.68695 -13,12.60938 -1.849616,0.96476 -3.612486,2.07124 -5.333984,3.23828 l -0.96875,-1.78125 c -2.650891,-4.87557 -9.64989,-4.87557 -12.300781,0 l -1.642578,3.02148 c -1.115999,-0.94836 -2.501316,-1.52284 -3.960938,-1.64258 h -33.574219 c -3.865833,3.9e-4 -6.999613,3.13417 -7,7 v 6.54688 c 3.87e-4,3.86583 3.134167,6.99961 7,7 h 5.757813 v 20.027342 c 3.87e-4,3.865833 3.134167,6.999613 6.9999997,7 h 8.0585938 c 0.72081193,-0.172096 1.40972706,-0.457551 2.0410156,-0.845703 0.4590214,0.341581 0.9581873,0.6256 1.4863282,0.845703 H 14.072266 c 1.610262,-0.03987 3.157517,-0.633801 4.380859,-1.681641 1.215078,1.041165 2.750162,1.634658 4.349609,1.681641 h 21.828125 c 0.06173,-0.03423 0.122931,-0.06939 0.183594,-0.105469 0.08394,0.03682 0.168588,0.07198 0.253906,0.105469 h 8.058594 c 3.865833,-3.87e-4 11.440808,-3.87e-4 15.306641,0 h 8.058593 c 3.865833,-3.87e-4 6.999613,-3.134167 7,-7 v -9.527344 c 1.328402,4.243868 3.656574,8.050642 6.908204,10.876953 5.03671,4.377901 11.772959,6.63086 18.994139,6.63086 7.22182,0 13.95752,-2.254734 18.99414,-6.632813 5.03662,-4.378079 8.15039,-10.97535 8.15039,-18.183598 0,-2.98261 -0.64512,-5.80916 -1.62695,-8.46875 4.16051,-1.91706 7.12983,-6.10165 7.12891,-10.91796 0,-6.57012 -5.48207,-12.05399 -12.05274,-12.05274 h -0.002 c -5.16389,8.7e-4 -9.54278,3.42363 -11.23047,8.06055 -2.95559,-0.91014 -6.09473,-1.43555 -9.36133,-1.43555 -5.42265,0 -10.570181,1.27298 -14.931639,3.75977 -1.260877,-1.61362 -3.165062,-2.59427 -5.210938,-2.6836 H 61.896484 c 0.150136,-0.78181 0.246094,-1.5813 0.246094,-2.40234 0,-7.12386 -5.923788,-13.04297 -13.044922,-13.04297 z"
       id="path2"
       sodipodi:nodetypes="scccccccccccccccccccccccccccssssccsscscccss" />
  </g>
  <g
     transform="matrix(1.3634492,0,0,1.3634492,-739.14751,-269.23176)"
     id="layer1">
    <path
       d="m 571.87491,213.92596 h -24.625 v 4.8025 h 9.3575 v 19.8225 h 5.91 v -19.8225 h 9.3575 z"
       id="path3027"
       style="fill:#4f4c4d;fill-opacity:1;fill-rule:nonzero;stroke:none" />
    <path
       d="m 628.61328,213.92596 h -24.62625 v 4.8025 h 9.3575 v 19.8225 h 5.91125 v -19.8225 h 9.3575 z"
       id="path3031"
       style="fill:#4f4c4d;fill-opacity:1;fill-rule:nonzero;stroke:none" />
    <path
       d="m 596.20853,238.55146 h 5.91 v -24.625 h -5.91 z"
       id="path3033"
       style="fill:#4f4c4d;fill-opacity:1;fill-rule:nonzero;stroke:none" />
    <path
       d="m 579.87791,238.55116 v 0 h 16.00875 l -10.65875,-19.61 c -3.96625,5.4725 -6.035,12.35375 -5.35,19.61"
       id="path3037"
       style="fill:#127bca;fill-opacity:1;fill-rule:nonzero;stroke:none" />
    <path
       d="m 565.10378,238.55116 h 8.37125 c 0.905,-8.61375 4.845,-16.1575 10.635,-21.66625 l -3.615,-6.6525 z"
       id="path3041"
       style="fill:#127bca;fill-opacity:1;fill-rule:nonzero;stroke:none" />
    <path
       d="m 599.16378,202.59776 c -2.44875,0 -4.43375,1.985 -4.43375,4.4325 0,2.4475 1.985,4.4325 4.43375,4.4325 2.4475,0 4.4325,-1.985 4.4325,-4.4325 0,-2.4475 -1.985,-4.4325 -4.4325,-4.4325"
       id="path3045"
       style="fill:#127bca;fill-opacity:1;fill-rule:nonzero;stroke:none" />
    <path
       d="m 592.59641,211.85566 -0.39125,-0.71625 c -2.96125,1.51875 -5.6875,3.455 -8.095,5.745 l 1.1175,2.0575 c 2.0075,-2.7675 4.50125,-5.175 7.36875,-7.08625"
       id="path3049"
       style="fill:#127bca;fill-opacity:1;fill-rule:nonzero;stroke:none" />
    <path
       d="m 643.38741,234.71696 c -4.70625,0 -8.5175,-3.38875 -8.5175,-8.51375 0,-5.125 3.81125,-8.5125 8.5175,-8.5125 4.70625,0 8.5175,3.3875 8.5175,8.5125 0,5.125 -3.81125,8.51375 -8.5175,8.51375 m 0,-21.58 c -8.4675,0 -14.775,5.25625 -14.775,13.06625 0,7.81 6.3075,13.06625 14.775,13.06625 8.46875,0 14.775,-5.25625 14.775,-13.06625 0,-7.81 -6.30625,-13.06625 -14.775,-13.06625"
       id="path3053"
       style="fill:#4f4c4d;fill-opacity:1;fill-rule:nonzero;stroke:none" />
    <path
       d="m 658.4909,208.74057 c -1.79125,0.001 -3.24375,1.45375 -3.24375,3.245 0,1.79 1.4525,3.24125 3.245,3.24125 1.79125,-0.001 3.24375,-1.4525 3.2425,-3.2425 0,-1.79125 -1.4525,-3.24375 -3.24375,-3.24375 v -0.4625 c 2.0475,-0.001 3.70625,1.6575 3.70625,3.70625 0.001,2.045 -1.6575,3.70625 -3.705,3.70625 -2.0475,0 -3.70625,-1.66 -3.7075,-3.705 0,-2.0475 1.65875,-3.7075 3.70625,-3.7075 z"
       id="path3019-1"
       style="fill:#000000;fill-opacity:1;fill-rule:nonzero;stroke:none" />
    <path
       d="m 657.66202,211.79717 -10e-4,-1.04875 c 0,0 1.26875,-0.001 1.54,-0.001 0.32375,0 0.50625,0.28625 0.505,0.53125 0.001,0.25875 -0.23375,0.5175 -0.53,0.5175 -0.2975,0 -1.51375,0.001 -1.51375,0.001 v 0.62 l 0.90625,-0.001 1.0275,1.44375 0.77,0.006 -1.035,-1.4875 c 0.55625,0 1.01875,-0.54375 1.01875,-1.13875 0,-0.595 -0.515,-1.09875 -0.98125,-1.09875 h -2.3925 v 3.765 h 0.68625 v -1.48875 -0.62 z"
       id="path3023-7"
       style="fill:#000000;fill-opacity:1;fill-rule:nonzero;stroke:none" />
  </g>
</svg>
