<?xml version="1.0" encoding="UTF-8" standalone="no"?>
<!-- Created with Inkscape (http://www.inkscape.org/) -->

<svg
   version="1.0"
   width="789.77441"
   height="150"
   id="svg2"
   sodipodi:docname="logo_namco.svg"
   inkscape:version="1.2.2 (732a01da63, 2022-12-09)"
   xmlns:inkscape="http://www.inkscape.org/namespaces/inkscape"
   xmlns:sodipodi="http://sodipodi.sourceforge.net/DTD/sodipodi-0.dtd"
   xmlns="http://www.w3.org/2000/svg"
   xmlns:svg="http://www.w3.org/2000/svg">
  <sodipodi:namedview
     id="namedview3450"
     pagecolor="#ffffff"
     bordercolor="#000000"
     borderopacity="0.25"
     inkscape:showpageshadow="2"
     inkscape:pageopacity="0.0"
     inkscape:pagecheckerboard="0"
     inkscape:deskcolor="#d1d1d1"
     showgrid="false"
     inkscape:zoom="1.5125"
     inkscape:cx="295.86777"
     inkscape:cy="48.264463"
     inkscape:window-width="1920"
     inkscape:window-height="1017"
     inkscape:window-x="-8"
     inkscape:window-y="-8"
     inkscape:window-maximized="1"
     inkscape:current-layer="svg2" />
  <defs
     id="defs4" />
  <g
     id="layer1"
     transform="translate(-8.1985596,18.298993)">
    <path
       d="m 649.08982,6.2827844 c -14.6543,0 -26.88228,12.2279806 -26.88228,26.8822816 v 46.960336 c 0,14.654303 12.22798,26.882318 26.88228,26.882288 h 85.10864 c 14.6543,0 26.88221,-12.228021 26.88228,-26.882288 V 33.165066 c 0,-14.654301 -12.22798,-26.8822816 -26.88228,-26.8822816 z m 6.09013,28.5554526 h 72.29741 v 43.613994 h -72.29741 z"
       id="rect4393"
       style="opacity:1;fill:#a51e23;fill-opacity:1;fill-rule:nonzero;stroke:none;stroke-width:8;stroke-linecap:round;stroke-linejoin:round;stroke-miterlimit:4;stroke-dasharray:none;stroke-opacity:1" />
    <path
       d="M 8.1985733,8.2905898 V 107.11923 H 41.170984 V 36.846042 h 62.248536 v 70.273188 h 32.34141 V 35.172871 c 0,-14.654302 -12.22799,-26.8822812 -26.88229,-26.8822812 z"
       id="rect4348"
       style="opacity:1;fill:#a51e23;fill-opacity:1;fill-rule:nonzero;stroke:none;stroke-width:8;stroke-linecap:round;stroke-linejoin:round;stroke-miterlimit:4;stroke-dasharray:none;stroke-opacity:1" />
    <path
       d="M 158.06987,8.2905898 V 34.280513 h 89.57043 v 7.027319 h -69.93855 c -14.6543,0 -26.88228,12.339526 -26.88228,26.993828 v 11.935287 c 0,14.654302 12.22798,26.882283 26.88228,26.882283 h 69.93855 14.61236 17.73562 V 35.172871 C 279.98824,20.518569 267.7603,8.2905898 253.10599,8.2905898 Z m 26.43611,59.3418012 h 63.13432 v 14.054638 h -63.13432 z"
       id="path4359"
       style="opacity:1;fill:#a51e23;fill-opacity:1;fill-rule:nonzero;stroke:none;stroke-width:8;stroke-linecap:round;stroke-linejoin:round;stroke-miterlimit:4;stroke-dasharray:none;stroke-opacity:1" />
    <path
       d="M 300.28942,8.2905898 V 107.11923 h 33.01724 V 36.846042 h 33.9096 V 107.11923 H 400.2335 V 36.846042 h 34.57887 v 70.273188 h 32.34797 V 35.172871 c 4e-5,-14.654302 -12.22798,-26.8822812 -26.88228,-26.8822812 z"
       id="path4384"
       style="opacity:1;fill:#a51e23;fill-opacity:1;fill-rule:nonzero;stroke:none;stroke-width:8;stroke-linecap:round;stroke-linejoin:round;stroke-miterlimit:4;stroke-dasharray:none;stroke-opacity:1" />
    <path
       d="m 513.22832,6.2827844 c -14.6543,0 -26.88228,12.2279806 -26.88228,26.8822816 v 46.960336 c 0,14.654303 12.22798,26.882318 26.88228,26.882288 h 90.35124 V 78.452231 H 519.94942 V 34.838237 h 83.63014 V 6.2827844 Z"
       id="rect4389"
       style="opacity:1;fill:#a51e23;fill-opacity:1;fill-rule:nonzero;stroke:none;stroke-width:8;stroke-linecap:round;stroke-linejoin:round;stroke-miterlimit:4;stroke-dasharray:none;stroke-opacity:1" />
    <path
       d="m 782.22423,7.1951312 c 4.30842,3.57e-5 8.01031,1.5442432 11.10568,4.6325868 3.09534,3.088415 4.64301,6.800767 4.64305,11.137054 -4e-5,4.336324 -1.54075,8.052138 -4.62213,11.147514 -3.08145,3.09534 -6.79031,4.643045 -11.1266,4.643045 -4.35024,0 -8.07305,-1.544207 -11.16839,-4.632587 -3.09538,-3.088415 -4.64308,-6.807727 -4.64308,-11.157972 0,-4.350243 1.55117,-8.066058 4.65354,-11.147512 3.1023,-3.0813836 6.82165,-4.6220931 11.15793,-4.6221288 z m -0.0418,28.9667578 c 3.61127,0 6.7101,-1.293205 9.29659,-3.879651 2.58641,-2.586446 3.87961,-5.692244 3.87965,-9.317466 -4e-5,-3.625185 -1.28978,-6.724023 -3.8692,-9.296548 -2.57952,-2.572489 -5.68185,-3.8587339 -9.30704,-3.8587696 -3.62519,3.57e-5 -6.72406,1.2862806 -9.29655,3.8587696 -2.57249,2.572525 -3.85873,5.671363 -3.85873,9.296548 0,3.625222 1.28624,6.73102 3.85873,9.317466 2.57249,2.586446 5.67136,3.879651 9.29655,3.879651 z m 7.11099,-4.454793 h -3.13721 l -1.31762,-3.701894 c -0.79477,-2.216938 -2.29365,-3.325425 -4.49663,-3.325425 h -2.15422 v 7.027319 h -2.73983 V 14.7453 h 6.37897 c 4.48967,3.6e-5 6.73452,1.554702 6.73452,4.663963 0,2.997785 -1.471,4.608206 -4.413,4.831295 1.50584,0.460136 2.62129,1.53375 3.34634,3.220841 z m -11.10568,-9.390675 h 3.43001 c 2.69099,0 4.03649,-0.885362 4.03652,-2.656157 -3e-5,-1.742881 -1.38736,-2.614322 -4.16203,-2.614322 h -3.3045 z"
       id="text4406"
       style="font-style:normal;font-variant:normal;font-weight:normal;font-stretch:normal;font-size:12px;line-height:100%;font-family:'Microsoft Sans Serif';-inkscape-font-specification:'Microsoft Sans Serif';text-align:start;writing-mode:lr-tb;text-anchor:start;fill:#a51e23;fill-opacity:1;stroke:none;stroke-width:1px;stroke-linecap:butt;stroke-linejoin:miter;stroke-opacity:1" />
  </g>
</svg>
