<?xml version="1.0" encoding="UTF-8" standalone="no"?>
<svg
   width="65.474449"
   height="64.014595"
   viewBox="0 0 3.5039061 3.4055765"
   version="1.1"
   id="svg1"
   sodipodi:docname="logo_bandai.svg"
   inkscape:version="1.4.2 (2aeb623e1d, 2025-05-12)"
   xmlns:inkscape="http://www.inkscape.org/namespaces/inkscape"
   xmlns:sodipodi="http://sodipodi.sourceforge.net/DTD/sodipodi-0.dtd"
   xmlns="http://www.w3.org/2000/svg"
   xmlns:svg="http://www.w3.org/2000/svg">
  <defs
     id="defs1" />
  <sodipodi:namedview
     id="namedview1"
     pagecolor="#ffffff"
     bordercolor="#000000"
     borderopacity="0.25"
     inkscape:showpageshadow="2"
     inkscape:pageopacity="0.0"
     inkscape:pagecheckerboard="0"
     inkscape:deskcolor="#d1d1d1"
     inkscape:zoom="2.271227"
     inkscape:cx="-9.2461036"
     inkscape:cy="6.824505"
     inkscape:window-width="1854"
     inkscape:window-height="1011"
     inkscape:window-x="0"
     inkscape:window-y="0"
     inkscape:window-maximized="1"
     inkscape:current-layer="svg1" />
  <g
     id="rect1-5"
     style="opacity:1"
     transform="translate(-2.7890625,20.312109)">
    <path
       style="baseline-shift:baseline;display:inline;overflow:visible;vector-effect:none;fill:#ffffff;stroke-linecap:round;stroke-linejoin:round;enable-background:accumulate;stop-color:#000000;stop-opacity:1"
       d="m 3.3642412,-19.976717 c -0.1114573,0 -0.2012062,0.08975 -0.2012062,0.201206 v 2.273369 c 0,0.111457 0.089749,0.201206 0.2012062,0.201206 h 2.3538514 c 0.1114573,0 0.2012062,-0.08975 0.2012062,-0.201206 v -2.273369 c 0,-0.111457 -0.089749,-0.201206 -0.2012062,-0.201206 z m 0.06031,0.414432 H 3.879225 c 0,0 0.066482,5e-6 0.1147659,0.02414 0.048285,0.02213 0.078392,0.06637 0.078392,0.06637 0,0 0.036218,0.04827 0.040241,0.130758 0.00402,0.06639 -0.032193,0.120724 -0.032193,0.120724 0,0 -0.012074,0.02818 -0.032193,0.04829 a 0.20118656,0.20118656 0 0 1 -0.054247,0.02812 c 0,0 0.050253,0.0081 0.084454,0.05237 0.022131,0.03018 0.030182,0.0402 0.040241,0.07641 l -0.00199,-0.002 c 0.010059,0.03621 0.00805,0.0785 0.00805,0.0785 0,0 0.00404,0.05023 -0.026131,0.110585 -0.038226,0.07243 -0.094593,0.100656 -0.094593,0.100656 0,0 -0.034184,0.02007 -0.082468,0.02812 -0.052309,0.01006 -0.1207237,0.01014 -0.1207237,0.01014 H 3.4245508 Z m 1.5290627,0 h 0.2132263 l 0.2695641,0.472757 0.014111,0.02822 v -0.500978 l 0.2112404,0.002 v 0.875169 H 5.4485285 l -0.2675781,-0.45666 -0.016097,-0.03418 v 0.486867 H 4.9536135 Z m -0.5392327,0.002 h 0.2133309 l 0.301757,0.873183 H 4.7081942 l -0.1730896,-0.569335 -0.014006,-0.03826 -0.010139,0.03826 -0.1207237,0.378163 h 0.2133308 v 0.189186 h -0.494915 z m -0.7845474,0.170999 v 0.513102 l 0.1568886,-1.04e-4 c 0.05432,0 0.1246956,-0.02003 0.1246956,-0.08843 0,-0.08047 -0.074346,-0.09062 -0.1206192,-0.09062 h -0.090621 v -0.164936 h 0.080483 c 0.072427,0 0.1087036,-0.02208 0.1087036,-0.08446 0,-0.06438 -0.044324,-0.08456 -0.1087036,-0.08456 z m -0.2052826,0.816845 h 0.3621712 c 0.1368069,-0.002 0.3822395,0.06437 0.3822395,0.446626 0,0.307815 -0.2212902,0.422481 -0.3822395,0.422481 H 3.4245508 Z m 0.98983,0 h 0.2133309 l 0.301757,0.871093 H 4.7081942 l -0.1730896,-0.56735 -0.014006,-0.03617 -0.010139,0.03617 -0.1207237,0.378268 h 0.2133308 v 0.189082 h -0.494915 z m 0.5392327,0 h 0.2092544 l 0.00199,0.871093 H 4.9536135 Z m -1.3217941,0.183124 v 0.502963 H 3.766654 c 0.074439,0 0.1910676,-0.02825 0.1910676,-0.245523 h 0.00199 c 0,-0.181067 -0.086508,-0.25744 -0.2514816,-0.25744 z"
       id="path1" />
    <path
       style="baseline-shift:baseline;display:inline;overflow:visible;vector-effect:none;fill:#ffffff;stroke-linecap:round;stroke-linejoin:round;enable-background:accumulate;stop-color:#000000;stop-opacity:1"
       d="m 3.3632813,-20.351562 c -0.3125579,-10e-7 -0.5742188,0.263615 -0.5742188,0.576171 v 2.273438 c 0,0.312556 0.261663,0.576172 0.5742188,0.576172 H 5.71875 c 0.3125579,0 0.5742187,-0.263616 0.5742187,-0.576172 v -2.273438 c 10e-8,-0.312556 -0.261663,-0.576171 -0.5742187,-0.576171 z"
       id="path2"
       sodipodi:nodetypes="csssssssc" />
  </g>
  <path
     id="rect1"
     style="fill:#ff0000;stroke-width:0.201187"
     d="m 0.5750274,0.33554688 c -0.1114573,0 -0.2012062,0.08975 -0.2012062,0.201206 V 2.8101219 c 0,0.111457 0.089749,0.201206 0.2012062,0.201206 h 2.3538514 c 0.1114573,0 0.2012062,-0.08975 0.2012062,-0.201206 V 0.53675288 c 0,-0.111457 -0.089749,-0.201206 -0.2012062,-0.201206 z m 0.06031,0.414432 h 0.4546734 c 0,0 0.066482,5e-6 0.1147659,0.02414 0.048285,0.02213 0.078392,0.06637 0.078392,0.06637 0,0 0.036218,0.04827 0.040241,0.130758 0.00402,0.06639 -0.032193,0.12072402 -0.032193,0.12072402 0,0 -0.012074,0.02818 -0.032193,0.04829 a 0.20118656,0.20118656 0 0 1 -0.054247,0.02812 c 0,0 0.050253,0.0081 0.084454,0.05237 0.022131,0.03018 0.030182,0.0402 0.040241,0.07641 l -0.00199,-0.002 c 0.010059,0.03621 0.00805,0.0785 0.00805,0.0785 0,0 0.00404,0.05023 -0.026131,0.110585 -0.038226,0.07243 -0.094593,0.100656 -0.094593,0.100656 0,0 -0.034184,0.02007 -0.082468,0.02812 -0.052309,0.01006 -0.1207237,0.01014 -0.1207237,0.01014 H 0.635337 Z m 1.5290627,0 h 0.2132263 l 0.2695641,0.47275702 0.014111,0.02822 V 0.74997788 l 0.2112404,0.002 V 1.6271469 H 2.6593147 l -0.2675781,-0.45666 -0.016097,-0.03418 v 0.486867 H 2.1643997 Z m -0.5392327,0.002 H 1.8384983 L 2.1402553,1.6251619 H 1.9189804 l -0.1730896,-0.569335 -0.014006,-0.03826 -0.010139,0.03826 -0.1207237,0.378163 h 0.2133308 v 0.189186 H 1.3194379 Z M 0.84062,0.92297788 V 1.4360799 l 0.1568886,-1.04e-4 c 0.05432,0 0.1246956,-0.02003 0.1246956,-0.08843 0,-0.08047 -0.074346,-0.09062 -0.1206192,-0.09062 H 0.910964 v -0.164936 h 0.080483 c 0.072427,0 0.1087036,-0.02208 0.1087036,-0.08446 0,-0.06438 -0.044324,-0.08456 -0.1087036,-0.08456 z M 0.6353374,1.7398229 h 0.3621712 c 0.1368069,-0.002 0.3822395,0.06437 0.3822395,0.446626 0,0.307815 -0.2212902,0.422481 -0.3822395,0.422481 H 0.635337 Z m 0.98983,0 h 0.2133309 l 0.301757,0.871093 H 1.9189804 l -0.1730896,-0.56735 -0.014006,-0.03617 -0.010139,0.03617 -0.1207237,0.378268 h 0.2133308 v 0.189082 h -0.494915 z m 0.5392327,0 h 0.2092544 l 0.00199,0.871093 H 2.1643997 Z M 0.842606,1.9229469 v 0.502963 h 0.1348338 c 0.074439,0 0.1910676,-0.02825 0.1910676,-0.245523 h 0.00199 c 0,-0.181067 -0.086508,-0.25744 -0.2514816,-0.25744 z" />
</svg>
