<?xml version="1.0" encoding="UTF-8" standalone="no"?>
<!-- Created with Inkscape (http://www.inkscape.org/) -->

<svg
   version="1.0"
   width="230.74376"
   height="64"
   id="svg2"
   inkscape:version="1.4.2 (2aeb623e1d, 2025-05-12)"
   sodipodi:docname="logo_akklaim.svg"
   xmlns:inkscape="http://www.inkscape.org/namespaces/inkscape"
   xmlns:sodipodi="http://sodipodi.sourceforge.net/DTD/sodipodi-0.dtd"
   xmlns:xlink="http://www.w3.org/1999/xlink"
   xmlns="http://www.w3.org/2000/svg"
   xmlns:svg="http://www.w3.org/2000/svg"
   xmlns:rdf="http://www.w3.org/1999/02/22-rdf-syntax-ns#"
   xmlns:cc="http://creativecommons.org/ns#"
   xmlns:dc="http://purl.org/dc/elements/1.1/">
  <metadata
     id="metadata23">
    <rdf:RDF>
      <cc:Work
         rdf:about="">
        <dc:format>image/svg+xml</dc:format>
        <dc:type
           rdf:resource="http://purl.org/dc/dcmitype/StillImage" />
      </cc:Work>
    </rdf:RDF>
  </metadata>
  <sodipodi:namedview
     pagecolor="#ffffff"
     bordercolor="#666666"
     borderopacity="1"
     objecttolerance="10"
     gridtolerance="10"
     guidetolerance="10"
     inkscape:pageopacity="0"
     inkscape:pageshadow="2"
     inkscape:window-width="1854"
     inkscape:window-height="1011"
     id="namedview21"
     showgrid="false"
     inkscape:zoom="2.4748737"
     inkscape:cx="208.49549"
     inkscape:cy="-25.253814"
     inkscape:window-x="0"
     inkscape:window-y="0"
     inkscape:window-maximized="1"
     inkscape:current-layer="svg2"
     inkscape:showpageshadow="2"
     inkscape:pagecheckerboard="0"
     inkscape:deskcolor="#d1d1d1" />
  <defs
     id="defs4">
    <linearGradient
       id="linearGradient3549">
      <stop
         id="stop3551"
         style="stop-color:#bf0000;stop-opacity:1"
         offset="0" />
      <stop
         id="stop3557"
         style="stop-color:#fff20c;stop-opacity:1"
         offset="0.24505855" />
      <stop
         id="stop3559"
         style="stop-color:#0ce500;stop-opacity:1"
         offset="0.44498077" />
      <stop
         id="stop3561"
         style="stop-color:#31e1fd;stop-opacity:1"
         offset="0.64282119" />
      <stop
         id="stop3553"
         style="stop-color:#0019bf;stop-opacity:1"
         offset="1" />
    </linearGradient>
    <linearGradient
       id="linearGradient3539">
      <stop
         id="stop3541"
         style="stop-color:#bf0000;stop-opacity:1"
         offset="0" />
      <stop
         id="stop3547"
         style="stop-color:#bf0000;stop-opacity:1"
         offset="0.3747088" />
      <stop
         id="stop3543"
         style="stop-color:#fbe40a;stop-opacity:1"
         offset="1" />
    </linearGradient>
    <linearGradient
       x1="287.04117"
       y1="350.87671"
       x2="348.69205"
       y2="275.90128"
       id="linearGradient3545"
       xlink:href="#linearGradient3539"
       gradientUnits="userSpaceOnUse"
       gradientTransform="matrix(2.0183387,0,0,2.0183387,-521.63657,-516.58087)" />
    <linearGradient
       x1="289.83875"
       y1="355.51709"
       x2="639.31293"
       y2="355.51709"
       id="linearGradient3555"
       xlink:href="#linearGradient3549"
       gradientUnits="userSpaceOnUse"
       gradientTransform="matrix(2.0183387,0,0,2.0183387,-521.63657,-516.58087)" />
  </defs>
  <g
     id="path3440-0"
     style="opacity:1"
     transform="translate(1260.2985,1138.2852)">
    <path
       style="baseline-shift:baseline;display:inline;overflow:visible;vector-effect:none;fill:#ffffff;fill-rule:evenodd;stroke-linecap:round;stroke-linejoin:round;enable-background:accumulate;stop-color:#000000;stop-opacity:1"
       d="m -1202.3711,-1131.2852 c -1.0222,1.6334 -19.42,30.4811 -27.4434,43.0567 h 11.8301 c 1.6453,-2.5866 2.113,-3.3344 3.6367,-5.7305 l 12.0508,-0.094 c 6e-4,1.9392 -3e-4,3.885 0,5.8242 h 11.1485 c 0,-14.3504 -0.011,-28.7063 -0.037,-43.0567 z m 26.4512,0 -9.0371,14.1622 -0.072,0.092 -0.057,0.092 c -5.3882,8.2029 -5.0722,6.8322 0.092,15.2657 l 0.074,0.1269 0.072,0.1289 8.7266,13.1895 h 11.9766 l -12.1973,-18.4434 c -0.01,-0.013 -0.013,-0.022 -0.02,-0.035 -1.0135,-1.7577 -1.5031,-2.7591 -0.072,-5.2364 l 12.3438,-19.3418 z m 16.3672,0 -9.0371,14.1622 -0.074,0.092 -0.055,0.092 c -5.3882,8.2029 -5.0722,6.8322 0.092,15.2657 l 0.074,0.1269 0.072,0.1289 8.7246,13.1895 h 11.959 l -12.1797,-18.4434 c -0.01,-0.013 -0.011,-0.022 -0.017,-0.035 -1.0135,-1.7577 -1.503,-2.7591 -0.072,-5.2364 l 12.3437,-19.3418 z m 13.4277,0 v 43.0567 h 10.7461 v -43.0567 z m 48.2363,0 v 8.045 h 10.7657 v -8.045 z m -109.0273,1.1348 -46.3692,48.8652 h 216.7305 v -4.1308 h -202.7812 z m 90.1621,8.4727 c -9.213,0 -16.7891,7.576 -16.7891,16.789 0,8.5412 6.5161,15.6651 14.8067,16.6602 h 3.9492 c 1.7447,-0.2111 3.4142,-0.6877 4.959,-1.3965 v 1.3965 h 9.8633 v -33.1563 h -9.8633 v 1.2305 c -2.1174,-0.9714 -4.4601,-1.5234 -6.9258,-1.5234 z m 18.8652,0.5859 v 32.8633 h 10.7657 v -32.8633 z m 13.2813,0.074 v 32.7891 h 9.9922 v -18.6445 c 0,-2.4473 1.8143,-4.2618 4.2617,-4.2618 2.4473,0 4.2617,1.8145 4.2617,4.2618 v 18.6445 h 10.7832 v -18.5527 c 0,-2.4475 1.8143,-4.2618 4.2617,-4.2618 2.4473,0 4.2617,1.8143 4.2617,4.2618 v 18.5527 h 9.9922 v -18.5527 c 0,-7.8106 -3.1381,-14.0349 -14.3652,-13.8145 -3.5192,0 -5.7973,1.5629 -7.9902,3.7109 -2.1948,-2.4517 -5.767,-3.9116 -11.3145,-3.8027 -1.2716,0 -2.5264,0.1791 -3.7285,0.5137 v -0.8438 z m -117.7266,8.1367 c 0,1.8406 0.016,1.7416 0.018,4.2247 v 3.4355 l -4.9043,0.037 c 2.3502,-3.6965 2.5426,-4.0099 4.8867,-7.6973 z m 85.5801,1.1954 c 3.8063,0 6.7969,2.9886 6.7969,6.7949 0,3.8063 -2.9906,6.7969 -6.7969,6.7968 -3.8064,0 -6.7949,-2.9905 -6.7949,-6.7968 0,-3.8063 2.9885,-6.7949 6.7949,-6.7949 z"
       id="path2" />
    <path
       style="baseline-shift:baseline;display:inline;overflow:visible;vector-effect:none;fill:#ffffff;fill-rule:evenodd;stroke-linecap:round;stroke-linejoin:round;enable-background:accumulate;stop-color:#000000;stop-opacity:1"
       d="m -1202.3711,-1138.2852 c -1.0599,0.2944 -2.0355,0.8344 -2.8477,1.5762 -2.4072,-0.6707 -4.9893,-0.01 -6.7753,1.7402 l -46.3692,48.8653 c -4.2304,4.4603 -1.0693,11.8171 5.0781,11.8183 h 216.7305 c 3.8658,-4e-4 6.9996,-3.1342 7,-7 v -4.1308 c -0.1585,-0.5928 -0.3943,-1.1621 -0.7012,-1.6934 0.1863,-0.359 0.3412,-0.7334 0.4629,-1.1191 v -18.5528 c 0,-4.8427 -0.928,-10.2037 -4.7011,-14.5234 -3.7577,-4.302 -9.8345,-6.4002 -16.7188,-6.2832 -3.0593,0.012 -5.7711,0.9587 -8.082,2.2285 -3.2448,-1.5581 -7.0453,-2.3911 -11.2207,-2.3203 -0.7396,0 -1.4268,0.2158 -2.1504,0.2949 -0.4817,-0.2704 -0.9937,-0.4828 -1.5254,-0.6328 h -5.9316 v -3.2676 c -4e-4,-3.8658 -3.1342,-6.9996 -7,-7 h -10.7657 c -3.8658,4e-4 -6.9996,3.1342 -7,7 v 2.9004 h -4.9394 c -0.4059,0.1261 -0.7994,0.2889 -1.1758,0.4864 -1.8487,-0.4694 -3.7612,-0.7793 -5.75,-0.7793 -4.2331,0 -8.166,1.2213 -11.625,3.1933 v -5.8008 c -4e-4,-3.8658 -3.1342,-6.9996 -7,-7 -13.5165,0.2438 -27.026,0 -40.541,0 -2.39,3e-4 -4.6146,1.2198 -5.9004,3.2344 l -2.377,3.7246 c -0.023,-3.8452 -3.1429,-6.9522 -6.9882,-6.959 z"
       id="path3"
       sodipodi:nodetypes="ccccccccccsscccccccccscccsccccsccc" />
  </g>
  <g
     id="layer1"
     transform="matrix(0.2912336,0,0,0.2912336,-0.1373222,-3.595316)">
    <path
       d="M 199.35187,36.380871 C 195.84206,41.989188 132.67044,141.0437 105.12068,184.22418 h 40.61907 c 5.64945,-8.88141 7.25661,-11.45155 12.48847,-19.6788 l 41.37594,-0.31537 c 0.002,6.65858 -0.001,13.33557 0,19.99417 h 38.28537 c 0.0152,-49.27455 -0.0369,-98.568859 -0.12615,-147.843309 z m 90.82524,0 -31.03195,48.629349 -0.2523,0.315365 -0.18922,0.315366 c -18.50136,28.165819 -17.41539,23.455939 0.31537,52.413729 l 0.25229,0.44152 0.25229,0.44151 29.95972,45.28647 h 41.12365 L 288.72643,120.8988 c -0.0259,-0.045 -0.0373,-0.0815 -0.0631,-0.12614 -3.48,-6.03514 -5.16348,-9.4694 -0.25229,-17.97583 l 42.38511,-66.415959 h -40.61907 z m 56.19812,0 -31.03195,48.629349 -0.2523,0.315365 -0.18922,0.315366 c -18.50136,28.165819 -17.41539,23.455939 0.31537,52.413729 l 0.25229,0.44152 0.25229,0.44151 29.95972,45.28647 h 41.06058 L 344.92455,120.8988 c -0.026,-0.045 -0.0373,-0.0815 -0.0631,-0.12614 -3.48,-6.03514 -5.16348,-9.4694 -0.25229,-17.97583 L 386.99427,36.380871 H 346.3752 Z m 46.10643,0 V 184.22418 h 36.89775 V 36.380871 Z m 165.62992,0 v 27.626011 h 36.96083 V 36.380871 Z m -64.77606,32.987224 c -31.63449,0 -57.6488,26.014307 -57.6488,57.648795 0,29.32782 22.36947,53.79069 50.83691,57.20729 h 13.56071 c 5.99094,-0.72476 11.72544,-2.35992 17.02974,-4.79355 v 4.79355 h 33.87024 V 70.377264 h -33.87024 v 4.225897 c -7.2703,-3.335648 -15.31223,-5.235066 -23.77856,-5.235066 z m 64.77606,2.018338 V 184.22418 h 36.96083 V 71.386433 Z m 45.60184,0.252293 V 184.22418 h 34.31176 V 120.205 c 0,-8.40341 6.22954,-14.63295 14.63296,-14.63295 8.40341,0 14.63295,6.22954 14.63295,14.63295 v 64.01918 h 37.0239 v -63.70381 c -4e-5,-8.4034 6.22955,-14.63296 14.63296,-14.63296 8.40337,2e-5 14.63296,6.22954 14.63296,14.63296 v 63.70381 h 34.31175 v -63.70381 c -4e-5,-26.818598 -10.77294,-48.18784 -49.32315,-47.430963 -12.08355,0 -19.90691,5.365027 -27.43679,12.740763 -7.53595,-8.418592 -19.80445,-13.430127 -38.85302,-13.056129 -4.36625,0 -8.67623,0.617249 -12.80384,1.766047 v -2.901362 z m -404.2354,27.941377 c 0.0104,6.320207 0.0542,5.981027 0.0631,14.506807 0.004,4.26836 -0.005,7.5414 0,11.79467 l -16.84051,0.12614 c 8.07004,-12.69248 8.72854,-13.76622 16.77744,-26.427617 z m 293.8575,4.099747 c 13.06969,0 23.33704,10.26735 23.33704,23.33704 0,13.0697 -10.26735,23.33705 -23.33704,23.33705 -13.06969,0 -23.33704,-10.26735 -23.33704,-23.33705 0,-13.06969 10.26735,-23.33704 23.33704,-23.33704 z"
       id="path3440"
       style="opacity:1;fill:#000000;fill-opacity:1;fill-rule:evenodd;stroke:none;stroke-width:17;stroke-linecap:butt;stroke-linejoin:miter;stroke-miterlimit:4;stroke-dasharray:none;stroke-opacity:1"
       inkscape:connector-curvature="0" />
    <path
       d="M 183.74765,40.281391 24.52777,208.06436 H 768.71346 V 193.88175 H 72.42753 Z"
       id="path3526"
       style="opacity:1;fill:url(#linearGradient3545);fill-opacity:1;fill-rule:evenodd;stroke:none;stroke-width:1px;stroke-linecap:butt;stroke-linejoin:miter;stroke-opacity:1"
       inkscape:connector-curvature="0" />
    <path
       d="M 63.356167,208.06436 H 768.71346 V 193.88175 H 72.42753 Z"
       id="path3528"
       style="opacity:1;fill:url(#linearGradient3555);fill-opacity:1;fill-rule:evenodd;stroke:none;stroke-width:1px;stroke-linecap:butt;stroke-linejoin:miter;stroke-opacity:1"
       inkscape:connector-curvature="0" />
  </g>
</svg>
