<?xml version="1.0" encoding="UTF-8" standalone="no"?>
<!-- Creator: CorelDRAW -->

<svg
   xml:space="preserve"
   width="307.54507"
   height="64.000229"
   style="clip-rule:evenodd;fill-rule:evenodd;image-rendering:optimizeQuality;shape-rendering:geometricPrecision;text-rendering:geometricPrecision"
   viewBox="0 0 307.54507 63.99637"
   version="1.1"
   id="svg1"
   sodipodi:docname="logo_sunsoft.svg"
   inkscape:version="1.4.2 (2aeb623e1d, 2025-05-12)"
   xmlns:inkscape="http://www.inkscape.org/namespaces/inkscape"
   xmlns:sodipodi="http://sodipodi.sourceforge.net/DTD/sodipodi-0.dtd"
   xmlns="http://www.w3.org/2000/svg"
   xmlns:svg="http://www.w3.org/2000/svg"><sodipodi:namedview
   id="namedview1"
   pagecolor="#ffffff"
   bordercolor="#000000"
   borderopacity="0.25"
   inkscape:showpageshadow="2"
   inkscape:pageopacity="0.0"
   inkscape:pagecheckerboard="0"
   inkscape:deskcolor="#d1d1d1"
   inkscape:zoom="1.0725777"
   inkscape:cx="296.48202"
   inkscape:cy="18.180501"
   inkscape:window-width="1854"
   inkscape:window-height="1011"
   inkscape:window-x="0"
   inkscape:window-y="0"
   inkscape:window-maximized="1"
   inkscape:current-layer="Capa_x0020_1" />
 <defs
   id="defs1">
  <style
   type="text/css"
   id="style1">
   <![CDATA[
    .str0 {stroke:#014898;stroke-width:0.899998}
    .fil0 {fill:none}
    .fil1 {fill:#014898}
    .fil2 {fill:#014898;fill-rule:nonzero}
   ]]>
  </style>
 
   
   
  
    
    
    
    
    
    
    
    
    
   </defs>
 <g
   id="Capa_x0020_1"
   inkscape:label="Capa 1"
   inkscape:groupmode="layer"
   transform="translate(-17.740234,226.99529)">
  <metadata
   id="CorelCorpID_0Corel-Layer" />
  <g
   id="_48001888-3"
   class="fil1"
   style="opacity:1"
   transform="translate(-36.533203,61.182611)"><path
     style="baseline-shift:baseline;display:inline;overflow:visible;vector-effect:none;fill:#ffffff;stroke-linecap:round;stroke-linejoin:round;enable-background:accumulate;stop-color:#000000;stop-opacity:1"
     d="m 349.27016,-281.17983 c -3.0597,-1e-5 -5.54687,2.48911 -5.54687,5.54883 0,3.05971 2.48717,5.54884 5.54687,5.54883 3.05973,0 5.54884,-2.48912 5.54883,-5.54883 0,-3.05971 -2.48912,-5.54883 -5.54883,-5.54883 z m -198.77734,0.2793 v 49.28711 l 11.89453,-0.01 v -22.08203 c -0.004,-7.14099 7.64766,22.0367 15.29883,22.08789 h 11.89258 l -0.006,-49.2793 h -11.88853 l -0.0137,22.0918 c -0.011,7.57582 -9.12442,-22.13695 -15.2793,-22.09375 z m -65.025386,0.002 c -20.82848,3.84213 4.59175,36.89251 -3.31445,37.35547 l -20.87891,0.0312 0.002,11.87109 29.44531,-0.0293 c 20.053226,-2.76561 -6.5129,-36.0497 3.63672,-36.51368 8.976736,0.20888 13.636716,0.0176 13.636716,0.0176 v -12.73242 z m 25.083976,0 -0.01,39.83984 c -0.0351,6.46816 7.15938,9.85579 17.47266,9.87891 12.01745,-0.0522 18.20108,-2.47153 18.20508,-9.81641 l 0.0254,-39.90234 h -11.8945 l -0.043,33.05859 c -0.011,1.82165 -0.93957,2.598 -2.53125,2.58594 l -5.11328,0.002 c -2.35489,0.009 -3.40055,-0.90643 -3.39453,-2.5664 l 0.0371,-33.07422 z m 106.49415,0 c -20.82847,3.84213 4.59175,36.89251 -3.31446,37.35547 l -20.8789,0.0312 0.002,11.87109 29.44531,-0.0293 c 20.05323,-2.76561 -6.5129,-36.0497 3.63672,-36.51368 8.97674,0.20888 13.63672,0.0176 13.63672,0.0176 v -12.73242 z m 88.09179,0 -13.5957,0.002 c -6.73528,-0.002 -11.04578,4.79363 -11.05078,10.19532 l 0.004,39.08789 h 12.7461 v -15.29688 l 11.89648,-0.002 v -12.74219 h -11.89843 l 0.002,-7.65234 11.89648,-0.004 z m 4.24805,0.002 -0.01,11.88477 h 8.5 l 0.006,37.39648 h 12.7461 v -37.38867 l 8.49804,0.002 v -11.89453 z m -60.00781,0.0527 c -4.39847,0 -7.99414,2.56791 -7.99414,5.70508 v 37.80664 c 0,3.13717 3.59567,5.70507 7.99414,5.70507 h 20.56445 c 4.39847,0 7.99414,-2.5679 7.99414,-5.70507 v -37.80664 c 0,-3.13717 -3.59567,-5.70508 -7.99414,-5.70508 z m 99.89257,0.42969 c 2.64617,0 4.78321,2.13704 4.78321,4.7832 0,2.64615 -2.13704,4.7832 -4.78321,4.7832 -2.64616,0 -4.7832,-2.13704 -4.7832,-4.7832 0,-2.64616 2.13705,-4.78321 4.7832,-4.7832 z m -2.10546,1.86718 v 5.83203 h 0.77343 v -2.49414 h 1.42774 c 0.29624,0 0.5601,0.088 0.78906,0.26172 0.22796,0.17473 0.39088,0.40062 0.48828,0.67578 l 0.54883,1.55664 h 0.83594 l -0.58594,-1.58789 c -0.2119,-0.5734 -0.52103,-0.92419 -0.92773,-1.05273 v -0.0176 c 0.4067,-0.0823 0.72499,-0.25716 0.95898,-0.5293 0.23397,-0.27014 0.35156,-0.60606 0.35156,-1.00976 0,-0.35348 -0.0907,-0.66999 -0.27148,-0.95117 -0.18077,-0.28118 -0.41302,-0.46634 -0.69922,-0.55274 -0.28621,-0.0883 -0.65653,-0.13086 -1.10742,-0.13086 z m 0.77343,0.64063 h 1.83985 c 0.8345,0 1.25,0.33136 1.25,0.99414 0,0.37156 -0.10631,0.63257 -0.32422,0.7832 -0.2159,0.15265 -0.5639,0.22656 -1.04492,0.22656 h -1.72071 z m -90.85351,10.00586 h 4.32422 c 2.08677,0 3.79297,1.87623 3.79297,4.17187 v 15.84961 c 0,2.29563 -1.70621,4.17188 -3.79297,4.17188 h -4.32422 c -2.08677,0 -3.79297,-1.87624 -3.79297,-4.17188 v -15.84961 c 0,-2.29563 1.70621,-4.17187 3.79297,-4.17187 z"
     id="path1" /><path
     style="baseline-shift:baseline;display:inline;overflow:visible;vector-effect:none;fill:#ffffff;stroke-linecap:round;stroke-linejoin:round;enable-background:accumulate;stop-color:#000000;stop-opacity:1"
     d="m 349.26953,-288.17969 c -2.29545,-1e-5 -4.34072,0.80944 -6.20508,1.91602 -1.11139,-0.94071 -2.48845,-1.51146 -3.93945,-1.63281 l -122.08008,-0.002 c -0.4258,-2.7e-4 -0.85074,0.0383 -1.26953,0.11524 -7.21754,1.33138 -12.7356,7.16937 -13.80859,13.01367 -1.07299,5.8443 0.38851,11.10928 1.89648,15.91211 1.06441,3.3901 1.98869,5.83266 2.87695,8.32422 l -10.16406,0.0156 -0.004,-30.38086 c -0.001,-3.86507 -3.13493,-6.99765 -7,-6.99804 l -104.105373,-0.002 c -0.425801,-2.7e-4 -0.850739,0.0383 -1.269531,0.11524 -7.217544,1.33138 -12.735602,7.16937 -13.808594,13.01367 -1.072992,5.8443 0.388508,11.10928 1.896484,15.91211 1.064414,3.3901 1.98869,5.83266 2.876953,8.32422 l -13.898437,0.0215 c -3.86278,0.006 -6.990929,3.13917 -6.990235,7.00195 l 0.002,11.8711 c 0.0015,3.86812 3.13969,7.00198 7.007812,6.99805 l 29.445313,-0.0293 c 0.317546,-5.8e-4 0.634684,-0.0228 0.949218,-0.0664 3.55149,-0.4898 6.91746,-1.83125 9.41407,-4.25195 2.00499,-1.94404 3.0475,-4.39306 3.65429,-6.7793 1.48174,3.54037 4.1944,6.54088 7.33594,8.23047 4.63559,2.49312 9.9966,3.34415 15.91602,3.35742 0.0156,5e-5 0.0313,5e-5 0.0469,0 6.47324,-0.0281 94.26174,-0.49046 94.26174,-0.49046 0.31754,-5.8e-4 0.63468,-0.0228 0.94922,-0.0664 3.55149,-0.4898 6.91746,-1.83126 9.41406,-4.25195 1.19539,-1.15904 2.07644,-2.51614 2.74805,-3.91797 0.97347,2.20278 2.50518,4.05809 4.24609,5.30078 2.81146,2.00686 6.15142,2.97852 9.71289,2.97852 l 43.86328,0.0137 c 3.86583,-3.9e-4 6.99961,-3.13417 7,-7 v -8.29883 h 4.89844 c 2.48212,-0.20581 4.66799,-1.71487 5.74024,-3.96289 l 0.002,12.26172 c 10e-4,3.86507 3.13492,6.99766 7,6.99805 h 12.74609 c 3.86583,-3.9e-4 6.99961,-3.13417 7,-7 v -30.38672 h 1.4961 c 1.91613,-0.0305 3.736,-0.84511 5.03515,-2.25391 1.57484,0.7219 3.28584,1.17383 5.11133,1.17383 6.85611,0 12.54885,-5.69272 12.54883,-12.54883 0,-6.85611 -5.69272,-12.54883 -12.54883,-12.54883 z"
     id="path2"
     sodipodi:nodetypes="cccccssccccccsscccccccscsscccscssccccccccccccsscc" /></g><path
   id="_48001888"
   style="stroke-width:0.850239;fill:#0152af;fill-opacity:1"
   class="fil1"
   d="m 312.7364,-219.99725 c -3.0597,-1e-5 -5.54687,2.48911 -5.54687,5.54883 0,3.05971 2.48717,5.54884 5.54687,5.54883 3.05973,0 5.54884,-2.48912 5.54883,-5.54883 0,-3.05971 -2.48912,-5.54883 -5.54883,-5.54883 z m -198.77734,0.2793 v 49.28711 l 11.89453,-0.01 v -22.08203 c -0.004,-7.14099 7.64767,22.0367 15.29883,22.08789 H 153.045 l -0.006,-49.2793 h -11.88867 l -0.0137,22.0918 c -0.011,7.57582 -9.12442,-22.13695 -15.2793,-22.09375 z m -65.025389,0.002 c -20.828477,3.84213 4.59175,36.89251 -3.314453,37.35547 l -20.878907,0.0312 0.002,11.87109 29.445313,-0.0293 c 20.053229,-2.76561 -6.5129,-36.0497 3.636719,-36.51368 8.976739,0.20888 13.636718,0.0176 13.636718,0.0176 v -12.73242 z m 25.083984,0 -0.0098,39.83984 c -0.03515,6.46816 7.159376,9.85579 17.472657,9.87891 12.017458,-0.0522 18.201088,-2.47153 18.205078,-9.81641 l 0.0254,-39.90234 H 97.816483 l -0.04297,33.05859 c -0.01104,1.82165 -0.939568,2.598 -2.53125,2.58594 l -5.113281,0.002 c -2.35489,0.009 -3.40055,-0.90643 -3.394531,-2.5664 l 0.03711,-33.07422 z m 106.494145,0 c -20.82847,3.84213 4.59175,36.89251 -3.31446,37.35547 l -20.8789,0.0312 0.002,11.87109 29.44531,-0.0293 c 20.05323,-2.76561 -6.5129,-36.0497 3.63672,-36.51368 8.97674,0.20888 13.63672,0.0176 13.63672,0.0176 v -12.73242 z m 88.09179,0 -13.5957,0.002 c -6.73528,-0.002 -11.04578,4.79363 -11.05078,10.19532 l 0.004,39.08789 h 12.7461 v -15.29688 l 11.89648,-0.002 v -12.74219 h -11.89843 l 0.002,-7.65234 11.89648,-0.004 z m 4.24805,0.002 -0.01,11.88477 h 8.5 l 0.006,37.39648 h 12.7461 v -37.38867 l 8.49804,0.002 v -11.89453 z m -60.00781,0.0527 c -4.39847,0 -7.99414,2.56791 -7.99414,5.70508 v 37.80664 c 0,3.13717 3.59567,5.70507 7.99414,5.70507 h 20.56445 c 4.39847,0 7.99414,-2.5679 7.99414,-5.70507 v -37.80664 c 0,-3.13717 -3.59567,-5.70508 -7.99414,-5.70508 z m 99.89257,0.42969 c 2.64617,0 4.78321,2.13704 4.78321,4.7832 0,2.64615 -2.13704,4.7832 -4.78321,4.7832 -2.64616,0 -4.7832,-2.13704 -4.7832,-4.7832 0,-2.64616 2.13705,-4.78321 4.7832,-4.7832 z m -2.10546,1.86718 v 5.83203 h 0.77343 v -2.49414 h 1.42774 c 0.29624,0 0.5601,0.088 0.78906,0.26172 0.22796,0.17473 0.39088,0.40062 0.48828,0.67578 l 0.54883,1.55664 h 0.83594 l -0.58594,-1.58789 c -0.2119,-0.5734 -0.52103,-0.92419 -0.92773,-1.05273 v -0.0176 c 0.4067,-0.0823 0.72499,-0.25716 0.95898,-0.5293 0.23397,-0.27014 0.35156,-0.60606 0.35156,-1.00976 0,-0.35348 -0.0907,-0.66999 -0.27148,-0.95117 -0.18077,-0.28118 -0.41302,-0.46634 -0.69922,-0.55274 -0.28621,-0.0883 -0.65653,-0.13086 -1.10742,-0.13086 z m 0.77343,0.64063 h 1.83985 c 0.8345,0 1.25,0.33136 1.25,0.99414 0,0.37156 -0.10631,0.63257 -0.32422,0.7832 -0.2159,0.15265 -0.5639,0.22656 -1.04492,0.22656 h -1.72071 z m -90.85351,10.00586 h 4.32422 c 2.08677,0 3.79297,1.87623 3.79297,4.17187 v 15.84961 c 0,2.29563 -1.70621,4.17188 -3.79297,4.17188 h -4.32422 c -2.08677,0 -3.79297,-1.87624 -3.79297,-4.17188 v -15.84961 c 0,-2.29563 1.70621,-4.17187 3.79297,-4.17187 z" />
 </g>
</svg>
