<?xml version="1.0" encoding="UTF-8" standalone="no"?>
<svg
   id="logo"
   xml:space="preserve"
   viewBox="0 0 238.92974 64.000138"
   height="64.000137"
   width="238.92973"
   version="1.1"
   y="0px"
   x="0px"
   sodipodi:docname="logo_snk.svg"
   inkscape:version="1.4.2 (2aeb623e1d, 2025-05-12)"
   xmlns:inkscape="http://www.inkscape.org/namespaces/inkscape"
   xmlns:sodipodi="http://sodipodi.sourceforge.net/DTD/sodipodi-0.dtd"
   xmlns="http://www.w3.org/2000/svg"
   xmlns:svg="http://www.w3.org/2000/svg"
   xmlns:rdf="http://www.w3.org/1999/02/22-rdf-syntax-ns#"
   xmlns:cc="http://creativecommons.org/ns#"
   xmlns:dc="http://purl.org/dc/elements/1.1/"><defs
     id="defs3711" /><sodipodi:namedview
     id="namedview3709"
     pagecolor="#ffffff"
     bordercolor="#000000"
     borderopacity="0.25"
     inkscape:showpageshadow="2"
     inkscape:pageopacity="0.0"
     inkscape:pagecheckerboard="0"
     inkscape:deskcolor="#d1d1d1"
     showgrid="false"
     inkscape:zoom="2.138998"
     inkscape:cx="328.65856"
     inkscape:cy="95.138004"
     inkscape:window-width="1854"
     inkscape:window-height="1011"
     inkscape:window-x="0"
     inkscape:window-y="0"
     inkscape:window-maximized="1"
     inkscape:current-layer="logo" /><metadata
     id="metadata14"><rdf:RDF><cc:Work
         rdf:about=""><dc:format>image/svg+xml</dc:format><dc:type
           rdf:resource="http://purl.org/dc/dcmitype/StillImage" /></cc:Work></rdf:RDF></metadata><style
     id="style3"
     type="text/css">
	.st0{fill:#0097E0;}
	.st1{fill:#0096DF;}
</style><g
     id="S-6"
     class="st0"
     style="opacity:1"
     transform="translate(-54.992141,199.90234)"><path
       style="baseline-shift:baseline;display:inline;overflow:visible;vector-effect:none;fill:#ffffff;stroke-linecap:round;stroke-linejoin:round;enable-background:accumulate;stop-color:#000000;stop-opacity:1"
       d="m 75.300984,-192.90277 c -7.28289,0 -13.16602,7.14333 -13.16602,15.9668 h -0.0019 c 0,8.82347 5.88312,15.96679 13.16601,15.96679 h 36.552736 c 0.84035,0 1.68164,0.84053 1.68164,1.96094 0,1.12046 -0.70129,1.96094 -1.68164,1.96094 H 61.992384 v 14.14453 h 55.742186 c 7.28289,0 13.16601,-7.282 13.16601,-16.10547 0,-8.82346 -5.88312,-16.10742 -13.16601,-16.10742 H 81.320514 c -0.84034,0 -1.68164,-0.84054 -1.68164,-1.96094 0,-1.12047 0.7013,-1.96093 1.68164,-1.96093 h 49.439446 v -13.86524 z m 59.521476,0 v 49.7207 h 17.50781 v -31.23242 l 33.33399,31.23242 h 18.20703 v -49.7207 h -17.50586 v 31.09375 l -33.33399,-31.09375 z m 72.83008,0 v 49.7207 h 17.78711 v -21.98828 l 28.29297,21.98828 h 22.82812 l -32.21289,-24.79101 32.21289,-24.92969 h -22.82812 l -28.29297,21.84961 v -21.84961 z m 74.08594,0 c -1.4,0 -2.65829,0.56066 -3.64063,1.54102 -0.98041,0.9804 -1.54102,2.24005 -1.54102,3.64062 0,1.40058 0.56066,2.66217 1.54102,3.64258 0.9804,0.9804 2.24005,1.54101 3.64063,1.54102 1.40057,0 2.66217,-0.56066 3.64257,-1.54102 0.98235,-0.98058 1.54102,-2.24229 1.54102,-3.64258 -0.14117,-1.54057 -0.55867,-2.66022 -1.54102,-3.64062 -0.98235,-0.98035 -2.24259,-1.54102 -3.64257,-1.54102 z m 0,0.8418 c 1.26051,0 2.24168,0.4194 3.08203,1.25976 0.84034,0.84035 1.25976,1.96157 1.25976,3.08203 0,1.12046 -0.4194,2.23974 -1.25976,3.08008 -0.84035,0.84035 -1.82152,1.25977 -3.08203,1.25977 -1.26052,0 -2.23973,-0.41941 -3.08008,-1.25977 -0.84035,-0.84035 -1.26172,-1.95962 -1.26172,-3.08008 0,-1.26052 0.42142,-2.24169 1.26172,-3.08203 0.84035,-0.84035 1.95962,-1.25976 3.08008,-1.25976 z m -2.09961,1.82031 v 5.18164 h 0.84179 v -1.96094 h 1.82032 c 0.42016,0 0.69921,0.28044 0.69921,0.56055 l 0.14063,1.25977 h 0.83984 l -0.13867,-1.25977 c 0,-0.42017 -0.28181,-0.70036 -0.42187,-0.98047 0.42017,-0.14006 0.70117,-0.56084 0.70117,-1.12109 v -0.14063 c 0,-0.84035 -0.70073,-1.53906 -1.54102,-1.53906 z m 0.84179,0.83984 h 2.09961 c 0.42016,0 0.70117,0.27904 0.70117,0.69922 v 0.28125 c 0,0.42016 -0.28099,0.69922 -0.70117,0.69922 h -2.09961 z"
       id="path2" /><path
       style="baseline-shift:baseline;display:inline;overflow:visible;vector-effect:none;fill:#ffffff;stroke-linecap:round;stroke-linejoin:round;enable-background:accumulate;stop-color:#000000;stop-opacity:1"
       d="m 75.300781,-199.90234 c -11.858177,0 -20.16328,11.02818 -20.166015,22.96093 l -0.002,0.006 c 0,5.10513 1.590312,9.98487 4.257813,13.9668 -2.471564,0.97877 -4.175535,3.27293 -4.398438,5.92188 v 14.14453 c 3.87e-4,3.86583 3.134167,6.99961 7,7 h 55.742189 c 4.39348,0 8.27017,-1.53012 11.43164,-4.03321 1.11201,2.1429 3.24968,3.56161 5.65625,3.75391 h 17.50781 c 3.86583,-3.9e-4 6.99961,-3.13417 7,-7 v -15.08203 l 21.54883,20.18945 c 1.29695,1.21546 3.00768,1.89207 4.78515,1.89258 h 18.20703 c 0.66517,-0.16705 1.30219,-0.43093 1.89063,-0.7832 0.58844,0.35226 1.22545,0.61615 1.89062,0.7832 h 17.78711 c 3.86583,-3.9e-4 6.99961,-3.13417 7,-7 v -7.68359 l 16.99805,13.21093 c 1.22828,0.9544 2.73943,1.47255 4.29492,1.47266 h 22.82813 c 6.68112,-0.002 9.56253,-8.46993 4.26953,-12.54688 l -25.02539,-19.25976 16.33593,-12.64258 c 0.35825,0.48653 0.58994,1.08405 1.00782,1.50195 2.15681,2.15682 5.32137,3.59178 8.58984,3.5918 3.26678,0 6.42798,-1.43008 8.58789,-3.58789 l 0.002,-0.002 c 2.16699,-2.16409 3.59375,-5.33256 3.59375,-8.59375 -4e-5,-0.21323 -0.01,-0.42634 -0.0293,-0.63867 -0.22749,-2.48258 -1.39984,-5.79477 -3.56641,-7.95704 -2.15659,-2.1522 -5.31898,-3.58593 -8.58789,-3.58593 -1.26621,0 -2.49579,0.26906 -3.67773,0.6582 -0.47252,-0.27734 -0.97597,-0.49825 -1.5,-0.6582 h -22.82813 c -1.54854,-3.4e-4 -3.05349,0.51275 -4.2793,1.45898 l -17.01367,13.13867 v -7.59765 c -3.9e-4,-3.86583 -3.13417,-6.99961 -7,-7 h -17.78711 c -0.66517,0.16705 -1.30218,0.43094 -1.89062,0.7832 -0.58844,-0.35227 -1.22546,-0.61615 -1.89063,-0.7832 h -17.50586 c -3.86583,3.9e-4 -6.99961,3.13417 -7,7 v 14.99023 l -21.55859,-20.10937 c -1.29629,-1.20889 -3.00288,-1.88105 -4.77539,-1.88086 h -18.20898 c -0.7172,0.17185 -1.40273,0.45595 -2.03125,0.84179 -0.62852,-0.38584 -1.31405,-0.66994 -2.03125,-0.84179 z m 0,14 h 5.458985 c -4.675809,0.37352 -8.121094,4.94865 -8.121094,8.82617 0,4.62456 3.173523,8.96094 8.68164,8.96094 h 36.414068 c 2.61553,0 6.16601,3.3955 6.16601,9.10742 0,5.71193 -3.54922,9.10547 -6.16601,9.10547 H 68.992187 v -0.14453 h 42.859373 c 4.98121,-10e-6 8.68164,-4.91964 8.68164,-8.96094 0,-4.6245 -3.17362,-8.96094 -8.68164,-8.96094 H 75.298828 c -2.704978,0 -6.164283,-3.25362 -6.166016,-8.96289 l 0.002,-0.004 c 0,-5.71192 3.460366,-8.96679 6.166015,-8.96679 z m 66.521489,0 h 8.45117 l 6.83398,6.375 c -4.47338,-4.17505 -11.77325,-1.00572 -11.77734,5.11328 v 24.23242 h -3.50781 z m 51.54296,0 h 3.50586 v 35.7207 h -8.43945 l -30.08008,-28.18555 23.23828,21.67774 c 4.47545,4.17379 11.77483,1.00051 11.77539,-5.11914 z m 21.28711,0 h 3.78711 v 14.84961 c 0.15294,1.05565 0.54508,2.0624 1.14649,2.94336 -0.60086,0.87981 -0.99298,1.88516 -1.14649,2.93945 v 14.98828 h -3.78711 z m 25.40625,12.40429 c -3.35429,2.74502 -3.43349,7.84752 -0.16601,10.69532 l -6.82031,-5.30079 z"
       id="path3"
       sodipodi:nodetypes="cccccccsccccccccccccccccccccssssccscccccccccccccccccccccssssscccsssccccccccccccccccccccccccccccccc" /></g><g
     id="g1"
     transform="translate(-55.645785,93.021655)"><path
       id="S"
       d="m 62.786153,-70.055227 c 0,8.823467 5.882312,15.966358 13.165201,15.966358 H 112.5058 c 0.84035,0 1.68064,0.840347 1.68064,1.960751 0,1.120462 -0.70029,1.96075 -1.68064,1.96075 H 62.646154 v 14.145783 h 55.741956 c 7.28289,0 13.16521,-7.28289 13.16521,-16.106357 0,-8.823467 -5.88232,-16.106357 -13.16521,-16.106357 H 81.973665 c -0.840347,0 -1.680636,-0.840347 -1.680636,-1.960751 0,-1.120462 0.70029,-1.960751 1.680636,-1.960751 H 131.41332 V -86.021585 H 75.953707 c -7.282889,0 -13.165201,7.142891 -13.165201,15.966358 z"
       fill="#0097e0"
       class="st0"
       style="stroke-width:0.588231" /><polygon
       id="N"
       transform="matrix(1.4005783,0,0,1.4005783,52.562219,-86.021585)"
       class="st0"
       points="96,22.2 72.2,0 59.2,0 59.2,35.5 71.7,35.5 71.7,13.2 95.5,35.5 108.5,35.5 108.5,0 96,0 "
       fill="#0097e0" /><polygon
       id="K"
       transform="matrix(1.4005783,0,0,1.4005783,52.562219,-86.021585)"
       class="st0"
       points="137.4,17.8 160.4,0 144.1,0 123.9,15.6 123.9,0 111.2,0 111.2,35.5 123.9,35.5 123.9,19.8 144.1,35.5 160.4,35.5 "
       fill="#0097e0" /><path
       id="mark"
       d="m 286.0334,-84.481008 c -0.98235,-0.980346 -2.24116,-1.540577 -3.64115,-1.540577 -1.39999,0 -2.65881,0.560219 -3.64115,1.540577 -0.98041,0.980405 -1.54058,2.240867 -1.54058,3.641445 0,1.400578 0.56022,2.66104 1.54058,3.641445 0.9804,0.980405 2.24086,1.540577 3.64144,1.540577 1.40058,0 2.66104,-0.560219 3.64144,-1.540577 0.98235,-0.980581 1.54117,-2.241161 1.54117,-3.641445 -0.14117,-1.540577 -0.55882,-2.66104 -1.54117,-3.641445 z m -0.56022,6.722894 c -0.84035,0.840347 -1.8207,1.26052 -3.08122,1.26052 -1.26052,0 -2.24086,-0.420167 -3.08121,-1.26052 -0.84035,-0.840353 -1.26046,-1.960751 -1.26046,-3.081214 0,-1.26052 0.42016,-2.240866 1.26046,-3.081213 0.84035,-0.840347 1.96075,-1.260521 3.08121,-1.260521 1.26052,0 2.24087,0.420168 3.08122,1.260521 0.84034,0.840353 1.26052,1.960751 1.26052,3.081213 0,1.120463 -0.42016,2.240867 -1.26052,3.081214 z"
       fill="#0096df"
       class="st1"
       style="stroke-width:0.588231" /><path
       id="R"
       d="m 284.77458,-81.679851 v -0.140058 c 0,-0.840347 -0.70029,-1.540577 -1.54058,-1.540577 h -2.94115 v 5.182022 h 0.84035 v -1.960751 h 1.82069 c 0.42017,0 0.70029,0.28011 0.70029,0.56022 l 0.14005,1.26052 h 0.84035 l -0.14005,-1.26052 c 0,-0.420168 -0.28011,-0.70029 -0.42017,-0.980405 0.42017,-0.140058 0.70029,-0.56022 0.70029,-1.120463 z m -3.64144,-0.840347 h 2.10081 c 0.42016,0 0.70029,0.28011 0.70029,0.700289 v 0.28011 c 0,0.420162 -0.28011,0.700289 -0.70029,0.700289 h -2.10081 v -1.680635 z"
       fill="#0096df"
       class="st1"
       style="stroke-width:0.588231" /></g></svg>
