<?xml version="1.0" encoding="UTF-8" standalone="no"?>
<!-- Created with Inkscape (http://www.inkscape.org/) -->

<svg
   width="264.45105mm"
   height="40mm"
   viewBox="0 0 264.45105 40"
   version="1.1"
   id="svg1101"
   inkscape:version="1.2.2 (732a01da63, 2022-12-09)"
   sodipodi:docname="logo_psikyo.svg"
   xmlns:inkscape="http://www.inkscape.org/namespaces/inkscape"
   xmlns:sodipodi="http://sodipodi.sourceforge.net/DTD/sodipodi-0.dtd"
   xmlns="http://www.w3.org/2000/svg"
   xmlns:svg="http://www.w3.org/2000/svg">
  <sodipodi:namedview
     id="namedview1103"
     pagecolor="#ffffff"
     bordercolor="#000000"
     borderopacity="0.25"
     inkscape:showpageshadow="2"
     inkscape:pageopacity="0.0"
     inkscape:pagecheckerboard="0"
     inkscape:deskcolor="#d1d1d1"
     inkscape:document-units="mm"
     showgrid="false"
     inkscape:zoom="0.74564394"
     inkscape:cx="506.27381"
     inkscape:cy="256.15443"
     inkscape:window-width="1920"
     inkscape:window-height="1017"
     inkscape:window-x="-8"
     inkscape:window-y="352"
     inkscape:window-maximized="1"
     inkscape:current-layer="layer1" />
  <defs
     id="defs1098" />
  <g
     inkscape:label="Layer 1"
     inkscape:groupmode="layer"
     id="layer1"
     transform="translate(28.61262,-81.057887)">
    <g
       id="g1080"
       transform="matrix(0.26458333,0,0,0.26458333,147.10275,133.15212)">
      <path
         id="path921"
         style="fill:#000000"
         d="m 274.90938,-170.29297 c 0,0 -21.76755,-0.0459 -34.74532,0 -77.17032,0 -78.86826,-0.4533 -82.28515,1.51559 -2.2203,1.27937 -4.41409,3.83878 -6,7 l -2.5,4.98437 v 36.5 c 0,32.016343 0.20125,36.8684 1.64648,39.501954 2.25197,4.103612 4.50909,7.307988 8.64691,8.498086 59.31903,-4.46e-4 99.78521,-4.46e-4 165.12222,0 l 4.2172,-2.759804 c 6.27668,-3.903492 6.36719,-4.560701 6.36719,-46.240236 0,-33.66421 -0.17747,-37.82381 -1.73047,-40.66211 -2.2551,-4.12134 -5.92957,-8.37198 -10.86524,-8.36523 -2.04061,0.003 -18.22146,0.0274 -47.87382,0.0274 z m -77.74727,29.58008 h 90.43359 c 2.34719,0 4.23633,1.8911 4.23633,4.23828 v 29.21875 c 0,2.34718 -1.88914,4.23633 -4.23633,4.23633 h -90.43359 c -2.34718,0 -4.23633,-1.88915 -4.23633,-4.23633 v -29.21875 c 0,-2.34718 1.88915,-4.23828 4.23633,-4.23828 z"
         sodipodi:nodetypes="scsccsscccssscssssssssss" />
      <path
         id="path905"
         style="fill:#ff0000"
         d="m -664.12109,-170.29297 c 0,32.66667 0,65.33333 0,98.000001 15.33333,0 30.66667,0 46,0 v -11.5 -11.5 c 41.45312,0 82.90625,0 124.35937,0 l 4.16797,-4.474609 c 17.19017,-18.459372 17.79163,-47.248422 1.37695,-65.896482 l -4.07422,-4.62891 z m 46,28 h 49.41015 49.41211 l 2.58789,3.07617 c 1.45829,1.73308 2.58985,4.3204 2.58985,5.92383 0,1.60343 -1.13156,4.1888 -2.58985,5.92188 l -2.58789,3.07812 h -49.41211 -49.41015 c 0,-6 0,-12 0,-18 z"
         sodipodi:nodetypes="ccccccccccccccsccccc" />
      <path
         style="fill:#ff0000"
         d="m -292.48307,-141.79297 11.98027,-28.5 h 45.3813 l -12.23683,28.5 z"
         id="path925"
         sodipodi:nodetypes="ccccc" />
      <path
         style="fill:#000000;stroke-width:0.994584"
         d="m -39.121496,-85.647896 v -13.354165 h 66.4349 c 40.74577,0 67.42678,-0.373036 69,-0.96472 2.36171,-0.888219 2.5651,-1.437259 2.5651,-6.924379 v -5.95967 l -63.75,-0.002 c -71.21143,-0.002 -68.60685,0.24672 -72.41519,-6.90741 -1.63053,-3.06257 -1.83481,-6.06367 -1.83481,-26.95519 v -23.50887 h 21.5 21.5 v 15.33256 15.33256 h 47.47395 47.47396 l 0.27604,-15.08526 0.27605,-15.08526 21.249996,-0.26697 21.25,-0.26698 -0.006,41.31867 c -0.006,43.134212 -0.35015,47.226641 -4.34027,51.58543 -4.76131,5.201685 -2.27686,5.065799 -92.621606,5.065799 h -84.03212 z"
         id="path919" />
      <path
         style="fill:#000000;stroke-width:0.994788"
         d="m -229.1215,-121.27875 v -48.98531 h 23 23 v 24.24525 c 0,13.3349 0.20643,24.24526 0.45874,24.24526 0.25231,0 19.23234,-10.91687 42.17785,-24.25971 l 41.719104,-24.25971 29.38129,0.26185 29.38128,0.26186 -39.55913,24.15988 c -21.757524,13.28793 -39.542504,24.42095 -39.522174,24.74006 0.0203,0.3191 17.76017,11.26788 39.421874,24.330636 l 39.38492,23.750456 -29.39403,0.262087 -29.39403,0.262086 -41.777854,-24.067723 -41.77784,-24.067732 -0.26747,24.053046 -0.26747,24.053038 h -22.98253 -22.98253 z"
         id="path917" />
      <path
         style="fill:#000000"
         d="m -281.1215,-104.79374 v -32.5 h 23 23 v 32.5 32.500005 h -23 -23 z"
         id="path915" />
      <path
         style="fill:#000000;stroke-width:0.994937"
         d="m -469.90053,-85.409131 0.27903,-13.116162 69.25,-0.254256 69.25,-0.254245 v -3.457876 -3.45787 c -40.31884,0 -80.63768,0 -120.95652,0 l -5.4194,-5.36465 c -10.30585,-10.20175 -14.507,-23.31353 -11.1541,-34.81194 2.23477,-7.66394 4.64467,-11.5696 11.39952,-18.47492 l 5.56789,-5.69192 c 51.18754,0 102.37507,0 153.56261,0 v 13.36364 13.36363 c -42.33333,0 -84.66667,0 -127,0 v 3.46465 3.46465 c 40.13396,0 80.26791,0 120.40187,0 l 5.87179,5.97702 c 3.25553,3.31387 7.06469,8.49638 8.54907,11.63131 2.3195,4.8987 2.67529,6.91096 2.66246,15.05833 -0.0132,8.403908 -0.31805,9.977392 -2.86619,14.795092 -1.56826,2.965074 -5.3426,7.976438 -8.38741,11.136364 l -5.53603,5.745314 c -55.2512,0 -110.50241,0 -165.75361,0 z"
         id="path913"
         sodipodi:nodetypes="cccccccsssccccccccsssssccc" />
    </g>
  </g>
</svg>
