<?xml version="1.0" encoding="UTF-8" standalone="no"?>
<!-- Generator: Adobe Illustrator 14.0.0, SVG Export Plug-In . SVG Version: 6.00 Build 43363)  -->

<svg
   version="1.1"
   id="Layer_1"
   x="0px"
   y="0px"
   width="453.17368"
   height="87.097588"
   viewBox="0 0 453.17368 87.097587"
   enable-background="new 0 0 476.5 89.097"
   xml:space="preserve"
   sodipodi:docname="logo_konami.svg"
   inkscape:version="1.2.2 (732a01da63, 2022-12-09)"
   xmlns:inkscape="http://www.inkscape.org/namespaces/inkscape"
   xmlns:sodipodi="http://sodipodi.sourceforge.net/DTD/sodipodi-0.dtd"
   xmlns="http://www.w3.org/2000/svg"
   xmlns:svg="http://www.w3.org/2000/svg"><defs
   id="defs3182">
	
	
	
	
	
	
	
	
	
	
</defs><sodipodi:namedview
   id="namedview3180"
   pagecolor="#ffffff"
   bordercolor="#000000"
   borderopacity="0.25"
   inkscape:showpageshadow="2"
   inkscape:pageopacity="0.0"
   inkscape:pagecheckerboard="0"
   inkscape:deskcolor="#d1d1d1"
   showgrid="false"
   inkscape:zoom="2.5393494"
   inkscape:cx="283.14339"
   inkscape:cy="42.924381"
   inkscape:window-width="1920"
   inkscape:window-height="1017"
   inkscape:window-x="-8"
   inkscape:window-y="-8"
   inkscape:window-maximized="1"
   inkscape:current-layer="Layer_1" />
<g
   id="g3413"><path
     fill-rule="evenodd"
     clip-rule="evenodd"
     fill="#f3ad2c"
     d="m 0,57.685201 c 10.768,1.218 21.535,2.438 27.064,0.774 5.528,-1.662 5.817,-6.209 6.106,-10.754 1.055,-3.295 2.611,-6.594 4.984,-9.899 0.796,-1.137 1.717,-2.186 2.743,-3.121 1.028,-0.937 2.161,-1.758 3.369,-2.444 1.21,-0.688 2.498,-1.242 3.829,-1.648 v 0 l 5.097,-0.979 5.141,-0.717 v 0 c 2.18,-0.303 4.401,-0.977 6.547,-2.095 1.021,-0.533 1.998,-1.148 3.108,-2.036 1.112,-0.891 2.356,-2.052 3.462,-3.33 1.108,-1.28 2.077,-2.678 2.894,-4.158 0.816,-1.482 1.479,-3.046 1.975,-4.662 1.295,-3.5850004 2.506,-7.1830004 3.636,-10.7930004 -9.363,-2.347 -20.381,-2.363 -26.165,-0.422 -5.784,1.939 -6.337,5.832 -6.868,8.483 -0.533,2.6510004 -1.042,4.0600004 -1.623,5.4410004 -0.579,1.381 -1.229,2.736 -1.91,3.938 -0.681,1.201 -1.394,2.254 -2.214,3.217 -0.82,0.963 -1.746,1.838 -2.753,2.606 -1.055,0.715 -2.111,1.429 -3.203,1.958 -2.166,1.07 -4.473,1.479 -6.733,2.124 -3.195,0.596 -6.455,0.991 -9.659,1.927 -1.586,0.458 -3.118,1.107 -4.55,1.929 -1.431,0.819 -2.761,1.814 -3.953,2.95 -1.192,1.138 -2.243,2.419 -3.127,3.806 -0.519,0.803 -1.037,1.606 -1.682,2.878 -0.646,1.273 -1.42,3.015 -2.192,4.756 -1.285,3.398 -2.39,6.823 -3.323,10.271 z"
     id="path3157" /><path
     fill-rule="evenodd"
     clip-rule="evenodd"
     fill="#eb302e"
     d="m 20.146,85.513201 c 10.767,1.217 21.536,2.437 27.064,0.774 5.528,-1.663 5.816,-6.207 6.106,-10.754 1.055,-3.295 2.613,-6.596 4.985,-9.9 0.795,-1.137 1.716,-2.187 2.745,-3.121 1.026,-0.935 2.159,-1.756 3.369,-2.444 1.21,-0.688 2.496,-1.241 3.829,-1.647 v 0 l 5.095,-0.979 5.141,-0.719 v 0 c 2.18,-0.3 4.402,-0.974 6.547,-2.092 1.022,-0.534 1.998,-1.148 3.108,-2.039 1.111,-0.888 2.356,-2.051 3.464,-3.33 1.106,-1.278 2.077,-2.678 2.892,-4.158 0.817,-1.48 1.479,-3.044 1.976,-4.659 1.294,-3.586 2.505,-7.184 3.635,-10.794 -9.363,-2.348 -20.38,-2.362 -26.166,-0.422 -5.784,1.939 -6.337,5.832 -6.868,8.483 -0.533,2.65 -1.043,4.059 -1.622,5.44 -0.58,1.381 -1.229,2.735 -1.911,3.938 -0.681,1.202 -1.395,2.252 -2.214,3.217 -0.819,0.961 -1.746,1.837 -2.752,2.606 -1.056,0.716 -2.112,1.429 -3.203,1.957 -2.167,1.072 -4.473,1.48 -6.734,2.125 -3.196,0.595 -6.454,0.991 -9.66,1.926 -1.586,0.46 -3.118,1.108 -4.549,1.928 -1.431,0.821 -2.762,1.814 -3.953,2.953 -2.689,2.528 -4.455,5.821 -5.887,8.807 -1.896,4.269 -3.251,8.566 -4.437,12.904 z"
     id="path3159" /></g><g
   id="g3409"
   transform="translate(-18,14.246624)"
   style="fill:#1a1a1a"><polygon
     fill-rule="evenodd"
     clip-rule="evenodd"
     fill="#8d9ba6"
     points="149.012,29.317 156.614,58.824 173.976,58.824 166.539,29.238 193.116,3.904 175.355,3.904 150.142,26.738 158.273,3.909 143.25,3.904 122.736,58.824 137.539,58.831 "
     id="polygon3161"
     transform="translate(-2,-1.9997994)"
     style="fill:#1a1a1a" /><path
     fill-rule="evenodd"
     clip-rule="evenodd"
     fill="#8d9ba6"
     d="m 232.467,11.210201 c -0.519,-1.4660004 -1.286,-2.8490004 -2.246,-4.0830004 -0.961,-1.234 -2.115,-2.32 -3.411,-3.198 -1.295,-0.876 -2.731,-1.545 -4.374,-2.073 -3.346,-1.06 -7.293,-1.546 -11.002,-1.47 -1.884,0.04 -3.764,0.222 -5.986,0.647 -2.223,0.424 -4.787,1.093 -7.194,2.133 -2.406,1.04 -4.658,2.454 -6.638,4.166 -1.979,1.711 -3.689,3.7230004 -4.95,5.4730004 -1.259,1.749 -2.07,3.235 -2.847,4.735 -0.775,1.5 -1.519,3.013 -2.199,4.554 -1.309,3.049 -2.523,6.002 -3.47,8.863 -0.45,1.419 -0.801,2.87 -1.056,4.337 -0.254,1.467 -0.41,2.95 -0.486,4.063 -0.076,1.114 -0.073,1.855 -0.033,2.596 0.038,0.74 0.111,1.479 0.208,2.215 0.094,0.74 0.212,1.478 0.627,2.663 0.414,1.186 1.123,2.815 2.119,4.262 0.996,1.447 2.278,2.705 3.74,3.696 1.463,0.991 3.104,1.716 4.973,2.242 3.787,1.051 8.239,1.362 12.411,1.114 2.111,-0.128 4.214,-0.411 6.515,-0.998 2.302,-0.588 4.799,-1.485 7.099,-2.747 2.301,-1.262 4.403,-2.888 6.195,-4.793 1.794,-1.903 3.278,-4.087 4.579,-6.479 1.302,-2.395 2.421,-4.997 3.486,-7.617 1.064,-2.621 2.074,-5.258 2.776,-7.218 0.702,-1.959 1.097,-3.239 1.396,-4.541 0.3,-1.304 0.507,-2.628 0.628,-3.961 0.246,-2.631 0.165,-5.617 -0.86,-8.581 z m -14.493,8.159 c -0.803,2.99 -1.606,5.979 -2.579,8.915 -0.973,2.936 -2.114,5.814 -3.255,8.694 -0.833,1.974 -1.979,3.985 -3.456,5.838 -0.981,1.228 -1.997,2.083 -3.116,2.715 -1.282,0.729 -2.623,1.127 -3.933,1.291 -1.994,0.249 -4.037,-0.049 -5.644,-0.781 -0.876,-0.406 -1.774,-1.019 -2.498,-1.801 -1.1,-1.215 -1.45,-2.484 -1.522,-3.697 -0.065,-1.378 0.098,-2.752 0.445,-4.084 1.639,-6.465 4.068,-12.897 7.456,-19.232 0.462,-0.919 1.056,-1.773 1.758,-2.526 0.702,-0.754 1.516,-1.408 2.404,-1.927 1.823,-1.042 3.659,-1.506 5.211,-1.616 2.325,-0.12 4.795,0.083 6.782,1.759 0.599,0.518 1.097,1.15 1.463,1.851 0.365,0.701 0.598,1.471 0.679,2.256 0.084,0.785 0.015,1.583 -0.195,2.345 z"
     id="path3163"
     style="fill:#1a1a1a" /><polygon
     fill-rule="evenodd"
     clip-rule="evenodd"
     fill="#8d9ba6"
     points="300.36,3.904 286.4,3.905 271.925,43.847 270.784,3.904 248.662,3.904 228.553,58.831 242.568,58.831 257.192,17.807 258.525,58.831 279.861,58.831 "
     id="polygon3165"
     transform="translate(-2,-1.9997994)"
     style="fill:#1a1a1a" /><path
     fill-rule="evenodd"
     clip-rule="evenodd"
     fill="#8d9ba6"
     d="m 321.375,45.918201 -0.308,10.921 h 14.369 L 336.415,1.9012006 H 317.091 L 281.016,56.834201 h 14.914 l 7.451,-10.882 z m 1.402,-31.043 -0.74,19.983 -11.351,0.029 z"
     id="path3167"
     style="fill:#1a1a1a" /><polygon
     fill-rule="evenodd"
     clip-rule="evenodd"
     fill="#8d9ba6"
     points="401.914,3.92 380.268,39.364 385.09,3.915 360.539,3.915 340.022,58.829 354.009,58.829 369.2,18.096 366.04,58.839 380.838,58.839 406.902,18.671 391.708,58.834 406.129,58.834 426.744,3.92 "
     id="polygon3169"
     transform="translate(-2,-1.9997994)"
     style="fill:#1a1a1a" /><polygon
     fill-rule="evenodd"
     clip-rule="evenodd"
     fill="#8d9ba6"
     points="436.391,3.916 415.814,58.836 430.041,58.836 450.82,3.916 "
     id="polygon3171"
     transform="translate(-2,-1.9997994)"
     style="fill:#1a1a1a" /><path
     fill="none"
     stroke="#ffffff"
     stroke-width="0.216"
     stroke-miterlimit="2.6131"
     d="m 470.697,5.7012006 c -0.266,-0.705 -0.668,-1.357 -1.18,-1.911 -1.639,-1.702 -3.723,-2.188 -5.775,-1.696 -0.678,0.172 -1.326,0.469 -1.902,0.868 -0.576,0.398 -1.08,0.902 -1.477,1.477 -0.811,1.167 -1.152,2.609 -0.984,3.973 0.082,0.692 0.291,1.368 0.613,1.9870004 0.326,0.619 0.764,1.179 1.285,1.645 1.791,1.53 3.865,1.875 6.064,1.091 0.705,-0.272 1.357,-0.684 1.904,-1.203 1.765,-1.729 2.245,-3.9980004 1.452,-6.2310004 m 0,0 v 0 m -1.939,5.5780004 c -0.467,0.46 -1.023,0.829 -1.631,1.077 -1.906,0.718 -3.686,0.439 -5.246,-0.837 -0.457,-0.392 -0.844,-0.864 -1.131,-1.391 -0.959,-1.8240004 -0.752,-3.6310004 0.199,-5.1310004 0.328,-0.502 0.748,-0.944 1.234,-1.3 0.484,-0.355 1.035,-0.625 1.615,-0.79 1.775,-0.476 3.582,-0.082 5.006,1.317 0.457,0.467 0.822,1.023 1.072,1.627 0.753,1.947 0.354,3.92 -1.118,5.4280004 m 0,0 v 0"
     id="path3173"
     style="fill:#1a1a1a;fill-opacity:1" /><path
     fill-rule="evenodd"
     clip-rule="evenodd"
     fill="#ffffff"
     d="m 467.338,8.3112006 c -0.236,-0.307 -0.508,-0.395 -0.777,-0.468 0.34,-0.079 0.857,-0.253 1.111,-0.875 0.217,-0.589 0.264,-1.253 -0.4,-1.965 -0.648,-0.623 -1.432,-0.543 -2.168,-0.56 v 0 l -2.467,0.002 0.008,6.5360004 1.377,0.006 v -2.6220004 0 c 0.625,0.07 1.299,-0.25 2.008,0.397 0.469,0.692 0.15,1.2430004 0.49,2.2190004 v 0 l 1.387,-0.002 v 0 c -0.407,-0.874 -0.042,-1.7370004 -0.569,-2.6680004 z m -1.324,-1.137 c -0.648,0.252 -1.328,0.091 -1.992,0.122 v 0 -1.737 0 c 0.678,0.044 1.299,-0.138 2.035,0.14 0.49,0.315 0.615,1.03 -0.043,1.475 z"
     id="path3175"
     style="fill:#1a1a1a;fill-opacity:1" /></g>
</svg>
