<?xml version="1.0" encoding="UTF-8"?><svg id="Layer_1" xmlns="http://www.w3.org/2000/svg" viewBox="0 0 1354 272"><defs><style>.cls-1{fill:#f42533;}</style></defs><g><path d="m560.1051,52.8388c-3.9785,5.4463-7.8496,10.627-11.6172,15.543-3.7676,4.9209-7.748,10.1025-11.9316,15.543-4.6074,6.0742-8.8467,11.5693-12.7178,16.4854-3.876,4.9209-7.644,9.5771-11.3042,13.9727-3.6646,4.3965-7.3789,8.792-11.147,13.1885-3.7676,4.3955-7.8496,9.0029-12.2456,13.8164-11.7261,12.9814-22.7163,24.4912-32.9702,34.5391-10.2588,10.0488-20.832,19.5762-31.7139,28.5742-7.7471,6.0742-15.3862,11.8828-22.9224,17.4268-7.5356,5.5498-14.3408,10.2051-20.4097,13.9736l-10.3623,6.5938c-2.5117,1.6729-4.3467,2.7178-5.4946,3.1396-1.1533.418-2.252.6289-3.2974.6289-2.7227,0-4.0815-.9424-4.0815-2.8262,0-.834.4707-1.8301,1.4126-2.9834.9424-1.1475,2.6689-3.0859,5.1812-5.8086,13.605-14.4443,25.5371-28.3096,35.7959-41.6055,10.2544-13.291,19.7822-27.4746,28.5742-42.5469,10.4648-18.001,18.5259-35.0596,24.1777-51.1816,5.6523-16.1172,8.478-30.1445,8.478-42.0762,0-9.8369-2.4087-17.3193-7.2217-22.4512-4.8184-5.127-11.9321-7.6934-21.3521-7.6934-10.6763,0-22.0879,2.9834-34.2261,8.9492-12.1431,5.9658-23.8643,14.498-35.168,25.5908-11.5151,11.0986-20.3608,22.6621-26.5332,34.6973-6.1768,12.04-9.2627,23.707-9.2627,35.0107,0,8.792,2.1978,15.9648,6.5938,21.5098,4.396,5.5488,10.2539,8.3203,17.584,8.3203,4.813,0,9.8369-1.7266,15.0723-5.1807,5.23-3.4541,10.3618-8.5273,15.3857-15.2295,5.0239-6.6963,9.6802-13.8154,13.9731-21.3516,4.2881-7.5361,7.8989-15.1748,10.833-22.9219,2.7178-6.4863,4.5527-12.0352,5.4951-16.6426.9419-4.6016,1.4126-9.4199,1.4126-14.4434,0-1.0449-.0537-2.6689-.1567-4.8672-.1079-2.1982-.2651-4.4453-.4712-6.751l2.5122-.6279c2.0898,7.1191,3.5029,13.1875,4.2388,18.2119.731,5.0244,1.0991,10.4697,1.0991,16.3281,0,22.6074-7.0161,41.4482-21.0381,56.5195-6.0737,6.4912-12.9819,11.5693-20.7241,15.2295-7.7466,3.665-15.3857,5.4951-22.9219,5.4951-9.8418,0-17.6377-3.0322-23.3931-9.1064-5.7598-6.0693-8.6348-14.2324-8.6348-24.4922,0-11.5098,3.1401-23.4961,9.4199-35.9531,6.2798-12.4512,15.1748-24.335,26.6899-35.6387,12.3491-11.9316,25.0659-21.0381,38.1509-27.3174,13.0801-6.2803,26.1113-9.4209,39.0933-9.4209,8.1641,0,15.543,1.2568,22.1367,3.7686,6.5942,2.5117,12.2461,6.0195,16.9561,10.5186,4.71,4.5039,8.3701,9.8916,10.9902,16.1709,2.6147,6.2803,3.9248,13.2959,3.9248,21.0381,0,10.8877-2.5659,22.6084-7.6929,35.168-5.1318,12.5605-12.7168,25.542-22.7651,38.9365-11.7256,15.4941-24.1777,29.2021-37.3657,41.1338-3.562,3.3506-7.1729,6.6484-10.833,9.8906-3.665,3.248-8.5322,7.4873-14.6011,12.7178-2.9341,2.5117-5.8091,5.0234-8.6353,7.5361-2.8257,2.5117-5.7056,4.9209-8.6348,7.2217-1.8843,1.6777-4.3472,3.8223-7.3789,6.4365-3.0371,2.6201-6.334,5.4951-9.8911,8.6357,3.9741-2.0908,7.3789-3.9746,10.2051-5.6523,2.8257-1.6729,5.4409-3.2969,7.8501-4.8672,2.4038-1.5703,4.813-3.1396,7.2217-4.71,2.4043-1.5703,5.0732-3.5029,8.0073-5.8086,11.3037-7.9531,22.2397-16.4854,32.813-25.5918,10.5679-9.1055,20.5669-18.3682,29.9868-27.7881,4.813-5.0244,9.9941-10.4658,15.543-16.3281,5.5439-5.8584,10.936-11.7217,16.1709-17.584,5.23-5.8584,10.0972-11.5107,14.6011-16.9561,4.499-5.4414,8.3213-10.1514,11.4609-14.1299l39.564-51.8105c1.6738-2.0898,3.1895-4.082,4.5527-5.9658,1.3594-1.8838,2.875-3.9736,4.5527-6.2803,2.5117-3.1396,4.082-5.127,4.7109-5.9658.627-.834,1.1484-1.5703,1.5703-2.1982,2.0898-2.9287,3.6602-4.916,4.709-5.9658,1.0449-1.0449,1.9883-1.5703,2.8262-1.5703,1.8848,0,2.8262.9424,2.8262,2.8262,0,.4219-.1074,1.0498-.3145,1.8838-.2109.8398-.7363,2.252-1.5703,4.2393-.8379,1.9922-1.9375,4.6611-3.2969,8.0068-1.3633,3.3516-3.0898,7.7471-5.1797,13.1885-1.6777,3.9785-3.248,7.8496-4.7109,11.6182-1.4668,3.7676-3.0371,7.5361-4.709,11.3037-1.6777,4.6074-2.8262,7.8008-3.4551,9.5771-.627,1.7812-1.4668,3.8223-2.5117,6.123l-22.6074,61.2295c-2.3066,6.2803-4.6074,12.5605-6.9082,18.8398-2.3062,6.2803-4.6074,12.457-6.9082,18.5264-1.6777,5.0244-3.0908,9.2627-4.2393,12.7168-1.1528,3.4541-2.252,6.9082-3.2969,10.3623-1.0498,3.4541-2.1489,7.1729-3.2969,11.1475-1.1528,3.9785-2.4629,8.8994-3.9248,14.7578,3.9736-8.1641,7.4277-15.1211,10.3618-20.8809,2.9292-5.7559,5.4951-10.7793,7.6929-15.0723,2.1982-4.2881,4.1855-8.1641,5.9668-11.6182,1.7754-3.4541,3.7129-7.0654,5.8086-10.833,10.0469-17.373,20.1445-33.1758,30.3008-47.4141,10.1504-14.2334,20.1445-26.376,29.9863-36.4238,5.2305-5.4414,10.2539-10.0967,15.0723-13.9727,4.8125-3.8711,10.3633-7.8994,16.6426-12.0898l1.5703,2.5127c-7.3301,4.8174-14.3418,10.2051-21.0391,16.1709-6.7012,5.9658-14.1289,13.7666-22.293,23.3926-5.4473,6.2803-10.7305,12.9287-15.8574,19.9395-5.1328,7.0156-10.5195,14.915-16.1719,23.707-4.3945,6.9082-8.5859,13.7666-12.5586,20.5664-3.9805,6.8057-7.1191,12.4033-9.4199,16.7998l-13.5029,27.0039c-1.6777,3.1396-2.9829,5.8086-3.9248,8.0068s-1.624,3.8223-2.041,4.8672l-3.7681,8.4775c-1.4668,3.3457-3.248,5.0244-5.3379,5.0244-2.0947,0-4.082-1.4668-5.9658-4.3965-6.2803-8.3701-9.4204-20.5127-9.4204-36.4238,0-13.6055,2.4043-27.0039,7.2222-40.1924,2.9292-8.3701,8.3213-19.2568,16.1709-32.6553,7.8501-13.3945,17.9468-29.3057,30.3003-47.7285,4.8145-7.1143,8.6855-12.874,11.6191-17.2695,2.9297-4.3965,5.4941-8.3213,7.6934-11.7754,2.1973-3.4541,4.2871-6.957,6.2793-10.5186,1.9863-3.5576,4.4453-8.0566,7.3789-13.502l-15.0723,19.7812Z"/><path d="m639.861,152.0634c-3.7676,6.4902-7.6436,13.1387-11.6182,19.9385-3.9785,6.8057-7.9033,13.7129-11.7744,20.7246-3.876,7.0156-7.3301,13.502-10.3623,19.4678-3.0371,5.9658-5.4951,11.2549-7.3789,15.8564-1.8838,4.6074-2.8262,7.958-2.8262,10.0488,0,2.3057,1.2559,3.4531,3.7686,3.4531,4.1846,0,9.4199-2.6689,15.6992-8.0068,6.2803-5.3379,12.874-12.9229,19.7822-22.7646l11.9316-16.3281,2.5127,1.8838-11.9326,16.3281c-9.0029,11.9326-16.6953,20.4639-23.0791,25.5908-6.3877,5.1318-12.8242,7.6934-19.3105,7.6934-5.6523,0-10.1562-2.0947-13.502-6.2803-3.3506-4.1846-5.0244-9.7334-5.0244-16.6416,0-2.5117.417-5.4414,1.2568-8.792.834-3.3467,2.5605-8.0068,5.1807-13.9727,2.6152-5.9668,6.4365-13.5518,11.4609-22.7656,5.0244-9.209,11.6182-20.9297,19.7822-35.168-5.6523,4.8184-11.8828,11.3584-18.6836,19.625-6.8047,8.2725-15.3369,19.7334-25.5908,34.3828l-2.5117-1.8838c6.2803-8.998,11.667-16.4854,16.1709-22.4512,4.499-5.9658,8.5273-11.0391,12.0889-15.2285,3.5566-4.1855,6.7998-7.7959,9.7344-10.833,2.9287-3.0322,5.9658-6.0156,9.1055-8.9492l35.168-1.8838c-2.9336,4.8174-6.2793,10.4697-10.0479,16.9561Zm36.4238-71.5918c0,5.6514-1.9375,10.627-5.8086,14.9141-3.876,4.293-8.3213,6.4375-13.3447,6.4375-3.7686,0-6.9082-1.3594-9.4199-4.082-2.5127-2.7178-3.7686-6.1719-3.7686-10.3623,0-2.7178.5205-5.3867,1.5703-8.0068,1.0449-2.6152,2.5117-4.916,4.3955-6.9082,1.8848-1.9863,3.9746-3.6104,6.2803-4.8662,2.3008-1.2568,4.71-1.8848,7.2217-1.8848,3.7686,0,6.8545,1.4131,9.2637,4.2393,2.4033,2.8262,3.6104,6.334,3.6104,10.5195Z"/><path d="m709.57,112.1855c4.6016-7.9531,8.6836-15.0723,12.2451-21.3525,3.5576-6.2803,7.0117-12.2949,10.3623-18.0547,3.3457-5.7549,6.9082-11.7207,10.6758-17.8984,3.7686-6.1719,8.1641-13.2363,13.1885-21.1943l30.458-2.5127c-2.0947,3.7686-5.8096,10.1562-11.1475,19.1543-5.3379,9.0029-11.5146,19.5225-18.5254,31.5566-7.0166,12.04-14.498,24.9141-22.4512,38.6221-7.958,13.7129-15.6514,27.2148-23.0791,40.5068-7.4326,13.2959-14.2383,25.8018-20.4102,37.5225-6.1768,11.7256-10.9404,21.46-14.2871,29.2021-1.0498,2.3057-1.8838,4.3955-2.5117,6.2803-.6279,1.8838-.9424,3.3506-.9424,4.3955,0,2.0947,1.2559,3.1396,3.7686,3.1396,4.1846,0,9.3662-2.7178,15.543-8.1631,6.1719-5.4414,12.7168-12.9775,19.625-22.6084l11.9316-16.3281,2.5117,1.8838-11.9316,16.3281c-8.792,11.9326-16.4355,20.4639-22.9219,25.5908-6.4912,5.1318-12.874,7.6934-19.1543,7.6934-5.2344,0-9.4199-1.9922-12.5596-5.9658-3.1406-3.9746-4.71-9.209-4.71-15.7002v-3.9248c0-1.3594.3633-3.2969,1.0986-5.8096.7314-2.5117,1.8838-5.7549,3.4541-9.7334,1.5703-3.9746,3.9248-9.1553,7.0654-15.543,3.1396-6.3828,7.2217-14.1299,12.2461-23.2363,5.0234-9.1055,11.1953-20.042,18.5254-32.8125-1.2559,1.4668-3.8223,4.6602-7.6924,9.5762-3.876,4.9209-8.2188,10.5195-13.0312,16.7998-4.8184,6.2793-9.7344,12.7705-14.7578,19.4678-5.0244,6.7021-9.2139,12.457-12.5605,17.2695l-2.5117-1.8838c2.7178-3.9736,5.9121-8.4775,9.5771-13.502,3.6602-5.0244,7.5361-10.2051,11.6182-15.543s8.2129-10.6758,12.4023-16.0137c4.1855-5.3379,8.1641-10.4111,11.9326-15.2295,3.7676-4.8125,7.1133-9.1055,10.0479-12.874,2.9287-3.7676,5.2295-6.7998,6.9082-9.1055Z"/><path d="m786.4997,112.1855c4.6016-7.9531,8.6836-15.0723,12.2451-21.3525,3.5576-6.2803,7.0117-12.2949,10.3623-18.0547,3.3457-5.7549,6.9082-11.7207,10.6758-17.8984,3.7686-6.1719,8.1641-13.2363,13.1885-21.1943l30.458-2.5127c-2.0947,3.7686-5.8096,10.1562-11.1475,19.1543-5.3379,9.0029-11.5146,19.5225-18.5254,31.5566-7.0166,12.04-14.498,24.9141-22.4512,38.6221-7.958,13.7129-15.6514,27.2148-23.0791,40.5068-7.4326,13.2959-14.2383,25.8018-20.4102,37.5225-6.1768,11.7256-10.9404,21.46-14.2871,29.2021-1.0498,2.3057-1.8838,4.3955-2.5117,6.2803-.6279,1.8838-.9424,3.3506-.9424,4.3955,0,2.0947,1.2559,3.1396,3.7686,3.1396,4.1846,0,9.3662-2.7178,15.543-8.1631,6.1719-5.4414,12.7168-12.9775,19.625-22.6084l11.9316-16.3281,2.5117,1.8838-11.9316,16.3281c-8.792,11.9326-16.4355,20.4639-22.9219,25.5908-6.4912,5.1318-12.874,7.6934-19.1543,7.6934-5.2344,0-9.4199-1.9922-12.5596-5.9658-3.1406-3.9746-4.71-9.209-4.71-15.7002v-3.9248c0-1.3594.3633-3.2969,1.0986-5.8096.7314-2.5117,1.8838-5.7549,3.4541-9.7334,1.5703-3.9746,3.9248-9.1553,7.0654-15.543,3.1396-6.3828,7.2217-14.1299,12.2461-23.2363,5.0234-9.1055,11.1953-20.042,18.5254-32.8125-1.2559,1.4668-3.8223,4.6602-7.6924,9.5762-3.876,4.9209-8.2188,10.5195-13.0312,16.7998-4.8184,6.2793-9.7344,12.7705-14.7578,19.4678-5.0244,6.7021-9.2139,12.457-12.5605,17.2695l-2.5117-1.8838c2.7178-3.9736,5.9121-8.4775,9.5771-13.502,3.6602-5.0244,7.5361-10.2051,11.6182-15.543s8.2129-10.6758,12.4023-16.0137c4.1855-5.3379,8.1641-10.4111,11.9326-15.2295,3.7676-4.8125,7.1133-9.1055,10.0479-12.874,2.9287-3.7676,5.2295-6.7998,6.9082-9.1055Z"/><path d="m873.1637,152.0634c-3.7676,6.4902-7.6436,13.1387-11.6182,19.9385-3.9785,6.8057-7.9033,13.7129-11.7744,20.7246-3.876,7.0156-7.3301,13.502-10.3623,19.4678-3.0371,5.9658-5.4951,11.2549-7.3789,15.8564-1.8838,4.6074-2.8262,7.958-2.8262,10.0488,0,2.3057,1.2559,3.4531,3.7686,3.4531,4.1846,0,9.4199-2.6689,15.6992-8.0068,6.2803-5.3379,12.874-12.9229,19.7822-22.7646l11.9316-16.3281,2.5127,1.8838-11.9326,16.3281c-9.0029,11.9326-16.6953,20.4639-23.0791,25.5908-6.3877,5.1318-12.8242,7.6934-19.3105,7.6934-5.6523,0-10.1562-2.0947-13.502-6.2803-3.3506-4.1846-5.0244-9.7334-5.0244-16.6416,0-2.5117.417-5.4414,1.2568-8.792.834-3.3467,2.5605-8.0068,5.1807-13.9727,2.6152-5.9668,6.4365-13.5518,11.4609-22.7656,5.0244-9.209,11.6182-20.9297,19.7822-35.168-5.6523,4.8184-11.8828,11.3584-18.6836,19.625-6.8047,8.2725-15.3369,19.7334-25.5908,34.3828l-2.5117-1.8838c6.2803-8.998,11.667-16.4854,16.1709-22.4512,4.499-5.9658,8.5273-11.0391,12.0889-15.2285,3.5566-4.1855,6.7998-7.7959,9.7344-10.833,2.9287-3.0322,5.9658-6.0156,9.1055-8.9492l35.168-1.8838c-2.9336,4.8174-6.2793,10.4697-10.0479,16.9561Zm36.4238-71.5918c0,5.6514-1.9375,10.627-5.8086,14.9141-3.876,4.293-8.3213,6.4375-13.3447,6.4375-3.7686,0-6.9082-1.3594-9.4199-4.082-2.5127-2.7178-3.7686-6.1719-3.7686-10.3623,0-2.7178.5205-5.3867,1.5703-8.0068,1.0449-2.6152,2.5117-4.916,4.3955-6.9082,1.8848-1.9863,3.9746-3.6104,6.2803-4.8662,2.3008-1.2568,4.71-1.8848,7.2217-1.8848,3.7686,0,6.8545,1.4131,9.2637,4.2393,2.4033,2.8262,3.6104,6.334,3.6104,10.5195Z"/><path d="m1014.777,154.2607c-3.5615,6.2803-6.6475,11.8291-9.2627,16.6426-2.6201,4.8174-5.0244,9.3164-7.2217,13.502-2.1982,4.1895-4.2393,8.2178-6.123,12.0889-1.8848,3.876-3.876,8.0068-5.9668,12.4033-4.8174,10.0479-8.1143,17.167-9.8906,21.3516-1.7812,4.1904-2.6689,7.0166-2.6689,8.4785,0,1.8838,1.2559,2.8252,3.7676,2.8252,9.627,0,21.7695-10.2539,36.4248-30.7715l10.6758-14.4443,1.2559-1.8838,2.5117,1.8838-1.2559,1.8848-10.6758,14.4434c-8.792,11.9326-16.4854,20.4639-23.0791,25.5908-6.5938,5.1318-13.2422,7.6934-19.9385,7.6934-5.4463,0-9.7881-1.8838-13.0312-5.6523-3.248-3.7676-4.8672-8.8945-4.8672-15.3857,0-2.3008.3135-5.2295.9424-8.792.6279-3.5566,1.7754-8.0557,3.4531-13.502-10.4697,15.7002-19.4189,26.8467-26.8467,33.4414-7.4326,6.5938-14.8115,9.8906-22.1367,9.8906-7.7471,0-14.0811-2.9287-18.9971-8.792-4.9209-5.8584-7.3789-13.502-7.3789-22.9219,0-5.2305.5742-10.0479,1.7266-14.4443,1.1484-4.3955,3.2969-9.9395,6.4375-16.6416-1.4668,1.6777-2.5664,3.0908-3.2969,4.2393-.7363,1.1523-1.3105,1.9375-1.7275,2.3545l-4.71,6.5938-2.5117-1.8838c13.6045-19.6738,27.0527-34.5889,40.3486-44.7451,13.291-10.1504,26.1113-15.2285,38.4648-15.2285,15.9062,0,23.8643,6.9082,23.8643,20.7236l9.1064-15.0723,33.5977-5.3379-10.9902,19.4678Zm-34.8535-.6279c0-3.7676-1.207-6.957-3.6113-9.5762-2.4092-2.6152-5.3916-3.9258-8.9492-3.9258-2.9336,0-6.0732,1.4131-9.4199,4.2393-3.3506,2.8262-6.8047,6.4375-10.3613,10.833-3.5625,4.3965-7.0654,9.2627-10.5195,14.6016-3.4541,5.3379-6.751,10.627-9.8906,15.8564-6.9082,11.9316-12.3545,22.1914-16.3281,30.7725-3.9795,8.5859-5.9658,14.6543-5.9658,18.2119,0,4.6064,2.8252,6.9072,8.4775,6.9072,5.0244,0,11.1963-3.2422,18.5264-9.7334,7.3252-6.4863,14.5469-15.0723,21.666-25.748,4.1846-6.2803,9.9395-16.1172,17.2695-29.5156,3.3467-6.0693,5.7012-10.833,7.0654-14.2871,1.3584-3.4541,2.041-6.3291,2.041-8.6357Z"/><path d="m1040.5251,224.2831c3.9736-6.2803,7.4824-12.0352,10.5195-17.2695,3.0312-5.2305,5.8086-10.2051,8.3203-14.915s4.9707-9.4209,7.3789-14.1309c2.4043-4.71,4.8672-9.8906,7.3789-15.543,2.7188-5.6514,4.6025-9.9395,5.6523-12.874,1.0449-2.9287,1.5703-5.2295,1.5703-6.9072,0-1.8848-.7363-2.8262-2.1982-2.8262-3.1396,0-8.4775,3.9785-16.0137,11.9316-2.3066,2.3057-4.5039,4.6611-6.5947,7.0654-2.0947,2.4092-4.4492,5.2891-7.0645,8.6348-2.6201,3.3506-5.6035,7.3301-8.9492,11.9316-3.3506,4.6074-7.4326,10.2598-12.2461,16.9561l-2.5117-1.8838c3.7676-5.4414,7.0645-10.0967,9.8906-13.9727,2.8262-3.8711,5.3379-7.2227,7.5361-10.0479,2.1982-2.8262,4.1309-5.3389,5.8096-7.5361,1.6729-2.1982,3.4531-4.3428,5.3379-6.4375,6.6963-7.5361,12.4521-13.0312,17.2695-16.4844,4.8135-3.4541,9.3125-5.1816,13.502-5.1816,4.8135,0,8.6348,1.7812,11.4609,5.3379,2.8262,3.5625,4.2393,8.4785,4.2393,14.7588,0,6.4902-1.3096,13.3447-3.9248,20.5664-2.6201,7.2217-7.0654,16.5928-13.3457,28.1035l-9.1055,16.0137c2.9287-4.1846,5.4414-7.7959,7.5361-10.833,2.0898-3.0322,4.1309-5.9121,6.123-8.6348,1.9863-2.7188,3.9736-5.5439,5.9658-8.4785,1.9873-2.9287,4.4453-6.2793,7.3789-10.0479,4.3965-5.8584,8.2666-10.9355,11.6182-15.2285,3.3457-4.2881,6.3828-7.9531,9.1055-10.9902,2.7188-3.0322,5.1816-5.5986,7.3799-7.6934,2.1973-2.0898,4.4443-3.9736,6.751-5.6514,5.8574-4.3965,11.3037-6.5947,16.3271-6.5947,5.2305,0,9.2637,1.9385,12.0898,5.8096,2.8252,3.876,4.2383,9.2627,4.2383,16.1709,0,3.7676-.4219,7.8008-1.2559,12.0889-.8389,4.293-2.4092,9.1602-4.71,14.6006-1.2559,3.5625-3.0908,7.8506-5.4951,12.874-2.4092,5.0244-5.7061,11.5156-9.8906,19.4688,18.6289-28.4668,33.9121-49.0332,45.8438-61.7012,11.9316-12.6631,21.8721-18.9971,29.8301-18.9971,5.4414,0,9.7832,2.1484,13.0312,6.4365,3.2432,4.293,4.8672,9.7881,4.8672,16.4854,0,3.1396-.4219,6.751-1.2568,10.833-.8389,4.082-1.8838,8.0068-3.1396,11.7754-1.2559,3.5615-3.248,7.8008-5.9658,12.7168-2.7227,4.9209-6.4912,11.2549-11.3037,18.9971l-7.8506,12.874c-2.3057,3.5615-3.876,6.1768-4.71,7.8496-.8389,1.6777-1.2559,3.0371-1.2559,4.082,0,2.5117,1.4619,3.7676,4.3965,3.7676,4.1846,0,9.3652-2.6689,15.543-8.0068,6.1719-5.3379,12.8193-12.9229,19.9385-22.7646l10.6758-14.4443,1.2559-1.8838,2.5127,1.8838-1.2559,1.8848-10.6768,14.4434c-8.792,11.9326-16.4355,20.4639-22.9219,25.5908-6.4912,5.1318-12.7705,7.6934-18.8398,7.6934-5.4463,0-9.7881-2.1494-13.0312-6.4365-3.248-4.2881-4.8662-10.0977-4.8662-17.4277,0-6.9082,1.2559-14.0762,3.7676-21.5088,2.5117-7.4277,5.9658-14.4932,10.3623-21.1953l14.7578-22.2939c2.3008-3.3457,4.082-6.2793,5.3379-8.792,1.2559-2.5117,1.8838-4.2881,1.8838-5.3379,0-2.3008-1.3643-3.4541-4.082-3.4541-5.4453,0-13.3984,5.4463-23.8643,16.3281-5.4453,5.4463-11.4609,12.5107-18.0547,21.1953-6.5938,8.6885-12.9277,17.7412-18.9971,27.1611-1.8838,2.9336-3.665,5.7061-5.3379,8.3203-1.6777,2.6201-3.4053,5.3926-5.1807,8.3213-1.7812,2.9336-3.665,6.123-5.6523,9.5771-1.9922,3.4541-4.3467,7.4873-7.0645,12.0889l-35.7969,2.1982c2.7188-4.6025,5.1279-8.5811,7.2227-11.9326,2.0898-3.3457,3.9736-6.4854,5.6514-9.4199,1.6738-2.9287,3.2432-5.8086,4.71-8.6348,1.4629-2.8262,3.1406-6.0146,5.0244-9.5771,7.9531-15.0713,14.0762-27.8916,18.3691-38.4648,4.2881-10.5684,6.4365-17.8438,6.4365-21.8232,0-2.3008-.8389-3.4531-2.5117-3.4531-1.8838,0-4.8174,1.4668-8.792,4.3955-3.9785,2.9336-7.7471,6.4912-11.3037,10.6758-1.8838,2.0947-3.665,4.1904-5.3379,6.2803-1.6787,2.0947-3.4541,4.3955-5.3379,6.9082-1.8848,2.5117-4.0332,5.3916-6.4375,8.6348-2.4092,3.248-5.2891,7.0654-8.6348,11.4609-3.5625,5.0244-6.7021,9.4199-9.4199,13.1885-2.7236,3.7676-5.3926,7.5352-8.0068,11.3037-2.6201,3.7676-5.3389,7.8496-8.1641,12.2461-2.8262,4.3955-6.2314,9.6309-10.2051,15.7002l-35.4824,2.1973,12.2461-20.0957Z"/><path d="m1260.0114,196.3369l-2.5117-1.8838,48.6699-67.1963c.417-5.4404,1.8301-9.8906,4.2393-13.3447,2.4033-3.4541,5.1807-5.1807,8.3203-5.1807,1.8848,0,2.8262.7354,2.8262,2.1982,0,.4219-.3135,1.0498-.9414,1.8838-.6279.8389-2.1982,2.4092-4.71,4.71-4.1904,3.5615-6.2803,7.6436-6.2803,12.2461,0,3.5615.6768,7.0645,2.041,10.5186,1.3584,3.4541,3.8164,8.4287,7.3789,14.915,5.0234,9.2139,8.5811,16.7988,10.6758,22.7646,2.0898,5.9668,3.1396,12.1973,3.1396,18.6836,0,4.6064-.4219,8.8457-1.2559,12.7168-.8389,3.876-2.4082,8.5322-4.71,13.9727,1.4619-1.6729,2.9297-3.3457,4.3965-5.0234,1.4619-1.6729,2.9824-3.5576,4.5527-5.6523,1.5703-2.0898,3.4541-4.6562,5.6523-7.6924,2.1973-3.0322,4.8672-6.8545,8.0068-11.4619l1.5703-1.5693,2.5117,1.5693-1.2559,1.8848c-2.5127,3.7676-5.4951,7.958-8.9492,12.5596-3.4541,4.6074-6.334,8.375-8.6348,11.3037-14.0273,17.7949-29.4131,26.6904-46.1582,26.6904-4.8184,0-9.2627-.7363-13.3447-2.1982s-7.5898-3.4541-10.5195-5.9658c-2.9336-2.5117-5.2344-5.4951-6.9082-8.9492-1.6729-3.4541-2.5117-7.168-2.5117-11.1465,0-4.8135,1.207-8.792,3.6113-11.9326,2.4043-3.1396,5.4951-4.71,9.2627-4.71,3.3457,0,6.2266,1.207,8.6348,3.6113,2.4043,2.4092,3.6113,5.3916,3.6113,8.9492,0,5.4453-3.0371,9.6309-9.1064,12.5596-2.3057,1.0498-3.876,1.9922-4.71,2.8262-.8389.8389-1.2559,1.7812-1.2559,2.8262,0,1.8838.9424,3.5615,2.8262,5.0234,1.8838,1.4678,3.9746,2.1982,6.2803,2.1982,2.9287,0,5.5439-.9414,7.8496-2.8262,2.3008-1.8838,4.8135-4.916,7.5361-9.1055,12.3486-19.8848,18.5264-41.4482,18.5264-64.6846,0-1.8838-.1084-4.2881-.3145-7.2217-.2109-2.9287-.4707-5.8584-.7852-8.792-.3135-2.9287-.5791-5.7012-.7852-8.3213-.2109-2.6143-.3135-4.4443-.3135-5.4951l-46.1582,63.7422Z"/></g><path class="cls-1" d="m136.3237,1.0802C61.9387,1.0802,1.6377,61.3813,1.6377,135.7663s60.301,134.6861,134.686,134.6861,134.6861-60.301,134.6861-134.6861S210.7088,1.0802,136.3237,1.0802Zm39.5821,211.0667l-39.5821-95.5303-39.5821,95.5303L37.5778,75.5893l57.1828,55.931,34.6238-31.6515-8.4619-20.4227,15.4012,14.0791,15.4012-14.0791-8.4619,20.4227,34.6238,31.6515,57.1828-55.931-59.1639,136.5576Z"/></svg>