<?xml version="1.0" encoding="UTF-8" standalone="no"?>
<!-- Generator: Adobe Illustrator 13.0.0, SVG Export Plug-In . SVG Version: 6.00 Build 14948)  -->

<svg
   version="1.1"
   id="Layer_1"
   x="0px"
   y="0px"
   width="219.57629"
   height="64.002022"
   viewBox="0 0 219.57629 64.002022"
   xml:space="preserve"
   sodipodi:docname="logo_atari.svg"
   inkscape:version="1.4.2 (2aeb623e1d, 2025-05-12)"
   xmlns:inkscape="http://www.inkscape.org/namespaces/inkscape"
   xmlns:sodipodi="http://sodipodi.sourceforge.net/DTD/sodipodi-0.dtd"
   xmlns="http://www.w3.org/2000/svg"
   xmlns:svg="http://www.w3.org/2000/svg"><defs
   id="defs6" /><sodipodi:namedview
   id="namedview6"
   pagecolor="#ffffff"
   bordercolor="#000000"
   borderopacity="0.25"
   inkscape:showpageshadow="2"
   inkscape:pageopacity="0.0"
   inkscape:pagecheckerboard="0"
   inkscape:deskcolor="#d1d1d1"
   inkscape:zoom="2.0233333"
   inkscape:cx="116.63921"
   inkscape:cy="37.314662"
   inkscape:window-width="1854"
   inkscape:window-height="1011"
   inkscape:window-x="0"
   inkscape:window-y="0"
   inkscape:window-maximized="1"
   inkscape:current-layer="Layer_1" />






<g
   id="rect1-6"
   style="opacity:1"
   transform="translate(19.685671,167.60559)"><path
     style="baseline-shift:baseline;display:inline;overflow:visible;vector-effect:none;fill:#ffffff;stroke-linecap:round;stroke-linejoin:round;enable-background:accumulate;stop-color:#000000;stop-opacity:1"
     d="m 11.988281,-160.60547 c -3.1440623,0 -5.8322722,1.97323 -6.8710935,4.75781 l -0.00586,0.004 -17.7910165,45.24023 H -2.00586 l 4.09375,-11.23046 h 19.824219 l 4.296875,11.23046 h 10.958985 l -18.302735,-45.24218 -0.002,-0.0156 c -1.049436,-2.77113 -3.728108,-4.74414 -6.875,-4.74414 z m 75.123047,0.0449 c 0,5.6102 -0.05505,16.78235 -3.607422,24.42774 -3.886381,8.36506 -13.881807,12.95342 -16.865234,12.98242 l 0.002,12.375 c 11.443312,-1.15134 19.189607,-12.33173 22.101563,-23.19336 2.477461,-9.23829 2.178499,-25.00385 2.193359,-26.5918 z m 6.160156,0 c 0,0 0.08686,21.00145 -0.4375,29.42383 -0.90772,14.57765 -4.936717,20.283 -4.988281,20.35547 h 15.960937 c 0,0 -4.389138,-5.72052 -5.392578,-20.45508 -0.581677,-8.56603 -0.59375,-29.32422 -0.59375,-29.32422 z m 6.826176,0 c 0.0149,1.58795 -0.282858,17.35351 2.19531,26.5918 2.91196,10.86092 10.65559,22.04202 22.09961,23.19336 l 0.004,-12.375 c -2.98485,-0.029 -12.97973,-4.61736 -16.86328,-12.98242 -3.55517,-7.64539 -3.60742,-18.81754 -3.60742,-24.42774 z m 40.74609,0.29688 c -4.05069,0.003 -7.3457,3.29163 -7.3457,7.34375 l 0.0137,0.0117 v 42.2832 h 9.98242 v -39.26367 h -0.006 c 0,-1.2313 1.00058,-2.23633 2.23047,-2.23633 h 6.73242 c 0.6114,0 2.43972,0.037 2.80274,0.0879 v 0.004 c 2.97706,0.24414 5.39834,2.36358 6.09961,5.16797 0.0382,0.11535 0.0647,0.2277 0.0859,0.34375 v 0.0254 c 0.0382,0.17125 0.0569,0.33494 0.0781,0.50195 0.0361,0.26041 0.043,0.52655 0.043,0.79687 0,2.5829 -1.42443,4.84183 -3.53321,6.01368 -0.4267,0.25334 -0.86959,0.47441 -1.33593,0.66406 -0.33117,0.15002 -0.71401,0.28867 -1.11524,0.42383 -2.694,0.94966 -3.84891,1.51318 -4.97265,2.59375 -1.26031,1.31834 -2.05885,3.09899 -2.08008,5.06836 -0.0198,1.84979 0.62456,3.54047 1.7207,4.84961 l 12.68164,14.96484 h 11.87305 l -14.52344,-17.56836 c -0.29863,-0.38354 -0.48047,-0.84508 -0.48047,-1.35742 0,-0.4635 0.15837,-0.88129 0.40039,-1.24219 0.38071,-0.44935 1.06203,-0.70604 1.51563,-0.92187 5.34625,-2.43642 9.14453,-7.55753 9.14453,-13.48829 0,-7.95463 -6.68116,-14.47147 -14.96485,-14.97461 -1.03174,-0.1019 -3.36132,-0.0918 -3.36132,-0.0918 h -11.67969 z m 42.06445,0.0176 v 49.64062 h 9.98242 v -49.64062 z m -148.374997,0.002 c -1.743634,0 -3.150391,1.40655 -3.150391,3.14453 v 5.24414 h 15.509766 v 41.25 H 56.875 v -41.25 h 15.509766 v -5.24414 c 0,-1.73798 -1.407464,-3.14524 -3.150391,-3.14453 z m -22.669922,11.58008 6.859375,18.4375 H 5.1347656 Z"
     id="path7" /><path
     style="baseline-shift:baseline;display:inline;overflow:visible;vector-effect:none;fill:#ffffff;stroke-linecap:round;stroke-linejoin:round;enable-background:accumulate;stop-color:#000000;stop-opacity:1"
     d="m 11.988281,-167.60547 c -5.9900728,0 -11.21215994,3.74941 -13.3144529,9.10547 -0.02566,0.031 -0.051051,0.0623 -0.076172,0.0937 l -17.7910151,45.24023 c -1.805737,4.59232 1.579086,9.56147 6.513671,9.5625 h 10.6738284 c 2.94150681,-5.5e-4 5.5689368,-1.83983 6.5761719,-4.60351 l 2.4160156,-6.62695 H 17.095703 l 2.576172,6.73242 c 1.036865,2.70876 3.636683,4.49764 6.537109,4.49804 0,0 39.111722,-0.0329 41.132813,-0.20703 5.304301,-0.53368 9.908693,-2.73985 13.796875,-5.71093 0.595501,3.25955 3.394624,5.65518 6.707031,5.74023 h 15.960937 c 3.14674,-0.14468 5.80932,-2.37322 6.50586,-5.44531 3.80496,2.8108 8.25891,4.90091 13.37891,5.41601 1.90346,0.16492 19.80273,0.18555 19.80273,0.18555 3.86583,-3.9e-4 6.99961,-3.13417 7,-7 v -3.83789 l 7.0918,8.36914 c 1.32993,1.56933 3.28277,2.47432 5.33984,2.47461 l 29.96484,0.0137 c 3.86583,-3.9e-4 6.99961,-3.13417 7,-7 v -49.64062 c -3.9e-4,-3.86583 -3.13417,-6.99961 -7,-7 h -9.98242 c -3.86583,3.9e-4 -6.99961,3.13417 -7,7 v 6.29297 c -3.40177,-7.42116 -10.92544,-12.6355 -19.5,-13.19141 -1.98582,-0.17508 -3.85024,-0.12031 -3.8789,-0.11914 h -11.67969 -0.006 -0.006 c -7.8362,0.006 -14.33984,6.4969 -14.33984,14.34375 -8e-5,2.04316 0.0137,23.63476 0.0137,23.63476 -0.63187,-0.39555 -1.32287,-0.68764 -2.04688,-0.86523 1.00899,0.01 0.11866,0.009 -0.82421,-0.36719 -0.94288,-0.37579 -2.2217,-1.01536 -3.50586,-1.85547 -2.56834,-1.68022 -5.07016,-4.16146 -6.25196,-6.70703 l -0.002,-0.004 c -2.46687,-5.305 -2.95508,-15.90983 -2.95508,-21.47657 -3.9e-4,-3.86583 -3.13417,-6.99961 -7,-7 H 87.111028 c -3.865833,3.9e-4 -6.999613,3.13417 -7,7 0,5.56441 -0.489153,16.17137 -2.955078,21.47852 -1.183056,2.54641 -3.686927,5.02853 -6.255859,6.70898 -1.284467,0.84023 -2.562963,1.47964 -3.50586,1.85547 -0.942897,0.37583 -1.834393,0.37701 -0.824219,0.36719 -0.968612,0.18547 -1.887108,0.5735 -2.695312,1.13867 v -15.84375 h 8.509766 c 3.865833,-3.9e-4 6.999613,-3.13417 7,-7 v -5.24414 c 0,-5.51651 -4.638877,-10.14567 -10.150391,-10.14453 H 34.533203 c -4.72033,0 -8.615711,3.46261 -9.6875,7.90625 -2.312389,-4.86061 -7.189965,-8.26758 -12.857422,-8.26758 z"
     id="path8"
     sodipodi:nodetypes="cccccccccccccccccccccccccccccccccsccccscccccccsscccccscsccc" /></g><g
   id="g6"
   transform="matrix(0.70764397,0,0,0.70764397,43.528,85.928108)"><rect
     x="224.77786"
     y="-111.02704"
     style="fill:#fa000f"
     width="14.107"
     height="70.148003"
     id="rect1" /><path
     style="fill:#fa000f"
     d="m -26.439139,-68.60604 9.507,-26.055001 9.6949995,26.055001 H -26.439139 m 19.4039995,-36.205 -0.005,-0.02 c -1.483,-3.916 -5.2669995,-6.704 -9.7139995,-6.704 -4.443,0 -8.241,2.788 -9.709,6.723 l -0.01,0.005 -25.142,63.929 h 15.085 l 5.784,-15.869 h 28.0159995 l 6.071,15.869 H 18.828861 l -25.8640005,-63.933"
     id="path1" /><path
     style="fill:#fa000f"
     d="m 68.593861,-106.58204 v 7.410999 h -21.916 v 58.293001 h -14.109 v -58.293001 h -21.916 v -7.410999 c 0,-2.456 1.989,-4.444 4.453,-4.444 h 49.036 c 2.463,-0.001 4.452,1.988 4.452,4.444"
     id="path2" /><path
     style="fill:#fa000f"
     d="m 192.79686,-65.72404 c -0.422,-0.542 -0.679,-1.194 -0.679,-1.918 0,-0.655 0.223,-1.247 0.565,-1.757 0.538,-0.635 1.501,-0.996 2.142,-1.301 7.555,-3.443 12.922,-10.681 12.922,-19.062001 0,-11.240999 -9.44,-20.450999 -21.146,-21.161999 -1.458,-0.144 -4.75,-0.129 -4.75,-0.129 h -16.516 0.009 c -5.728,0 -10.388,4.649 -10.388,10.378 l 0.021,0.017 v 59.75 h 14.106 v -55.485001 h -0.009 c 0,-1.74 1.413,-3.158 3.151,-3.158 h 9.515 c 0.864,0 3.448,0.05 3.961,0.122 v 0.006 c 4.207,0.345 7.627,3.341 8.618,7.304 0.054,0.163 0.092,0.323 0.122,0.487 0,0.016 0,0.031 0,0.036 0.054,0.242 0.081,0.473 0.111,0.709 0.051,0.368 0.059,0.743 0.059,1.125 0,3.65 -2.011,6.843001 -4.991,8.499001 -0.603,0.358 -1.229,0.671 -1.888,0.939 -0.468,0.212 -1.011,0.408 -1.578,0.599 -3.807,1.342 -5.438,2.136 -7.026,3.663 -1.781,1.863 -2.908,4.38 -2.938,7.163 -0.028,2.614 0.882,5.004 2.431,6.854 l 17.92,21.146 h 16.78 l -20.524,-24.825"
     id="path3" /><path
     style="fill:#fa000f"
     d="m 90.440864,-41.12704 c 0,0 5.76,-8.034 7.051,-28.767 0.741,-11.902 0.618,-41.578 0.618,-41.578 h 6.426996 c 0,0 0.019,29.333 0.841,41.438 1.418,20.822 7.619,28.906 7.619,28.906 H 90.440864"
     id="path4" /><path
     style="fill:#fa000f"
     d="m 84.307864,-76.95304 c 5.02,-10.804001 5.096,-26.591 5.096,-34.519 h 5.405 c -0.021,2.244 0.402,24.520999 -3.099,37.576 -4.115,15.349 -15.061,31.149 -31.232003,32.776 l -0.005,-17.486 c 4.216,-0.041 18.343003,-6.526 23.835003,-18.347"
     id="path5" /><path
     style="fill:#fa000f"
     d="m 142.09386,-58.60604 -0.006,17.486 c -16.172,-1.627 -27.116,-17.428 -31.231,-32.776 -3.502,-13.055001 -3.081,-35.332 -3.102,-37.576 h 5.41 c 0,7.928 0.074,23.714999 5.098,34.519 5.488,11.821 19.613,18.306 23.831,18.347"
     id="path6" /></g>
</svg>
