<?xml version="1.0" encoding="UTF-8" standalone="no"?>
<!-- Created with Inkscape (http://www.inkscape.org/) -->

<svg
   version="1.1"
   viewBox="0 0 306.73086 64.000166"
   id="svg3512"
   sodipodi:docname="logo_neogeo.svg"
   width="306.73087"
   height="64.000168"
   inkscape:version="1.4.2 (2aeb623e1d, 2025-05-12)"
   xmlns:inkscape="http://www.inkscape.org/namespaces/inkscape"
   xmlns:sodipodi="http://sodipodi.sourceforge.net/DTD/sodipodi-0.dtd"
   xmlns="http://www.w3.org/2000/svg"
   xmlns:svg="http://www.w3.org/2000/svg"
   xmlns:rdf="http://www.w3.org/1999/02/22-rdf-syntax-ns#"
   xmlns:cc="http://creativecommons.org/ns#"
   xmlns:dc="http://purl.org/dc/elements/1.1/">
  <defs
     id="defs3516" />
  <sodipodi:namedview
     id="namedview3514"
     pagecolor="#ffffff"
     bordercolor="#000000"
     borderopacity="0.25"
     inkscape:showpageshadow="2"
     inkscape:pageopacity="0.0"
     inkscape:pagecheckerboard="0"
     inkscape:deskcolor="#d1d1d1"
     showgrid="false"
     inkscape:zoom="13.170068"
     inkscape:cx="30.447831"
     inkscape:cy="48.253358"
     inkscape:window-width="1854"
     inkscape:window-height="1011"
     inkscape:window-x="0"
     inkscape:window-y="0"
     inkscape:window-maximized="1"
     inkscape:current-layer="svg3512" />
  <metadata
     id="metadata3490">
    <rdf:RDF>
      <cc:Work
         rdf:about="">
        <dc:format>image/svg+xml</dc:format>
        <dc:type
           rdf:resource="http://purl.org/dc/dcmitype/StillImage" />
      </cc:Work>
    </rdf:RDF>
  </metadata>
  <g
     id="path3492-7"
     style="opacity:1;fill:#ff0000"
     transform="translate(-177.47647,218.53516)">
    <path
       style="baseline-shift:baseline;display:inline;overflow:visible;vector-effect:none;fill:#ff0000;stroke-linecap:round;stroke-linejoin:round;enable-background:accumulate;stop-color:#000000;stop-opacity:1"
       d="m 365.69772,-211.53517 c -7.18272,0 -13.14722,2.46858 -17.88527,7.40571 -4.73805,4.9411 -7.10682,10.98953 -7.10682,18.14836 0,4.00146 0.77003,7.61686 2.31288,10.8459 1.21238,2.5036 2.89313,4.75358 5.04038,6.75631 2.14885,2.00033 4.63035,3.61605 7.43735,4.84556 2.80978,1.22671 6.34299,1.84081 10.59529,1.84081 3.32857,0 6.53768,-0.34343 9.63533,-1.03072 3.09765,-0.68961 6.0761,-1.71046 8.9468,-3.0622 v -9.89843 c 0,-1.73516 0.0971,-2.82599 0.29556,-3.27033 0.35169,-0.84489 0.85134,-1.44779 1.50113,-1.81251 0.64859,-0.36494 2.41885,-0.60278 4.0696,-0.72183 v -1.62019 h -23.38356 v 1.62019 l 0.009,0.01 h 1.15894 c 1.08099,0 2.93287,0.22286 3.69495,0.67022 0.76286,0.44355 1.26447,0.94132 1.50695,1.49197 0.24331,0.55144 0.36633,1.76638 0.36633,3.64249 v 7.36576 c 0,2.2229 -2.34862,3.3552 -3.48098,3.60086 -1.13514,0.24558 -2.23912,0.36883 -3.31612,0.36883 -3.10124,0 -5.7776,-0.80743 -8.03514,-2.42195 -2.25435,-1.61571 -3.8868,-4.14067 -4.9005,-7.58471 -1.01172,-3.43887 -1.51611,-7.43716 -1.51611,-12.004 0,-3.76735 0.46258,-7.44131 1.38789,-11.02073 0.92571,-3.58101 2.50201,-6.37044 4.7265,-8.37316 2.2245,-1.99993 5.01219,-3.00142 8.36067,-3.00142 3.50536,0 5.55416,0.88722 8.13421,3.5684 2.63738,2.73971 5.16842,5.85296 6.64557,10.42378 h 2.15636 v -16.78212 h -1.22638 c -0.44274,1.34417 -0.92615,2.25576 -1.4545,2.73833 -0.52994,0.48375 -1.10371,0.72433 -1.71925,0.72433 -0.39696,0 -1.68315,-0.43691 -3.85231,-1.31046 -2.17034,-0.87475 -3.74073,-1.40558 -4.70985,-1.59271 -1.78492,-0.37228 -3.17175,-0.56032 -5.39505,-0.56032 z m -64.70568,0.27891 c -6.81244,-0.28078 -12.55432,1.93902 -17.21672,6.66472 -4.67036,4.72213 -6.99942,10.62707 -6.99942,17.70627 0,6.30679 1.79324,11.75697 5.3834,16.35168 4.53746,5.81113 10.96122,8.72174 19.27067,8.72368 h 0.004 0.003 c 8.28206,-0.002 14.69742,-3.0498 19.23903,-9.14496 3.42812,-4.59471 5.14445,-9.91423 5.14445,-15.96619 0,-7.07921 -2.30067,-12.9763 -6.89618,-17.69046 -4.59869,-4.71416 -10.57482,-6.92743 -17.93272,-6.64474 z m 151.37873,0.27475 c -6.81243,-0.28126 -12.55432,1.93902 -17.21672,6.66472 -4.67036,4.72212 -6.99941,10.62707 -6.99941,17.70627 0,6.30678 1.79323,11.75697 5.3834,16.35169 4.53897,5.81306 10.96468,8.72366 19.27816,8.72366 8.28561,0 14.7044,-3.04843 19.24735,-9.14578 3.42812,-4.59073 5.14362,-9.9134 5.14362,-15.96537 0,-7.0792 -2.29984,-12.97629 -6.89534,-17.69045 -4.5987,-4.71416 -10.57566,-6.92743 -17.93357,-6.64474 z m -218.05761,0.35051 v 1.92657 h 1.25968 c 1.53608,0 2.74696,0.32536 3.63167,0.97327 0.62828,0.44076 1.05875,1.06894 1.29048,1.88078 0.11753,0.48575 0.17651,1.79648 0.17651,3.93139 v 29.56707 c 0,2.36584 -0.12764,3.82889 -0.38465,4.38432 -0.32518,0.78795 -0.79298,1.34643 -1.39539,1.67013 -0.83931,0.48854 -1.94502,0.731 -3.31946,0.731 h -1.25968 v 2.22463 h 40.65191 l 2.44276,-15.03123 h -2.21797 c -1.16381,4.18461 -3.07948,7.29872 -5.74474,9.33728 -2.66525,2.04094 -6.21156,3.06053 -10.63108,3.06053 h -2.52186 c -1.35054,0 -2.32596,-0.18556 -2.93314,-0.55616 -0.6044,-0.3718 -1.01832,-0.84735 -1.2397,-1.42786 -0.22042,-0.58051 -0.3322,-2.16846 -0.3322,-4.76563 v -13.29448 c 2.27148,0 4.93325,0.29517 6.12772,0.89001 1.19327,0.59087 2.24146,1.74846 3.14129,3.46849 0.90261,1.72003 1.49394,3.6183 1.77504,6.31421 h 1.91741 v -24.46674 h -1.91741 c -0.37594,3.67458 -1.24161,6.14354 -2.60012,8.02681 -1.35572,1.88368 -3.54683,2.82492 -6.56565,2.82492 h -1.87911 v -16.41163 c -0.0156,-2.85278 2.52852,-2.52185 2.52852,-2.52185 h 2.96895 c 3.59414,0 6.04397,0.20893 7.34992,0.62776 2.24002,0.69557 3.97175,1.78854 5.19607,3.27366 1.22513,1.48711 2.17469,3.93734 2.85156,7.34993 h 1.60686 V -210.631 Z m 43.09383,32.25793 h 0.0142 l -0.0133,-0.003 z m -92.2954,-32.2546 v 1.58771 c 1.39275,0.0462 1.44207,0.51329 2.18383,0.90667 l 3.92474,3.95054 -0.005,31.66931 c 0,2.504 -0.49498,4.27613 -1.48281,5.31929 -0.98862,1.04357 -2.74083,1.57588 -5.25518,1.59937 v 1.91491 h 16.21264 v -1.91241 h -1.07235 c -1.54803,0 -2.92252,-0.47496 -4.12455,-1.42536 -1.20004,-0.9508 -1.80085,-2.7811 -1.80085,-5.49413 v -28.55633 l 30.93248,38.56132 2.00566,0.002 v -39.32977 c 0,-2.23604 0.18556,-2.8847 0.55449,-3.80484 0.36905,-0.92013 0.88464,-1.58463 1.54359,-1.99234 0.65934,-0.40731 1.95339,-0.73895 3.87727,-0.99576 v -2.00066 h -15.34426 v 2.00066 c 2.52988,-0.0462 4.33567,0.60603 5.40671,1.95738 0.78436,1.00136 1.17642,1.99361 1.17642,4.83723 v 20.59695 l -24.08043,-29.39224 z m 15.57822,45.03539 h 0.007 l -0.007,-0.002 z m 185.08867,-44.64741 v 1.91408 h 1.26135 c 1.53528,0 2.74729,0.32488 3.63,0.97327 0.62909,0.44116 1.06042,1.07017 1.29215,1.88161 0.11662,0.48535 0.17567,1.79732 0.17567,3.93223 v 29.56706 c 0,2.36664 -0.12763,3.82824 -0.38465,4.38765 -0.32608,0.78795 -0.79182,1.34481 -1.39621,1.6693 -0.83932,0.48854 -1.94452,0.731 -3.31696,0.731 h -1.26135 v 2.22463 h 40.6519 l 2.44277,-15.03456 h -2.23129 c -1.16421,4.18462 -3.07992,7.29789 -5.74557,9.33645 l 0.02,-8.5e-4 c -2.66525,2.04134 -6.21091,3.06052 -10.63441,3.06052 h -2.52186 c -1.35094,0 -2.32759,-0.18464 -2.93398,-0.55615 -0.604,-0.3718 -1.01868,-0.84652 -1.23886,-1.42703 -0.2209,-0.57971 -0.3322,-2.16846 -0.3322,-4.76564 v -13.29448 c 2.27188,0 4.93326,0.29558 6.12772,0.89002 1.19208,0.59126 2.24019,1.74763 3.13962,3.46766 0.90382,1.72003 1.49434,3.61913 1.77504,6.31504 h 1.91824 v -24.46672 h -1.91824 c -0.37454,3.67617 -1.23998,6.14354 -2.59928,8.02682 -1.35692,1.88367 -3.54723,2.82574 -6.56565,2.82574 h -1.87828 v -16.41246 c -0.0159,-2.85238 2.52769,-2.52186 2.52769,-2.52186 h 2.97061 c 3.59335,0 6.03981,0.20981 7.34576,0.62859 2.23843,0.69598 3.97015,1.78895 5.19607,3.27367 1.22552,1.48751 2.17429,3.93615 2.85155,7.34993 h 1.6077 v -13.97552 z m -84.45591,1.26051 c 2.29338,0 4.31958,0.644 6.07942,1.93323 1.75985,1.28883 3.20762,3.49848 4.34435,6.62559 1.13514,3.1299 1.70261,7.8434 1.70261,14.1462 0,5.29546 -0.55526,9.59212 -1.6693,12.88486 -1.11165,3.29314 -2.66782,5.68903 -4.66656,7.19008 -1.56634,1.17216 -3.5197,1.75755 -5.86046,1.75755 -3.4751,0 -6.17586,-1.35969 -8.1109,-4.07709 -2.76956,-3.88959 -4.15702,-9.89833 -4.15702,-18.03265 0,-6.84429 0.89638,-12.09133 2.69087,-15.7464 l 0.008,-0.004 c 2.2022,-4.45138 5.41507,-6.67721 9.6395,-6.67721 z m 151.45699,0.24894 c 2.29338,0 4.32042,0.64523 6.08026,1.93406 1.75985,1.28843 3.20679,3.49808 4.34352,6.62559 1.13514,3.1299 1.70344,7.84359 1.70344,14.15037 0,5.29546 -0.5561,9.59127 -1.67013,12.88402 l 0.007,-0.005 c -1.11165,3.29275 -2.66782,5.68969 -4.66656,7.18675 -1.56635,1.17297 -3.5197,1.75756 -5.86046,1.75756 -3.4751,0 -6.17586,-1.35969 -8.1109,-4.0771 -2.76957,-3.88958 -4.15619,-9.8975 -4.15619,-18.03181 0,-6.84429 0.89638,-12.09216 2.69087,-15.74723 2.20219,-4.45138 5.41423,-6.67721 9.63866,-6.67721 z m -119.44717,16.5057 c -3.1409,0 -5.68895,2.54624 -5.68895,5.68895 0,3.14091 2.54624,5.68896 5.68895,5.68896 3.1409,0 5.68895,-2.54625 5.68895,-5.68896 0,-3.1409 -2.54624,-5.68895 -5.68895,-5.68895 z"
       id="path1" />
    <path
       style="baseline-shift:baseline;display:inline;overflow:visible;vector-effect:none;fill:#ffffff;stroke-linecap:round;stroke-linejoin:round;enable-background:accumulate;stop-color:#000000;stop-opacity:1"
       d="m 365.69727,-218.53516 c -0.31389,0 -0.6096,0.0794 -0.92188,0.0879 l -0.002,-0.0273 h -0.002 c -0.015,0.011 -0.03,0.0221 -0.0449,0.0332 -8.41034,0.24158 -16.22614,3.48502 -21.96484,9.46485 l -0.002,0.002 c -2.84295,2.96478 -5.00797,6.40489 -6.5293,10.12695 -0.93645,-0.22586 -1.89983,-0.37695 -2.89844,-0.37695 -0.92315,0 -1.82038,0.11658 -2.69141,0.31055 -1.49389,-3.92983 -3.72588,-7.52988 -6.70312,-10.58399 l -0.002,-0.002 c -5.81222,-5.95816 -13.93266,-8.90138 -22.60352,-8.71875 -0.0169,-0.0105 -0.0338,-0.0209 -0.0508,-0.0312 -0.0854,-0.004 -0.16667,0.0185 -0.25195,0.0156 -0.0126,3.7e-4 -0.0245,-0.002 -0.0371,-0.002 -0.0915,0.003 -0.17788,-0.0191 -0.26953,-0.0156 -0.0209,0.0129 -0.0417,0.026 -0.0625,0.0391 -7.28783,-0.15422 -14.1627,2.31664 -19.65821,6.89453 -0.3423,-3.4885 -3.21186,-6.18612 -6.71484,-6.3125 H 234.3125 c -0.29269,0.0995 -0.57847,0.21822 -0.85547,0.35547 -0.27578,-0.13642 -0.56025,-0.25452 -0.85156,-0.35352 h -15.34375 c -3.86583,3.9e-4 -6.99961,3.13417 -7,7 v 1.76758 l -5.08203,-6.20312 c -1.32975,-1.62334 -3.31758,-2.56456 -5.41602,-2.56446 l -14.65234,0.002 c -3.86583,3.9e-4 -6.99961,3.13417 -7,7 v 1.58789 c 0.21245,2.60221 1.85531,4.86998 4.26172,5.88281 l 1.8457,1.85938 -0.004,28.7832 c 0,0.003 1e-5,0.001 0,0.004 -3.7302,0.13967 -6.6947,3.18151 -6.73828,6.91407 v 1.91601 c 3.9e-4,3.86583 3.13417,6.99961 7,7 h 16.21289 c 3.86583,-3.9e-4 7,-3.61722 7,-7 0,-3.38278 -0.79249,-8.9083 -6.99237,-8.9083 v -0.004 h -0.006 v -8.56445 l 18.47265,23.0293 c 1.32683,1.65462 3.33223,2.61853 5.45313,2.62109 l 2.00586,0.002 c 1.82009,-0.0125 3.56376,-0.73336 4.86132,-2.00976 0.84471,0.59448 1.81051,0.99467 2.82813,1.17187 h 40.65234 c 3.03288,-0.11673 5.64509,-2.17447 6.46875,-5.0957 5.48038,4.33291 12.46868,6.6252 19.99414,6.62695 h 0.002 0.004 0.004 0.002 c 9.99755,-0.002 19.08689,-4.22918 24.84766,-11.95898 l 0.002,-0.002 c 1.71743,-2.30227 3.00626,-4.8411 4.05274,-7.48047 0.96573,0.24105 1.95752,0.40625 2.99023,0.40625 0.92034,0 1.81503,-0.11577 2.68359,-0.3086 0.26007,0.66746 0.37859,1.39058 0.6875,2.03711 0.005,0.0111 0.0104,0.0222 0.0156,0.0332 1.60143,3.30699 3.8392,6.28056 6.56641,8.82421 l 0.004,0.004 c 2.7401,2.55071 5.91581,4.60932 9.39844,6.13477 l 0.008,0.004 c 3.99675,1.74493 8.47025,2.42383 13.39649,2.42383 3.81006,0 7.53607,-0.39339 11.15039,-1.19531 l 0.006,-0.002 c 1.75566,-0.39086 3.48063,-0.88174 5.17578,-1.45704 0.97687,0.74998 2.1343,1.22899 3.35547,1.38868 H 426.43 c 3.0396,-0.11524 5.65697,-2.18009 6.47656,-5.10938 5.46707,4.28186 12.42799,6.5332 19.91016,6.5332 9.99964,0 19.0927,-4.22715 24.85546,-11.95703 4.3103,-5.77208 6.53516,-12.7795 6.53516,-20.15429 0,-8.59528 -3.06537,-16.60852 -8.88281,-22.57618 l -0.002,-0.002 c -5.88218,-6.02986 -14.12195,-8.9963 -22.91016,-8.73437 -7.41241,-0.24665 -14.41415,2.25192 -20,6.89257 -0.40293,-3.41337 -3.22417,-6.02937 -6.6582,-6.17382 h -38.57422 c -0.92016,-0.6806 -1.99314,-1.12522 -3.125,-1.29493 h -1.22657 c -1.92008,0.11273 -3.70921,1.01048 -4.94726,2.48243 -2.01371,-0.80507 -3.61302,-1.42817 -5.42188,-1.78125 -2.01712,-0.41762 -4.16767,-0.70118 -6.76171,-0.70118 z m -98.98829,4.58204 0.0625,0.0195 c -0.0115,-0.004 -0.0217,-0.002 -0.0332,-0.006 -0.0103,-0.003 -0.019,-0.0105 -0.0293,-0.0137 z m 151.4668,0.38085 0.0606,0.0195 c -0.0108,-0.003 -0.0204,-0.002 -0.0312,-0.006 -0.0103,-0.003 -0.019,-0.0105 -0.0293,-0.0137 z m -174.95117,0.11133 0.11523,0.082 c -0.021,-0.0154 -0.0454,-0.0161 -0.0664,-0.0312 -0.0191,-0.0136 -0.0297,-0.0373 -0.0488,-0.0508 z m 151.46484,0.37696 0.125,0.0898 c -0.0223,-0.0164 -0.048,-0.0171 -0.0703,-0.0332 -0.0213,-0.0152 -0.0333,-0.0416 -0.0547,-0.0566 z m -212.27734,9.94531 c 0.74341,0.52179 1.58124,0.89394 2.4668,1.0957 -0.0712,-0.002 -1.10562,-0.28478 -1.82032,-0.61719 z m 60,42.89057 -0.20703,0.11719 c 0.0334,-0.018 0.0509,-0.052 0.084,-0.0703 0.0406,-0.023 0.0825,-0.0233 0.12305,-0.0469 z m 151.4668,0.38282 -0.21094,0.11718 c 0.0322,-0.0173 0.0501,-0.0488 0.082,-0.0664 0.0427,-0.0241 0.0863,-0.026 0.12891,-0.0508 z"
       id="path2"
       sodipodi:nodetypes="cccccsscscssccccccccccccccccccccccccccczcccccccccccscccscccscccccccsccccccscssscccccccccccccccccccccccsccccccccccccsccccsc" />
  </g>
  <path
     id="path3492"
     style="fill:#000000;fill-rule:nonzero;stroke-width:0.398155"
     d="m 188.22099,7.000089 c -7.18273,0 -13.14723,2.46858 -17.88527,7.40571 -4.73805,4.94109 -7.10683,10.98953 -7.10683,18.14836 0,4.00146 0.77004,7.61686 2.31288,10.8459 1.21238,2.5036 2.89313,4.75358 5.04039,6.7563 2.14884,2.00033 4.63035,3.61605 7.43734,4.84556 2.80978,1.22671 6.34299,1.84081 10.59529,1.84081 3.32857,0 6.53768,-0.34343 9.63533,-1.03072 3.09765,-0.68961 6.0761,-1.71046 8.9468,-3.06219 v -9.89843 c 0,-1.73516 0.0971,-2.82599 0.29557,-3.27033 0.35169,-0.84489 0.85133,-1.44779 1.50112,-1.81251 0.6486,-0.36494 2.41886,-0.60278 4.0696,-0.72183 v -1.62019 h -23.38356 v 1.62019 l 0.009,0.01 h 1.15894 c 1.08099,0 2.93287,0.22286 3.69495,0.67022 0.76286,0.44355 1.26447,0.94132 1.50695,1.49197 0.24332,0.55144 0.36633,1.76638 0.36633,3.64249 v 7.36575 c 0,2.2229 -2.34861,3.3552 -3.48097,3.60086 -1.13514,0.24559 -2.23913,0.36883 -3.31613,0.36883 -3.10124,0 -5.7776,-0.80743 -8.03514,-2.42194 -2.25435,-1.61572 -3.8868,-4.14067 -4.9005,-7.58471 -1.01172,-3.43887 -1.51611,-7.43716 -1.51611,-12.004 0,-3.76735 0.46258,-7.44132 1.38789,-11.02074 0.92571,-3.58101 2.50201,-6.37043 4.7265,-8.37315 2.2245,-1.99994 5.01219,-3.00142 8.36067,-3.00142 3.50536,0 5.55417,0.88722 8.13421,3.5684 2.63738,2.73971 5.16843,5.85295 6.64557,10.42377 h 2.15637 V 7.000939 h -1.22639 c -0.44274,1.34417 -0.92615,2.25576 -1.45449,2.73833 -0.52995,0.48375 -1.10371,0.72433 -1.71925,0.72433 -0.39696,0 -1.68315,-0.43691 -3.85231,-1.31047 -2.17034,-0.87475 -3.74073,-1.40557 -4.70985,-1.59271 -1.78492,-0.37228 -3.17175,-0.56032 -5.39506,-0.56032 z m -64.70569,0.27891 c -6.81243,-0.28078 -12.55432,1.93902 -17.21672,6.66472 -4.67036,4.72213 -6.999415,10.62706 -6.999415,17.70627 0,6.30679 1.793245,11.75697 5.383395,16.35168 4.53746,5.81113 10.96123,8.72173 19.27067,8.72367 h 0.004 0.003 c 8.28206,-0.002 14.69742,-3.0498 19.23903,-9.14495 3.42812,-4.59471 5.14445,-9.91423 5.14445,-15.96619 0,-7.07922 -2.30067,-12.9763 -6.89618,-17.69046 -4.59869,-4.71416 -10.57482,-6.92743 -17.93272,-6.64474 z m 151.37874,0.27475 c -6.81244,-0.28127 -12.55433,1.93901 -17.21672,6.66472 -4.67037,4.72212 -6.99942,10.62707 -6.99942,17.70627 0,6.30678 1.79323,11.75697 5.3834,16.35168 4.53897,5.81306 10.96468,8.72367 19.27817,8.72367 8.28561,0 14.70439,-3.04843 19.24734,-9.14578 3.42812,-4.59073 5.14362,-9.9134 5.14362,-15.96537 0,-7.07921 -2.29984,-12.97629 -6.89533,-17.69045 -4.5987,-4.71416 -10.57566,-6.92743 -17.93358,-6.64474 z M 56.836425,7.904259 v 1.92657 h 1.25968 c 1.53608,0 2.74696,0.32536 3.63167,0.97326 0.62828,0.44077 1.05875,1.06894 1.29048,1.88079 0.11753,0.48575 0.17651,1.79648 0.17651,3.93139 v 29.56707 c 0,2.36583 -0.12764,3.82888 -0.38465,4.38431 -0.32518,0.78795 -0.79298,1.34643 -1.39539,1.67013 -0.83931,0.48854 -1.94502,0.731 -3.31946,0.731 h -1.25968 v 2.22463 h 40.65191 l 2.44276,-15.03122 h -2.21797 c -1.16381,4.18461 -3.07948,7.29872 -5.74474,9.33727 -2.66525,2.04094 -6.21156,3.06053 -10.63108,3.06053 h -2.52186 c -1.35054,0 -2.32596,-0.18555 -2.93314,-0.55616 -0.6044,-0.3718 -1.01832,-0.84735 -1.2397,-1.42786 -0.22042,-0.58051 -0.3322,-2.16846 -0.3322,-4.76562 v -13.29448 c 2.27148,0 4.93325,0.29517 6.12772,0.89001 1.19327,0.59087 2.24146,1.74846 3.14129,3.46849 0.90261,1.72003 1.49394,3.6183 1.77504,6.31421 h 1.91741 v -24.46674 h -1.91741 c -0.37594,3.67457 -1.24161,6.14354 -2.60012,8.02681 -1.35572,1.88368 -3.54683,2.82492 -6.56565,2.82492 h -1.87911 v -16.41163 c -0.0156,-2.85278 2.52852,-2.52185 2.52852,-2.52185 h 2.96895 c 3.59414,0 6.04397,0.20892 7.34992,0.62775 2.24002,0.69558 3.97175,1.78855 5.19607,3.27367 1.22513,1.48711 2.17469,3.93734 2.85156,7.34992 h 1.60686 V 7.904259 Z m 43.09383,32.25793 h 0.0142 l -0.0133,-0.003 z m -92.2954,-32.2546 v 1.58771 c 1.39275,0.0462 1.44207,0.51329 2.18383,0.90667 l 3.92474,3.95054 -0.005,31.66931 c 0,2.504 -0.49498,4.27612 -1.48281,5.31929 -0.98862,1.04356 -2.74083,1.57587 -5.25518,1.59936 v 1.91492 h 16.21264 v -1.91242 h -1.07235 c -1.54803,0 -2.92252,-0.47496 -4.12455,-1.42536 -1.20004,-0.95079 -1.80085,-2.7811 -1.80085,-5.49412 v -28.55633 l 30.93248,38.56132 2.00566,0.003 v -39.32977 c 0,-2.23604 0.18556,-2.8847 0.55449,-3.80484 0.36905,-0.92013 0.88464,-1.58463 1.54359,-1.99234 0.65934,-0.40731 1.95339,-0.73895 3.87727,-0.99576 v -2.00066 h -15.34426 v 2.00066 c 2.52988,-0.0462 4.33567,0.60603 5.40671,1.95738 0.78436,1.00136 1.17642,1.99361 1.17642,4.83723 v 20.59695 L 22.287255,7.908089 Z m 15.57822,45.03538 h 0.007 l -0.007,-0.002 z M 208.30174,8.295569 v 1.91407 h 1.26135 c 1.53528,0 2.74729,0.32489 3.63,0.97328 0.62909,0.44116 1.06042,1.07017 1.29215,1.88161 0.11662,0.48535 0.17567,1.79731 0.17567,3.93223 v 29.56706 c 0,2.36663 -0.12763,3.82824 -0.38465,4.38764 -0.32608,0.78795 -0.79182,1.34481 -1.39621,1.66931 -0.83932,0.48853 -1.94452,0.73099 -3.31696,0.73099 h -1.26135 v 2.22463 h 40.6519 l 2.44277,-15.03455 h -2.23129 c -1.16421,4.18462 -3.07992,7.29789 -5.74557,9.33644 l 0.02,-8.5e-4 c -2.66525,2.04134 -6.21091,3.06052 -10.63441,3.06052 h -2.52186 c -1.35094,0 -2.32759,-0.18463 -2.93398,-0.55615 -0.604,-0.3718 -1.01868,-0.84652 -1.23886,-1.42703 -0.2209,-0.57971 -0.3322,-2.16846 -0.3322,-4.76563 v -13.29448 c 2.27188,0 4.93326,0.29558 6.12772,0.89002 1.19208,0.59126 2.24019,1.74763 3.13962,3.46766 0.90382,1.72003 1.49434,3.61913 1.77504,6.31504 h 1.91824 v -24.46672 h -1.91824 c -0.37454,3.67616 -1.23998,6.14354 -2.59928,8.02682 -1.35692,1.88367 -3.54723,2.82574 -6.56565,2.82574 h -1.87828 v -16.41246 c -0.0159,-2.85238 2.52769,-2.52186 2.52769,-2.52186 h 2.97061 c 3.59335,0 6.03981,0.20981 7.34576,0.62859 2.23843,0.69598 3.97015,1.78895 5.19607,3.27367 1.22552,1.48751 2.17429,3.93615 2.85155,7.34992 h 1.6077 V 8.295569 Z m -84.45591,1.2605 c 2.29338,0 4.31958,0.64401 6.07942,1.93324 1.75985,1.28882 3.20762,3.49848 4.34435,6.62559 1.13514,3.12989 1.70261,7.8434 1.70261,14.1462 0,5.29546 -0.55526,9.59212 -1.6693,12.88486 -1.11165,3.29314 -2.66782,5.68902 -4.66656,7.19007 -1.56634,1.17217 -3.5197,1.75755 -5.86046,1.75755 -3.4751,0 -6.17586,-1.35968 -8.1109,-4.07709 -2.76956,-3.88958 -4.15702,-9.89832 -4.15702,-18.03264 0,-6.84429 0.89638,-12.09134 2.69087,-15.7464 l 0.008,-0.004 c 2.2022,-4.45138 5.41507,-6.67721 9.6395,-6.67721 z m 151.45699,0.24895 c 2.29338,0 4.32042,0.64523 6.08026,1.93406 1.75985,1.28843 3.20679,3.49808 4.34352,6.62559 1.13514,3.12989 1.70344,7.84359 1.70344,14.15037 0,5.29546 -0.5561,9.59127 -1.67013,12.88402 l 0.007,-0.005 c -1.11166,3.29274 -2.66782,5.68968 -4.66656,7.18674 -1.56636,1.17297 -3.51971,1.75756 -5.86046,1.75756 -3.4751,0 -6.17587,-1.35969 -8.1109,-4.0771 -2.76958,-3.88957 -4.1562,-9.89749 -4.1562,-18.0318 0,-6.84429 0.89639,-12.09217 2.69087,-15.74723 2.20219,-4.45138 5.41423,-6.67721 9.63867,-6.67721 z m -119.44717,16.5057 c -3.1409,0 -5.68895,2.54624 -5.68895,5.68895 0,3.14091 2.54624,5.68896 5.68895,5.68896 3.1409,0 5.68895,-2.54625 5.68895,-5.68896 0,-3.1409 -2.54624,-5.68895 -5.68895,-5.68895 z" />
</svg>
