<?xml version="1.0" encoding="UTF-8" standalone="no"?>
<!-- Created with Inkscape (http://www.inkscape.org/) -->

<svg
   width="523.56787mm"
   height="63.999432mm"
   viewBox="0 0 523.56787 63.999432"
   version="1.1"
   id="svg1101"
   inkscape:version="1.4.2 (2aeb623e1d, 2025-05-12)"
   sodipodi:docname="logo_psikyo.svg"
   xmlns:inkscape="http://www.inkscape.org/namespaces/inkscape"
   xmlns:sodipodi="http://sodipodi.sourceforge.net/DTD/sodipodi-0.dtd"
   xmlns="http://www.w3.org/2000/svg"
   xmlns:svg="http://www.w3.org/2000/svg">
  <sodipodi:namedview
     id="namedview1103"
     pagecolor="#ffffff"
     bordercolor="#000000"
     borderopacity="0.25"
     inkscape:showpageshadow="2"
     inkscape:pageopacity="0.0"
     inkscape:pagecheckerboard="0"
     inkscape:deskcolor="#d1d1d1"
     inkscape:document-units="mm"
     showgrid="false"
     inkscape:zoom="0.26362494"
     inkscape:cx="1373.1629"
     inkscape:cy="293.97825"
     inkscape:window-width="1854"
     inkscape:window-height="1011"
     inkscape:window-x="0"
     inkscape:window-y="0"
     inkscape:window-maximized="1"
     inkscape:current-layer="layer1" />
  <defs
     id="defs1098" />
  <g
     inkscape:label="Layer 1"
     inkscape:groupmode="layer"
     id="layer1"
     transform="translate(101.19943,90.488978)">
    <g
       id="path921-1"
       style="opacity:1"
       transform="translate(0.46462769,55.244541)">
      <path
         style="baseline-shift:baseline;display:inline;overflow:visible;vector-effect:none;fill:#ffffff;stroke-linecap:round;stroke-linejoin:round;enable-background:accumulate;stop-color:#000000;stop-opacity:1"
         d="m 408.47853,-138.72405 c -1.04035,0.002 -9.28996,0.014 -24.4073,0.014 0,0 -11.09732,-0.0234 -17.71364,0 -39.34292,0 -40.20842,-0.23122 -41.95041,0.77256 -1.13196,0.65225 -2.25072,1.95712 -3.05925,3.56877 l -1.27434,2.54093 v 18.60869 c 0,16.322548 0.10242,18.796183 0.83923,20.138819 1.1481,2.092101 2.29897,3.725817 4.40851,4.332552 30.24198,-2.27e-4 50.87239,-2.27e-4 84.18246,0 l 2.15026,-1.407149 c 3.19997,-1.990076 3.24579,-2.325239 3.24579,-23.574272 0,-17.16266 -0.0904,-19.2835 -0.88211,-20.73052 -1.14969,-2.10114 -3.0229,-4.26778 -5.5392,-4.26434 z m -503.142932,0.014 v 49.962321 h 23.451798 v -5.863208 -5.862693 h 63.4007815 l 2.1249349,-2.28151 c 8.7638794,-9.41094 9.0702857,-24.08823 0.701766,-33.59537 l -2.0768758,-2.35954 z m 108.3045,0 -2.838586,2.90163 c -3.4437529,3.52047 -4.6722031,5.51184 -5.8115319,9.41906 -1.7093729,5.86211 0.432354,12.5467 5.6864749,17.74775 l 2.762622,2.73472 H 75.10508 v 1.7632 1.76268 l -35.304822,0.12971 -35.3048214,0.12971 -0.1426269,6.686931 -0.1421102,6.68693 H 88.715102 l 2.822567,-2.92902 c 1.552303,-1.610991 3.476179,-4.166038 4.275708,-5.67769 1.299091,-2.456156 1.454709,-3.258221 1.461409,-7.542691 0.0065,-4.15369 -0.175014,-5.17959 -1.357539,-7.67705 -0.756766,-1.59824 -2.698659,-4.2404 -4.358391,-5.92987 l -2.993615,-3.04736 H 27.182424 v -1.7663 -1.7663 h 64.746952 v -6.81302 -6.81302 z m 87.271672,0 -6.108151,14.52986 h 23.005831 l 6.23838,-14.52986 z m 92.65275,0 -21.26899,12.36772 c -11.69806,6.80243 -21.37445,12.36823 -21.50308,12.36823 -0.12863,0 -0.23409,-5.5621 -0.23409,-12.36048 v -12.361 h -11.7259 -11.7259 v 24.97366 24.973674 h 11.71711 11.71712 l 0.13642,-12.262814 0.13643,-12.2623 21.29896,12.27005 21.29895,12.27005 14.98565,-0.133325 14.98565,-0.133842 -20.07888,-12.108303 c -11.04355,-6.65965 -20.08769,-12.24173 -20.09799,-12.40441 -0.0104,-0.16269 9.05674,-5.83823 20.14915,-12.61267 l 20.16776,-12.31759 -14.97893,-0.13333 z m 122.68501,0.015 -10.83344,0.13591 -10.83345,0.13591 -0.14108,7.691 -0.14056,7.69049 h -24.20317 -24.20317 v -7.81658 -7.81709 h -10.96109 -10.96109 v 11.98531 c 0,10.6509 0.10406,12.18096 0.93534,13.74232 1.94157,3.64731 0.61372,3.52075 36.91868,3.52175 l 32.50086,10e-4 v 3.03806 c 0,2.79744 -0.10338,3.07769 -1.30742,3.53053 -0.80206,0.30165 -14.40471,0.49144 -35.17769,0.49144 h -33.86977 v 6.808374 6.80837 h 42.84131 c 46.05949,0 44.79297,0.06913 47.22038,-2.582788 2.03424,-2.222194 2.20978,-4.308517 2.21278,-26.299166 z m -387.462134,14.2596 h 25.190194 25.191227 l 1.319299,1.56838 c 0.743465,0.88356 1.320333,2.20251 1.320333,3.01997 0,0.81746 -0.576868,2.13589 -1.320333,3.01945 l -1.319299,1.5689 H -46.02241 -71.212604 Z m 415.646984,0.80563 h 46.10468 c 1.19664,0 2.16007,0.96447 2.16007,2.16111 v 14.89625 c 0,1.19664 -0.96343,2.15956 -2.16007,2.15956 h -46.10468 c -1.19664,0 -2.15956,-0.96292 -2.15956,-2.15956 v -14.89625 c 0,-1.19664 0.96292,-2.16111 2.15956,-2.16111 z m -243.83835,1.74305 v 16.56953 16.569014 h 11.7259 11.7259 v -16.569014 -16.56953 h -11.7259 z"
         id="path1" />
      <path
         style="baseline-shift:baseline;display:inline;overflow:visible;vector-effect:none;fill:#ffffff;stroke-linecap:round;stroke-linejoin:round;enable-background:accumulate;stop-color:#000000;stop-opacity:1"
         d="m 408.46484,-145.72461 c -1.02286,0.002 -9.28088,0.0137 -24.39453,0.0137 -0.0195,-4e-5 -11.05515,-0.0234 -17.71289,0 h -0.0254 c -19.62961,-8e-5 -29.62948,-0.0579 -35.13867,0.0117 -2.75659,0.0349 -4.36202,0.0768 -5.91016,0.27344 -1.54813,0.1966 -3.6176,0.98965 -4.37109,1.42383 -0.075,0.0432 -0.10834,0.10641 -0.18164,0.15039 -1.24911,-1.14777 -2.87248,-1.80295 -4.56836,-1.84375 l -10.83399,0.13672 -10.83398,0.13672 c -3.78105,0.0483 -6.84046,3.09037 -6.91016,6.87109 l -0.14062,7.68945 v 0.002 l -0.0156,0.81835 h -17.33007 -17.20313 v -0.8164 -7.81836 c -3.9e-4,-3.86583 -3.13417,-6.99961 -7,-7 h -10.96094 -10.96093 c -0.18877,0.0688 -0.37449,0.14569 -0.55664,0.23047 l -14.81055,-0.13086 -14.97852,-0.13281 c -1.25741,-0.0117 -2.49476,0.31553 -3.58203,0.94726 l -21.26758,12.36719 c -4.34916,2.52904 -7.81668,4.5306 -11.21484,6.49219 -1.3e-4,-0.16728 -0.004,-0.26277 -0.004,-0.43164 v -12.36133 c -3.9e-4,-3.86583 -3.13417,-6.99961 -7,-7 h -11.72656 -11.72461 c -0.60064,0.15981 -1.17732,0.39889 -1.71484,0.71094 -0.42069,-0.29061 -0.87195,-0.53425 -1.3457,-0.72657 h -23.13477 c -1.661217,0.0758 -3.241202,0.74048 -4.457032,1.875 -1.233451,-1.14957 -2.840353,-1.81535 -4.525391,-1.875 H 13.640625 c -1.883269,2e-4 -3.6870327,0.75916 -5.0039062,2.10547 l -2.8398438,2.90235 c -1.1276828,1.1528 -1.8981601,2.3445 -2.7890625,3.51953 -0.8369622,-1.30197 -1.6895031,-2.59942 -2.73828125,-3.79102 v -0.002 l -2.07617185,-2.35938 c -1.3293106,-1.51009 -3.2440332,-2.37531 -5.2558594,-2.375 h -87.601562 c -3.865832,3.9e-4 -6.999608,3.13417 -6.999998,7 v 49.962893 c 3.9e-4,3.865832 3.134166,6.999612 6.999998,7 h 23.451171 c 3.865833,-3.87e-4 6.999613,-3.134167 7,-7 v -4.726562 H -7.8125 c 1.9429392,2.59e-4 3.7985988,-0.80695 5.1230469,-2.228516 l 0.046875,-0.05078 -0.00391,0.169922 -0.140625,6.6875 c -0.082804,3.922903 3.07427012,7.147824 6.9980469,7.148437 H 88.714844 c 1.901593,9.1e-5 3.721408,-0.773383 5.041015,-2.142578 l 1.294922,-1.34375 c 1.157174,2.008404 3.23343,3.313835 5.544919,3.486328 h 11.72657 11.72461 c 0.53375,-0.150201 1.04777,-0.363283 1.53125,-0.634765 0.48286,0.27134 0.99621,0.484418 1.52929,0.634765 h 11.7168 11.7168 c 3.83553,-1.4e-4 6.95681,-3.086586 7,-6.921875 l 0.13671,-12.263669 0.004,-0.30469 10.9375,6.300781 21.29883,12.269531 c 1.08118,0.622556 2.30908,0.944873 3.55664,0.933594 L 208.45898,-81.867187 223.36719,-82 c 0.19778,0.0934 0.39982,0.177473 0.60547,0.251953 h 42.84179 c 23.02625,0 34.0999,0.03543 40.35352,-0.30664 3.12681,-0.171036 5.14617,-0.323457 7.47851,-1.230469 1.37187,-0.533498 2.43813,-1.352391 3.26954,-2.09375 1.39026,1.41879 3.17354,2.698679 5.4707,3.359375 0.62931,0.180556 1.28085,0.271941 1.93555,0.271484 30.24195,-2.27e-4 50.87159,-2.27e-4 84.18164,0 1.36126,-1.97e-4 2.69294,-0.397256 3.83203,-1.142578 l 2.15039,-1.40625 -0.13477,0.08594 c 0.86846,-0.540098 2.51644,-1.514874 3.87696,-3.441407 1.36051,-1.926532 1.90143,-4.063763 2.18359,-6.113281 0.56431,-4.099035 0.48828,-9.333347 0.48828,-19.962897 0,-8.59361 -0.0162,-13.40275 -0.15039,-16.55664 -0.13422,-3.15388 -0.55855,-5.64671 -1.5918,-7.53515 -0.85695,-1.56615 -1.99129,-3.26928 -3.81054,-4.84766 -1.81926,-1.57837 -4.60929,-3.06111 -7.87891,-3.05664 h -0.004 z"
         id="path2"
         sodipodi:nodetypes="csssssscccccccccccccccccccccscccccccccccccccccccccccccccccccccccccccccccccccccssscccccccssssssscc" />
    </g>
    <g
       id="g1080"
       transform="matrix(0.50981924,0,0,0.50981924,244.38405,3.352343)">
      <path
         id="path921"
         style="fill:#000000"
         d="m 274.90938,-170.29297 c 0,0 -21.76755,-0.0459 -34.74532,0 -77.17032,0 -78.86826,-0.4533 -82.28515,1.51559 -2.2203,1.27937 -4.41409,3.83878 -6,7 l -2.5,4.98437 v 36.5 c 0,32.016343 0.20125,36.8684 1.64648,39.501954 2.25197,4.103612 4.50909,7.307988 8.64691,8.498086 59.31903,-4.46e-4 99.78521,-4.46e-4 165.12222,0 l 4.2172,-2.759804 c 6.27668,-3.903492 6.36719,-4.560701 6.36719,-46.240236 0,-33.66421 -0.17747,-37.82381 -1.73047,-40.66211 -2.2551,-4.12134 -5.92957,-8.37198 -10.86524,-8.36523 -2.04061,0.003 -18.22146,0.0274 -47.87382,0.0274 z m -77.74727,29.58008 h 90.43359 c 2.34719,0 4.23633,1.8911 4.23633,4.23828 v 29.21875 c 0,2.34718 -1.88914,4.23633 -4.23633,4.23633 h -90.43359 c -2.34718,0 -4.23633,-1.88915 -4.23633,-4.23633 v -29.21875 c 0,-2.34718 1.88915,-4.23828 4.23633,-4.23828 z"
         sodipodi:nodetypes="scsccsscccssscssssssssss" />
      <path
         id="path905"
         style="fill:#ff0000"
         d="m -664.12109,-170.29297 c 0,32.66667 0,65.33333 0,98.000001 15.33333,0 30.66667,0 46,0 v -11.5 -11.5 c 41.45312,0 82.90625,0 124.35937,0 l 4.16797,-4.474609 c 17.19017,-18.459372 17.79163,-47.248422 1.37695,-65.896482 l -4.07422,-4.62891 z m 46,28 h 49.41015 49.41211 l 2.58789,3.07617 c 1.45829,1.73308 2.58985,4.3204 2.58985,5.92383 0,1.60343 -1.13156,4.1888 -2.58985,5.92188 l -2.58789,3.07812 h -49.41211 -49.41015 c 0,-6 0,-12 0,-18 z"
         sodipodi:nodetypes="ccccccccccccccsccccc" />
      <path
         style="fill:#ff0000"
         d="m -292.48307,-141.79297 11.98027,-28.5 h 45.3813 l -12.23683,28.5 z"
         id="path925"
         sodipodi:nodetypes="ccccc" />
      <path
         style="fill:#000000;stroke-width:0.994584"
         d="m -39.121496,-85.647896 v -13.354165 h 66.4349 c 40.74577,0 67.42678,-0.373036 69,-0.96472 2.36171,-0.888219 2.5651,-1.437259 2.5651,-6.924379 v -5.95967 l -63.75,-0.002 c -71.21143,-0.002 -68.60685,0.24672 -72.41519,-6.90741 -1.63053,-3.06257 -1.83481,-6.06367 -1.83481,-26.95519 v -23.50887 h 21.5 21.5 v 15.33256 15.33256 h 47.47395 47.47396 l 0.27604,-15.08526 0.27605,-15.08526 21.249996,-0.26697 21.25,-0.26698 -0.006,41.31867 c -0.006,43.134212 -0.35015,47.226641 -4.34027,51.58543 -4.76131,5.201685 -2.27686,5.065799 -92.621606,5.065799 h -84.03212 z"
         id="path919" />
      <path
         style="fill:#000000;stroke-width:0.994788"
         d="m -229.1215,-121.27875 v -48.98531 h 23 23 v 24.24525 c 0,13.3349 0.20643,24.24526 0.45874,24.24526 0.25231,0 19.23234,-10.91687 42.17785,-24.25971 l 41.719104,-24.25971 29.38129,0.26185 29.38128,0.26186 -39.55913,24.15988 c -21.757524,13.28793 -39.542504,24.42095 -39.522174,24.74006 0.0203,0.3191 17.76017,11.26788 39.421874,24.330636 l 39.38492,23.750456 -29.39403,0.262087 -29.39403,0.262086 -41.777854,-24.067723 -41.77784,-24.067732 -0.26747,24.053046 -0.26747,24.053038 h -22.98253 -22.98253 z"
         id="path917" />
      <path
         style="fill:#000000"
         d="m -281.1215,-104.79374 v -32.5 h 23 23 v 32.5 32.500005 h -23 -23 z"
         id="path915" />
      <path
         style="fill:#000000;stroke-width:0.994937"
         d="m -469.90053,-85.409131 0.27903,-13.116162 69.25,-0.254256 69.25,-0.254245 v -3.457876 -3.45787 c -40.31884,0 -80.63768,0 -120.95652,0 l -5.4194,-5.36465 c -10.30585,-10.20175 -14.507,-23.31353 -11.1541,-34.81194 2.23477,-7.66394 4.64467,-11.5696 11.39952,-18.47492 l 5.56789,-5.69192 c 51.18754,0 102.37507,0 153.56261,0 v 13.36364 13.36363 c -42.33333,0 -84.66667,0 -127,0 v 3.46465 3.46465 c 40.13396,0 80.26791,0 120.40187,0 l 5.87179,5.97702 c 3.25553,3.31387 7.06469,8.49638 8.54907,11.63131 2.3195,4.8987 2.67529,6.91096 2.66246,15.05833 -0.0132,8.403908 -0.31805,9.977392 -2.86619,14.795092 -1.56826,2.965074 -5.3426,7.976438 -8.38741,11.136364 l -5.53603,5.745314 c -55.2512,0 -110.50241,0 -165.75361,0 z"
         id="path913"
         sodipodi:nodetypes="cccccccsssccccccccsssssccc" />
    </g>
  </g>
</svg>
