<?xml version="1.0" encoding="UTF-8" standalone="no"?>
<svg
   id="Layer_1"
   viewBox="0 0 264.94452 64.000999"
   version="1.1"
   sodipodi:docname="logo_williams.svg"
   width="264.94452"
   height="64.000999"
   inkscape:version="1.4.2 (2aeb623e1d, 2025-05-12)"
   xmlns:inkscape="http://www.inkscape.org/namespaces/inkscape"
   xmlns:sodipodi="http://sodipodi.sourceforge.net/DTD/sodipodi-0.dtd"
   xmlns="http://www.w3.org/2000/svg"
   xmlns:svg="http://www.w3.org/2000/svg">
  <sodipodi:namedview
     id="namedview9"
     pagecolor="#ffffff"
     bordercolor="#000000"
     borderopacity="0.25"
     inkscape:showpageshadow="2"
     inkscape:pageopacity="0.0"
     inkscape:pagecheckerboard="0"
     inkscape:deskcolor="#d1d1d1"
     inkscape:zoom="1.2679876"
     inkscape:cx="235.80672"
     inkscape:cy="6.7035354"
     inkscape:window-width="1854"
     inkscape:window-height="1011"
     inkscape:window-x="0"
     inkscape:window-y="0"
     inkscape:window-maximized="1"
     inkscape:current-layer="Layer_1" />
  <defs
     id="defs1">
    <style
       id="style1">.cls-1{fill:#f42533;}</style>
  </defs>
  <g
     id="path1-6"
     style="opacity:1"
     transform="translate(-415.75781,343.88186)">
    <path
       style="baseline-shift:baseline;display:inline;overflow:visible;vector-effect:none;fill:#ffffff;stroke-linecap:round;stroke-linejoin:round;enable-background:accumulate;stop-color:#000000;stop-opacity:1"
       d="m 447.75781,-336.88086 c -13.8071,0 -25,11.1929 -25,25 0,13.80711 11.1929,25 25,25 13.80711,0 25,-11.19287 25,-25 0,-13.80712 -11.19288,-25 -25,-25 z m 55.98828,4.07031 c -2.40968,0 -4.82797,0.58232 -7.25586,1.74805 -2.42879,1.16554 -4.78983,2.8556 -7.08203,5.07031 -2.1374,2.09816 -3.78944,4.30409 -4.95508,6.61524 -1.16563,2.31223 -1.74804,4.53741 -1.74804,6.67383 0,1.90438 0.5344,3.42031 1.60351,4.54687 1.0683,1.12747 2.51499,1.68945 4.3418,1.68945 1.39884,0 2.81601,-0.33925 4.25391,-1.01953 1.43708,-0.6794 2.72027,-1.6213 3.84765,-2.82617 2.60271,-2.79749 3.9043,-6.29588 3.9043,-10.49219 0,-1.08742 -0.0674,-2.09668 -0.20313,-3.02929 -0.1366,-0.93261 -0.3992,-2.05944 -0.7871,-3.38086 l -0.4668,0.11718 c 0.0383,0.42797 0.0679,0.84394 0.0879,1.25196 0.0191,0.40805 0.0293,0.71034 0.0293,0.90429 0,0.93244 -0.0869,1.82555 -0.26172,2.67969 -0.17493,0.85521 -0.51506,1.88589 -1.01953,3.08984 -0.54461,1.43799 -1.21578,2.85508 -2.01172,4.25391 -0.79684,1.39885 -1.66123,2.72189 -2.59375,3.96485 -0.93252,1.24404 -1.88469,2.18503 -2.85547,2.82617 -0.97178,0.64114 -1.90546,0.96093 -2.79883,0.96093 -1.36059,0 -2.44769,-0.51496 -3.26367,-1.54492 -0.81597,-1.02924 -1.22266,-2.36025 -1.22266,-3.99218 0,-2.09816 0.57223,-4.26322 1.71875,-6.49805 1.1457,-2.23393 2.78839,-4.37936 4.92578,-6.43945 2.09816,-2.05901 4.27339,-3.64461 6.52735,-4.75196 2.25306,-1.10735 4.37181,-1.66015 6.35351,-1.66015 1.74851,0 3.06852,0.47607 3.96289,1.42773 0.89338,0.95257 1.33985,2.34208 1.33985,4.16797 0,2.21472 -0.52506,4.81893 -1.57422,7.81055 -1.04907,2.99251 -2.54388,6.15872 -4.48633,9.5 -1.63194,2.79767 -3.4013,5.42945 -5.30469,7.89648 -1.9042,2.46794 -4.11921,5.04156 -6.64453,7.72266 -0.46632,0.50538 -0.78602,0.86513 -0.96094,1.07812 -0.17481,0.21408 -0.26367,0.39989 -0.26367,0.55469 0,0.34967 0.25243,0.52344 0.75781,0.52344 0.19405,0 0.39922,-0.0376 0.61329,-0.11524 0.21307,-0.0783 0.55332,-0.27346 1.01953,-0.58398 l 1.92383,-1.22461 c 1.12649,-0.6995 2.38837,-1.56361 3.78711,-2.59375 1.39885,-1.02906 2.81786,-2.10691 4.25585,-3.23438 2.01987,-1.67018 3.98252,-3.4375 5.88672,-5.30273 1.9033,-1.86505 3.94258,-4.00255 6.11914,-6.41211 0.81597,-0.89347 1.57411,-1.74857 2.27344,-2.56445 0.69942,-0.81606 1.38815,-1.63121 2.06836,-2.44727 0.67939,-0.8159 1.38015,-1.68035 2.09961,-2.59375 0.71854,-0.91251 1.50416,-1.93308 2.35938,-3.06055 0.77654,-1.00985 1.51551,-1.97136 2.21484,-2.88476 0.69933,-0.91249 1.41777,-1.87385 2.15625,-2.88477 l 2.79883,-3.67187 c -0.54452,1.01076 -1.00241,1.84551 -1.3711,2.50586 -0.36979,0.66109 -0.75815,1.31198 -1.16601,1.95312 -0.40823,0.64114 -0.88394,1.36949 -1.42774,2.18555 -0.54453,0.81588 -1.2626,1.88454 -2.15625,3.20508 -2.29302,3.41958 -4.16593,6.37312 -5.62304,8.85937 -1.45701,2.48699 -2.45825,4.50692 -3.00196,6.06055 -0.89428,2.44801 -1.34179,4.93554 -1.34179,7.46094 0,2.95337 0.58427,5.20809 1.75,6.76172 0.34966,0.54379 0.71861,0.8164 1.10742,0.8164 0.38792,0 0.71797,-0.31257 0.99023,-0.93359 l 0.69922,-1.57422 c 0.0774,-0.19395 0.20408,-0.49432 0.37891,-0.90235 0.17483,-0.40801 0.4171,-0.90356 0.72851,-1.48632 l 2.50586,-5.01172 c 0.42707,-0.81606 1.00921,-1.85589 1.74805,-3.11914 0.7374,-1.26216 1.51634,-2.53609 2.33203,-3.81836 1.04918,-1.63195 2.04921,-3.09818 3.00195,-4.40039 0.95164,-1.30132 1.93225,-2.53544 2.94336,-3.70117 1.51539,-1.78674 2.89287,-3.23444 4.13672,-4.3418 1.24313,-1.10735 2.54566,-2.10581 3.90625,-3 l -0.29101,-0.4668 c -1.16555,0.7778 -2.19657,1.5256 -3.08985,2.24414 -0.89437,0.71946 -1.826,1.58374 -2.79687,2.59375 -1.8268,1.86504 -3.68233,4.11781 -5.56641,6.75977 -1.88518,2.64287 -3.76012,5.57606 -5.625,8.80078 -0.389,0.69933 -0.74858,1.37058 -1.07812,2.01172 -0.33064,0.64114 -0.69941,1.36031 -1.10743,2.15625 -0.40795,0.79686 -0.88402,1.72848 -1.42773,2.79687 -0.54462,1.06912 -1.18626,2.36157 -1.92383,3.87696 0.27136,-1.08742 0.51454,-2.00176 0.72852,-2.74024 0.21309,-0.73775 0.41842,-1.42722 0.61328,-2.06836 0.19395,-0.64114 0.39735,-1.28269 0.61133,-1.92383 0.21318,-0.64113 0.4757,-1.4287 0.78711,-2.36132 0.42707,-1.12658 0.85318,-2.27177 1.28125,-3.4375 0.42706,-1.16554 0.85506,-2.33232 1.2832,-3.49805 l 4.19531,-11.36524 c 0.19395,-0.42705 0.35042,-0.80609 0.4668,-1.13671 0.11674,-0.32972 0.32921,-0.92214 0.64062,-1.77735 0.31033,-0.69933 0.60274,-1.39832 0.875,-2.09765 0.27154,-0.69952 0.56359,-1.41778 0.875,-2.15625 0.38792,-1.01002 0.70788,-1.82711 0.96094,-2.44922 0.25232,-0.62102 0.4558,-1.11459 0.61133,-1.48438 0.1548,-0.36887 0.25377,-0.63123 0.29297,-0.78711 0.0385,-0.15481 0.0566,-0.27131 0.0566,-0.34961 0,-0.34966 -0.17359,-0.52539 -0.52344,-0.52539 -0.15553,0 -0.33144,0.0971 -0.52539,0.29102 -0.19468,0.19486 -0.48515,0.5638 -0.87305,1.10742 -0.0783,0.11655 -0.17658,0.2534 -0.29297,0.4082 -0.11672,0.1557 -0.40683,0.52467 -0.87304,1.10743 -0.31141,0.42817 -0.59337,0.81635 -0.8457,1.16601 -0.25304,0.34967 -0.53503,0.71951 -0.84571,1.10742 l -7.34375,9.61719 c -0.58276,0.73848 -1.29186,1.61304 -2.12695,2.62305 -0.836,1.01076 -1.73822,2.05906 -2.70899,3.14648 -0.97169,1.08814 -1.97291,2.17626 -3.00195,3.26367 -1.02997,1.08814 -1.99139,2.09864 -2.88476,3.03125 -1.74849,1.74849 -3.60483,3.46808 -5.56641,5.15821 -1.96258,1.6903 -3.99364,3.27377 -6.0918,4.75 -0.54462,0.42797 -1.04005,0.78665 -1.48633,1.07812 -0.44709,0.29149 -0.89365,0.58352 -1.33984,0.875 -0.44719,0.29147 -0.93253,0.59183 -1.45703,0.90235 -0.52459,0.31141 -1.15687,0.66073 -1.89453,1.04882 0.66026,-0.58295 1.2722,-1.11522 1.83594,-1.60156 0.56273,-0.48524 1.02133,-0.8839 1.37109,-1.19531 0.5437,-0.42707 1.07706,-0.87364 1.60156,-1.33984 0.52459,-0.4664 1.0589,-0.93418 1.60352,-1.4004 1.12649,-0.97087 2.02869,-1.75649 2.70898,-2.35937 0.67937,-0.60181 1.35056,-1.21401 2.01172,-1.83594 2.44792,-2.21472 4.75908,-4.75879 6.93555,-7.63476 1.86514,-2.48624 3.27401,-4.89708 4.22656,-7.22852 0.95165,-2.33127 1.42773,-4.5064 1.42773,-6.52734 0,-1.43708 -0.24318,-2.73857 -0.72851,-3.9043 -0.48633,-1.16555 -1.16676,-2.16595 -2.04102,-3.00195 -0.87425,-0.83511 -1.92249,-1.48692 -3.14648,-1.95313 -1.2239,-0.46623 -2.59399,-0.69922 -4.10938,-0.69922 z m 64.69532,1.51563 -5.6543,0.4668 c -0.93262,1.47714 -1.74776,2.78798 -2.44727,3.93359 -0.69933,1.14669 -1.3614,2.25406 -1.98242,3.32226 -0.62193,1.06912 -1.26348,2.18584 -1.92383,3.35157 -0.66107,1.16571 -1.41735,2.48666 -2.27148,3.96289 -0.31159,0.42798 -0.73958,0.99012 -1.2832,1.68945 -0.54471,0.69949 -1.16591,1.49735 -1.86524,2.39063 -0.69949,0.89437 -1.43794,1.83536 -2.21484,2.82617 -0.77762,0.9908 -1.54308,1.98185 -2.30078,2.97265 -0.75771,0.9908 -1.47881,1.95216 -2.15821,2.88477 -0.68028,0.93263 -1.27287,1.76829 -1.77734,2.50586 l -2.21484,3.03125 c -1.28227,1.82678 -2.50616,3.23576 -3.67188,4.22656 -1.16555,0.9908 -2.13733,1.48633 -2.91406,1.48633 -0.4664,0 -0.69922,-0.2146 -0.69922,-0.64258 0,-0.38809 0.17573,-1.01002 0.52539,-1.86523 0.34967,-0.85412 0.80541,-1.836 1.36914,-2.94336 0.56283,-1.10735 1.20438,-2.31106 1.92383,-3.61328 0.71854,-1.30149 1.44707,-2.58246 2.18555,-3.84571 0.73775,-1.26216 1.45692,-2.49648 2.15625,-3.70117 0.69951,-1.20399 1.3207,-2.25425 1.86523,-3.14844 l -6.52734,0.34961 c -0.58278,0.54452 -1.14779,1.09928 -1.69141,1.66211 -0.54471,0.56374 -1.14647,1.23287 -1.80664,2.00977 -0.66109,0.77762 -1.40905,1.72077 -2.24414,2.82812 -0.836,1.10735 -1.83622,2.49584 -3.00195,4.16602 l 0.46679,0.34961 c 1.90329,-2.71917 3.48693,-4.84535 4.75,-6.38086 1.26234,-1.53442 2.41959,-2.7482 3.46875,-3.64258 -1.51538,2.64287 -2.73926,4.818 -3.67187,6.52734 -0.93261,1.71024 -1.64153,3.11903 -2.12696,4.22657 -0.48635,1.10737 -0.80809,1.97058 -0.96289,2.59179 -0.15588,0.62192 -0.23242,1.16661 -0.23242,1.63282 0,1.28228 0.30971,2.31311 0.93164,3.08984 0.62103,0.77692 1.45669,1.16406 2.50586,1.16406 1.20396,0 2.40027,-0.47518 3.58594,-1.42773 1.18494,-0.95163 2.61211,-2.53511 4.2832,-4.75 l 2.21485,-3.03125 c 0.62118,-0.89328 1.39941,-1.96105 2.33203,-3.20508 0.93242,-1.24313 1.84391,-2.44773 2.73828,-3.61328 0.89326,-1.16573 1.70047,-2.20574 2.41992,-3.11914 0.71836,-0.91249 1.19462,-1.50509 1.42774,-1.77735 -1.36059,2.37041 -2.50704,4.40166 -3.43946,6.0918 -0.93262,1.6903 -1.69067,3.12775 -2.27343,4.3125 -0.58294,1.18567 -1.01908,2.14701 -1.31055,2.88477 -0.29148,0.73847 -0.50487,1.34042 -0.64063,1.80664 -0.13652,0.4664 -0.20508,0.82579 -0.20508,1.07812 v 0.72852 c 0,1.20487 0.29206,2.1763 0.875,2.91406 0.58279,0.73756 1.35848,1.10742 2.33008,1.10742 1.16573,0 2.35176,-0.47518 3.55664,-1.42773 1.20398,-0.95163 2.62196,-2.53511 4.25391,-4.75 l 2.21484,-3.03125 c 0.62119,-0.89328 1.39943,-1.96105 2.33203,-3.20508 0.93244,-1.24313 1.84391,-2.44773 2.73829,-3.61328 0.89326,-1.16573 1.70046,-2.20574 2.41992,-3.11914 0.71835,-0.91249 1.19462,-1.50509 1.42773,-1.77735 -1.36059,2.37041 -2.50702,4.40166 -3.43945,6.0918 -0.93261,1.6903 -1.69068,3.12775 -2.27344,4.3125 -0.58295,1.18567 -1.01907,2.14701 -1.31055,2.88477 -0.29147,0.73847 -0.50486,1.34042 -0.64062,1.80664 -0.13652,0.4664 -0.20508,0.82579 -0.20508,1.07812 v 0.72852 c 0,1.20487 0.29205,2.1763 0.875,2.91406 0.58278,0.73756 1.35849,1.10742 2.33008,1.10742 1.16573,0 2.35176,-0.47518 3.55664,-1.42773 1.20398,-0.95163 2.62197,-2.53511 4.25391,-4.75 l 2.21484,-3.03125 c 1.9033,-2.71917 3.48694,-4.84535 4.75,-6.38086 1.26235,-1.53442 2.41959,-2.7482 3.46875,-3.64258 -1.51537,2.64287 -2.73925,4.818 -3.67187,6.52734 -0.93261,1.71024 -1.64154,3.11903 -2.12696,4.22657 -0.48635,1.10737 -0.80808,1.97058 -0.96289,2.59179 -0.15588,0.62192 -0.23242,1.16661 -0.23242,1.63282 0,1.28228 0.30972,2.31311 0.93164,3.08984 0.62104,0.77692 1.45865,1.16406 2.50781,1.16406 1.20397,0 2.39833,-0.47518 3.58399,-1.42773 1.18495,-0.95163 2.61211,-2.53511 4.2832,-4.75 l 2.21484,-3.03125 0.875,-1.22266 c 0.0774,-0.0774 0.18365,-0.22361 0.32032,-0.4375 0.1356,-0.21318 0.33907,-0.4757 0.61132,-0.78711 -0.58294,1.24402 -0.98215,2.27397 -1.19531,3.08985 -0.21391,0.81604 -0.32031,1.70882 -0.32031,2.67968 0,1.7485 0.45574,3.16845 1.36914,4.25586 0.91249,1.08833 2.08935,1.63086 3.52734,1.63086 1.35968,0 2.72977,-0.61201 4.10938,-1.83593 1.37872,-1.22408 3.03907,-3.29282 4.98242,-6.20704 -0.31141,1.01092 -0.52408,1.84569 -0.64062,2.50586 -0.11673,0.66126 -0.17578,1.20575 -0.17578,1.63282 -10e-6,1.20488 0.30141,2.15613 0.90429,2.85546 0.60198,0.6995 1.40705,1.04883 2.41797,1.04883 1.24295,0 2.47725,-0.47518 3.70117,-1.42773 1.2239,-0.95164 2.65322,-2.53511 4.28516,-4.75 l 1.98047,-2.67969 0.23242,-0.35156 c 0.89346,-1.24294 1.65151,-2.29128 2.27344,-3.14649 0.62102,-0.85412 1.17578,-1.59291 1.66211,-2.21484 0.48545,-0.62102 0.92173,-1.15633 1.31054,-1.60352 0.38809,-0.44628 0.79646,-0.88256 1.22461,-1.31054 1.39884,-1.47623 2.3899,-2.21485 2.97266,-2.21485 0.27135,0 0.4082,0.17554 0.4082,0.52539 0,0.31141 -0.099,0.73763 -0.29297,1.28125 -0.19486,0.54469 -0.54418,1.34164 -1.04883,2.39063 -0.46622,1.04918 -0.92286,2.01051 -1.36914,2.88476 -0.447,0.87426 -0.90292,1.74882 -1.36914,2.62305 -0.46621,0.87424 -0.98227,1.79671 -1.54492,2.76758 -0.56373,0.97157 -1.21555,2.03935 -1.95312,3.20508 l -2.27344,3.73047 6.58789,-0.40821 c 0.73758,-1.12656 1.36799,-2.09818 1.89258,-2.91406 0.52441,-0.81606 1.02928,-1.57411 1.51562,-2.27344 0.48524,-0.69949 0.98078,-1.39832 1.48633,-2.09765 0.50446,-0.69952 1.08679,-1.51466 1.74805,-2.44727 0.62101,-0.81588 1.15632,-1.52406 1.60351,-2.12695 0.44628,-0.60199 0.84547,-1.13731 1.19532,-1.60352 0.34966,-0.4664 0.67864,-0.89439 0.99023,-1.2832 0.31052,-0.38792 0.64057,-0.77525 0.99023,-1.16406 0.66017,-0.77673 1.36114,-1.4379 2.09961,-1.98242 0.73776,-0.54362 1.28119,-0.81641 1.63086,-0.81641 0.3105,0 0.4668,0.21355 0.4668,0.64062 0,0.73864 -0.39937,2.08912 -1.19531,4.05079 -0.79684,1.96257 -1.93198,4.34314 -3.4082,7.14062 -0.34967,0.66126 -0.66206,1.25275 -0.9336,1.77734 -0.27226,0.5246 -0.56432,1.0599 -0.875,1.60352 -0.31143,0.54469 -0.66093,1.12703 -1.04883,1.74805 -0.38883,0.62209 -0.83519,1.36054 -1.33984,2.21484 l 6.64453,-0.4082 c 0.50447,-0.85414 0.94077,-1.60301 1.31055,-2.24414 0.36888,-0.64114 0.71821,-1.23283 1.04883,-1.77735 0.32955,-0.54362 0.65148,-1.05858 0.96289,-1.54492 0.31052,-0.48524 0.64057,-0.99844 0.99023,-1.54297 1.12658,-1.74849 2.30147,-3.43024 3.52539,-5.04297 1.22392,-1.61201 2.34082,-2.92267 3.35156,-3.93359 1.94264,-2.01985 3.41895,-3.03125 4.42969,-3.03125 0.50445,0 0.75781,0.21355 0.75781,0.64062 0,0.19486 -0.1165,0.52598 -0.34961,0.99219 -0.23312,0.4664 -0.56316,1.00984 -0.99023,1.63086 l -2.74023,4.13867 c -0.81607,1.24403 -1.45567,2.55489 -1.92188,3.9336 -0.46621,1.37961 -0.69922,2.7099 -0.69922,3.99218 0,1.36057 0.29946,2.44039 0.90235,3.23633 0.60197,0.79576 1.40703,1.19336 2.41796,1.19336 1.12656,0 2.29317,-0.47518 3.49805,-1.42773 1.20398,-0.95164 2.62197,-2.53511 4.25391,-4.75 l 1.98242,-2.67969 0.23242,-0.35156 8.56836,-11.83008 c 0,0.19505 0.0195,0.53428 0.0586,1.01953 0.0383,0.48634 0.0863,1.0013 0.14454,1.54492 0.0583,0.54452 0.10738,1.08724 0.14648,1.63086 0.0383,0.54453 0.0586,0.99213 0.0586,1.3418 0,4.31306 -1.14734,8.3149 -3.43945,12.00586 -0.50536,0.77764 -0.97137,1.33978 -1.39844,1.68945 -0.42797,0.34985 -0.91342,0.52539 -1.45703,0.52539 -0.42798,0 -0.81635,-0.13576 -1.16601,-0.4082 -0.34967,-0.27136 -0.52344,-0.58198 -0.52344,-0.93164 0,-0.19397 0.0767,-0.36968 0.23242,-0.52539 0.15481,-0.15481 0.44702,-0.33053 0.875,-0.52539 1.12656,-0.54362 1.68945,-1.31934 1.68945,-2.33008 0,-0.66035 -0.22364,-1.21492 -0.66992,-1.66211 -0.447,-0.44627 -0.98249,-0.66992 -1.60351,-0.66992 -0.69933,0 -1.27247,0.29224 -1.71875,0.875 -0.44627,0.58295 -0.66993,1.32138 -0.66993,2.21484 0,0.73848 0.15433,1.42722 0.46485,2.06836 0.31069,0.64114 0.73867,1.1959 1.2832,1.66211 0.5438,0.46622 1.19545,0.83412 1.95313,1.10547 0.75769,0.27136 1.58219,0.4082 2.47656,0.4082 3.10818,0 5.96466,-1.65009 8.56836,-4.95312 0.42707,-0.54361 0.96043,-1.24244 1.60156,-2.09766 0.64114,-0.85413 1.19571,-1.6327 1.66211,-2.33203 l 0.23242,-0.34961 -0.46679,-0.29101 -0.29102,0.29101 c -0.58276,0.85521 -1.07848,1.56413 -1.48633,2.12695 -0.40802,0.56357 -0.75736,1.03984 -1.04883,1.42774 -0.29148,0.38881 -0.57435,0.73831 -0.8457,1.04883 -0.27226,0.31141 -0.54505,0.62307 -0.81641,0.93359 0.42726,-1.00985 0.71929,-1.8743 0.875,-2.59375 0.15482,-0.71854 0.23243,-1.5063 0.23243,-2.36133 0,-1.20397 -0.19413,-2.35926 -0.58204,-3.4668 -0.38881,-1.10734 -1.04804,-2.51631 -1.98046,-4.22656 -0.66126,-1.20397 -1.11896,-2.12645 -1.3711,-2.76758 -0.25322,-0.64114 -0.3789,-1.29205 -0.3789,-1.95312 0,-0.8543 0.3882,-1.61237 1.16601,-2.27344 0.46624,-0.42707 0.75845,-0.71734 0.875,-0.87304 0.11654,-0.15481 0.17383,-0.27131 0.17383,-0.34961 0,-0.27153 -0.17359,-0.40821 -0.52344,-0.40821 -0.58276,0 -1.09883,0.3198 -1.54492,0.96094 -0.44719,0.64114 -0.70971,1.46673 -0.78711,2.47656 l -9.0332,12.47266 -0.23438,0.34961 -1.98047,2.68164 c -1.32145,1.82678 -2.55557,3.23576 -3.70117,4.22656 -1.14671,0.9908 -2.10802,1.48633 -2.88476,1.48633 -0.54471,0 -0.81641,-0.23496 -0.81641,-0.70117 0,-0.19395 0.0767,-0.44445 0.23242,-0.75586 0.1548,-0.3105 0.44702,-0.79595 0.875,-1.45703 l 1.45703,-2.39063 c 0.89328,-1.43708 1.59228,-2.61199 2.09766,-3.52539 0.50447,-0.91249 0.87431,-1.70026 1.10742,-2.36133 0.2331,-0.69952 0.42631,-1.42786 0.58203,-2.18554 0.15498,-0.75769 0.23438,-1.42701 0.23438,-2.00977 0,-1.24313 -0.3023,-2.26369 -0.9043,-3.06055 -0.60288,-0.79594 -1.40796,-1.19531 -2.41797,-1.19531 -1.47714,0 -3.32241,1.17686 -5.53711,3.52734 -2.21473,2.35139 -5.05192,6.16726 -8.50976,11.45118 0.77671,-1.47625 1.38874,-2.68066 1.83593,-3.61328 0.44628,-0.93242 0.78643,-1.72742 1.01954,-2.38868 0.42707,-1.00983 0.71928,-1.91408 0.875,-2.71093 0.15481,-0.79595 0.23242,-1.54481 0.23242,-2.24414 0,-1.28227 -0.26076,-2.28251 -0.78516,-3.00196 -0.52458,-0.71854 -1.27328,-1.07812 -2.24414,-1.07812 -0.93243,0 -1.94402,0.40855 -3.03125,1.22461 -0.42816,0.31143 -0.84605,0.66092 -1.25391,1.04882 -0.40804,0.38883 -0.86449,0.86491 -1.36914,1.42774 -0.50538,0.56374 -1.06844,1.24506 -1.68945,2.04102 -0.62212,0.79684 -1.34213,1.73875 -2.1582,2.82617 -0.54452,0.69952 -1.00027,1.32161 -1.36914,1.86523 -0.36979,0.54471 -0.73873,1.06957 -1.10742,1.57422 -0.36977,0.50538 -0.74882,1.03873 -1.13672,1.60156 -0.38881,0.56373 -0.85482,1.23499 -1.39844,2.01172 l 1.68945,-2.97266 c 1.16573,-2.13657 1.99219,-3.87632 2.47852,-5.21679 0.48543,-1.34047 0.72851,-2.61367 0.72851,-3.81836 0,-1.16573 -0.26252,-2.07702 -0.78711,-2.73828 -0.52457,-0.66018 -1.23348,-0.99024 -2.12695,-0.99024 -0.77764,0 -1.61239,0.3198 -2.50586,0.96094 -0.89419,0.64097 -1.96409,1.66172 -3.20703,3.06055 -0.34985,0.38881 -0.67971,0.78533 -0.99023,1.19336 -0.31159,0.40783 -0.6701,0.8758 -1.07813,1.40039 -0.40802,0.52441 -0.87385,1.14474 -1.39844,1.86328 -0.52458,0.71945 -1.1366,1.58373 -1.83593,2.59375 l -0.23438,0.34961 -1.98047,2.68164 c -2.72027,3.80841 -4.97478,5.71289 -6.76172,5.71289 -0.46621,0 -0.69922,-0.17573 -0.69922,-0.52539 0,-0.27135 0.16548,-0.79641 0.4961,-1.57422 0.32971,-0.77674 0.94175,-2.09783 1.83594,-3.96289 0.38809,-0.81606 0.75757,-1.58329 1.10742,-2.30274 0.34964,-0.71854 0.7287,-1.46454 1.13672,-2.24218 0.40785,-0.77692 0.8535,-1.61363 1.33984,-2.50782 0.48542,-0.89346 1.05767,-1.92216 1.71875,-3.08789 l 2.04102,-3.61328 -6.23633,0.99024 -1.69141,2.79687 c 0,-2.56437 -1.47723,-3.8457 -4.42969,-3.8457 -2.29302,0 -4.67164,0.94209 -7.13867,2.82617 -2.46794,1.88516 -4.96501,4.65292 -7.49023,8.30469 l -2.21485,3.03125 c -1.28228,1.82678 -2.50614,3.23576 -3.67187,4.22656 -1.16554,0.9908 -2.13733,1.48633 -2.91406,1.48633 -0.4664,0 -0.69922,-0.2146 -0.69922,-0.64258 0,-0.38809 0.17573,-1.01002 0.52539,-1.86523 0.34967,-0.85412 0.8054,-1.836 1.36914,-2.94336 0.56283,-1.10735 1.20437,-2.31106 1.92383,-3.61328 0.71854,-1.30149 1.44707,-2.58246 2.18554,-3.84571 0.73775,-1.26216 1.45692,-2.49648 2.15625,-3.70117 0.69952,-1.20399 1.32072,-2.25425 1.86524,-3.14844 l -6.52735,0.34961 c -0.58278,0.54452 -1.14779,1.09928 -1.6914,1.66211 -0.54471,0.56374 -1.14647,1.23287 -1.80664,2.00977 -0.66109,0.77762 -1.40905,1.72077 -2.24414,2.82812 -0.836,1.10735 -1.83623,2.49584 -3.00196,4.16602 l -2.21484,3.03125 c -1.28228,1.78765 -2.49698,3.18724 -3.64258,4.19726 -1.14652,1.01074 -2.10802,1.51563 -2.88476,1.51563 -0.46639,0 -0.69922,-0.19518 -0.69922,-0.58398 0,-0.19395 0.0592,-0.46674 0.17578,-0.81641 0.11655,-0.34985 0.26998,-0.73608 0.46484,-1.16406 0.6212,-1.43706 1.50584,-3.24541 2.65235,-5.42188 1.14561,-2.17555 2.40944,-4.4969 3.78906,-6.96484 1.3787,-2.46722 2.80606,-4.97224 4.2832,-7.51758 1.47624,-2.54444 2.86557,-4.9351 4.16797,-7.16992 1.30132,-2.23373 2.4467,-4.18633 3.4375,-5.85742 0.99081,-1.6702 1.6815,-2.85517 2.07031,-3.55469 l -5.65429,0.4668 c -0.93261,1.47714 -1.74775,2.78798 -2.44727,3.93359 -0.69933,1.14669 -1.3614,2.25406 -1.98242,3.32226 -0.62192,1.06912 -1.26348,2.18584 -1.92383,3.35157 -0.66108,1.16571 -1.41734,2.48666 -2.27148,3.96289 -0.31159,0.42798 -0.7396,0.99012 -1.28321,1.68945 -0.54472,0.69949 -1.1659,1.49735 -1.86523,2.39063 -0.6995,0.89437 -1.43796,1.83536 -2.21485,2.82617 -0.77763,0.9908 -1.54307,1.98185 -2.30078,2.97265 -0.75771,0.9908 -1.47881,1.95216 -2.1582,2.88477 -0.68029,0.93263 -1.27287,1.76829 -1.77734,2.50586 l -2.21485,3.03125 c -1.28228,1.78765 -2.49696,3.18724 -3.64257,4.19726 -1.14652,1.01074 -2.10804,1.51563 -2.88477,1.51563 -0.4664,0 -0.69922,-0.19518 -0.69922,-0.58398 0,-0.19395 0.0592,-0.46674 0.17578,-0.81641 0.11655,-0.34985 0.26999,-0.73608 0.46485,-1.16406 0.62121,-1.43706 1.50582,-3.24541 2.65234,-5.42188 1.14561,-2.17555 2.40944,-4.4969 3.78906,-6.96484 1.3787,-2.46722 2.80608,-4.97224 4.2832,-7.51758 1.47626,-2.54444 2.86557,-4.9351 4.16797,-7.16992 1.30133,-2.23373 2.44669,-4.18633 3.4375,-5.85742 0.9908,-1.6702 1.68151,-2.85517 2.07032,-3.55469 z m -22.84766,6.41015 c -0.46622,0 -0.91278,0.11828 -1.33984,0.35157 -0.42798,0.23309 -0.81617,0.53365 -1.16602,0.90234 -0.34967,0.36978 -0.62246,0.79778 -0.81641,1.2832 -0.19487,0.48634 -0.29101,0.98186 -0.29101,1.48633 0,0.77781 0.23282,1.41741 0.69922,1.92188 0.46622,0.50536 1.04853,0.75781 1.74804,0.75781 0.93243,0 1.75712,-0.39846 2.47657,-1.19531 0.71854,-0.79576 1.07812,-1.71859 1.07812,-2.76758 0,-0.7769 -0.22382,-1.42854 -0.66992,-1.95313 -0.44718,-0.52459 -1.01924,-0.78711 -1.71875,-0.78711 z m 43.30469,0 c -0.46621,0 -0.91278,0.11828 -1.33985,0.35157 -0.42797,0.23309 -0.81615,0.53365 -1.16601,0.90234 -0.34966,0.36978 -0.62246,0.79778 -0.81641,1.2832 -0.19488,0.48634 -0.29101,0.98186 -0.29101,1.48633 0,0.77781 0.23281,1.41741 0.69922,1.92188 0.46621,0.50536 1.04852,0.75781 1.74804,0.75781 0.93243,0 1.75711,-0.39846 2.47656,-1.19531 0.71854,-0.79576 1.08008,-1.71859 1.08008,-2.76758 0,-0.7769 -0.22578,-1.42854 -0.67187,-1.95313 -0.44719,-0.52459 -1.01923,-0.78711 -1.71875,-0.78711 z m -159.47071,1.83399 10.61524,10.38281 6.42578,-5.875 -1.57031,-3.79101 2.85937,2.61328 2.85742,-2.61328 -1.57031,3.79101 6.42774,5.875 10.61328,-10.38281 -10.98242,25.34766 -7.34571,-17.73243 -7.34765,17.73243 z m 172.58399,11.98047 c 0.66035,0 1.21492,0.24309 1.66211,0.72851 0.44628,0.48617 0.66992,1.07802 0.66992,1.77735 0,0.42815 -0.12677,0.96237 -0.37891,1.60351 -0.25322,0.64113 -0.68933,1.52579 -1.31054,2.65235 -1.36057,2.48697 -2.43029,4.31278 -3.20703,5.47851 -1.32142,1.98159 -2.66181,3.57534 -4.02149,4.7793 -1.36059,1.20488 -2.50489,1.80664 -3.4375,1.80664 -1.04916,0 -1.57422,-0.42817 -1.57422,-1.2832 0,-0.66035 0.36875,-1.78717 1.10742,-3.38086 0.73756,-1.5928 1.74897,-3.49624 3.03125,-5.71094 0.58276,-0.97067 1.1948,-1.95255 1.83594,-2.94336 0.64114,-0.99099 1.28991,-1.89488 1.95117,-2.71094 0.66017,-0.81588 1.30191,-1.48517 1.92383,-2.00976 0.62121,-0.52459 1.20352,-0.78711 1.74805,-0.78711 z"
       id="path10" />
    <path
       style="baseline-shift:baseline;display:inline;overflow:visible;vector-effect:none;fill:#ffffff;stroke-linecap:round;stroke-linejoin:round;enable-background:accumulate;stop-color:#000000;stop-opacity:1"
       d="m 447.75781,-343.88086 c -17.59019,0 -32,14.40981 -32,32 0,17.5902 14.40981,32 32,32 14.88638,0 27.39158,-10.36284 30.91602,-24.19726 0.19292,0.24007 0.33945,0.51136 0.55273,0.73632 6.3e-4,6.7e-4 10e-4,10e-4 0.002,0.002 6.3e-4,6.6e-4 10e-4,0.001 0.002,0.002 1.886,1.98836 4.53036,2.97498 7.14258,3.42969 -0.49427,0.54501 -0.83553,1.02379 -1.36133,1.58203 -0.0164,0.0175 -0.0326,0.0351 -0.0488,0.0527 -0.50774,0.55027 -0.85024,0.92264 -1.22656,1.38086 -0.004,0.005 -0.008,0.0104 -0.0117,0.0156 -0.69483,0.85091 -1.8418,2.14881 -1.8418,4.98242 0,1.85929 1.28791,4.82578 3.21289,6.1543 1.92499,1.32851 3.48994,1.36914 4.54492,1.36914 1.09925,0 2.11857,-0.21635 2.99805,-0.53516 0.01,-0.003 0.0195,-0.007 0.0293,-0.01 1.48367,-0.54515 1.8386,-0.8967 2.48633,-1.32812 l 1.73632,-1.10352 0.0137,-0.01 c 1.32647,-0.82429 2.72201,-1.78314 4.22851,-2.89258 l 0.002,-0.002 c 1.45736,-1.07214 2.93163,-2.19331 4.42382,-3.36328 0.048,-0.0371 0.0956,-0.0749 0.14258,-0.11329 0.31204,-0.25801 0.5988,-0.5561 0.9082,-0.81835 0.39508,2.28313 1.07056,4.49707 2.48633,6.48828 1.02112,1.53879 3.30715,3.92187 6.89063,3.92187 2.07406,0 4.1861,-1.04992 5.34375,-2.14258 1.15765,-1.09266 1.67627,-2.11284 2.05664,-2.98047 l 0.48242,-1.08593 c 0.34268,0.72178 0.58357,1.47515 1.10547,2.12695 1.82592,2.28093 5.20125,3.78906 7.9707,3.78906 2.88008,0 5.52346,-1.19384 7.57617,-2.74023 1.84561,1.63515 4.47672,2.74023 6.76172,2.74023 2.91216,0 5.50504,-1.2063 7.53516,-2.72461 1.84505,1.62631 4.4665,2.72461 6.74414,2.72461 2.99069,0 5.66763,-1.25223 7.71875,-2.83008 1.90728,1.71607 4.62744,2.83008 6.9707,2.83008 2.95719,0 5.68808,-1.24082 7.75782,-2.84765 2.09988,1.7311 4.92037,2.84765 7.51171,2.84765 2.21869,0 4.16583,-0.77567 5.94336,-1.77539 1.74594,1.10908 3.83623,1.77539 5.6543,1.77539 2.18808,0 4.17232,-0.7667 5.96875,-1.7539 1.33031,1.02731 2.98581,1.54171 4.66406,1.44922 l 6.58789,-0.40821 c 0.72266,-0.27297 1.39516,-0.66367 1.99024,-1.15625 1.34747,1.12714 3.06946,1.70649 4.82422,1.62305 l 6.64453,-0.4082 c 1.9819,-0.25404 3.76079,-1.34284 4.88867,-2.99219 1.80526,2.11617 4.97643,3.64648 7.67773,3.64648 2.85741,0 5.32218,-1.17434 7.29883,-2.61718 1.011,0.70787 2.04167,1.40665 3.13672,1.79882 1.57199,0.563 3.22756,0.81836 4.83594,0.81836 5.58565,0 10.62346,-3.25146 14.0664,-7.61914 l 0.006,-0.01 c 0.47747,-0.60776 1.03604,-1.33937 1.69532,-2.21875 l 0.004,-0.004 c 0.70233,-0.93579 1.32878,-1.81282 1.88477,-2.64648 l 0.006,-0.01 0.23242,-0.34961 c 2.18333,-3.28634 1.22101,-7.72683 -2.12695,-9.81445 l -0.4668,-0.29102 c -0.55372,-0.20061 -1.13054,-0.33054 -1.7168,-0.38672 -0.51801,-1.23773 -1.02129,-2.44821 -1.7832,-3.8457 -0.004,-0.006 -0.008,-0.0117 -0.0117,-0.0176 -0.11136,-0.20275 -0.0927,-0.18898 -0.1875,-0.36914 0.49274,-0.59323 1.51758,-1.10366 1.51758,-4.47851 0,-1.62748 -0.94883,-4.35732 -2.82031,-5.82032 -1.87149,-1.46299 -3.61661,-1.58789 -4.70313,-1.58789 -3.14258,0 -6.02,2.13838 -7.28906,3.96094 -4.4e-4,6.3e-4 -0.002,0.001 -0.002,0.002 -0.79066,1.13526 -1.24459,2.3405 -1.5625,3.54493 l -0.98243,1.35742 c -1.76104,-2.2248 -5.0795,-3.85352 -7.88281,-3.85352 -2.92923,0 -4.99924,0.97492 -6.79492,2.27735 -1.83413,-1.45028 -4.29063,-2.33594 -6.31836,-2.33594 -2.57605,0 -4.63714,0.98111 -6.37109,2.13281 -1.78263,-1.38002 -4.15413,-2.24805 -6.16016,-2.24805 -2.62182,0 -4.7677,1.0244 -6.42578,2.18555 -1.47875,-1.52705 -3.57122,-2.29951 -5.6875,-2.09961 l -5.92969,0.94141 c -1.79897,-0.8021 -3.66258,-1.08594 -5.33008,-1.08594 -0.97345,0 -1.92438,0.11453 -2.85937,0.28906 0.35323,-1.09167 0.65234,-2.21461 0.65234,-3.31445 0,-2.13311 -0.79562,-4.67232 -2.33984,-6.48828 l -0.006,-0.006 c -1.61114,-1.89 -4.59407,-3.2461 -7.04492,-3.2461 -0.0636,0 -0.12578,0.024 -0.18946,0.0254 -0.28697,-3.47343 -3.08524,-6.20676 -6.56445,-6.41211 l -5.6543,0.46679 c -1.32679,0.34406 -2.5234,1.07004 -3.4414,2.08789 -1.27938,-1.55826 -3.16848,-2.48928 -5.1836,-2.55468 l -5.65429,0.46679 c -2.19125,0.181 -4.17016,1.38093 -5.34375,3.24024 -0.94768,1.50098 -1.77965,2.83854 -2.50196,4.02148 l -0.002,0.004 c -0.50303,0.82481 -0.96764,1.61531 -1.4375,2.41015 -0.1148,-0.15534 -0.15655,-0.35726 -0.28125,-0.5039 l -0.004,-0.006 c -1.61122,-1.89014 -4.596,-3.2461 -7.04687,-3.2461 -1.64717,0 -3.33356,0.46711 -4.6875,1.20508 -8.1e-4,4.5e-4 -10e-4,0.002 -0.002,0.002 -0.0505,0.0275 -0.0847,0.0752 -0.13477,0.10351 -1.13053,-0.12937 -2.27557,0.0188 -3.33594,0.43164 0.0123,-0.047 0.0166,-0.0353 0.0293,-0.0859 10e-4,-0.006 0.003,-0.0117 0.004,-0.0176 0.11271,-0.45325 0.26367,-0.87963 0.26367,-2.03907 0,-1.33322 -0.43279,-3.58473 -2.16602,-5.32812 -1.73322,-1.74339 -4.01046,-2.19727 -5.35742,-2.19727 -3.06811,0 -4.60997,1.47716 -5.47461,2.3418 l -0.002,0.002 c -0.85652,0.85731 -1.14133,1.31866 -1.61914,1.98828 -0.0385,0.0535 -0.0763,0.10754 -0.11328,0.16211 0.0189,-0.0282 -0.0153,0.0219 -0.0781,0.10547 l -0.006,0.008 c 0.0388,-0.0518 -0.28753,0.37015 -0.73828,0.93359 -0.0664,0.0838 -0.13087,0.16911 -0.19336,0.25586 -0.31294,0.43027 -0.59959,0.8248 -0.86133,1.1875 -0.17829,0.24612 -0.38955,0.52439 -0.63281,0.82812 -0.0337,0.0419 -0.0669,0.0843 -0.0996,0.12696 l -1.1582,1.51562 c -0.82542,-1.79538 -1.95045,-3.48417 -3.39063,-4.86133 l -0.002,-0.004 c -1.57964,-1.50892 -3.48045,-2.66613 -5.49023,-3.43164 -2.12294,-0.80871 -4.36868,-1.15821 -6.60157,-1.15821 -3.53742,0 -7.04225,0.88045 -10.28515,2.4375 -3.2131,1.54192 -6.17617,3.70044 -8.91602,6.34766 -0.0137,0.0123 -0.0274,0.0247 -0.041,0.0371 -2.60097,2.55321 -4.74409,5.37247 -6.30079,8.45898 v 0.002 c -0.0977,0.19386 -0.13767,0.40583 -0.23046,0.60156 -4.25847,-12.6835 -16.15099,-21.95508 -30.21485,-21.95508 z m 214.16797,23.60352 c -0.24756,0.23021 -0.42918,0.59136 -0.66406,0.86328 0.263,-0.51915 0.52005,-0.7154 0.66406,-0.86328 z m -32.67383,3.89648 c -0.0191,0.0139 -0.0356,0.0309 -0.0547,0.0449 -0.009,0.006 -0.0207,0.0111 -0.0293,0.0176 z m -16.29883,3.66016 c -0.005,0.005 -0.009,0.0121 -0.0137,0.0176 -0.005,0.006 -0.0106,0.008 -0.0156,0.0137 z m -112.40234,22.1914 -0.29687,0.22071 c 0.0356,-0.025 0.068,-0.055 0.10351,-0.0801 0.0653,-0.0506 0.1277,-0.089 0.19336,-0.14063 z"
       id="path11"
       sodipodi:nodetypes="csscssccscccssscccccccccccsscccscscscscscscccccccscssccccccsscccccsssscccscscscccscsccsccccccccccccsscccccsssssccsccccsccccssccccccccccccccccscccccsc" />
  </g>
  <g
     id="g9"
     transform="translate(-388.96296,192.04199)">
    <g
       id="g8"
       transform="matrix(0.18561678,0,0,0.18561678,395.65933,-185.24199)">
      <path
         d="m 560.1051,52.8388 c -3.9785,5.4463 -7.8496,10.627 -11.6172,15.543 -3.7676,4.9209 -7.748,10.1025 -11.9316,15.543 -4.6074,6.0742 -8.8467,11.5693 -12.7178,16.4854 -3.876,4.9209 -7.644,9.5771 -11.3042,13.9727 -3.6646,4.3965 -7.3789,8.792 -11.147,13.1885 -3.7676,4.3955 -7.8496,9.0029 -12.2456,13.8164 -11.7261,12.9814 -22.7163,24.4912 -32.9702,34.5391 -10.2588,10.0488 -20.832,19.5762 -31.7139,28.5742 -7.7471,6.0742 -15.3862,11.8828 -22.9224,17.4268 -7.5356,5.5498 -14.3408,10.2051 -20.4097,13.9736 l -10.3623,6.5938 c -2.5117,1.6729 -4.3467,2.7178 -5.4946,3.1396 -1.1533,0.418 -2.252,0.6289 -3.2974,0.6289 -2.7227,0 -4.0815,-0.9424 -4.0815,-2.8262 0,-0.834 0.4707,-1.8301 1.4126,-2.9834 0.9424,-1.1475 2.6689,-3.0859 5.1812,-5.8086 13.605,-14.4443 25.5371,-28.3096 35.7959,-41.6055 10.2544,-13.291 19.7822,-27.4746 28.5742,-42.5469 10.4648,-18.001 18.5259,-35.0596 24.1777,-51.1816 5.6523,-16.1172 8.478,-30.1445 8.478,-42.0762 0,-9.8369 -2.4087,-17.3193 -7.2217,-22.4512 -4.8184,-5.127 -11.9321,-7.6934 -21.3521,-7.6934 -10.6763,0 -22.0879,2.9834 -34.2261,8.9492 -12.1431,5.9658 -23.8643,14.498 -35.168,25.5908 -11.5151,11.0986 -20.3608,22.6621 -26.5332,34.6973 -6.1768,12.04 -9.2627,23.707 -9.2627,35.0107 0,8.792 2.1978,15.9648 6.5938,21.5098 4.396,5.5488 10.2539,8.3203 17.584,8.3203 4.813,0 9.8369,-1.7266 15.0723,-5.1807 5.23,-3.4541 10.3618,-8.5273 15.3857,-15.2295 5.0239,-6.6963 9.6802,-13.8154 13.9731,-21.3516 4.2881,-7.5361 7.8989,-15.1748 10.833,-22.9219 2.7178,-6.4863 4.5527,-12.0352 5.4951,-16.6426 0.9419,-4.6016 1.4126,-9.4199 1.4126,-14.4434 0,-1.0449 -0.0537,-2.6689 -0.1567,-4.8672 -0.1079,-2.1982 -0.2651,-4.4453 -0.4712,-6.751 l 2.5122,-0.6279 c 2.0898,7.1191 3.5029,13.1875 4.2388,18.2119 0.731,5.0244 1.0991,10.4697 1.0991,16.3281 0,22.6074 -7.0161,41.4482 -21.0381,56.5195 -6.0737,6.4912 -12.9819,11.5693 -20.7241,15.2295 -7.7466,3.665 -15.3857,5.4951 -22.9219,5.4951 -9.8418,0 -17.6377,-3.0322 -23.3931,-9.1064 -5.7598,-6.0693 -8.6348,-14.2324 -8.6348,-24.4922 0,-11.5098 3.1401,-23.4961 9.4199,-35.9531 6.2798,-12.4512 15.1748,-24.335 26.6899,-35.6387 12.3491,-11.9316 25.0659,-21.0381 38.1509,-27.3174 13.0801,-6.2803 26.1113,-9.4209 39.0933,-9.4209 8.1641,0 15.543,1.2568 22.1367,3.7686 6.5942,2.5117 12.2461,6.0195 16.9561,10.5186 4.71,4.5039 8.3701,9.8916 10.9902,16.1709 2.6147,6.2803 3.9248,13.2959 3.9248,21.0381 0,10.8877 -2.5659,22.6084 -7.6929,35.168 -5.1318,12.5605 -12.7168,25.542 -22.7651,38.9365 -11.7256,15.4941 -24.1777,29.2021 -37.3657,41.1338 -3.562,3.3506 -7.1729,6.6484 -10.833,9.8906 -3.665,3.248 -8.5322,7.4873 -14.6011,12.7178 -2.9341,2.5117 -5.8091,5.0234 -8.6353,7.5361 -2.8257,2.5117 -5.7056,4.9209 -8.6348,7.2217 -1.8843,1.6777 -4.3472,3.8223 -7.3789,6.4365 -3.0371,2.6201 -6.334,5.4951 -9.8911,8.6357 3.9741,-2.0908 7.3789,-3.9746 10.2051,-5.6523 2.8257,-1.6729 5.4409,-3.2969 7.8501,-4.8672 2.4038,-1.5703 4.813,-3.1396 7.2217,-4.71 2.4043,-1.5703 5.0732,-3.5029 8.0073,-5.8086 11.3037,-7.9531 22.2397,-16.4854 32.813,-25.5918 10.5679,-9.1055 20.5669,-18.3682 29.9868,-27.7881 4.813,-5.0244 9.9941,-10.4658 15.543,-16.3281 5.5439,-5.8584 10.936,-11.7217 16.1709,-17.584 5.23,-5.8584 10.0972,-11.5107 14.6011,-16.9561 4.499,-5.4414 8.3213,-10.1514 11.4609,-14.1299 l 39.564,-51.8105 c 1.6738,-2.0898 3.1895,-4.082 4.5527,-5.9658 1.3594,-1.8838 2.875,-3.9736 4.5527,-6.2803 2.5117,-3.1396 4.082,-5.127 4.7109,-5.9658 0.627,-0.834 1.1484,-1.5703 1.5703,-2.1982 2.0898,-2.9287 3.6602,-4.916 4.709,-5.9658 1.0449,-1.0449 1.9883,-1.5703 2.8262,-1.5703 1.8848,0 2.8262,0.9424 2.8262,2.8262 0,0.4219 -0.1074,1.0498 -0.3145,1.8838 -0.2109,0.8398 -0.7363,2.252 -1.5703,4.2393 -0.8379,1.9922 -1.9375,4.6611 -3.2969,8.0068 -1.3633,3.3516 -3.0898,7.7471 -5.1797,13.1885 -1.6777,3.9785 -3.248,7.8496 -4.7109,11.6182 -1.4668,3.7676 -3.0371,7.5361 -4.709,11.3037 -1.6777,4.6074 -2.8262,7.8008 -3.4551,9.5771 -0.627,1.7812 -1.4668,3.8223 -2.5117,6.123 l -22.6074,61.2295 c -2.3066,6.2803 -4.6074,12.5605 -6.9082,18.8398 -2.3062,6.2803 -4.6074,12.457 -6.9082,18.5264 -1.6777,5.0244 -3.0908,9.2627 -4.2393,12.7168 -1.1528,3.4541 -2.252,6.9082 -3.2969,10.3623 -1.0498,3.4541 -2.1489,7.1729 -3.2969,11.1475 -1.1528,3.9785 -2.4629,8.8994 -3.9248,14.7578 3.9736,-8.1641 7.4277,-15.1211 10.3618,-20.8809 2.9292,-5.7559 5.4951,-10.7793 7.6929,-15.0723 2.1982,-4.2881 4.1855,-8.1641 5.9668,-11.6182 1.7754,-3.4541 3.7129,-7.0654 5.8086,-10.833 10.0469,-17.373 20.1445,-33.1758 30.3008,-47.4141 10.1504,-14.2334 20.1445,-26.376 29.9863,-36.4238 5.2305,-5.4414 10.2539,-10.0967 15.0723,-13.9727 4.8125,-3.8711 10.3633,-7.8994 16.6426,-12.0898 l 1.5703,2.5127 c -7.3301,4.8174 -14.3418,10.2051 -21.0391,16.1709 -6.7012,5.9658 -14.1289,13.7666 -22.293,23.3926 -5.4473,6.2803 -10.7305,12.9287 -15.8574,19.9395 -5.1328,7.0156 -10.5195,14.915 -16.1719,23.707 -4.3945,6.9082 -8.5859,13.7666 -12.5586,20.5664 -3.9805,6.8057 -7.1191,12.4033 -9.4199,16.7998 l -13.5029,27.0039 c -1.6777,3.1396 -2.9829,5.8086 -3.9248,8.0068 -0.9419,2.1982 -1.624,3.8223 -2.041,4.8672 l -3.7681,8.4775 c -1.4668,3.3457 -3.248,5.0244 -5.3379,5.0244 -2.0947,0 -4.082,-1.4668 -5.9658,-4.3965 -6.2803,-8.3701 -9.4204,-20.5127 -9.4204,-36.4238 0,-13.6055 2.4043,-27.0039 7.2222,-40.1924 2.9292,-8.3701 8.3213,-19.2568 16.1709,-32.6553 7.8501,-13.3945 17.9468,-29.3057 30.3003,-47.7285 4.8145,-7.1143 8.6855,-12.874 11.6191,-17.2695 2.9297,-4.3965 5.4941,-8.3213 7.6934,-11.7754 2.1973,-3.4541 4.2871,-6.957 6.2793,-10.5186 1.9863,-3.5576 4.4453,-8.0566 7.3789,-13.502 l -15.0723,19.7812 z"
         id="path1" />
      <path
         d="m 639.861,152.0634 c -3.7676,6.4902 -7.6436,13.1387 -11.6182,19.9385 -3.9785,6.8057 -7.9033,13.7129 -11.7744,20.7246 -3.876,7.0156 -7.3301,13.502 -10.3623,19.4678 -3.0371,5.9658 -5.4951,11.2549 -7.3789,15.8564 -1.8838,4.6074 -2.8262,7.958 -2.8262,10.0488 0,2.3057 1.2559,3.4531 3.7686,3.4531 4.1846,0 9.4199,-2.6689 15.6992,-8.0068 6.2803,-5.3379 12.874,-12.9229 19.7822,-22.7646 l 11.9316,-16.3281 2.5127,1.8838 -11.9326,16.3281 c -9.0029,11.9326 -16.6953,20.4639 -23.0791,25.5908 -6.3877,5.1318 -12.8242,7.6934 -19.3105,7.6934 -5.6523,0 -10.1562,-2.0947 -13.502,-6.2803 -3.3506,-4.1846 -5.0244,-9.7334 -5.0244,-16.6416 0,-2.5117 0.417,-5.4414 1.2568,-8.792 0.834,-3.3467 2.5605,-8.0068 5.1807,-13.9727 2.6152,-5.9668 6.4365,-13.5518 11.4609,-22.7656 5.0244,-9.209 11.6182,-20.9297 19.7822,-35.168 -5.6523,4.8184 -11.8828,11.3584 -18.6836,19.625 -6.8047,8.2725 -15.3369,19.7334 -25.5908,34.3828 l -2.5117,-1.8838 c 6.2803,-8.998 11.667,-16.4854 16.1709,-22.4512 4.499,-5.9658 8.5273,-11.0391 12.0889,-15.2285 3.5566,-4.1855 6.7998,-7.7959 9.7344,-10.833 2.9287,-3.0322 5.9658,-6.0156 9.1055,-8.9492 l 35.168,-1.8838 c -2.9336,4.8174 -6.2793,10.4697 -10.0479,16.9561 z m 36.4238,-71.5918 c 0,5.6514 -1.9375,10.627 -5.8086,14.9141 -3.876,4.293 -8.3213,6.4375 -13.3447,6.4375 -3.7686,0 -6.9082,-1.3594 -9.4199,-4.082 -2.5127,-2.7178 -3.7686,-6.1719 -3.7686,-10.3623 0,-2.7178 0.5205,-5.3867 1.5703,-8.0068 1.0449,-2.6152 2.5117,-4.916 4.3955,-6.9082 1.8848,-1.9863 3.9746,-3.6104 6.2803,-4.8662 2.3008,-1.2568 4.71,-1.8848 7.2217,-1.8848 3.7686,0 6.8545,1.4131 9.2637,4.2393 2.4033,2.8262 3.6104,6.334 3.6104,10.5195 z"
         id="path2" />
      <path
         d="m 709.57,112.1855 c 4.6016,-7.9531 8.6836,-15.0723 12.2451,-21.3525 3.5576,-6.2803 7.0117,-12.2949 10.3623,-18.0547 3.3457,-5.7549 6.9082,-11.7207 10.6758,-17.8984 3.7686,-6.1719 8.1641,-13.2363 13.1885,-21.1943 l 30.458,-2.5127 c -2.0947,3.7686 -5.8096,10.1562 -11.1475,19.1543 -5.3379,9.0029 -11.5146,19.5225 -18.5254,31.5566 -7.0166,12.04 -14.498,24.9141 -22.4512,38.6221 -7.958,13.7129 -15.6514,27.2148 -23.0791,40.5068 -7.4326,13.2959 -14.2383,25.8018 -20.4102,37.5225 -6.1768,11.7256 -10.9404,21.46 -14.2871,29.2021 -1.0498,2.3057 -1.8838,4.3955 -2.5117,6.2803 -0.6279,1.8838 -0.9424,3.3506 -0.9424,4.3955 0,2.0947 1.2559,3.1396 3.7686,3.1396 4.1846,0 9.3662,-2.7178 15.543,-8.1631 6.1719,-5.4414 12.7168,-12.9775 19.625,-22.6084 l 11.9316,-16.3281 2.5117,1.8838 -11.9316,16.3281 c -8.792,11.9326 -16.4355,20.4639 -22.9219,25.5908 -6.4912,5.1318 -12.874,7.6934 -19.1543,7.6934 -5.2344,0 -9.4199,-1.9922 -12.5596,-5.9658 -3.1406,-3.9746 -4.71,-9.209 -4.71,-15.7002 v -3.9248 c 0,-1.3594 0.3633,-3.2969 1.0986,-5.8096 0.7314,-2.5117 1.8838,-5.7549 3.4541,-9.7334 1.5703,-3.9746 3.9248,-9.1553 7.0654,-15.543 3.1396,-6.3828 7.2217,-14.1299 12.2461,-23.2363 5.0234,-9.1055 11.1953,-20.042 18.5254,-32.8125 -1.2559,1.4668 -3.8223,4.6602 -7.6924,9.5762 -3.876,4.9209 -8.2188,10.5195 -13.0312,16.7998 -4.8184,6.2793 -9.7344,12.7705 -14.7578,19.4678 -5.0244,6.7021 -9.2139,12.457 -12.5605,17.2695 l -2.5117,-1.8838 c 2.7178,-3.9736 5.9121,-8.4775 9.5771,-13.502 3.6602,-5.0244 7.5361,-10.2051 11.6182,-15.543 4.0821,-5.3379 8.2129,-10.6758 12.4023,-16.0137 4.1855,-5.3379 8.1641,-10.4111 11.9326,-15.2295 3.7676,-4.8125 7.1133,-9.1055 10.0479,-12.874 2.9287,-3.7676 5.2295,-6.7998 6.9082,-9.1055 z"
         id="path3" />
      <path
         d="m 786.4997,112.1855 c 4.6016,-7.9531 8.6836,-15.0723 12.2451,-21.3525 3.5576,-6.2803 7.0117,-12.2949 10.3623,-18.0547 3.3457,-5.7549 6.9082,-11.7207 10.6758,-17.8984 3.7686,-6.1719 8.1641,-13.2363 13.1885,-21.1943 l 30.458,-2.5127 c -2.0947,3.7686 -5.8096,10.1562 -11.1475,19.1543 -5.3379,9.0029 -11.5146,19.5225 -18.5254,31.5566 -7.0166,12.04 -14.498,24.9141 -22.4512,38.6221 -7.958,13.7129 -15.6514,27.2148 -23.0791,40.5068 -7.4326,13.2959 -14.2383,25.8018 -20.4102,37.5225 -6.1768,11.7256 -10.9404,21.46 -14.2871,29.2021 -1.0498,2.3057 -1.8838,4.3955 -2.5117,6.2803 -0.6279,1.8838 -0.9424,3.3506 -0.9424,4.3955 0,2.0947 1.2559,3.1396 3.7686,3.1396 4.1846,0 9.3662,-2.7178 15.543,-8.1631 6.1719,-5.4414 12.7168,-12.9775 19.625,-22.6084 l 11.9316,-16.3281 2.5117,1.8838 -11.9316,16.3281 c -8.792,11.9326 -16.4355,20.4639 -22.9219,25.5908 -6.4912,5.1318 -12.874,7.6934 -19.1543,7.6934 -5.2344,0 -9.4199,-1.9922 -12.5596,-5.9658 -3.1406,-3.9746 -4.71,-9.209 -4.71,-15.7002 v -3.9248 c 0,-1.3594 0.3633,-3.2969 1.0986,-5.8096 0.7314,-2.5117 1.8838,-5.7549 3.4541,-9.7334 1.5703,-3.9746 3.9248,-9.1553 7.0654,-15.543 3.1396,-6.3828 7.2217,-14.1299 12.2461,-23.2363 5.0234,-9.1055 11.1953,-20.042 18.5254,-32.8125 -1.2559,1.4668 -3.8223,4.6602 -7.6924,9.5762 -3.876,4.9209 -8.2188,10.5195 -13.0312,16.7998 -4.8184,6.2793 -9.7344,12.7705 -14.7578,19.4678 -5.0244,6.7021 -9.2139,12.457 -12.5605,17.2695 l -2.5117,-1.8838 c 2.7178,-3.9736 5.9121,-8.4775 9.5771,-13.502 3.6602,-5.0244 7.5361,-10.2051 11.6182,-15.543 4.0821,-5.3379 8.2129,-10.6758 12.4023,-16.0137 4.1855,-5.3379 8.1641,-10.4111 11.9326,-15.2295 3.7676,-4.8125 7.1133,-9.1055 10.0479,-12.874 2.9287,-3.7676 5.2295,-6.7998 6.9082,-9.1055 z"
         id="path4" />
      <path
         d="m 873.1637,152.0634 c -3.7676,6.4902 -7.6436,13.1387 -11.6182,19.9385 -3.9785,6.8057 -7.9033,13.7129 -11.7744,20.7246 -3.876,7.0156 -7.3301,13.502 -10.3623,19.4678 -3.0371,5.9658 -5.4951,11.2549 -7.3789,15.8564 -1.8838,4.6074 -2.8262,7.958 -2.8262,10.0488 0,2.3057 1.2559,3.4531 3.7686,3.4531 4.1846,0 9.4199,-2.6689 15.6992,-8.0068 6.2803,-5.3379 12.874,-12.9229 19.7822,-22.7646 l 11.9316,-16.3281 2.5127,1.8838 -11.9326,16.3281 c -9.0029,11.9326 -16.6953,20.4639 -23.0791,25.5908 -6.3877,5.1318 -12.8242,7.6934 -19.3105,7.6934 -5.6523,0 -10.1562,-2.0947 -13.502,-6.2803 -3.3506,-4.1846 -5.0244,-9.7334 -5.0244,-16.6416 0,-2.5117 0.417,-5.4414 1.2568,-8.792 0.834,-3.3467 2.5605,-8.0068 5.1807,-13.9727 2.6152,-5.9668 6.4365,-13.5518 11.4609,-22.7656 5.0244,-9.209 11.6182,-20.9297 19.7822,-35.168 -5.6523,4.8184 -11.8828,11.3584 -18.6836,19.625 -6.8047,8.2725 -15.3369,19.7334 -25.5908,34.3828 l -2.5117,-1.8838 c 6.2803,-8.998 11.667,-16.4854 16.1709,-22.4512 4.499,-5.9658 8.5273,-11.0391 12.0889,-15.2285 3.5566,-4.1855 6.7998,-7.7959 9.7344,-10.833 2.9287,-3.0322 5.9658,-6.0156 9.1055,-8.9492 l 35.168,-1.8838 c -2.9336,4.8174 -6.2793,10.4697 -10.0479,16.9561 z m 36.4238,-71.5918 c 0,5.6514 -1.9375,10.627 -5.8086,14.9141 -3.876,4.293 -8.3213,6.4375 -13.3447,6.4375 -3.7686,0 -6.9082,-1.3594 -9.4199,-4.082 -2.5127,-2.7178 -3.7686,-6.1719 -3.7686,-10.3623 0,-2.7178 0.5205,-5.3867 1.5703,-8.0068 1.0449,-2.6152 2.5117,-4.916 4.3955,-6.9082 1.8848,-1.9863 3.9746,-3.6104 6.2803,-4.8662 2.3008,-1.2568 4.71,-1.8848 7.2217,-1.8848 3.7686,0 6.8545,1.4131 9.2637,4.2393 2.4033,2.8262 3.6104,6.334 3.6104,10.5195 z"
         id="path5" />
      <path
         d="m 1014.777,154.2607 c -3.5615,6.2803 -6.6475,11.8291 -9.2627,16.6426 -2.6201,4.8174 -5.0244,9.3164 -7.2217,13.502 -2.1982,4.1895 -4.2393,8.2178 -6.123,12.0889 -1.8848,3.876 -3.876,8.0068 -5.9668,12.4033 -4.8174,10.0479 -8.1143,17.167 -9.8906,21.3516 -1.7812,4.1904 -2.6689,7.0166 -2.6689,8.4785 0,1.8838 1.2559,2.8252 3.7676,2.8252 9.627,0 21.7695,-10.2539 36.4248,-30.7715 l 10.6758,-14.4443 1.2559,-1.8838 2.5117,1.8838 -1.2559,1.8848 -10.6758,14.4434 c -8.792,11.9326 -16.4854,20.4639 -23.0791,25.5908 -6.5938,5.1318 -13.2422,7.6934 -19.9385,7.6934 -5.4463,0 -9.7881,-1.8838 -13.0312,-5.6523 -3.248,-3.7676 -4.8672,-8.8945 -4.8672,-15.3857 0,-2.3008 0.3135,-5.2295 0.9424,-8.792 0.6279,-3.5566 1.7754,-8.0557 3.4531,-13.502 -10.4697,15.7002 -19.4189,26.8467 -26.8467,33.4414 -7.4326,6.5938 -14.8115,9.8906 -22.1367,9.8906 -7.7471,0 -14.0811,-2.9287 -18.9971,-8.792 -4.9209,-5.8584 -7.3789,-13.502 -7.3789,-22.9219 0,-5.2305 0.5742,-10.0479 1.7266,-14.4443 1.1484,-4.3955 3.2969,-9.9395 6.4375,-16.6416 -1.4668,1.6777 -2.5664,3.0908 -3.2969,4.2393 -0.7363,1.1523 -1.3105,1.9375 -1.7275,2.3545 l -4.71,6.5938 -2.5117,-1.8838 c 13.6045,-19.6738 27.0527,-34.5889 40.3486,-44.7451 13.291,-10.1504 26.1113,-15.2285 38.4648,-15.2285 15.9062,0 23.8643,6.9082 23.8643,20.7236 l 9.1064,-15.0723 33.5977,-5.3379 -10.9902,19.4678 z m -34.8535,-0.6279 c 0,-3.7676 -1.207,-6.957 -3.6113,-9.5762 -2.4092,-2.6152 -5.3916,-3.9258 -8.9492,-3.9258 -2.9336,0 -6.0732,1.4131 -9.4199,4.2393 -3.3506,2.8262 -6.8047,6.4375 -10.3613,10.833 -3.5625,4.3965 -7.0654,9.2627 -10.5195,14.6016 -3.4541,5.3379 -6.751,10.627 -9.8906,15.8564 -6.9082,11.9316 -12.3545,22.1914 -16.3281,30.7725 -3.9795,8.5859 -5.9658,14.6543 -5.9658,18.2119 0,4.6064 2.8252,6.9072 8.4775,6.9072 5.0244,0 11.1963,-3.2422 18.5264,-9.7334 7.3252,-6.4863 14.5469,-15.0723 21.666,-25.748 4.1846,-6.2803 9.9395,-16.1172 17.2695,-29.5156 3.3467,-6.0693 5.7012,-10.833 7.0654,-14.2871 1.3584,-3.4541 2.041,-6.3291 2.041,-8.6357 z"
         id="path6" />
      <path
         d="m 1040.5251,224.2831 c 3.9736,-6.2803 7.4824,-12.0352 10.5195,-17.2695 3.0312,-5.2305 5.8086,-10.2051 8.3203,-14.915 2.5117,-4.7099 4.9707,-9.4209 7.3789,-14.1309 2.4043,-4.71 4.8672,-9.8906 7.3789,-15.543 2.7188,-5.6514 4.6025,-9.9395 5.6523,-12.874 1.0449,-2.9287 1.5703,-5.2295 1.5703,-6.9072 0,-1.8848 -0.7363,-2.8262 -2.1982,-2.8262 -3.1396,0 -8.4775,3.9785 -16.0137,11.9316 -2.3066,2.3057 -4.5039,4.6611 -6.5947,7.0654 -2.0947,2.4092 -4.4492,5.2891 -7.0645,8.6348 -2.6201,3.3506 -5.6035,7.3301 -8.9492,11.9316 -3.3506,4.6074 -7.4326,10.2598 -12.2461,16.9561 l -2.5117,-1.8838 c 3.7676,-5.4414 7.0645,-10.0967 9.8906,-13.9727 2.8262,-3.8711 5.3379,-7.2227 7.5361,-10.0479 2.1982,-2.8262 4.1309,-5.3389 5.8096,-7.5361 1.6729,-2.1982 3.4531,-4.3428 5.3379,-6.4375 6.6963,-7.5361 12.4521,-13.0312 17.2695,-16.4844 4.8135,-3.4541 9.3125,-5.1816 13.502,-5.1816 4.8135,0 8.6348,1.7812 11.4609,5.3379 2.8262,3.5625 4.2393,8.4785 4.2393,14.7588 0,6.4902 -1.3096,13.3447 -3.9248,20.5664 -2.6201,7.2217 -7.0654,16.5928 -13.3457,28.1035 l -9.1055,16.0137 c 2.9287,-4.1846 5.4414,-7.7959 7.5361,-10.833 2.0898,-3.0322 4.1309,-5.9121 6.123,-8.6348 1.9863,-2.7188 3.9736,-5.5439 5.9658,-8.4785 1.9873,-2.9287 4.4453,-6.2793 7.3789,-10.0479 4.3965,-5.8584 8.2666,-10.9355 11.6182,-15.2285 3.3457,-4.2881 6.3828,-7.9531 9.1055,-10.9902 2.7188,-3.0322 5.1816,-5.5986 7.3799,-7.6934 2.1973,-2.0898 4.4443,-3.9736 6.751,-5.6514 5.8574,-4.3965 11.3037,-6.5947 16.3271,-6.5947 5.2305,0 9.2637,1.9385 12.0898,5.8096 2.8252,3.876 4.2383,9.2627 4.2383,16.1709 0,3.7676 -0.4219,7.8008 -1.2559,12.0889 -0.8389,4.293 -2.4092,9.1602 -4.71,14.6006 -1.2559,3.5625 -3.0908,7.8506 -5.4951,12.874 -2.4092,5.0244 -5.7061,11.5156 -9.8906,19.4688 18.6289,-28.4668 33.9121,-49.0332 45.8438,-61.7012 11.9316,-12.6631 21.8721,-18.9971 29.8301,-18.9971 5.4414,0 9.7832,2.1484 13.0312,6.4365 3.2432,4.293 4.8672,9.7881 4.8672,16.4854 0,3.1396 -0.4219,6.751 -1.2568,10.833 -0.8389,4.082 -1.8838,8.0068 -3.1396,11.7754 -1.2559,3.5615 -3.248,7.8008 -5.9658,12.7168 -2.7227,4.9209 -6.4912,11.2549 -11.3037,18.9971 l -7.8506,12.874 c -2.3057,3.5615 -3.876,6.1768 -4.71,7.8496 -0.8389,1.6777 -1.2559,3.0371 -1.2559,4.082 0,2.5117 1.4619,3.7676 4.3965,3.7676 4.1846,0 9.3652,-2.6689 15.543,-8.0068 6.1719,-5.3379 12.8193,-12.9229 19.9385,-22.7646 l 10.6758,-14.4443 1.2559,-1.8838 2.5127,1.8838 -1.2559,1.8848 -10.6768,14.4434 c -8.792,11.9326 -16.4355,20.4639 -22.9219,25.5908 -6.4912,5.1318 -12.7705,7.6934 -18.8398,7.6934 -5.4463,0 -9.7881,-2.1494 -13.0312,-6.4365 -3.248,-4.2881 -4.8662,-10.0977 -4.8662,-17.4277 0,-6.9082 1.2559,-14.0762 3.7676,-21.5088 2.5117,-7.4277 5.9658,-14.4932 10.3623,-21.1953 l 14.7578,-22.2939 c 2.3008,-3.3457 4.082,-6.2793 5.3379,-8.792 1.2559,-2.5117 1.8838,-4.2881 1.8838,-5.3379 0,-2.3008 -1.3643,-3.4541 -4.082,-3.4541 -5.4453,0 -13.3984,5.4463 -23.8643,16.3281 -5.4453,5.4463 -11.4609,12.5107 -18.0547,21.1953 -6.5938,8.6885 -12.9277,17.7412 -18.9971,27.1611 -1.8838,2.9336 -3.665,5.7061 -5.3379,8.3203 -1.6777,2.6201 -3.4053,5.3926 -5.1807,8.3213 -1.7812,2.9336 -3.665,6.123 -5.6523,9.5771 -1.9922,3.4541 -4.3467,7.4873 -7.0645,12.0889 l -35.7969,2.1982 c 2.7188,-4.6025 5.1279,-8.5811 7.2227,-11.9326 2.0898,-3.3457 3.9736,-6.4854 5.6514,-9.4199 1.6738,-2.9287 3.2432,-5.8086 4.71,-8.6348 1.4629,-2.8262 3.1406,-6.0146 5.0244,-9.5771 7.9531,-15.0713 14.0762,-27.8916 18.3691,-38.4648 4.2881,-10.5684 6.4365,-17.8438 6.4365,-21.8232 0,-2.3008 -0.8389,-3.4531 -2.5117,-3.4531 -1.8838,0 -4.8174,1.4668 -8.792,4.3955 -3.9785,2.9336 -7.7471,6.4912 -11.3037,10.6758 -1.8838,2.0947 -3.665,4.1904 -5.3379,6.2803 -1.6787,2.0947 -3.4541,4.3955 -5.3379,6.9082 -1.8848,2.5117 -4.0332,5.3916 -6.4375,8.6348 -2.4092,3.248 -5.2891,7.0654 -8.6348,11.4609 -3.5625,5.0244 -6.7021,9.4199 -9.4199,13.1885 -2.7236,3.7676 -5.3926,7.5352 -8.0068,11.3037 -2.6201,3.7676 -5.3389,7.8496 -8.1641,12.2461 -2.8262,4.3955 -6.2314,9.6309 -10.2051,15.7002 l -35.4824,2.1973 12.2461,-20.0957 z"
         id="path7" />
      <path
         d="m 1260.0114,196.3369 -2.5117,-1.8838 48.6699,-67.1963 c 0.417,-5.4404 1.8301,-9.8906 4.2393,-13.3447 2.4033,-3.4541 5.1807,-5.1807 8.3203,-5.1807 1.8848,0 2.8262,0.7354 2.8262,2.1982 0,0.4219 -0.3135,1.0498 -0.9414,1.8838 -0.6279,0.8389 -2.1982,2.4092 -4.71,4.71 -4.1904,3.5615 -6.2803,7.6436 -6.2803,12.2461 0,3.5615 0.6768,7.0645 2.041,10.5186 1.3584,3.4541 3.8164,8.4287 7.3789,14.915 5.0234,9.2139 8.5811,16.7988 10.6758,22.7646 2.0898,5.9668 3.1396,12.1973 3.1396,18.6836 0,4.6064 -0.4219,8.8457 -1.2559,12.7168 -0.8389,3.876 -2.4082,8.5322 -4.71,13.9727 1.4619,-1.6729 2.9297,-3.3457 4.3965,-5.0234 1.4619,-1.6729 2.9824,-3.5576 4.5527,-5.6523 1.5703,-2.0898 3.4541,-4.6562 5.6523,-7.6924 2.1973,-3.0322 4.8672,-6.8545 8.0068,-11.4619 l 1.5703,-1.5693 2.5117,1.5693 -1.2559,1.8848 c -2.5127,3.7676 -5.4951,7.958 -8.9492,12.5596 -3.4541,4.6074 -6.334,8.375 -8.6348,11.3037 -14.0273,17.7949 -29.4131,26.6904 -46.1582,26.6904 -4.8184,0 -9.2627,-0.7363 -13.3447,-2.1982 -4.082,-1.4619 -7.5898,-3.4541 -10.5195,-5.9658 -2.9336,-2.5117 -5.2344,-5.4951 -6.9082,-8.9492 -1.6729,-3.4541 -2.5117,-7.168 -2.5117,-11.1465 0,-4.8135 1.207,-8.792 3.6113,-11.9326 2.4043,-3.1396 5.4951,-4.71 9.2627,-4.71 3.3457,0 6.2266,1.207 8.6348,3.6113 2.4043,2.4092 3.6113,5.3916 3.6113,8.9492 0,5.4453 -3.0371,9.6309 -9.1064,12.5596 -2.3057,1.0498 -3.876,1.9922 -4.71,2.8262 -0.8389,0.8389 -1.2559,1.7812 -1.2559,2.8262 0,1.8838 0.9424,3.5615 2.8262,5.0234 1.8838,1.4678 3.9746,2.1982 6.2803,2.1982 2.9287,0 5.5439,-0.9414 7.8496,-2.8262 2.3008,-1.8838 4.8135,-4.916 7.5361,-9.1055 12.3486,-19.8848 18.5264,-41.4482 18.5264,-64.6846 0,-1.8838 -0.1084,-4.2881 -0.3145,-7.2217 -0.2109,-2.9287 -0.4707,-5.8584 -0.7852,-8.792 -0.3135,-2.9287 -0.5791,-5.7012 -0.7852,-8.3213 -0.2109,-2.6143 -0.3135,-4.4443 -0.3135,-5.4951 l -46.1582,63.7422 z"
         id="path8" />
    </g>
    <path
       class="cls-1"
       d="m 420.96329,-185.04149 c -13.8071,0 -24.99998,11.1929 -24.99998,25 0,13.80711 11.19288,25 24.99998,25 13.80711,0 25,-11.19287 25,-25 0,-13.80712 -11.19288,-25 -25,-25 z m 7.3471,39.17752 -7.3471,-17.73202 -7.3471,17.73202 -10.98179,-25.34738 10.61408,10.38173 6.42676,-5.87505 -1.57067,-3.79079 2.85872,2.61332 2.85872,-2.61332 -1.57067,3.79079 6.42676,5.87505 10.61409,-10.38173 -10.98182,25.34738 z"
       id="path9"
       style="stroke-width:0.185617" />
  </g>
</svg>
