<?xml version="1.0" encoding="UTF-8" standalone="no"?>
<!-- Generator: Adobe Illustrator 14.0.0, SVG Export Plug-In . SVG Version: 6.00 Build 43363)  -->

<svg
   version="1.1"
   id="Layer_1"
   x="0px"
   y="0px"
   width="274.00415"
   height="64.372841"
   viewBox="0 0 274.00415 64.37284"
   enable-background="new 0 0 476.5 89.097"
   xml:space="preserve"
   sodipodi:docname="logo_konami.svg"
   inkscape:version="1.4.2 (2aeb623e1d, 2025-05-12)"
   xmlns:inkscape="http://www.inkscape.org/namespaces/inkscape"
   xmlns:sodipodi="http://sodipodi.sourceforge.net/DTD/sodipodi-0.dtd"
   xmlns="http://www.w3.org/2000/svg"
   xmlns:svg="http://www.w3.org/2000/svg"><defs
   id="defs3182">
	
	
	
	
	
	
	
	
	
	
</defs><sodipodi:namedview
   id="namedview3180"
   pagecolor="#ffffff"
   bordercolor="#000000"
   borderopacity="0.25"
   inkscape:showpageshadow="2"
   inkscape:pageopacity="0.0"
   inkscape:pagecheckerboard="0"
   inkscape:deskcolor="#d1d1d1"
   showgrid="false"
   inkscape:zoom="3.5911824"
   inkscape:cx="134.21763"
   inkscape:cy="32.440569"
   inkscape:window-width="1854"
   inkscape:window-height="1011"
   inkscape:window-x="0"
   inkscape:window-y="0"
   inkscape:window-maximized="1"
   inkscape:current-layer="Layer_1" />
<path
   id="path2"
   style="baseline-shift:baseline;clip-rule:evenodd;display:inline;overflow:visible;vector-effect:none;fill:#ffffff;fill-rule:evenodd;stroke:none;stroke-width:14;stroke-linecap:round;stroke-linejoin:round;stroke-dasharray:none;enable-background:accumulate;stop-color:#000000"
   d="m 44.84772,0.00611952 c -3.17521,-0.061 -6.25865,0.33091 -9.19531,1.31639998 -2.93409,0.98427 -5.53662,3.07982 -6.87891,5.31836 -1.33986,2.23447 -1.58419,4.2310905 -1.69922,4.8086005 -0.2307,1.14745 -0.28122,1.21602 -0.52148,1.7871 l -0.002,0.01 c -0.24138,0.57571 -0.51199,1.12653 -0.73243,1.51563 -0.22184,0.39089 -0.37384,0.60013 -0.50976,0.75976 -0.1184,0.13905 -0.26543,0.26919 -0.41602,0.39258 -0.35878,0.23346 -0.72741,0.4662 -0.72461,0.46484 -0.0163,0.008 -0.0326,0.0156 -0.0488,0.0234 -0.0941,0.0465 -1.02103,0.29606 -2.32032,0.66211 -1.51376,0.26843 -3.51289,0.51265 -5.93554,1.21875 -1.4462,0.41804 -2.83735,1.00486 -4.14649,1.75586 -1.318593,0.75505 -2.5291433,1.66228 -3.6171933,2.69922 l -0.004,0.004 c -1.09131,1.04187 -2.04638,2.20886 -2.85352,3.47266 -0.3011,0.46607 -0.80565,1.25292 -1.3164,2.25977 l -0.002,0.002 c -0.51548,1.01603 -0.96979,2.0567 -1.41406,3.05859 -0.0522,0.11906 -0.10102,0.23955 -0.14648,0.36133 -0.8185,2.1644 -1.52287999,4.34662 -2.11718999,6.54297 -1.12008,4.13824 1.70889999,8.30211 5.96874999,8.78516 2.5875,0.29267 5.0881433,0.71501 7.5957033,0.96484 -0.82216,2.13882 -1.45206,4.21913 -1.99609,6.20898 -1.13143,4.14277 1.6995,8.318281 5.9668,8.800789 6.1798,0.698509 11.86039,2.142584 18.33984,0.193359 3.23887,-0.974357 6.21817,-3.829108 7.32226,-6.470708 0.85677,-2.04987 0.99204,-3.59352 1.06446,-4.84961 0.3878,-1.05755 0.87261,-2.07482 1.65039,-3.1582 0.0164,-0.0233 0.0327,-0.0468 0.0488,-0.0703 0.16126,-0.23063 0.34827,-0.44261 0.54492,-0.6211 l 0.01,-0.008 c 0.20053,-0.18275 0.431,-0.3519 0.67774,-0.49219 0.19048,-0.10831 0.40201,-0.18677 0.61133,-0.26172 l 2.19921,-0.42382 2.75977,-0.38477 h 0.002 c 2.01715,-0.27783 4.07193,-0.90541 6.03711,-1.92969 l 0.006,-0.002 c 0.26914,-0.14062 0.54757,-0.29518 0.83203,-0.46484 l -0.46679,1.24804 c -1.70748,4.57361 1.67274,9.44652 6.55468,9.44922 l 8.49805,0.006 c 2.25098,-0.11626 4.30829,-1.30921 5.52734,-3.20508 1.19963,1.86576 3.21249,3.0526 5.42579,3.19922 l 81.12719,0.006 c 2.30954,-1.8e-4 4.47038,-1.13943 5.77539,-3.04492 l 2.08594,-3.04688 c 0.43187,3.35058 3.19491,5.9148 6.56836,6.09571 l 61.41015,-0.0019 c 2.9104,-3.6e-4 5.51701,-1.80134 6.54688,-4.52343 l 8.5,-22.46485 c 2.70279,1.95731 6.87603,2.55987 9.86523,1.49414 0.0562,-0.0201 0.11225,-0.0409 0.16797,-0.0625 1.26721,-0.48891 2.4056,-1.20807 3.39258,-2.14453 0.0269,-0.0252 0.0536,-0.0506 0.0801,-0.0762 2.74698,-2.69094 3.78502,-7.38943 2.53125,-10.91992 -0.0162,-0.0183 -0.0325,-0.0366 -0.0488,-0.0547 7.8e-4,-0.0247 0.001,-0.0495 0.002,-0.0742 -0.4718,-1.25045 -1.17354,-2.38971 -2.08593,-3.37695 -0.0322,-0.0348 -0.0648,-0.0693 -0.0977,-0.10352 -1.90167,-1.97477 -4.7491,-3.0716105 -7.41992,-3.1679705 -0.89027,-0.0321 -1.7605,0.048 -2.57032,0.24219 -0.03,0.007 -0.0599,0.0141 -0.0898,0.0215 -0.94353,0.23936 -1.82683,0.6028505 -2.64844,1.0800705 -1.21085,-0.9064905 -2.68273,-1.3964305 -4.19531,-1.3964805 l -28.07617,0.00195 c -1.858,0.0835 -3.60641,0.9028805 -4.85938,2.2773505 -1.23767,-1.3615 -2.96158,-2.1810105 -4.79882,-2.2812505 l -78.31893,-0.00586 c -2.48564,-10e-6 -4.7849,1.3180005 -6.04102,3.4628905 -0.45272,-0.39025 -0.92941,-0.75483 -1.42969,-1.09375 l -0.004,-0.002 c -1.36264,-0.92175 -2.83919,-1.59008 -4.29102,-2.0566405 -0.009,-0.003 -0.0182,-0.007 -0.0273,-0.01 -2.84446,-0.90112 -48.71889,-0.30084 -48.71889,-0.30084 -2.92233,-10e-4 -5.53787,1.8132405 -6.56055,4.5507805 l -1.91406,5.12109 C 68.40968,18.26951 67.33739,17.68022 66.16979,17.38708 63.29118,16.6652 60.44397,16.18175 57.66393,16.0277 58.34167,14.12112 58.9799,12.20832 59.57994,10.29137 60.78045,6.4515895 58.50529,2.3923795 54.60338,1.4124695 51.29137,0.58225952 48.02273,0.06718952 44.84752,0.00621952 Z"
   sodipodi:nodetypes="scsccccsccccccccccccccccccsscccccscccccccccccccccccccsccccccscscccccccsccccccccccccss" /><g
   id="g1"
   transform="matrix(0.57406872,0,0,0.57406872,6.9256517,7.1864195)"><g
     id="g3413"><path
       fill-rule="evenodd"
       clip-rule="evenodd"
       fill="#f3ad2c"
       d="m 0,57.685201 c 10.768,1.218 21.535,2.438 27.064,0.774 5.528,-1.662 5.817,-6.209 6.106,-10.754 1.055,-3.295 2.611,-6.594 4.984,-9.899 0.796,-1.137 1.717,-2.186 2.743,-3.121 1.028,-0.937 2.161,-1.758 3.369,-2.444 1.21,-0.688 2.498,-1.242 3.829,-1.648 v 0 l 5.097,-0.979 5.141,-0.717 v 0 c 2.18,-0.303 4.401,-0.977 6.547,-2.095 1.021,-0.533 1.998,-1.148 3.108,-2.036 1.112,-0.891 2.356,-2.052 3.462,-3.33 1.108,-1.28 2.077,-2.678 2.894,-4.158 0.816,-1.482 1.479,-3.046 1.975,-4.662 1.295,-3.5850004 2.506,-7.1830004 3.636,-10.7930004 -9.363,-2.347 -20.381,-2.363 -26.165,-0.422 -5.784,1.939 -6.337,5.832 -6.868,8.483 -0.533,2.6510004 -1.042,4.0600004 -1.623,5.4410004 -0.579,1.381 -1.229,2.736 -1.91,3.938 -0.681,1.201 -1.394,2.254 -2.214,3.217 -0.82,0.963 -1.746,1.838 -2.753,2.606 -1.055,0.715 -2.111,1.429 -3.203,1.958 -2.166,1.07 -4.473,1.479 -6.733,2.124 -3.195,0.596 -6.455,0.991 -9.659,1.927 -1.586,0.458 -3.118,1.107 -4.55,1.929 -1.431,0.819 -2.761,1.814 -3.953,2.95 -1.192,1.138 -2.243,2.419 -3.127,3.806 -0.519,0.803 -1.037,1.606 -1.682,2.878 -0.646,1.273 -1.42,3.015 -2.192,4.756 -1.285,3.398 -2.39,6.823 -3.323,10.271 z"
       id="path3157" /><path
       fill-rule="evenodd"
       clip-rule="evenodd"
       fill="#eb302e"
       d="m 20.146,85.513201 c 10.767,1.217 21.536,2.437 27.064,0.774 5.528,-1.663 5.816,-6.207 6.106,-10.754 1.055,-3.295 2.613,-6.596 4.985,-9.9 0.795,-1.137 1.716,-2.187 2.745,-3.121 1.026,-0.935 2.159,-1.756 3.369,-2.444 1.21,-0.688 2.496,-1.241 3.829,-1.647 v 0 l 5.095,-0.979 5.141,-0.719 v 0 c 2.18,-0.3 4.402,-0.974 6.547,-2.092 1.022,-0.534 1.998,-1.148 3.108,-2.039 1.111,-0.888 2.356,-2.051 3.464,-3.33 1.106,-1.278 2.077,-2.678 2.892,-4.158 0.817,-1.48 1.479,-3.044 1.976,-4.659 1.294,-3.586 2.505,-7.184 3.635,-10.794 -9.363,-2.348 -20.38,-2.362 -26.166,-0.422 -5.784,1.939 -6.337,5.832 -6.868,8.483 -0.533,2.65 -1.043,4.059 -1.622,5.44 -0.58,1.381 -1.229,2.735 -1.911,3.938 -0.681,1.202 -1.395,2.252 -2.214,3.217 -0.819,0.961 -1.746,1.837 -2.752,2.606 -1.056,0.716 -2.112,1.429 -3.203,1.957 -2.167,1.072 -4.473,1.48 -6.734,2.125 -3.196,0.595 -6.454,0.991 -9.66,1.926 -1.586,0.46 -3.118,1.108 -4.549,1.928 -1.431,0.821 -2.762,1.814 -3.953,2.953 -2.689,2.528 -4.455,5.821 -5.887,8.807 -1.896,4.269 -3.251,8.566 -4.437,12.904 z"
       id="path3159" /></g><g
     id="g3409"
     transform="translate(-18,14.246624)"
     style="fill:#1a1a1a"><polygon
       fill-rule="evenodd"
       clip-rule="evenodd"
       fill="#8d9ba6"
       points="122.736,58.824 137.539,58.831 149.012,29.317 156.614,58.824 173.976,58.824 166.539,29.238 193.116,3.904 175.355,3.904 150.142,26.738 158.273,3.909 143.25,3.904 "
       id="polygon3161"
       transform="translate(-2,-1.9997994)"
       style="fill:#1a1a1a" /><path
       fill-rule="evenodd"
       clip-rule="evenodd"
       fill="#8d9ba6"
       d="m 232.467,11.210201 c -0.519,-1.4660004 -1.286,-2.8490004 -2.246,-4.0830004 -0.961,-1.234 -2.115,-2.32 -3.411,-3.198 -1.295,-0.876 -2.731,-1.545 -4.374,-2.073 -3.346,-1.06 -7.293,-1.546 -11.002,-1.47 -1.884,0.04 -3.764,0.222 -5.986,0.647 -2.223,0.424 -4.787,1.093 -7.194,2.133 -2.406,1.04 -4.658,2.454 -6.638,4.166 -1.979,1.711 -3.689,3.7230004 -4.95,5.4730004 -1.259,1.749 -2.07,3.235 -2.847,4.735 -0.775,1.5 -1.519,3.013 -2.199,4.554 -1.309,3.049 -2.523,6.002 -3.47,8.863 -0.45,1.419 -0.801,2.87 -1.056,4.337 -0.254,1.467 -0.41,2.95 -0.486,4.063 -0.076,1.114 -0.073,1.855 -0.033,2.596 0.038,0.74 0.111,1.479 0.208,2.215 0.094,0.74 0.212,1.478 0.627,2.663 0.414,1.186 1.123,2.815 2.119,4.262 0.996,1.447 2.278,2.705 3.74,3.696 1.463,0.991 3.104,1.716 4.973,2.242 3.787,1.051 8.239,1.362 12.411,1.114 2.111,-0.128 4.214,-0.411 6.515,-0.998 2.302,-0.588 4.799,-1.485 7.099,-2.747 2.301,-1.262 4.403,-2.888 6.195,-4.793 1.794,-1.903 3.278,-4.087 4.579,-6.479 1.302,-2.395 2.421,-4.997 3.486,-7.617 1.064,-2.621 2.074,-5.258 2.776,-7.218 0.702,-1.959 1.097,-3.239 1.396,-4.541 0.3,-1.304 0.507,-2.628 0.628,-3.961 0.246,-2.631 0.165,-5.617 -0.86,-8.581 z m -14.493,8.159 c -0.803,2.99 -1.606,5.979 -2.579,8.915 -0.973,2.936 -2.114,5.814 -3.255,8.694 -0.833,1.974 -1.979,3.985 -3.456,5.838 -0.981,1.228 -1.997,2.083 -3.116,2.715 -1.282,0.729 -2.623,1.127 -3.933,1.291 -1.994,0.249 -4.037,-0.049 -5.644,-0.781 -0.876,-0.406 -1.774,-1.019 -2.498,-1.801 -1.1,-1.215 -1.45,-2.484 -1.522,-3.697 -0.065,-1.378 0.098,-2.752 0.445,-4.084 1.639,-6.465 4.068,-12.897 7.456,-19.232 0.462,-0.919 1.056,-1.773 1.758,-2.526 0.702,-0.754 1.516,-1.408 2.404,-1.927 1.823,-1.042 3.659,-1.506 5.211,-1.616 2.325,-0.12 4.795,0.083 6.782,1.759 0.599,0.518 1.097,1.15 1.463,1.851 0.365,0.701 0.598,1.471 0.679,2.256 0.084,0.785 0.015,1.583 -0.195,2.345 z"
       id="path3163"
       style="fill:#1a1a1a" /><polygon
       fill-rule="evenodd"
       clip-rule="evenodd"
       fill="#8d9ba6"
       points="279.861,58.831 300.36,3.904 286.4,3.905 271.925,43.847 270.784,3.904 248.662,3.904 228.553,58.831 242.568,58.831 257.192,17.807 258.525,58.831 "
       id="polygon3165"
       transform="translate(-2,-1.9997994)"
       style="fill:#1a1a1a" /><path
       fill-rule="evenodd"
       clip-rule="evenodd"
       fill="#8d9ba6"
       d="m 321.375,45.918201 -0.308,10.921 h 14.369 L 336.415,1.9012006 H 317.091 L 281.016,56.834201 h 14.914 l 7.451,-10.882 z m 1.402,-31.043 -0.74,19.983 -11.351,0.029 z"
       id="path3167"
       style="fill:#1a1a1a" /><polygon
       fill-rule="evenodd"
       clip-rule="evenodd"
       fill="#8d9ba6"
       points="406.902,18.671 391.708,58.834 406.129,58.834 426.744,3.92 401.914,3.92 380.268,39.364 385.09,3.915 360.539,3.915 340.022,58.829 354.009,58.829 369.2,18.096 366.04,58.839 380.838,58.839 "
       id="polygon3169"
       transform="translate(-2,-1.9997994)"
       style="fill:#1a1a1a" /><polygon
       fill-rule="evenodd"
       clip-rule="evenodd"
       fill="#8d9ba6"
       points="415.814,58.836 430.041,58.836 450.82,3.916 436.391,3.916 "
       id="polygon3171"
       transform="translate(-2,-1.9997994)"
       style="fill:#1a1a1a" /><path
       fill="none"
       stroke="#ffffff"
       stroke-width="0.216"
       stroke-miterlimit="2.6131"
       d="m 470.697,5.7012006 c -0.266,-0.705 -0.668,-1.357 -1.18,-1.911 -1.639,-1.702 -3.723,-2.188 -5.775,-1.696 -0.678,0.172 -1.326,0.469 -1.902,0.868 -0.576,0.398 -1.08,0.902 -1.477,1.477 -0.811,1.167 -1.152,2.609 -0.984,3.973 0.082,0.692 0.291,1.368 0.613,1.9870004 0.326,0.619 0.764,1.179 1.285,1.645 1.791,1.53 3.865,1.875 6.064,1.091 0.705,-0.272 1.357,-0.684 1.904,-1.203 1.765,-1.729 2.245,-3.9980004 1.452,-6.2310004 m 0,0 v 0 m -1.939,5.5780004 c -0.467,0.46 -1.023,0.829 -1.631,1.077 -1.906,0.718 -3.686,0.439 -5.246,-0.837 -0.457,-0.392 -0.844,-0.864 -1.131,-1.391 -0.959,-1.8240004 -0.752,-3.6310004 0.199,-5.1310004 0.328,-0.502 0.748,-0.944 1.234,-1.3 0.484,-0.355 1.035,-0.625 1.615,-0.79 1.775,-0.476 3.582,-0.082 5.006,1.317 0.457,0.467 0.822,1.023 1.072,1.627 0.753,1.947 0.354,3.92 -1.118,5.4280004 m 0,0 v 0"
       id="path3173"
       style="fill:#1a1a1a;fill-opacity:1" /><path
       fill-rule="evenodd"
       clip-rule="evenodd"
       fill="#ffffff"
       d="m 467.338,8.3112006 c -0.236,-0.307 -0.508,-0.395 -0.777,-0.468 0.34,-0.079 0.857,-0.253 1.111,-0.875 0.217,-0.589 0.264,-1.253 -0.4,-1.965 -0.648,-0.623 -1.432,-0.543 -2.168,-0.56 v 0 l -2.467,0.002 0.008,6.5360004 1.377,0.006 v -2.6220004 0 c 0.625,0.07 1.299,-0.25 2.008,0.397 0.469,0.692 0.15,1.2430004 0.49,2.2190004 v 0 l 1.387,-0.002 v 0 c -0.407,-0.874 -0.042,-1.7370004 -0.569,-2.6680004 z m -1.324,-1.137 c -0.648,0.252 -1.328,0.091 -1.992,0.122 v 0 -1.737 0 c 0.678,0.044 1.299,-0.138 2.035,0.14 0.49,0.315 0.615,1.03 -0.043,1.475 z"
       id="path3175"
       style="fill:#1a1a1a;fill-opacity:1" /></g></g>
</svg>
