<?xml version="1.0" encoding="UTF-8" standalone="no"?>
<!-- Created with Inkscape (http://www.inkscape.org/) -->

<svg
   version="1.0"
   width="405.60547"
   height="64"
   id="svg2"
   sodipodi:docname="logo_namco.svg"
   inkscape:version="1.4.2 (2aeb623e1d, 2025-05-12)"
   xmlns:inkscape="http://www.inkscape.org/namespaces/inkscape"
   xmlns:sodipodi="http://sodipodi.sourceforge.net/DTD/sodipodi-0.dtd"
   xmlns="http://www.w3.org/2000/svg"
   xmlns:svg="http://www.w3.org/2000/svg">
  <sodipodi:namedview
     id="namedview3450"
     pagecolor="#ffffff"
     bordercolor="#000000"
     borderopacity="0.25"
     inkscape:showpageshadow="2"
     inkscape:pageopacity="0.0"
     inkscape:pagecheckerboard="0"
     inkscape:deskcolor="#d1d1d1"
     showgrid="false"
     inkscape:zoom="1.5125"
     inkscape:cx="244.29752"
     inkscape:cy="31.404959"
     inkscape:window-width="1605"
     inkscape:window-height="991"
     inkscape:window-x="26"
     inkscape:window-y="23"
     inkscape:window-maximized="0"
     inkscape:current-layer="svg2" />
  <defs
     id="defs4" />
  <g
     id="rect4393-7"
     style="opacity:1"
     transform="translate(-236.12305,292.15625)">
    <path
       style="baseline-shift:baseline;display:inline;overflow:visible;vector-effect:none;fill:#ffffff;stroke-linecap:round;stroke-linejoin:round;enable-background:accumulate;stop-color:#000000;stop-opacity:1"
       d="m 493.54038,-285.15702 c -7.26626,0 -13.32972,6.06345 -13.32972,13.32971 v 23.28536 c 0,7.26627 6.06346,13.32876 13.32972,13.32875 h 44.8004 v -14.15871 h -41.46797 v -21.62544 h 41.46797 v -14.15967 z m 67.36621,0 c -7.26627,0 -13.32972,6.06345 -13.32972,13.32971 v 23.28536 c 0,7.26627 6.06345,13.32876 13.32972,13.32875 h 42.20108 c 7.26626,0 13.32968,-6.0625 13.32971,-13.32875 v -23.28536 c 0,-7.26626 -6.06345,-13.32971 -13.32971,-13.32971 z m 66.01424,0.45227 c -2.15012,2e-5 -3.99448,0.76443 -5.53274,2.29231 -1.53829,1.52793 -2.30781,3.36989 -2.30781,5.52694 0,2.15705 0.76814,4.00137 2.30297,5.53273 1.53481,1.53136 3.38054,2.29716 5.53758,2.29716 2.15013,0 3.98933,-0.7672 5.51725,-2.30201 1.52789,-1.53481 2.29133,-3.37773 2.29135,-5.52788 -2e-5,-2.15013 -0.76719,-3.99072 -2.302,-5.52209 -1.53483,-1.53135 -3.37029,-2.29714 -5.5066,-2.29716 z m -383.79686,0.5433 v 49.00442 h 16.34934 v -34.84476 h 30.8654 v 34.84476 h 16.03653 v -35.67472 c 0,-7.26625 -6.06345,-13.3297 -13.32972,-13.3297 z m 74.31288,0 v 12.88712 h 44.41302 v 3.48448 h -34.67915 c -7.26627,0 -13.32875,6.11865 -13.32875,13.38492 v 5.91818 c 0,7.26627 6.06248,13.32972 13.32875,13.32972 h 34.67915 7.24593 8.7935 v -35.67472 c -2e-5,-7.26625 -6.06344,-13.3297 -13.32971,-13.3297 z m 70.5185,0 v 49.00442 h 16.37161 v -34.84476 h 16.8142 v 34.84476 h 16.37161 v -34.84476 h 17.1454 v 34.84476 h 16.03943 v -35.67472 c 2e-5,-7.26625 -6.06248,-13.3297 -13.32875,-13.3297 z m 238.94515,0.75345 c 1.79753,2e-5 3.33561,0.6381 4.61465,1.91365 1.279,1.27558 1.91848,2.81132 1.9185,4.60885 -2e-5,1.79755 -0.64185,3.33798 -1.92431,4.62046 -1.2825,1.28247 -2.81821,1.92333 -4.60884,1.92333 -1.79753,0 -3.33426,-0.64086 -4.60982,-1.92333 -1.27555,-1.28248 -1.91365,-2.82291 -1.91365,-4.62046 0,-1.79753 0.6381,-3.33327 1.91365,-4.60885 1.27556,-1.27555 2.81229,-1.91363 4.60982,-1.91365 z m -3.34018,2.44727 v 8.41097 h 1.35873 v -3.48448 h 1.0682 c 1.09234,0 1.83625,0.54904 2.23034,1.6483 l 0.65273,1.83618 h 1.55533 l -0.89195,-2.10541 c -0.35951,-0.83654 -0.91228,-1.36882 -1.65894,-1.59697 1.45877,-0.11062 2.18869,-0.9095 2.18869,-2.39594 0,-1.54171 -1.11303,-2.31263 -3.33921,-2.31265 z m 1.35873,1.14083 h 1.63862 c 1.3758,0 2.06374,0.43255 2.06376,1.29675 -2e-5,0.87804 -0.66747,1.31709 -2.00178,1.31709 h -1.7006 z m -60.99284,8.82255 h 35.84903 v 21.62544 h -35.84903 z m -233.38142,16.26024 h 31.30508 v 6.96895 h -31.30508 z"
       id="path6" />
    <path
       style="baseline-shift:baseline;display:inline;overflow:visible;vector-effect:none;fill:#ffffff;stroke-linecap:round;stroke-linejoin:round;enable-background:accumulate;stop-color:#000000;stop-opacity:1"
       d="m 493.54102,-292.15625 c -8.10018,0 -15.09946,4.85948 -18.35743,11.77539 -3.44755,-6.36895 -10.11667,-10.78125 -17.81445,-10.78125 h -69.41406 c -3.86583,3.9e-4 -6.99961,3.13417 -7,7 v 1.45508 c -3.70841,-5.08912 -9.66877,-8.45508 -16.39453,-8.45508 H 317.4375 c -3.86583,3.9e-4 -6.99961,3.13417 -7,7 v 3.00781 c -3.56151,-5.94996 -10.0076,-10.00781 -17.39258,-10.00781 h -49.92187 c -3.86583,3.9e-4 -6.99961,3.13417 -7,7 v 49.00586 c 3.9e-4,3.86583 3.13417,6.99961 7,7 h 16.34961 c 3.86583,-3.9e-4 26.9994,-3.9e-4 30.86523,0 H 306.375 c 3.29972,-0.17558 6.02736,-2.63452 6.54297,-5.89844 3.67957,3.63475 8.71724,5.89844 14.25195,5.89844 h 34.67969 7.24609 8.79297 c 1.91545,-0.031 3.73452,-0.8456 5.0332,-2.25391 1.29868,1.40831 3.11776,2.22291 5.03321,2.25391 h 16.37109 c 3.86583,-3.9e-4 12.94862,-3.9e-4 16.81445,0 h 16.37305 c 3.86583,-3.9e-4 13.2787,-3.9e-4 17.14453,0 h 16.03907 c 3.86583,-3.9e-4 6.99961,-3.13417 7,-7 V -236 c 3.73608,4.69815 9.42695,7.78712 15.84375,7.78711 h 44.79882 c 3.86583,-3.9e-4 6.99961,-3.13417 7,-7 v -0.45117 c 3.74043,4.50468 9.30512,7.45118 15.56641,7.45117 h 42.20117 c 11.15983,0 20.33003,-9.16773 20.33008,-20.32813 v -14.0039 c 1.15222,0.2901 2.31901,0.49023 3.48242,0.49023 3.81527,0 7.79191,-1.66651 10.47852,-4.36523 2.68198,-2.69413 4.33004,-6.65777 4.33008,-10.46485 -4e-5,-3.81516 -1.66295,-7.79008 -4.35743,-10.47851 -2.68413,-2.67805 -6.64206,-4.34176 -10.45117,-4.3418 -3.80917,4e-5 -7.76994,1.64946 -10.46484,4.32617 -0.0673,0.0669 -0.11558,0.15418 -0.18164,0.22266 -3.56449,-3.07012 -8.13402,-5 -13.16602,-5 h -42.20117 c -6.26191,0 -11.82608,2.94589 -15.56641,7.45117 v -0.45117 c -3.9e-4,-3.86583 -3.13417,-6.99961 -7,-7 z m 0,14 h 37.79882 v 0.1582 h -34.46679 c -3.86583,3.9e-4 -6.99961,3.13417 -7,7 v 21.62696 c 3.9e-4,3.86583 3.13417,6.99961 7,7 h 34.46679 v 0.1582 h -37.79882 c -3.3727,0 -6.33008,-2.95603 -6.33008,-6.32813 v -23.2871 c 0,-3.37208 2.95799,-6.32813 6.33008,-6.32813 z m 67.36523,0 h 42.20117 c 3.37209,0 6.33008,2.95604 6.33008,6.32813 v 23.2871 c -10e-6,3.37211 -2.95738,6.32813 -6.33008,6.32813 h -42.20117 c -3.37271,0 -6.33008,-2.95603 -6.33008,-6.32813 v -23.2871 c 0,-3.37209 2.95798,-6.32813 6.33008,-6.32813 z m 3.01953,0.1582 c -3.86583,3.9e-4 -6.99961,3.13417 -7,7 v 21.62696 c 3.9e-4,3.86583 3.13417,6.99961 7,7 h 35.84961 c 3.86583,-3.9e-4 6.99961,-3.13417 7,-7 v -21.62696 c -3.9e-4,-3.86583 -3.13417,-6.99961 -7,-7 z m -313.80273,0.83594 h 42.92187 c 3.3721,0 6.33008,2.95801 6.33008,6.33008 v 28.67578 h -2.03711 v -27.8457 c -3.9e-4,-3.86583 -3.13417,-6.99961 -7,-7 h -30.86523 c -3.86583,3.9e-4 -6.99961,3.13417 -7,7 v 27.8457 h -2.34961 z m 114.41015,0 h 0.0273 c 3.3721,0 6.32811,2.95798 6.32812,6.33008 v 28.67578 h -1.79297 -3.89453 c 2.08943,-1.13028 3.46311,-3.24302 3.64844,-5.61133 v -6.96875 c -0.17867,-3.2801 -2.61396,-5.99482 -5.85547,-6.52734 3.24083,-0.53235 5.67592,-3.24604 5.85547,-6.52539 v -3.48438 c -0.22028,-2.61717 -1.88691,-4.89087 -4.31641,-5.88867 z m 30.42188,0 h 62.41406 c 3.3721,0 6.32813,2.95741 6.32813,6.33008 v 28.67578 h -2.03907 v -27.8457 c -3.9e-4,-3.86583 -3.13417,-6.99961 -7,-7 h -17.14453 c -3.86583,3.9e-4 -6.99961,3.13417 -7,7 v 27.8457 h -2.37305 v -27.8457 c -3.9e-4,-3.86583 -3.13417,-6.99961 -7,-7 h -16.81445 c -3.86583,3.9e-4 -6.99961,3.13417 -7,7 v 27.8457 h -2.37109 z m -67.78516,16.37305 h 1.08594 c -2.63417,0.90134 -4.48388,3.2779 -4.71094,6.05273 v 6.96875 c 0.18533,2.36831 1.55901,4.48105 3.64844,5.61133 h -0.0234 c -3.3721,0 -6.32812,-2.95736 -6.32812,-6.33008 v -5.91797 c 0,-3.37272 2.99147,-6.38476 6.32812,-6.38476 z"
       id="path7"
       sodipodi:nodetypes="scscccscccsccccccccsccccccccccscscscssscsssssscsscscssccccccccsssssssssssssccccccccccssccccccccccssccccccccsccssccccccccccccccccccccssssc" />
  </g>
  <path
     id="rect4393"
     style="fill:#a51e23;fill-opacity:1;fill-rule:nonzero;stroke:none;stroke-width:3.96676;stroke-linecap:round;stroke-linejoin:round;stroke-miterlimit:4;stroke-dasharray:none;stroke-opacity:1"
     d="m 257.41642,7.000002 c -7.26626,0 -13.32972,6.06345 -13.32972,13.32972 v 23.28536 c 0,7.26627 6.06346,13.32876 13.32972,13.32875 h 44.8004 v -14.15871 h -41.46797 v -21.62544 h 41.46797 V 7.000002 Z m 67.36621,0 c -7.26627,0 -13.32972,6.06345 -13.32972,13.32972 v 23.28536 c 0,7.26627 6.06345,13.32876 13.32972,13.32875 h 42.20108 c 7.26626,0 13.32968,-6.0625 13.32971,-13.32875 v -23.28536 c 0,-7.26627 -6.06345,-13.32972 -13.32971,-13.32972 z m 66.01424,0.45227 c -2.15012,2e-5 -3.99448,0.76443 -5.53274,2.29231 -1.53829,1.52793 -2.30781,3.36989 -2.30781,5.52694 0,2.15705 0.76814,4.00137 2.30297,5.53274 1.53481,1.53136 3.38054,2.29716 5.53758,2.29716 2.15013,0 3.98933,-0.7672 5.51725,-2.30201 1.52789,-1.53482 2.29133,-3.37774 2.29135,-5.52789 -2e-5,-2.15013 -0.76719,-3.99072 -2.302,-5.52209 -1.53483,-1.53135 -3.37029,-2.29714 -5.5066,-2.29716 z M 7.00001,7.995572 v 49.00443 h 16.34934 v -34.84476 h 30.8654 v 34.84476 h 16.03653 v -35.67472 c 0,-7.26626 -6.06345,-13.32971 -13.32972,-13.32971 z m 74.31288,0 v 12.88713 h 44.41302 v 3.48448 H 91.04676 c -7.26627,0 -13.32875,6.11865 -13.32875,13.38492 v 5.91818 c 0,7.26627 6.06248,13.32972 13.32875,13.32972 h 34.67915 7.24593 8.7935 v -35.67472 c -2e-5,-7.26626 -6.06344,-13.32971 -13.32971,-13.32971 z m 70.5185,0 v 49.00443 H 168.203 v -34.84476 h 16.8142 v 34.84476 h 16.37161 v -34.84476 h 17.1454 v 34.84476 h 16.03943 v -35.67472 c 2e-5,-7.26626 -6.06248,-13.32971 -13.32875,-13.32971 z m 238.94515,0.75345 c 1.79753,2e-5 3.33561,0.6381 4.61465,1.91365 1.279,1.27558 1.91848,2.81132 1.9185,4.60885 -2e-5,1.79755 -0.64185,3.33798 -1.92431,4.62046 -1.2825,1.28248 -2.81821,1.92334 -4.60884,1.92334 -1.79753,0 -3.33426,-0.64086 -4.60982,-1.92334 -1.27555,-1.28248 -1.91365,-2.82291 -1.91365,-4.62046 0,-1.79753 0.6381,-3.33327 1.91365,-4.60885 1.27556,-1.27555 2.81229,-1.91363 4.60982,-1.91365 z m -3.34018,2.44727 v 8.41097 h 1.35873 v -3.48448 h 1.0682 c 1.09234,0 1.83625,0.54904 2.23034,1.6483 l 0.65273,1.83618 h 1.55533 l -0.89195,-2.10541 c -0.35951,-0.83654 -0.91228,-1.36882 -1.65894,-1.59697 1.45877,-0.11062 2.18869,-0.9095 2.18869,-2.39594 0,-1.54171 -1.11303,-2.31263 -3.33921,-2.31265 z m 1.35873,1.14083 h 1.63862 c 1.3758,0 2.06374,0.43255 2.06376,1.29675 -2e-5,0.87804 -0.66747,1.31709 -2.00178,1.31709 h -1.7006 z m -60.99284,8.82256 h 35.84903 v 21.62544 H 327.80225 Z M 94.42083,37.419922 h 31.30508 v 6.96895 H 94.42083 Z" />
</svg>
