<?xml version="1.0" encoding="UTF-8" standalone="no"?>
<svg
   version="1.1"
   width="168.86076"
   height="64.000244"
   id="svg3668"
   sodipodi:docname="logo_sega.svg"
   inkscape:version="1.4.2 (2aeb623e1d, 2025-05-12)"
   xmlns:inkscape="http://www.inkscape.org/namespaces/inkscape"
   xmlns:sodipodi="http://sodipodi.sourceforge.net/DTD/sodipodi-0.dtd"
   xmlns="http://www.w3.org/2000/svg"
   xmlns:svg="http://www.w3.org/2000/svg">
  <defs
     id="defs3672" />
  <sodipodi:namedview
     id="namedview3670"
     pagecolor="#ffffff"
     bordercolor="#000000"
     borderopacity="0.25"
     inkscape:showpageshadow="2"
     inkscape:pageopacity="0.0"
     inkscape:pagecheckerboard="0"
     inkscape:deskcolor="#d1d1d1"
     showgrid="false"
     inkscape:zoom="2.0166667"
     inkscape:cx="196.36363"
     inkscape:cy="17.107438"
     inkscape:window-width="1854"
     inkscape:window-height="1011"
     inkscape:window-x="0"
     inkscape:window-y="0"
     inkscape:window-maximized="1"
     inkscape:current-layer="svg3668" />
  <g
     id="path3646-8"
     style="opacity:1"
     transform="translate(-74.40625,195.79883)">
    <path
       style="baseline-shift:baseline;display:inline;overflow:visible;vector-effect:none;fill:#ffffff;stroke-linecap:round;stroke-linejoin:round;enable-background:accumulate;stop-color:#000000;stop-opacity:1"
       d="m 231.36719,-188.79883 c -2.48924,0 -4.52344,2.01653 -4.52344,4.50195 0,1.2094 0.47293,2.34004 1.33398,3.19727 0.84959,0.84849 1.98388,1.32031 3.18946,1.32031 1.20995,0 2.34971,-0.47127 3.20312,-1.32031 0.85286,-0.85723 1.33008,-1.98786 1.33008,-3.19727 0,-1.20121 -0.47722,-2.32831 -1.33008,-3.18554 -0.85341,-0.84467 -1.99317,-1.31641 -3.20312,-1.31641 z m 0,0.62891 c 1.04397,0 2.02211,0.39812 2.75976,1.13086 0.73329,0.73329 1.13867,1.71079 1.13867,2.74218 0,2.14144 -1.74825,3.88086 -3.89843,3.88086 -1.03195,0 -2.00899,-0.40342 -2.7461,-1.13671 -0.74148,-0.73274 -1.13867,-1.70454 -1.13867,-2.74415 0,-1.03139 0.39774,-2.00889 1.13867,-2.74218 0.73765,-0.73329 1.7147,-1.13086 2.7461,-1.13086 z m -1.81446,1.3789 v 5.00391 h 0.6543 v -2.12891 H 231.5 l 1.37109,2.12891 h 0.79102 l -1.4082,-2.17187 c 0.24134,-0.0497 1.19336,-0.20265 1.19336,-1.3711 0,-0.46411 -0.15841,-0.88223 -0.53516,-1.16015 -0.3893,-0.29394 -0.79947,-0.29279 -1.5,-0.30079 z m 0.6543,0.55469 H 231.5 c 0.38494,0 0.71699,-0.009 0.97852,0.21094 0.28607,0.23205 0.29687,0.56849 0.29687,0.70117 0,0.36418 -0.1648,0.69471 -0.62891,0.80664 -0.19874,0.0497 -0.39752,0.0508 -0.60937,0.0508 h -1.33008 z m -17.17383,0.61719 c -4.63068,0 -8.52518,2.85738 -9.71875,6.75586 l -12.13086,35.58398 v -25.75 h -18.17968 v 6.40039 h 11.75586 v 17.37696 h -14.71485 c -3.53758,0 -6.42773,-2.88329 -6.42773,-6.42578 v -20.3711 c 0,-3.54576 2.87071,-6.40429 6.41211,-6.40429 h 21.15429 v -6.41602 h -21.20312 c -7.10464,0 -12.86328,5.73697 -12.86328,12.82031 v 20.3711 c 0,7.08389 5.80802,12.82812 12.91211,12.82812 l 21.15429,0.01 v -0.006 h 5.29297 l 13.24805,-38.89844 c 0.53782,-1.28803 1.80573,-2.19531 3.29687,-2.19531 1.48296,0 2.75806,0.90766 3.30079,2.1875 l 11.03125,32.5 h -17.08204 v 6.40625 h 25.9961 l -13.51953,-40.00196 c -1.18483,-3.90177 -5.09127,-6.77148 -9.71485,-6.77148 z m -116.4707,0.75 c -8.36318,0 -15.15625,6.75718 -15.15625,15.09961 0,8.34244 6.79307,15.10156 15.15625,15.10156 l 5.28516,0.008 c 0.40186,0 0.74023,0.32832 0.74023,0.74219 0,0.40623 -0.33837,0.73242 -0.74023,0.73242 l -20.433598,0.0176 0.0078,6.38672 h 20.474608 c 3.96401,0 7.16993,-3.19839 7.16993,-7.15039 0,-3.94763 -3.20592,-7.14063 -7.16993,-7.14063 l -5.339842,-0.0586 c -4.78848,0 -8.673828,-3.8716 -8.673829,-8.65625 0,-4.77155 3.885349,-8.64453 8.673829,-8.64453 l 20.439452,-0.006 -0.008,-6.43164 z m 36.33594,0 c -7.10791,0 -12.86719,5.73697 -12.86719,12.82031 v 20.3711 c 0,7.08389 5.75928,12.83007 12.86719,12.83007 l 21.75,0.008 -0.004,-6.4043 -21.74609,0.008 c -3.55014,0 -6.45899,-2.82902 -6.45899,-6.4414 v -20.44141 c 0,-3.47533 2.90885,-6.33398 6.45899,-6.33398 l 21.84179,0.004 v -6.41992 z m 80.13867,6.41602 c -0.91565,0 -1.6896,0.58855 -1.97461,1.40429 l -12.98633,38.20313 h 7.58008 l 4.60156,-13.56836 -0.0117,5.70312 h 15.03711 l -10.26953,-30.33789 c -0.27738,-0.81574 -1.06036,-1.40429 -1.97656,-1.40429 z m -21.85352,1.49609 -21.15625,0.004 c -2.70874,0 -4.90429,2.19555 -4.90429,4.90429 v 20.3711 h 0.002 c 0,2.7142 2.19556,4.92187 4.9043,4.92187 h 13.21289 v -14.35742 h -10.22266 v 6.41992 h 3.79297 l 0.0137,1.50781 h -3.77734 c -0.82447,0 -1.5,-0.68334 -1.5,-1.50781 l -0.0332,-14.33984 c 0,0 -0.005,-1.49217 1.51563,-1.5293 h 18.16016 z m -58.28515,0.004 c -2.71311,0 -4.89258,2.19555 -4.89258,4.90429 l -0.008,9.41992 h 22.09375 v -6.40039 h -15.69922 c 0,0 0.0218,-1.49609 1.5293,-1.49609 h 18.81835 v -6.42773 z m -36.341799,0.0117 c -3.95145,0 -7.166016,3.2105 -7.166016,7.1543 0,3.94763 3.214016,7.14453 7.166016,7.14453 l 5.339839,0.0703 c 4.79667,0 8.67774,3.86798 8.67774,8.64063 0,4.77592 -3.88052,8.6543 -8.67774,8.6543 H 81.421875 l -0.0078,6.47656 v 0.002 l 20.462885,-0.0215 c 8.37191,0 15.15625,-6.76342 15.15625,-15.09766 0,-8.35062 -6.78434,-15.11523 -15.15625,-15.11523 l -5.314447,0.0293 c -0.41878,0 -0.759766,-0.34496 -0.759766,-0.76757 0,-0.42261 0.340986,-0.76563 0.759766,-0.76563 l 20.425777,0.004 0.008,-6.40821 z m 31.441409,15.83594 v 9.42774 c 0,2.70109 2.19547,4.88476 4.90039,4.88476 l 21.74609,-0.01 0.004,-6.375 h -18.72852 c 0,0 -1.50654,-0.008 -1.52734,-1.51563 h 15.69922 v -6.41211 z m 85.02734,0.53516 2.26172,6.72265 h -4.54297 z"
       id="path2" />
    <path
       style="baseline-shift:baseline;display:inline;overflow:visible;vector-effect:none;fill:#ffffff;stroke-linecap:round;stroke-linejoin:round;enable-background:accumulate;stop-color:#000000;stop-opacity:1"
       d="m 231.36719,-195.79883 c -4.09745,0 -7.5978,2.33486 -9.64453,5.63281 -2.60148,-1.47737 -5.53101,-2.45312 -8.68946,-2.45312 -6.29797,0 -11.88079,3.3858 -14.84961,8.60352 v -0.85352 c -3.9e-4,-3.86583 -3.13417,-6.99961 -7,-7 h -21.20312 c -3.63948,0 -7.02552,1.0694 -9.97656,2.81055 -1.24746,-1.67513 -3.17771,-2.70579 -5.26368,-2.81055 h -21.84179 c -3.85984,0 -7.45575,1.16751 -10.52344,3.10742 -1.21173,-1.82024 -3.20438,-2.96973 -5.38672,-3.10742 H 96.5625 c -12.133696,0 -22.15625,9.95721 -22.15625,22.09961 0,4.09131 1.212564,7.88743 3.185547,11.18555 -1.857033,1.204 -3.035376,3.21522 -3.177735,5.42382 l 0.0078,6.38672 c 0.0885,0.25376 0.191531,0.50222 0.308594,0.74414 -0.117063,0.24192 -0.220098,0.49038 -0.308594,0.74414 l -0.0078,6.47657 v 0.008 0.002 c 3.85e-4,3.86889 3.138929,7.00393 7.007813,7 l 20.455075,-0.0215 c 6.30895,0 12.00292,-2.72485 16.05664,-7.01172 3.65769,4.23098 8.99213,6.98378 14.96289,6.98437 l 21.75,0.008 c 2.10611,-0.11118 4.04986,-1.16593 5.29102,-2.8711 2.9795,1.77411 6.40771,2.8606 10.08789,2.86133 l 21.1543,0.01 c 0.005,-0.002 0.009,-0.004 0.0137,-0.006 h 5.2832 c 0.33548,-0.0811 0.6645,-0.18682 0.98438,-0.31641 0.19974,0.11554 0.40506,0.22114 0.61523,0.31641 h 7.58008 c 0.91301,-0.10531 1.79635,-0.38935 2.59961,-0.83594 0.62405,0.38229 1.30418,0.66436 2.01562,0.83594 h 25.9961 c 4.79012,-8.9e-4 8.16457,-4.70424 6.63086,-9.24219 l -10.76172,-31.8457 c 2.748,-0.19323 5.41421,-1.25627 7.37109,-3.20313 0.008,-0.008 0.017,-0.0169 0.0254,-0.0254 2.10256,-2.11333 3.36719,-5.08394 3.36719,-8.13476 0,-3.0552 -1.27141,-6.01654 -3.36719,-8.12305 -0.013,-0.0124 -0.026,-0.0248 -0.0391,-0.0371 -2.14198,-2.12005 -5.09754,-3.3418 -8.12695,-3.3418 z m -7.66992,3.78516 c -0.001,10e-4 -9.2e-4,0.003 -0.002,0.004 -0.003,0.003 -0.007,0.003 -0.01,0.006 z"
       id="path3"
       sodipodi:nodetypes="ccscccsccsccsscccccccsccccccccccccccccccssscccccccc" />
  </g>
  <g
     id="g1"
     transform="translate(-58.757792,101.95614)">
    <path
       d="m 65.765276,-44.956023 20.462686,-0.0208 c 8.371918,0 15.156598,-6.763929 15.156598,-15.098169 0,-8.35062 -6.78468,-15.1151 -15.156598,-15.1151 l -5.314281,0.0289 c -0.418787,0 -0.758403,-0.34344 -0.758403,-0.76605 0,-0.42261 0.339616,-0.76659 0.758403,-0.76659 l 20.425559,0.004 0.008,-6.40793 H 80.909313 c -3.951449,0 -7.166336,3.20997 -7.166336,7.15377 0,3.94763 3.214341,7.14504 7.166336,7.14504 l 5.339398,0.0704 c 4.796667,0 8.678227,3.86845 8.678227,8.6411 0,4.77592 -3.881014,8.65311 -8.678227,8.65311 H 65.773466 l -0.0082,6.477819"
       style="fill:#0060a8;stroke-width:0.546007"
       id="path3646" />
    <path
       d="m 65.773466,-52.938092 h 20.475245 c 3.964007,0 7.170157,-3.19741 7.170157,-7.14941 0,-3.94763 -3.20615,-7.14122 -7.170157,-7.14122 l -5.339398,-0.0579 c -4.788477,0 -8.67386,-3.87283 -8.67386,-8.65748 0,-4.77155 3.885383,-8.64492 8.67386,-8.64492 l 20.438117,-0.004 -0.008,-6.43251 H 80.913681 c -8.363182,0 -15.156595,6.75629 -15.156595,15.09872 0,8.34244 6.793413,15.10254 15.156595,15.10254 l 5.285343,0.008 c 0.401861,0 0.741477,0.32761 0.741477,0.74148 0,0.40623 -0.339616,0.73329 -0.741477,0.73329 l -20.433748,0.0164 0.0082,6.38718"
       style="fill:#0060a8;stroke-width:0.546007"
       id="path3648" />
    <path
       d="m 117.24932,-51.392892 c -3.55014,0 -6.45817,-2.82941 -6.45817,-6.44179 v -20.44139 c 0,-3.47533 2.90803,-6.33367 6.45817,-6.33367 l 21.8419,0.004 v -6.41995 h -21.8419 c -7.10791,0 -12.86555,5.7369 -12.86555,12.82024 v 20.3715 c 0,7.08389 5.75764,12.828969 12.86555,12.828969 l 21.75071,0.009 -0.004,-6.404109 -21.74634,0.008"
       style="fill:#0060a8;stroke-width:0.546007"
       id="path3650" />
    <path
       d="m 112.3571,-78.205632 c 0,-2.70874 2.17911,-4.90423 4.89222,-4.90423 h 21.8419 v 6.42868 H 120.2731 c -1.50752,0 -1.52827,1.49551 -1.52827,1.49551 h 15.69933 v 6.39974 h -22.0947 l 0.008,-9.4197"
       style="fill:#0060a8;stroke-width:0.546007"
       id="path3652" />
    <path
       d="m 117.24932,-52.950102 c -2.70492,0 -4.90041,-2.18294 -4.90041,-4.88403 v -9.42789 h 22.0947 v 6.41284 h -15.69933 c 0.0208,1.50753 1.52828,1.51517 1.52828,1.51517 h 18.72693 l -0.004,6.37517 -21.7458,0.009"
       style="fill:#0060a8;stroke-width:0.546007"
       id="path3654" />
    <path
       d="m 154.39742,-51.409272 c -3.53758,0 -6.42868,-2.88292 -6.42868,-6.42541 v -20.3715 c 0,-3.54576 2.87035,-6.40411 6.41175,-6.40411 h 21.15502 v -6.41558 h -21.20416 c -7.10464,0 -12.86228,5.7369 -12.86228,12.82024 v 20.3715 c 0,7.08389 5.80733,12.828969 12.91142,12.828969 l 21.15502,0.009 v -30.189249 h -18.18038 v 6.39974 h 11.75552 v 17.37666 h -14.71323"
       style="fill:#0060a8;stroke-width:0.546007"
       id="path3656" />
    <path
       d="m 149.47626,-57.834682 c 0,2.7142 2.19549,4.92171 4.90423,4.92171 h 13.2139 v -14.35724 h -10.22342 v 6.42103 h 3.7942 l 0.012,1.50753 h -3.77728 c -0.82447,0 -1.49933,-0.68306 -1.49933,-1.50753 l -0.0339,-14.34086 c 0,0 -0.004,-1.49114 1.51626,-1.52827 h 18.15963 l -0.008,-6.39592 -21.15502,0.004 c -2.70874,0 -4.90423,2.19549 -4.90423,4.90423 v 20.37095"
       style="fill:#0060a8;stroke-width:0.546007"
       id="path3658" />
    <path
       d="m 195.41397,-83.205412 c 0.28501,-0.81574 1.0598,-1.40379 1.97545,-1.40379 0.9162,0 1.69862,0.58805 1.976,1.40379 l 10.26929,30.33776 h -15.03702 l 0.0164,-7.13686 h 5.0249 l -2.26211,-6.72297 -7.3689,21.725599 h -7.58021 l 12.98622,-38.203529"
       style="fill:#0060a8;stroke-width:0.546007"
       id="path3660" />
    <path
       d="M 211.70516,-51.409272 H 194.6228 v 6.407389 h 25.99646 l -13.52021,-40.001529 c -1.18483,-3.90177 -5.09042,-6.77212 -9.714,-6.77212 -4.63068,0 -8.52425,2.8578 -9.71782,6.75628 l -13.64416,40.017909 h 6.80597 l 13.24721,-38.899689 c 0.53782,-1.28803 1.80619,-2.19549 3.29733,-2.19549 1.48296,0 2.75843,0.90746 3.30116,2.1873 l 11.03042,32.49995"
       style="fill:#0060a8;stroke-width:0.546007"
       id="path3662" />
    <path
       d="m 215.7194,-85.934902 c 1.20995,0 2.34892,-0.4723 3.20233,-1.32134 0.85286,-0.85723 1.32953,-1.98801 1.32953,-3.19741 0,-1.20121 -0.47667,-2.32817 -1.32953,-3.1854 -0.85341,-0.84467 -1.99238,-1.31697 -3.20233,-1.31697 -2.48924,0 -4.52312,2.01749 -4.52312,4.50292 0,1.2094 0.4723,2.34018 1.33335,3.19741 0.84959,0.84849 1.98419,1.32079 3.18977,1.32079 m -3.88483,-4.5193 c 0,-1.0314 0.39749,-2.00875 1.13842,-2.74204 0.73765,-0.73329 1.71501,-1.13078 2.74641,-1.13078 1.04397,0 2.02132,0.39804 2.75897,1.13078 0.73329,0.73329 1.13952,1.71064 1.13952,2.74204 0,2.14144 -1.74831,3.88102 -3.89849,3.88102 -1.03195,0 -2.0093,-0.40186 -2.74641,-1.13515 -0.74148,-0.73274 -1.13842,-1.70627 -1.13842,-2.74587 z"
       style="fill:#231f20;stroke-width:0.546007"
       id="path3664" />
    <path
       d="m 214.55968,-90.073082 v 2.12888 h -0.65466 v -5.00361 h 1.8597 c 0.70053,0.008 1.11058,0.008 1.49988,0.30194 0.37675,0.27792 0.53454,0.69616 0.53454,1.16027 0,1.16845 -0.95223,1.32133 -1.19357,1.37102 l 1.4087,2.17038 h -0.79117 l -1.37102,-2.12888 h -1.2924 m 0,-0.55092 h 1.32953 c 0.21185,0 0.4106,0 0.60934,-0.0497 0.46411,-0.11193 0.62955,-0.44336 0.62955,-0.80754 0,-0.13268 -0.0126,-0.46793 -0.29867,-0.69998 -0.26153,-0.2195 -0.59241,-0.21131 -0.97735,-0.21131 h -1.2924 z"
       style="fill:#231f20;stroke-width:0.546007"
       id="path3666" />
  </g>
</svg>
