<?xml version="1.0" encoding="UTF-8" standalone="no"?>
<!-- Generator: Adobe Illustrator 16.0.0, SVG Export Plug-In . SVG Version: 6.00 Build 0)  -->

<svg
   version="1.1"
   id="Layer_1"
   x="0px"
   y="0px"
   width="271.45312"
   height="64.00219"
   viewBox="0 0 271.45312 64.002189"
   enable-background="new 0 0 1000 194.211"
   xml:space="preserve"
   sodipodi:docname="logo_tecmo.svg"
   inkscape:version="1.4.2 (2aeb623e1d, 2025-05-12)"
   xmlns:inkscape="http://www.inkscape.org/namespaces/inkscape"
   xmlns:sodipodi="http://sodipodi.sourceforge.net/DTD/sodipodi-0.dtd"
   xmlns="http://www.w3.org/2000/svg"
   xmlns:svg="http://www.w3.org/2000/svg"><defs
   id="defs3802">
	
	
	
	
	
</defs><sodipodi:namedview
   id="namedview3800"
   pagecolor="#ffffff"
   bordercolor="#000000"
   borderopacity="0.25"
   inkscape:showpageshadow="2"
   inkscape:pageopacity="0.0"
   inkscape:pagecheckerboard="0"
   inkscape:deskcolor="#d1d1d1"
   showgrid="false"
   inkscape:zoom="1.21"
   inkscape:cx="126.44628"
   inkscape:cy="121.07438"
   inkscape:window-width="1854"
   inkscape:window-height="1011"
   inkscape:window-x="0"
   inkscape:window-y="0"
   inkscape:window-maximized="1"
   inkscape:current-layer="Layer_1"
   showguides="true" />
<g
   id="polygon3787-5"
   style="opacity:1;stroke-width:0.998239;stroke-dasharray:none"
   transform="matrix(0.25745337,0,0,0.25745337,7.0005191,7.0015388)"><path
     style="baseline-shift:baseline;display:inline;overflow:visible;fill:#ffffff;stroke-width:0.998239;stroke-linecap:round;stroke-linejoin:round;stroke-dasharray:none;enable-background:accumulate;stop-color:#000000;stop-opacity:1"
     d="M 558.66258,0.02571339 C 541.84245,-0.33616282 524.51312,2.7874417 510.77011,8.6589515 488.76713,18.054944 476.52125,33.411808 476.29026,51.885833 c -0.3119,24.417975 -0.37246,138.184917 -0.34139,138.184917 0,0 58.37343,0.14667 58.34643,0.15172 0,0 -0.0824,-127.735705 0.1138,-131.622739 l 0.11379,-0.660011 -0.008,-0.682769 c -0.008,-0.983013 -0.0357,-3.589813 4.23317,-6.091819 7.59497,-4.455992 21.55522,-4.492146 29.28322,-0.06828 4.147,2.374993 4.14972,4.760607 4.14972,5.545604 0,0 -0.28142,133.445264 -0.25035,133.428294 l 60.84991,-0.34897 c 0,0 -0.19854,-126.91414 -0.15931,-132.624145 l 0.008,-0.04552 v -0.477938 c 0,-0.951007 -0.01,-3.845316 4.71111,-6.577344 7.913,-4.583976 21.76576,-4.625515 29.63977,-0.08345 5.20898,3.004 5.20422,6.624884 5.20422,7.813915 0,0 0.24276,132.625822 0.24276,132.684822 l 58.93057,-0.0303 0.091,-137.05455 v -0.56901 l -0.0834,-0.568974 C 727.53126,27.97729 709.93398,10.773995 681.81898,3.7430128 653.96998,-3.215995 619.24237,1.0398121 603.50535,12.292801 591.79486,4.2327981 575.4827,0.38758961 558.66258,0.02571339 Z M 872.0916,0.2684758 c -40.45,0 -77.63332,13.9784532 -102.01331,38.3564602 -16.94,16.94101 -25.89213,37.209938 -25.89213,58.611949 0,21.403025 8.95112,41.670935 25.89213,58.611945 24.37999,24.37999 61.56331,38.36405 102.01331,38.36405 70.53103,0 127.90545,-43.50499 127.90545,-96.975995 0,-21.401002 -8.94851,-41.670939 -25.88454,-58.611949 C 949.73151,14.246929 912.54662,0.2684758 872.0916,0.2684758 Z M 454.02439,2.9843802 C 392.33641,2.8562017 345.05422,23.354809 324.29823,59.221809 c -13.928,24.069019 -13.83458,51.881241 0.26552,76.303261 20.91299,36.22097 66.64963,56.96044 125.46265,56.89744 l 7.24494,-0.008 v -45.4876 h -7.25253 c -49.94003,0 -76.06808,-24.62498 -76.06808,-48.946975 0,-12.485989 6.63335,-24.21026 18.66236,-33.023274 14.541,-10.654978 35.77215,-16.295426 61.39613,-16.295426 h 7.08563 L 461.1783,2.9995529 Z M -0.00200036,3.7278401 V 50.330636 H 47.647708 V 189.44867 H 106.06241 V 50.702366 h 50.13803 V 3.7278401 Z M 218.89383,3.9326709 c -26.80602,2.3880052 -50.5297,21.3603531 -52.87669,42.3013491 -0.18605,1.646007 -0.14562,99.15117 -0.0986,99.76018 1.60398,22.53697 26.76592,41.48555 58.52091,44.07655 4.20302,0.34297 81.05989,0.25374 81.05989,0.18966 l 0.008,-45.08554 c 0,0 -71.88495,-0.1336 -71.75146,-0.091 h -0.008 l -0.40966,-0.0455 h -0.41725 c -4.52901,0.0194 -8.63807,-4.30066 -8.83807,-6.16768 -0.21712,-5.03897 -0.0556,-12.61583 0.0986,-18.39684 9.00762,0.0194 81.39816,-0.0303 81.48472,-0.0303 V 74.963434 l -81.24955,-0.06069 c 0.0672,-8.062975 0.1669,-19.925305 0.1669,-20.020313 -0.0311,-4.792013 5.70866,-5.605369 9.06566,-5.659398 l 72.44941,0.09862 0.0455,-45.3131209 z M 872.0916,47.698181 c 22.16002,0 43.17308,7.782866 56.20709,20.816877 8.45299,8.452987 12.91951,18.384848 12.91951,28.721827 0,10.336005 -4.46652,20.265845 -12.91951,28.721825 -13.03401,13.03001 -34.04707,20.81688 -56.20709,20.81688 -22.155,0 -43.15992,-7.78586 -56.19191,-20.81688 -8.45601,-8.45598 -12.92709,-18.38582 -12.92709,-28.721825 0,-27.315005 31.00702,-49.538704 69.119,-49.538704 z"
     id="path1" /><path
     style="baseline-shift:baseline;display:inline;overflow:visible;fill:#ffffff;stroke-width:0.998239;stroke-linecap:round;stroke-linejoin:round;stroke-dasharray:none;enable-background:accumulate;stop-color:#000000;stop-opacity:1"
     d="m 559.24805,-27.158203 c -20.58546,-0.442885 -41.02717,3.067385 -59.16016,10.814453 -5.19068,2.216863 -10.06174,5.010367 -14.73633,8.0566406 -4.32551,-9.4851776 -13.69309,-15.6624556 -24.11523,-15.9023436 l -7.1543,-0.01563 h -0.002 c -47.37173,-0.09843 -89.9857,10.907312 -120.75191,33.7441455 l 0.006,-5.5039063 c 0.0136,-15.0172942 -12.14886,-27.2024672 -27.16615,-27.2167972 l -87.25,-0.07422 c -0.81367,-0.0013 -1.62699,0.03386 -2.4375,0.105468 -13.7139,1.221698 -27.00293,5.115712 -38.63477,11.382813 -4.93833,-7.125236 -12.97818,-11.468728 -21.64453,-11.693357 H -0.00195313 C -15.017666,-23.45947 -27.189939,-11.287197 -27.191406,3.7285156 V 50.330078 c 0.0015,15.015713 12.17374,27.187986 27.18945287,27.189453 H 20.458984 V 189.44922 c 0.0015,15.01571 12.173741,27.18798 27.189453,27.18945 H 106.0625 c 15.01571,-10e-4 95.51476,-1.15381 116.16662,0.53125 3.92042,0.31991 3.9523,0.16561 6.57226,0.19727 2.61997,0.0317 6.00735,0.0566 9.94141,0.0762 7.86812,0.0392 17.89215,0.0582 27.78515,0.0644 9.89301,0.006 19.64634,3.4e-4 26.94141,-0.0117 3.64753,-0.006 6.67895,-0.0135 8.82227,-0.0215 1.07165,-0.004 1.91517,-0.009 2.54101,-0.0137 0.31292,-0.002 0.56103,-0.004 0.82813,-0.008 0.13355,-0.002 0.24852,-0.002 0.52734,-0.01 0.13941,-0.004 0.27465,-0.005 0.76562,-0.0312 0.24549,-0.0133 0.48866,-0.11719 1.44727,-0.11719 18.63037,0 24.28906,-17.80592 24.28906,-27.03515 v -5.33399 c 30.10763,23.18585 72.7844,32.22671 118.56902,32.17767 l 181.67922,-0.19341 c 7.47746,-0.37963 14.46754,-3.82556 19.32227,-9.52539 4.92426,6.17486 12.28992,9.90367 20.18164,10.21679 l 58.92968,-0.0312 c 15.00275,-0.009 27.16354,-12.16717 27.17578,-27.16992 l 0.006,-8.45898 c 29.97354,25.88406 70.55599,39.46093 113.53907,39.46093 40.85584,0 78.37416,-12.38687 106.82812,-33.96093 28.45395,-21.57407 48.26555,-53.74484 48.26555,-90.205082 0,-28.980227 -12.6265,-56.610567 -33.84367,-77.833984 l -0.004,-0.0039 C 962.8571,-11.078608 918.81,-26.921875 872.0918,-26.921875 c -46.71396,0 -90.75864,15.843148 -121.23828,46.320312 l -0.002,0.002 c -0.68848,0.688523 -1.28871,1.438781 -1.95898,2.140625 -12.29873,-21.69786873 -34.49555,-37.678465 -60.47656,-44.175782 h -0.006 c -17.76805,-4.439944 -36.13863,-5.143062 -53.34961,-3.193359 -11.00153,1.246281 -21.40189,3.493902 -31.2461,7.457031 -14.21411,-6.107119 -29.49382,-8.46283 -44.5664,-8.787109 z"
     id="path2"
     sodipodi:nodetypes="sccccscccccccccccccccsssssscsssssccccccccsssssssscccscss" /></g><g
   id="g3797"
   transform="matrix(0.25745337,0,0,0.25745337,6.9998791,7.0010788)"
   style="stroke-width:0.998239;stroke-dasharray:none">
	<polygon
   fill="#ef3e42"
   points="0,3.728 0,50.331 47.647,50.331 47.647,189.449 106.063,189.449 106.063,50.701 156.201,50.701 156.201,3.728 "
   id="polygon3787"
   style="stroke-width:0.998239;stroke-dasharray:none" />
	<path
   fill="#ef3e42"
   d="M 305.67,120.447 V 74.961 l -81.252,-0.056 c 0.067,-8.063 0.168,-19.929 0.168,-20.024 -0.03,-4.792 5.709,-5.603 9.066,-5.657 l 72.45,0.097 0.04,-45.309 -87.252,-0.078 c -26.806,2.388 -50.526,21.362 -52.873,42.303 -0.186,1.646 -0.146,99.148 -0.099,99.757 1.604,22.537 26.763,41.484 58.518,44.075 4.203,0.343 81.061,0.252 81.061,0.188 0,0 0.008,-45.096 0.008,-45.082 0,0 -72.371,-0.133 -71.751,-0.089 l -0.417,-0.047 -0.416,0.001 c -4.529,0.02 -8.641,-4.305 -8.841,-6.172 -0.217,-5.039 -0.052,-12.614 0.102,-18.395 9.013,0.019 81.488,-0.026 81.488,-0.026 z"
   id="path3789"
   style="stroke-width:0.998239;stroke-dasharray:none" />
	<path
   fill="#ef3e42"
   d="M 461.177,2.999 454.023,2.986 C 392.335,2.858 345.052,23.355 324.296,59.222 c -13.928,24.069 -13.829,51.882 0.271,76.304 20.913,36.221 66.644,56.958 125.457,56.895 l 7.249,-0.009 v -45.484 h -7.253 c -49.94,0 -76.066,-24.626 -76.066,-48.948 0,-12.486 6.627,-24.216 18.656,-33.029 14.541,-10.655 35.777,-16.289 61.401,-16.289 h 7.083 z"
   id="path3791"
   style="stroke-width:0.998239;stroke-dasharray:none" />
	<path
   fill="#ef3e42"
   d="m 632.779,189.719 c 0,0 -0.193,-126.909 -0.154,-132.619 l 0.008,-0.049 -0.003,-0.478 c 0,-0.951 -0.008,-3.847 4.713,-6.579 7.913,-4.584 21.763,-4.619 29.637,-0.077 5.209,3.004 5.204,6.619 5.204,7.808 0,0 0.244,132.63 0.244,132.689 L 731.355,190.383 731.45,53.33 V 52.756 L 731.364,52.19 C 727.53,27.978 709.93,10.771 681.815,3.74 653.966,-3.219 619.243,1.042 603.506,12.295 580.085,-3.825 538.258,-3.084 510.772,8.659 c -22.003,9.396 -34.248,24.752 -34.479,43.226 -0.312,24.418 -0.378,138.184 -0.347,138.184 0,0 58.377,0.152 58.35,0.157 0,0 -0.087,-127.738 0.109,-131.625 l 0.119,-0.665 -0.009,-0.676 c -0.007,-0.983 -0.038,-3.596 4.23,-6.098 7.595,-4.456 21.559,-4.486 29.287,-0.062 4.147,2.375 4.151,4.761 4.151,5.546 0,0 -0.287,133.439 -0.256,133.422 z"
   id="path3793"
   style="stroke-width:0.998239;stroke-dasharray:none" />
	<path
   fill="#ef3e42"
   d="M 974.109,38.627 C 949.728,14.249 912.548,0.268 872.093,0.268 c -40.45,0 -77.632,13.981 -102.012,38.359 -16.94,16.941 -25.895,37.209 -25.895,58.611 0,21.403 8.954,41.672 25.895,58.613 24.38,24.38 61.562,38.359 102.012,38.359 70.531,0 127.907,-43.502 127.907,-96.973 0,-21.401 -8.955,-41.669 -25.891,-58.61 z m -45.814,87.335 c -13.034,13.03 -34.042,20.813 -56.202,20.813 -22.155,0 -43.163,-7.782 -56.195,-20.813 -8.456,-8.456 -12.925,-18.388 -12.925,-28.724 0,-27.315 31.008,-49.538 69.12,-49.538 22.16,0 43.168,7.781 56.202,20.815 8.453,8.453 12.921,18.386 12.921,28.723 0,10.336 -4.468,20.268 -12.921,28.724 z"
   id="path3795"
   style="stroke-width:0.998239;stroke-dasharray:none" />
</g>
</svg>
