<?xml version="1.0" encoding="UTF-8" standalone="no"?>
<!-- Generator: Adobe Illustrator 16.0.0, SVG Export Plug-In . SVG Version: 6.00 Build 0)  -->

<svg
   version="1.1"
   id="Layer_1"
   x="0px"
   y="0px"
   width="1000"
   height="194.20993"
   viewBox="0 0 1000 194.20993"
   enable-background="new 0 0 1000 194.211"
   xml:space="preserve"
   sodipodi:docname="logo_tecmo.svg"
   inkscape:version="1.2.2 (732a01da63, 2022-12-09)"
   xmlns:inkscape="http://www.inkscape.org/namespaces/inkscape"
   xmlns:sodipodi="http://sodipodi.sourceforge.net/DTD/sodipodi-0.dtd"
   xmlns="http://www.w3.org/2000/svg"
   xmlns:svg="http://www.w3.org/2000/svg"><defs
   id="defs3802" /><sodipodi:namedview
   id="namedview3800"
   pagecolor="#ffffff"
   bordercolor="#000000"
   borderopacity="0.25"
   inkscape:showpageshadow="2"
   inkscape:pageopacity="0.0"
   inkscape:pagecheckerboard="0"
   inkscape:deskcolor="#d1d1d1"
   showgrid="false"
   inkscape:zoom="1.21"
   inkscape:cx="500"
   inkscape:cy="96.694215"
   inkscape:window-width="1920"
   inkscape:window-height="1017"
   inkscape:window-x="-8"
   inkscape:window-y="-8"
   inkscape:window-maximized="1"
   inkscape:current-layer="Layer_1" />
<g
   id="g3797"
   transform="translate(0,-7.2021236e-5)">
	<polygon
   fill="#ef3e42"
   points="47.647,50.331 47.647,189.449 106.063,189.449 106.063,50.701 156.201,50.701 156.201,3.728 0,3.728 0,50.331 "
   id="polygon3787" />
	<path
   fill="#ef3e42"
   d="M 305.67,120.447 V 74.961 l -81.252,-0.056 c 0.067,-8.063 0.168,-19.929 0.168,-20.024 -0.03,-4.792 5.709,-5.603 9.066,-5.657 l 72.45,0.097 0.04,-45.309 -87.252,-0.078 c -26.806,2.388 -50.526,21.362 -52.873,42.303 -0.186,1.646 -0.146,99.148 -0.099,99.757 1.604,22.537 26.763,41.484 58.518,44.075 4.203,0.343 81.061,0.252 81.061,0.188 0,0 0.008,-45.096 0.008,-45.082 0,0 -72.371,-0.133 -71.751,-0.089 l -0.417,-0.047 -0.416,0.001 c -4.529,0.02 -8.641,-4.305 -8.841,-6.172 -0.217,-5.039 -0.052,-12.614 0.102,-18.395 9.013,0.019 81.488,-0.026 81.488,-0.026 z"
   id="path3789" />
	<path
   fill="#ef3e42"
   d="M 461.177,2.999 454.023,2.986 C 392.335,2.858 345.052,23.355 324.296,59.222 c -13.928,24.069 -13.829,51.882 0.271,76.304 20.913,36.221 66.644,56.958 125.457,56.895 l 7.249,-0.009 v -45.484 h -7.253 c -49.94,0 -76.066,-24.626 -76.066,-48.948 0,-12.486 6.627,-24.216 18.656,-33.029 14.541,-10.655 35.777,-16.289 61.401,-16.289 h 7.083 z"
   id="path3791" />
	<path
   fill="#ef3e42"
   d="m 632.779,189.719 c 0,0 -0.193,-126.909 -0.154,-132.619 l 0.008,-0.049 -0.003,-0.478 c 0,-0.951 -0.008,-3.847 4.713,-6.579 7.913,-4.584 21.763,-4.619 29.637,-0.077 5.209,3.004 5.204,6.619 5.204,7.808 0,0 0.244,132.63 0.244,132.689 L 731.355,190.383 731.45,53.33 V 52.756 L 731.364,52.19 C 727.53,27.978 709.93,10.771 681.815,3.74 653.966,-3.219 619.243,1.042 603.506,12.295 580.085,-3.825 538.258,-3.084 510.772,8.659 c -22.003,9.396 -34.248,24.752 -34.479,43.226 -0.312,24.418 -0.378,138.184 -0.347,138.184 0,0 58.377,0.152 58.35,0.157 0,0 -0.087,-127.738 0.109,-131.625 l 0.119,-0.665 -0.009,-0.676 c -0.007,-0.983 -0.038,-3.596 4.23,-6.098 7.595,-4.456 21.559,-4.486 29.287,-0.062 4.147,2.375 4.151,4.761 4.151,5.546 0,0 -0.287,133.439 -0.256,133.422 z"
   id="path3793" />
	<path
   fill="#ef3e42"
   d="M 974.109,38.627 C 949.728,14.249 912.548,0.268 872.093,0.268 c -40.45,0 -77.632,13.981 -102.012,38.359 -16.94,16.941 -25.895,37.209 -25.895,58.611 0,21.403 8.954,41.672 25.895,58.613 24.38,24.38 61.562,38.359 102.012,38.359 70.531,0 127.907,-43.502 127.907,-96.973 0,-21.401 -8.955,-41.669 -25.891,-58.61 z m -45.814,87.335 c -13.034,13.03 -34.042,20.813 -56.202,20.813 -22.155,0 -43.163,-7.782 -56.195,-20.813 -8.456,-8.456 -12.925,-18.388 -12.925,-28.724 0,-27.315 31.008,-49.538 69.12,-49.538 22.16,0 43.168,7.781 56.202,20.815 8.453,8.453 12.921,18.386 12.921,28.723 0,10.336 -4.468,20.268 -12.921,28.724 z"
   id="path3795" />
</g>
</svg>
