<?xml version="1.0" encoding="UTF-8" standalone="no"?>
<!-- Created with Inkscape (http://www.inkscape.org/) -->

<svg
   width="135.46666mm"
   height="33.372902mm"
   viewBox="0 0 135.46666 33.372902"
   version="1.1"
   id="svg5"
   xml:space="preserve"
   xmlns="http://www.w3.org/2000/svg"
   xmlns:svg="http://www.w3.org/2000/svg"><defs
     id="defs2" /><g
     id="layer1"
     transform="translate(-30.202153,-116.02323)"><path
       d="m 47.920291,149.39613 c -10.621169,-0.004 -17.718138,-7.53052 -17.718138,-16.65674 v 0 c 0,-9.12622 7.11316,-16.73949 17.701945,-16.71611 H 147.96687 c 10.58879,-0.0234 17.70195,7.58989 17.70195,16.71611 v 0 c 0,9.12622 -7.09697,16.65314 -17.71814,16.65674 z m 0.03238,-29.26758 c -8.408424,0.0162 -13.569693,5.6362 -13.569693,12.58925 v 0 c 0,6.95125 5.128887,12.61804 13.569692,12.58745 h 99.96563 c 8.44081,0.0288 13.57149,-5.6362 13.57149,-12.58745 v 0 c 0,-6.95125 -5.16127,-12.57126 -13.56969,-12.58745 z m 105.342779,5.86827 c 0.76456,0 1.14415,0.25905 1.14415,0.77176 0,0.3526 -0.21948,0.61885 -0.58467,0.7106 l 0.59906,1.19632 H 153.729 l -0.51271,-1.09738 h -0.31842 v 1.09738 h -0.65303 v -2.67868 z m -0.0594,-1.04701 c -1.33484,0 -2.41783,1.08299 -2.41783,2.41783 0,1.33484 1.08299,2.41783 2.41783,2.41783 1.33484,0 2.41783,-1.08299 2.41783,-2.41783 0,-1.33484 -1.08299,-2.41783 -2.41783,-2.41783 z m 1.95549,2.41963 c 0,1.07939 -0.8761,1.95549 -1.95549,1.95549 -1.07939,0 -1.95549,-0.8761 -1.95549,-1.95549 0,-1.07939 0.8761,-1.95549 1.95549,-1.95549 1.07939,0 1.95549,0.8743 1.95549,1.95549 z m -2.2937,-0.1835 h 0.31842 c 0.37239,0 0.55229,-0.11333 0.55229,-0.37958 0,-0.27884 -0.19249,-0.39937 -0.58467,-0.39937 h -0.28604 z m -54.64576,6.54648 c -0.007,-0.91568 0.0126,-1.52733 0.31302,-2.04903 0.36879,-0.64403 1.04701,-0.94986 1.66225,-0.95346 h -0.002 c 0.61525,0.004 1.29347,0.30943 1.66226,0.95346 0.30043,0.5235 0.31302,1.13515 0.30583,2.05083 z m 3.92537,3.15001 c 0,0 0.004,0.0468 0.004,0.63325 0,1.91051 -1.25749,2.33507 -1.95549,2.33507 -0.69801,0 -1.97708,-0.42456 -1.97708,-2.33507 0,-0.57208 0.004,-2.15698 0.004,-2.15698 0,0 8.89954,0.004 8.89954,-0.002 0,-3.23996 -3.12842,-5.92403 -6.97104,-5.92403 -3.842624,0 -6.956649,2.6265 -6.956649,5.86646 0,3.23996 3.114025,5.86467 6.956649,5.86467 3.18779,0 5.88086,-1.81876 6.703,-4.28516 z m 14.86496,-7.27506 c 1.76659,-0.0504 5.35016,1.10637 5.32497,5.24222 -0.004,0.73398 -0.002,5.68477 -0.002,5.68477 h -4.69354 c 0,0 0,-6.20827 0,-6.8613 0,-0.91029 -0.8707,-1.92311 -2.15877,-1.92311 -1.28627,0 -2.24333,1.01282 -2.24333,1.92311 0,0.44615 0.005,6.8613 0.005,6.8613 h -4.68993 l 0.004,-10.44667 4.68813,-0.004 c 0,0 -0.005,0.84012 0,1.09918 0.90309,-0.86171 2.20555,-1.53093 3.76527,-1.57591 z m -38.393803,0 c 1.766597,-0.0504 5.350164,1.10637 5.324978,5.24222 -0.0036,0.73398 -0.0019,5.68477 -0.0019,5.68477 h -4.693537 c 0,0 0,-6.20827 0,-6.8613 0,-0.91029 -0.870704,-1.92311 -2.158772,-1.92311 -1.286269,0 -2.243325,1.01282 -2.243325,1.92311 0,0.44615 0.0054,6.8613 0.0054,6.8613 h -4.689935 l -0.0019,-10.44667 4.693533,-0.004 c 0,0 -0.0054,0.84012 0,1.09918 0.903089,-0.86171 2.203749,-1.53093 3.765262,-1.57591 z m 53.900993,-4.77989 h 4.66295 v 15.71048 h -4.67015 c 0,0 -0.002,-0.50731 -0.002,-0.60446 -1.80797,1.13516 -3.84801,1.13336 -5.43651,0.39218 -0.42636,-0.19789 -3.23097,-1.54352 -3.23097,-5.17926 0,-2.75783 2.60133,-5.76932 6.00679,-5.47069 1.12076,0.0989 1.91771,0.50731 2.67328,0.93187 -0.004,-2.41783 -0.004,-5.78012 -0.004,-5.78012 z m 0.0342,10.43408 c 0,0 0,-1.30966 0,-1.86734 0,-1.61549 -1.11537,-2.02745 -1.84935,-2.02745 -0.75197,0 -1.85295,0.41196 -1.85295,2.02745 0,0.53609 0.002,1.86194 0.002,1.86194 0,0 -0.002,1.30246 -0.002,1.85834 0,1.61369 1.10098,2.03645 1.85115,2.03645 0.73578,0 1.85295,-0.42276 1.85295,-2.03645 0,-0.67101 -0.002,-1.85294 -0.002,-1.85294 z m 14.9693,-0.0306 c 0,0 -0.002,1.5795 -0.002,2.21274 0,1.66585 -0.98404,2.35306 -1.9303,2.35306 -0.94806,0 -1.9357,-0.68721 -1.9357,-2.35306 0,-0.63324 0.002,-2.25232 0.002,-2.25232 0,0 0.004,-1.54532 0.004,-2.17856 0,-1.65866 0.98944,-2.34047 1.9303,-2.34047 0.94267,0 1.93031,0.68181 1.93031,2.34047 0,0.63324 -0.002,1.80437 0.004,2.22353 z m -1.89793,-5.85388 c -3.81383,0 -6.90447,2.62651 -6.90447,5.86647 0,3.23996 3.09244,5.86647 6.90447,5.86647 3.81384,0 6.90448,-2.62651 6.90448,-5.86647 0,-3.23996 -3.09064,-5.86647 -6.90448,-5.86647 z m -82.801561,-1.34204 v -3.21117 h 4.73491 v 3.21117 z m 0.01079,12.5029 v -10.44847 l 4.724117,0.002 v 10.44667 z m 23.701539,0 0.0019,-10.42688 h -2.56894 v -1.55072 l 2.570739,-0.002 -0.0036,-2.11559 h 4.727715 v 2.11379 H 93.8519 v 1.55432 h -2.558148 l 0.0036,10.42688 z m -42.927219,0 0.0018,-15.71048 h 4.895019 l 6.771354,10.95578 -0.0036,-10.95578 h 4.857242 v 15.71048 H 55.310492 L 48.50316,129.58218 v 10.95578 z"
       style="fill:#e60012;fill-opacity:1;stroke-width:0.264583"
       id="path29" /></g><style
     type="text/css"
     id="style7">.logo{fill:#939598}</style></svg>
