<?xml version="1.0" encoding="UTF-8" standalone="no"?>
<!-- Created with Inkscape (http://www.inkscape.org/) -->

<svg
   width="78.050545mm"
   height="19.23205mm"
   viewBox="0 0 78.050545 19.23205"
   version="1.1"
   id="svg5"
   xmlns="http://www.w3.org/2000/svg"
   xmlns:svg="http://www.w3.org/2000/svg">
  <defs
     id="defs2" />
  <g
     id="layer1"
     transform="translate(-46.067912,-46.97507)">
    <path
       d="m 49.868817,46.97508 c -0.734321,0 -1.448121,0.603607 -1.579248,1.35173 v 0.01338 0.01338 0.01338 l -0.01338,0.01338 v 0.02677 0.01338 l -0.01338,0.02677 v 0.02677 l -0.01338,0.02677 v 0.04015 l -0.01338,0.02677 v 0.04015 l -0.01338,0.04015 -0.01338,0.04015 -0.01338,0.0803 -0.02677,0.09368 -0.01338,0.09369 -0.02677,0.09368 -0.01339,0.107068 -0.02676,0.107068 -0.02677,0.120451 -0.02677,0.107067 -0.04015,0.227519 -0.02677,0.120452 -0.02677,0.107067 -0.01338,0.107068 -0.02677,0.107068 -0.02677,0.107067 -0.01338,0.107068 -0.01339,0.09368 -0.02677,0.0803 -0.01339,0.09368 v 0.04015 l -0.01338,0.02677 v 0.04015 0.02677 l -0.01338,0.04015 v 0.02677 0.02677 l -0.01338,0.02677 v 0.01338 0.01338 c -0.01381,0.327131 0.03169,0.773724 0.133834,0.856542 0.129747,0.720517 2.531575,4.055811 2.462559,4.56376 -0.06487,0.509332 -0.347972,2.00752 -0.347972,2.00752 -0.08696,0.505192 -0.431649,0.910075 -0.936842,0.910075 -0.505187,2e-6 -0.849814,-0.403504 -0.76286,-0.910075 l 0.455039,-2.489323 h -1.793383 l -0.602257,3.452932 c -0.122846,0.701197 0.35196,1.258047 1.057294,1.258047 h 2.556244 c 0.708093,0 1.382584,-0.55685 1.512332,-1.258047 0,0 0.658551,-3.225182 0.65579,-3.452932 -0.0028,-0.22913 -0.06692,-0.254288 -0.06692,-0.254288 0,-0.262257 -2.137402,-3.790224 -2.355489,-3.921353 -0.09386,-0.05521 -0.171225,-0.404454 -0.173986,-0.61564 -0.0041,-0.209805 0.281052,-1.619398 0.281052,-1.619398 0.08696,-0.505191 0.565488,-0.910076 1.070677,-0.910076 0.505189,0 0.715981,0.404885 0.629025,0.910076 l -0.388123,2.235038 h 1.806768 l 0.629022,-3.35925 c 0.142173,-0.748123 -0.336356,-1.35173 -1.070677,-1.35173 z m 4.925113,0 -2.141352,12.339553 c -0.12285,0.701195 0.351959,1.258047 1.057293,1.258047 h 2.556244 c 0.708093,0 1.394585,-0.556852 1.525714,-1.258047 L 60.080401,46.97508 h -1.606015 l -2.181504,11.991584 c -0.03175,0.173919 -0.200822,0.321204 -0.374739,0.321204 h -1.27143 c -0.17806,0 -0.296656,-0.145904 -0.267669,-0.321204 L 56.507016,46.97508 Z m 6.156396,0 -2.583008,13.5976 h 1.713083 l 1.177746,-6.156395 h 2.181504 c 0.709476,0 1.382583,-0.560993 1.512331,-1.258044 l 0.936843,-4.831431 c 0.140792,-0.749502 -0.336356,-1.35173 -1.070677,-1.35173 H 62.66341 Z m 6.116244,0 -2.676693,13.5976 h 3.854438 l 0.267669,-1.686316 h -1.900452 l 0.776241,-4.590529 h 1.900455 l 0.26767,-1.418647 h -1.900456 l 0.843159,-4.215791 h 1.900447 l 0.26767,-1.686317 z m 4.603908,0 -2.56962,13.5976 h 1.71308 l 1.16436,-6.156395 h 1.2179 c 0.16011,0.149074 0.17866,0.424076 0.20075,0.562108 0.0318,0.20014 0.065,0.455646 0.0401,0.655788 -0.0221,0.198767 -0.93684,4.938499 -0.93684,4.938499 h 1.71308 c 0,0 0.96361,-5.163501 0.96361,-5.24632 0.003,-0.0842 1.8e-4,-0.348874 -0.0937,-0.495186 -0.0621,-0.09387 -0.17021,-0.309444 -0.29444,-0.388122 -0.2388,-0.153212 -0.50857,-0.254284 -0.50857,-0.254284 h -0.12045 c 0.49,-0.193241 1.41433,-0.511535 1.51233,-1.030527 l 0.93684,-4.831431 c 0.14217,-0.749502 -0.33635,-1.35173 -1.07068,-1.35173 z m 9.16768,0 -2.58301,13.5976 h 1.96737 l 1.59263,-7.88286 0.62902,7.88286 h 1.71309 l 2.583,-13.5976 h -1.96737 l -1.33834,7.106621 -0.88331,-7.106621 z m 6.7988,0 -2.58301,13.5976 h 1.71308 l 2.58301,-13.5976 z m 2.60977,0 -2.58301,13.5976 h 1.98076 l 1.59263,-7.88286 0.62902,7.88286 h 1.71308 l 2.58301,-13.5976 h -1.98075 l -1.32496,7.106621 -0.88331,-7.106621 z m 6.6382,0 -0.3212,1.686317 h 1.07067 l -2.11459,11.911283 h 1.95399 l 2.15474,-11.911283 h 1.030532 l 0.26766,-1.686317 z m 4.710982,0 -2.676702,13.5976 h 3.854442 l 0.26767,-1.686316 h -1.90045 l 0.78963,-4.590529 h 1.90045 l 0.26767,-1.418647 h -1.90046 l 0.82978,-4.215791 h 1.90045 l 0.26767,-1.686317 z m 4.34963,0 -2.58302,13.5976 h 1.98076 l 1.59263,-7.88286 0.62902,7.88286 h 1.71308 l 2.58301,-13.5976 h -1.98075 l -1.32496,7.106621 -0.88331,-7.106621 z m 6.81218,0 -2.58301,13.5976 h 3.90797 c 0.70948,0 1.39459,-0.556856 1.52571,-1.258047 l 2.07444,-10.987823 c 0.14078,-0.749502 -0.33636,-1.35173 -1.07068,-1.35173 z m 7.34752,0 c -0.73432,-2e-6 -1.43474,0.603607 -1.56587,1.35173 l -1.91383,10.987823 c -0.12423,0.701191 0.33996,1.258047 1.04391,1.258047 h 2.82391 c 0.70809,0 1.39458,-0.556856 1.52571,-1.258047 l 2.07444,-10.987823 c 0.14217,-0.748121 -0.33774,-1.35173 -1.07068,-1.35173 z m -5.88872,1.565866 h 0.78962 c 0.50519,0 0.84981,0.404885 0.76285,0.910076 l -1.68631,8.900002 c -0.0883,0.505192 -0.57887,0.92346 -1.08406,0.92346 h -0.77624 z m 6.89248,0 h 0.0535 c 0.5052,0 0.83643,0.404885 0.74947,0.910076 l -1.60601,8.900002 c -0.087,0.503812 -0.5521,0.92346 -1.0573,0.92346 -0.50517,4e-6 -0.71598,-0.418268 -0.62902,-0.92346 l 1.59264,-8.900002 0.0134,-0.04015 0.0134,-0.04015 0.0134,-0.05354 0.0134,-0.04015 0.0134,-0.05353 0.0134,-0.04015 0.0134,-0.04015 0.0268,-0.04015 0.0134,-0.04015 0.0268,-0.04015 0.0134,-0.04015 0.0268,-0.04015 0.0268,-0.02677 0.0268,-0.04015 0.0268,-0.04015 0.0401,-0.02677 0.0268,-0.02677 0.0268,-0.02677 0.0402,-0.02677 0.0402,-0.02677 0.0268,-0.02677 0.0401,-0.02677 0.0402,-0.01338 0.0401,-0.02677 0.0268,-0.01338 0.0535,-0.01338 0.0401,-0.01338 h 0.0402 l 0.0401,-0.01338 h 0.0535 z m -58.512507,0.05354 h 0.829775 c 0.182202,-2e-6 0.568466,0.417293 0.535338,0.602254 l -0.709323,3.35925 c -0.03313,0.17392 -0.267736,0.575489 -0.441655,0.575489 h -1.00376 -0.01338 -0.01338 l -0.01338,-0.01338 h -0.01338 -0.01338 -0.01338 -0.01338 v -0.01338 h -0.01338 -0.01338 l -0.01338,-0.01338 h -0.01338 l -0.01338,-0.01338 -0.01338,-0.01338 h -0.01338 v -0.01338 l -0.01338,-0.01338 -0.01338,-0.01338 v -0.01338 l -0.01338,-0.01338 -0.01338,-0.01338 v -0.01338 -0.01338 l -0.01338,-0.01338 v -0.01338 -0.01338 l -0.01338,-0.01338 v -0.01338 c -2e-6,-0.02208 -0.0028,-0.05546 0,-0.0803 l 0.803008,-4.108722 c 0.07316,-0.06073 0.163186,-0.107068 0.254286,-0.107068 z m 10.666625,0 h 0.0134 0.0134 0.0134 0.0134 0.77624 c 0.1822,-2e-6 0.57123,0.417293 0.53534,0.602254 l -0.70932,3.345867 c -0.0318,0.175301 -0.46712,0.588872 -0.64241,0.588872 h -0.73609 c -0.15183,0 -0.25663,-0.100111 -0.26767,-0.240902 0,-0.02208 -0.003,-0.05407 0,-0.0803 l 0.78962,-4.108723 0.0134,-0.01339 0.0134,-0.01338 0.0268,-0.01338 h 0.0134 l 0.0134,-0.01338 0.0134,-0.01338 h 0.0134 l 0.0134,-0.01338 h 0.0134 l 0.0268,-0.01338 h 0.0134 0.0134 0.0134 z M 46.067913,61.750425 v 4.456694 h 76.392817 v -4.456694 z m 56.157017,0.468421 h 0.0134 0.0134 0.0134 0.0134 0.0134 0.58888 c 0.15874,0 0.27264,0.127293 0.2409,0.294435 l -0.14722,0.749476 h -0.36136 l 0.0803,-0.495188 c 0.0179,-0.112071 -0.0474,-0.200754 -0.1606,-0.200754 -0.11179,0 -0.22157,0.08813 -0.2409,0.200754 l -0.0669,0.361352 c -0.011,0.02154 0.0222,0.123078 0.0402,0.133836 0.0497,0.02858 0.52195,0.811679 0.52195,0.869925 0.011,0.02912 0.0175,0.04277 0.0134,0.05353 -0.0138,0.09813 -0.14721,0.762856 -0.14721,0.762856 -0.029,0.15266 -0.17724,0.281053 -0.33459,0.281053 h -0.56211 c -0.15597,0 -0.25649,-0.128393 -0.22751,-0.281053 l 0.13383,-0.762856 h 0.38812 l -0.0937,0.548721 c -0.018,0.11208 0.0474,0.214135 0.1606,0.214135 0.10768,0 0.22297,-0.101507 0.2409,-0.214135 l 0.0803,-0.441654 c -0.0718,-0.184818 -0.54512,-0.857036 -0.57549,-1.017142 -0.0207,-0.01781 -0.0295,-0.114494 -0.0268,-0.18737 0.004,-0.07978 0.10707,-0.575481 0.10707,-0.57549 h 0.0134 v -0.01338 -0.01338 -0.01338 l 0.0134,-0.02676 v -0.01338 l 0.0134,-0.01339 v -0.01338 l 0.0134,-0.01338 v -0.01338 l 0.0134,-0.01338 0.0134,-0.01338 v -0.01338 h 0.0134 l 0.0134,-0.01338 0.0134,-0.01338 0.0134,-0.01338 v -0.01338 h 0.0134 l 0.0134,-0.01338 0.0134,-0.01338 h 0.0134 l 0.0134,-0.01338 h 0.0134 l 0.0134,-0.01338 h 0.0134 0.0268 z m 3.0782,0 h 0.4818 l 0.0669,1.137594 0.61564,-1.137594 h 0.48181 l -0.99038,1.739851 -0.2409,1.271428 h -0.42827 l 0.21413,-1.365113 z m 4.37639,0 h 0.0134 0.0134 0.0134 0.0134 0.0134 0.58887 c 0.15874,0 0.26989,0.127293 0.2409,0.294435 l -0.14721,0.749476 h -0.36136 l 0.0803,-0.495188 c 0.0179,-0.112071 -0.0474,-0.200754 -0.1606,-0.200754 -0.11181,0 -0.22296,0.08813 -0.2409,0.200754 l -0.0669,0.361352 c -0.0138,0.02154 0.0181,0.123078 0.0401,0.133836 0.0469,0.02858 0.52196,0.811679 0.52196,0.869925 0.0138,0.02912 0.0134,0.04277 0.0134,0.05353 -0.018,0.09813 -0.13384,0.762856 -0.13384,0.762856 -0.029,0.15266 -0.17861,0.281053 -0.33458,0.281053 h -0.57549 c -0.15597,0 -0.25651,-0.128393 -0.22752,-0.281053 l 0.13383,-0.762856 h 0.38812 l -0.0937,0.548721 c -0.018,0.11208 0.0516,0.214135 0.1606,0.214135 0.11182,0 0.21882,-0.101507 0.24091,-0.214135 l 0.0803,-0.441654 c -0.0731,-0.184818 -0.54512,-0.857036 -0.57549,-1.017142 -0.0207,-0.01781 -0.0295,-0.114494 -0.0268,-0.18737 0.004,-0.07978 0.10707,-0.575481 0.10707,-0.57549 l 0.0134,-0.01338 v -0.01338 -0.01338 l 0.0134,-0.02676 v -0.01338 l 0.0134,-0.01339 v -0.01338 l 0.0134,-0.01338 v -0.01338 l 0.0134,-0.01338 0.0134,-0.01338 v -0.01338 h 0.0134 l 0.0134,-0.01338 0.0134,-0.01338 0.0134,-0.01338 0.0134,-0.01338 0.0134,-0.01338 0.0134,-0.01338 h 0.0134 l 0.0134,-0.01338 h 0.0134 l 0.0134,-0.01338 h 0.0134 0.0268 z m 3.11835,0 h 0.89669 l -0.0669,0.361353 h -0.22752 l -0.46842,2.649926 h -0.44165 l 0.46842,-2.649926 h -0.22752 z m 3.50647,0 h 0.803 l -0.0669,0.361353 h -0.41489 l -0.18736,0.950228 h 0.42826 l -0.0669,0.307818 h -0.41488 l -0.17399,1.017146 h 0.41489 l -0.0535,0.374734 h -0.85654 z m 3.30571,0 h 0.49519 l 0.0803,1.739851 0.76285,-1.726467 0.48181,-0.01338 -0.50858,3.011279 h -0.37473 l 0.2409,-1.592632 -0.66917,1.592632 h -0.26767 l -0.0803,-1.63278 -0.29444,1.63278 h -0.44165 z m -71.882587,0.107068 h 0.789622 l -0.05353,0.374737 H 48.035284 L 47.8613,63.637493 h 0.41489 l -0.05354,0.321204 h -0.42827 l -0.160602,1.017142 h 0.414888 l -0.06692,0.374738 h -0.856541 z m 3.693835,0 h 0.374737 l 0.200751,1.579249 0.294438,-1.579249 h 0.441655 l -0.575488,3.024663 h -0.37474 l -0.147219,-1.753232 -0.347968,1.753232 H 50.84581 Z m 4.01504,0 h 0.883309 l -0.05353,0.374737 h -0.227519 l -0.481808,2.649926 h -0.428269 l 0.46842,-2.649926 h -0.240902 z m 3.89459,0 h 0.803008 l -0.06692,0.374737 h -0.414887 l -0.187369,0.936842 h 0.414887 l -0.05353,0.321204 H 59.41123 l -0.173986,1.017142 h 0.414887 l -0.05353,0.374738 h -0.856543 z m 3.774136,0 h 0.856542 c 0.158735,-10e-7 0.259266,0.140675 0.227519,0.307819 l -0.200752,1.070678 c -0.02209,0.115945 -0.225543,0.210535 -0.334586,0.254286 h 0.02677 0.01338 0.01338 v 0.01338 h 0.01338 0.01338 0.01338 0.01338 l 0.01338,0.01338 h 0.01338 0.01338 0.01338 v 0.01338 h 0.01338 0.01338 v 0.01338 h 0.01338 c 0.01794,0.03244 0.02677,0.12886 0.02677,0.147219 0,0.0178 -0.214136,1.191136 -0.214136,1.191128 h -0.38812 c 0,0 0.207233,-1.053684 0.214135,-1.097443 0.0041,-0.04693 -0.0051,-0.103451 -0.01338,-0.147219 -0.0028,-0.0323 -0.0043,-0.0876 -0.04015,-0.120452 h -0.267669 l -0.254286,1.365114 h -0.38812 z m 3.827671,0 h 0.896692 l -0.05353,0.374737 h -0.227519 l -0.481804,2.649926 h -0.428271 l 0.468421,-2.649926 h -0.240906 z m 4.456693,0 h 0.50857 l -0.1606,3.024663 h -0.50857 l 0.0669,-0.69594 h -0.30782 l -0.25429,0.69594 h -0.45504 z m 3.56,0 h 0.38812 l -0.57549,3.024663 h -0.37473 z m 3.45294,0 h 0.37473 l 0.20075,1.579249 0.29444,-1.579249 h 0.42827 l -0.5621,3.024663 h -0.38812 l -0.13384,-1.753232 -0.34797,1.753232 h -0.44165 z m 4.42992,0 h 0.49519 l 0.0803,1.753234 0.76286,-1.73985 h 0.4818 l -0.50857,3.011279 h -0.37474 l 0.24091,-1.592631 -0.66918,1.592631 h -0.26767 l -0.0803,-1.632784 -0.29443,1.632784 h -0.42827 z m 4.8582,0 h 0.78962 l -0.0535,0.374737 h -0.42827 l -0.17398,0.936842 h 0.41489 l -0.0535,0.321204 h -0.42828 l -0.17398,1.017142 h 0.42827 l -0.0669,0.374738 h -0.84316 z m 3.8812,0 h 0.37474 l 0.20075,1.579249 0.29444,-1.579249 h 0.42827 l -0.5621,3.024663 h -0.37474 l -0.14722,-1.753232 -0.34797,1.753232 h -0.44166 z m 3.97489,0 h 0.89669 l -0.0669,0.374737 h -0.22752 l -0.46842,2.649926 h -0.42827 l 0.46842,-2.649926 h -0.2409 z m -32.08016,0.361353 c -0.0207,0 -0.03835,0.01227 -0.05353,0.02677 l -0.173985,0.910076 c 10e-7,0.007 0,0.0059 0,0.01338 10e-7,0.02912 0.02041,0.05354 0.05353,0.05354 h 0.160602 c 0.04003,0 0.140316,-0.08056 0.147218,-0.120452 l 0.147218,-0.749475 c 0.0069,-0.04307 -0.06704,-0.133834 -0.107067,-0.133834 z m 7.92301,0.910078 -0.28105,0.762856 h 0.21413 z"
       style="font-style:normal;font-variant:normal;font-weight:normal;font-stretch:normal;letter-spacing:normal;word-spacing:normal;text-anchor:start;fill:#ffffff;fill-opacity:1;fill-rule:nonzero;stroke:#fc0c18;stroke-width:0;stroke-linecap:butt;stroke-linejoin:miter;stroke-miterlimit:10.433;stroke-dasharray:none;stroke-dashoffset:0;stroke-opacity:1"
       id="polyline2177" />
  </g>
</svg>
