<?xml version="1.0" encoding="UTF-8" standalone="no"?>
<!-- Created with Inkscape (http://www.inkscape.org/) -->

<svg
   width="1015.7618mm"
   height="101.49416mm"
   viewBox="0 0 1015.7618 101.49417"
   version="1.1"
   id="svg5"
   inkscape:version="1.1.2 (b8e25be833, 2022-02-05)"
   sodipodi:docname="logo_c64.svg"
   xmlns:inkscape="http://www.inkscape.org/namespaces/inkscape"
   xmlns:sodipodi="http://sodipodi.sourceforge.net/DTD/sodipodi-0.dtd"
   xmlns="http://www.w3.org/2000/svg"
   xmlns:svg="http://www.w3.org/2000/svg">
  <sodipodi:namedview
     id="namedview7"
     pagecolor="#ffffff"
     bordercolor="#666666"
     borderopacity="1.0"
     inkscape:pageshadow="2"
     inkscape:pageopacity="0.0"
     inkscape:pagecheckerboard="0"
     inkscape:document-units="mm"
     showgrid="false"
     fit-margin-top="0"
     fit-margin-left="0"
     fit-margin-right="0"
     fit-margin-bottom="0"
     inkscape:zoom="0.16013082"
     inkscape:cx="1951.5294"
     inkscape:cy="508.95886"
     inkscape:window-width="1740"
     inkscape:window-height="970"
     inkscape:window-x="328"
     inkscape:window-y="26"
     inkscape:window-maximized="0"
     inkscape:current-layer="layer1" />
  <defs
     id="defs2"><linearGradient
   id="path6288-1-5-9-9_1_"
   gradientUnits="userSpaceOnUse"
   x1="280.50699"
   y1="64.777"
   x2="280.50699"
   y2="4.777"
   gradientTransform="matrix(1.1804939,0,0,-1.1804939,-237.53298,-113.07607)">
  <stop
     offset="0"
     stop-color="#f1f3f2"
     id="stop1097" />
  <stop
     offset=".194"
     stop-color="#a4b5d3"
     id="stop1099" />
  <stop
     offset=".586"
     stop-color="#f1f3f2"
     id="stop1101" />
  <stop
     offset=".6"
     stop-color="#5878b5"
     id="stop1103" />
  <stop
     offset="1"
     stop-color="#f1f3f2"
     id="stop1105" />
</linearGradient>
<linearGradient
   id="path7243_1_"
   gradientUnits="userSpaceOnUse"
   x1="-162.882"
   y1="511.83401"
   x2="-162.882"
   y2="509.73401"
   gradientTransform="matrix(2.9657548,0,0,-14.69408,638.49303,7362.6294)">
  <stop
     offset="0"
     stop-color="#f1f3f2"
     id="stop1109" />
  <stop
     offset=".898"
     stop-color="#a4b5d3"
     id="stop1111" />
  <stop
     offset="1"
     stop-color="#5878b5"
     id="stop1113" />
</linearGradient>
<linearGradient
   id="rect7344_1_"
   gradientUnits="userSpaceOnUse"
   x1="280.91501"
   y1="64.777"
   x2="280.91501"
   y2="0.77700001"
   gradientTransform="matrix(1.1804939,0,0,-1.1804939,-127.17349,295.97392)">
  <stop
     offset="0"
     stop-color="#f1f3f2"
     id="stop1123" />
  <stop
     offset=".194"
     stop-color="#a4b5d3"
     id="stop1125" />
  <stop
     offset=".586"
     stop-color="#f1f3f2"
     id="stop1127" />
  <stop
     offset=".6"
     stop-color="#5878b5"
     id="stop1129" />
  <stop
     offset="1"
     stop-color="#f1f3f2"
     id="stop1131" />
</linearGradient>
<linearGradient
   id="left-dark"
   x1="-0.0098969955"
   x2="645.80023"
   y1="-0.066799954"
   y2="-0.066799954"
   gradientTransform="matrix(0.49738843,0,0,0.1407438,-77.192275,-86.273644)"
   gradientUnits="userSpaceOnUse">
  <stop
     id="stop5213"
     offset="0"
     stop-color="#00274f" />
  <stop
     id="stop5215"
     offset="1"
     stop-color="#68cafb" />
</linearGradient>
<linearGradient
   id="right-dark"
   x1="-0.0098969955"
   x2="645.80023"
   y1="-0.066799954"
   y2="-0.066799954"
   gradientTransform="matrix(0.49738843,0,0,0.1407438,-77.192275,-86.273644)"
   gradientUnits="userSpaceOnUse">
  <stop
     id="stop4"
     offset="0"
     stop-color="#68cafb" />
  <stop
     id="stop6"
     offset="1"
     stop-color="#00274f" />
</linearGradient>

	

		
		
		
		
		
	
			
			
			
			
			
		
			
			
			
		
			
			
			
			
			
			
			
			
			
		
			
			
		</defs>
  <g
     inkscape:label="Layer 1"
     inkscape:groupmode="layer"
     id="layer1"
     transform="translate(260.41127,331.39583)">
    <path
       id="path2672"
       style="stroke-width:0.999999;fill:#ffffff"
       class="st39"
       d="M 191.80078 0 C 86.300842 0 6.8212103e-13 86.300842 0 191.80078 C 0 297.30077 86.300842 383.59961 191.80078 383.59961 L 3647.3008 383.59961 C 3752.8008 383.59961 3839.0996 297.30077 3839.0996 191.80078 C 3839.0996 86.300842 3752.6992 6.8212103e-13 3647.1992 0 L 324.80078 0 L 191.80078 0 z M 2114 55.5 L 3132 55.5 L 3132 83.5 L 2114 83.5 L 2114 55.5 z M 191.80078 74 C 202.40081 74 212.60081 75.399987 222.30078 78 L 222.30078 137.30078 C 213.20081 132.2008 202.9008 129.30078 191.80078 129.30078 C 157.3008 129.30078 129.30078 157.40081 129.30078 191.80078 C 129.30078 226.10079 157.3008 254.20062 191.80078 254.30078 C 202.9008 254.30078 213.30078 251.4008 222.30078 246.30078 L 222.30078 305.59961 C 212.50081 308.19958 202.3008 309.59961 191.80078 309.59961 C 126.7008 309.59961 74 256.9008 74 191.80078 C 74 126.7008 126.7008 74 191.80078 74 z M 3317.9746 91.392578 C 3321.9289 91.385743 3325.4258 91.400391 3328.3008 91.400391 C 3341.1008 91.400391 3354.0008 91.4 3366.8008 92 C 3384.6008 92.6 3414.6996 93.499224 3428.0996 107.19922 C 3437.3996 116.79922 3437.1992 135.80039 3437.1992 148.40039 L 3381.8008 148.40039 L 3381.8008 148.59961 C 3381.8008 145.69962 3381.5003 141.60002 3378.9004 139.5 C 3376.3004 137.50003 3372.2008 137.20037 3369.3008 136.90039 C 3354.1008 135.40037 3338.3004 135.40039 3322.9004 135.40039 C 3308.6004 135.40039 3293.0996 135.39999 3279.0996 138 C 3275.8996 138.6 3273.0008 139.49999 3270.3008 141.5 C 3263.6008 146.79999 3264.1992 161.40041 3264.1992 168.90039 L 3264.1992 176.5 L 3264.1992 179.69922 C 3267.6992 176.19923 3271.1996 173.30039 3275.5996 170.90039 C 3291.9996 161.60041 3324.7 162.40039 3343 162.40039 C 3362.9 162.40039 3387.0996 162.70085 3406.0996 168.80078 C 3413.0996 171.10077 3418.8992 174.29958 3424.1992 179.59961 C 3435.8992 190.99961 3436.1992 212.8996 3436.1992 228.09961 C 3436.1992 255.79962 3431.4996 280.70077 3400.5996 286.80078 C 3388.5996 289.10077 3376.4004 290.0008 3364.4004 290.30078 C 3346.9004 290.60088 3329.6996 290.90039 3312.0996 290.90039 C 3287.5996 290.90039 3241.7 292.4004 3223 275.40039 C 3209.6 263.40039 3208.6996 240.10038 3208.0996 223.40039 C 3207.7995 210.60038 3207.5 197.39962 3207.5 184.59961 C 3207.5 161.19961 3204.8996 123.2996 3224.0996 106.59961 C 3240.1996 92.512115 3290.2945 91.440426 3317.9746 91.392578 z M 3571.9004 94 L 3668 94 L 3668 208.80078 L 3705.6992 208.80078 L 3705.6992 252.59961 L 3667.9004 252.59961 L 3667.9004 288.69922 L 3611.5 288.69922 L 3611.5 252.5 L 3456.1992 252.5 L 3456.1992 178 L 3571.9004 94 z M 1523.5 95.900391 L 1563.1992 95.900391 L 1563.1992 245.69922 L 1525.6992 245.59961 L 1525.6992 231.69922 L 1523.6992 231.69922 C 1520.9992 236.1992 1519 239.10076 1514.5 241.80078 C 1504.6 247.90079 1488.0008 248.30078 1476.8008 248.30078 C 1460.4008 248.30078 1438.1992 248.49953 1425.1992 237.09961 C 1413.4992 226.7996 1413.6992 206.29999 1413.6992 192 C 1413.6992 175.40001 1414.1004 155.20076 1429.4004 144.80078 C 1442.9004 135.80078 1461.6992 136.69922 1477.1992 136.69922 C 1488.8992 136.69922 1501.7 136.50008 1512 142.5 C 1517.2 145.40003 1519.0004 148.30001 1521.9004 153.5 L 1523.5 153.5 L 1523.5 95.900391 z M 2114 116.59961 L 3132 116.59961 L 3132 144.69922 L 2114 144.69922 L 2114 116.59961 z M 646.33203 136.68945 C 663.42051 136.69766 689.11211 137.30038 701.09961 146.40039 C 704.89961 149.30038 707.39961 152.19999 709.59961 156.5 C 715.39961 166.80001 714.80078 180.1 714.80078 191.5 C 714.90079 197.99999 714.69921 204.80079 714.19922 211.30078 C 713.29922 221.60079 710.6 230.80076 702.5 237.80078 C 688.8 249.70077 656.49961 248.40039 639.59961 248.40039 C 622.09961 248.40039 591.09922 250.00076 576.69922 237.80078 C 572.69919 234.40076 570.19919 230.7996 568.19922 226.09961 C 563.6992 215.0996 564.40039 201.20002 564.40039 189.5 C 564.40039 183.70001 564.3996 177.60077 565.09961 171.80078 C 565.99959 161.70075 569.79962 152.70037 578.09961 146.40039 C 591.59963 136.10038 623.69961 136.69922 639.59961 136.69922 C 641.62461 136.69922 643.89082 136.68828 646.33203 136.68945 z M 1325.7324 136.68945 C 1342.8209 136.69766 1368.5125 137.30038 1380.5 146.40039 C 1384.3 149.30038 1386.8 152.19999 1389 156.5 C 1394.8 166.80001 1394.1992 180.1 1394.1992 191.5 C 1394.2994 197.99999 1394.0995 204.80079 1393.5996 211.30078 C 1392.6996 221.60079 1390.0004 230.80076 1381.9004 237.80078 C 1368.2004 249.70077 1335.9 248.40039 1319 248.40039 C 1301.5 248.40039 1270.4996 250.00076 1256.0996 237.80078 C 1252.0996 234.40076 1249.5996 230.7996 1247.5996 226.09961 C 1243.0996 215.0996 1243.8008 201.20002 1243.8008 189.5 C 1243.8008 183.70001 1243.8 177.60077 1244.5 171.80078 C 1245.4 161.70075 1249.2 152.70037 1257.5 146.40039 C 1271 136.10038 1303.1 136.69922 1319 136.69922 C 1321.025 136.69922 1323.2912 136.68828 1325.7324 136.68945 z M 1666.6309 136.68945 C 1683.7193 136.69766 1709.4129 137.30038 1721.4004 146.40039 C 1725.2004 149.30038 1727.7004 152.19999 1729.9004 156.5 C 1735.7004 166.80001 1735.0996 180.1 1735.0996 191.5 C 1735.1998 197.99999 1734.9001 204.80079 1734.5 211.30078 C 1733.6 221.60079 1730.9008 230.80076 1722.8008 237.80078 C 1709.1008 249.70077 1676.8004 248.40039 1659.9004 248.40039 C 1642.4004 248.40039 1611.4 250.00076 1597 237.80078 C 1593 234.40076 1590.5 230.7996 1588.5 226.09961 C 1584 215.0996 1584.6992 201.20002 1584.6992 189.5 C 1584.6992 183.70001 1584.7004 177.60077 1585.4004 171.80078 C 1586.3004 161.70075 1590.1004 152.70037 1598.4004 146.40039 C 1611.9004 136.10038 1644.0004 136.69922 1659.9004 136.69922 C 1661.9254 136.69922 1664.1896 136.68828 1666.6309 136.68945 z M 466.38281 136.7832 C 468.83945 136.78496 471.16328 136.80078 473.30078 136.80078 C 490.4008 136.80078 519.99923 136.0996 534.19922 147.59961 C 537.99923 150.69962 540.49999 153.89958 542.5 158.59961 C 545.89999 166.49958 546.10081 174.0996 546.30078 182.59961 L 505.90039 182.59961 C 504.10039 166.1996 485.89962 166.69922 473.09961 166.69922 C 466.09962 166.69922 451.50037 166.89954 445.90039 171.59961 C 440.50039 176.09959 440.5 187.79963 440.5 194.09961 C 440.5 200.19962 440.70032 208.19924 445.40039 212.69922 C 451.00037 218.09922 466.49922 218.5 473.69922 218.5 C 478.59923 218.5 483.40077 218.50079 488.30078 217.80078 C 498.2008 216.50077 503.99962 213.49998 505.59961 203 L 546 203 C 545.59997 214.89999 544.89963 226.40079 536.09961 235.30078 C 526.89963 245.00079 512.70037 246.99921 499.90039 247.69922 C 490.20038 248.09921 480.79922 248.40039 471.19922 248.40039 C 453.89919 248.40039 429.20042 248.80001 414.40039 238.5 C 400.00039 228.40001 400.69922 207.30077 400.69922 191.80078 C 400.69922 176.5008 400.50084 158.2996 413.30078 147.59961 C 425.46329 137.36209 449.18634 136.7709 466.38281 136.7832 z M 819 136.80078 C 839.2 136.80078 857.00078 140.19999 867.30078 159 C 875.40078 139.2 894.20078 136.80078 913.30078 136.80078 C 928.80078 136.80078 946.10078 138.60001 957.30078 150.5 C 961.10078 154.49999 963.99961 158.79922 965.59961 164.19922 C 968.69961 174.49923 968.5 185.49962 968.5 196.09961 L 968.5 245.69922 L 928.69922 245.59961 L 928.69922 196 C 928.69922 173.09999 926.20078 166.59961 901.80078 166.59961 C 874.40078 166.59961 872.40039 177.4004 872.40039 201.90039 L 872.40039 245.69922 L 832.69922 245.69922 L 832.69922 196.09961 L 832.69922 188.69922 C 832.69922 169.39925 824.40039 166.69922 806.40039 166.69922 C 778.10039 166.69922 776.30078 176.8 776.30078 202 L 776.30078 245.80078 L 736.59961 245.80078 L 736.59961 139.5 L 774.09961 139.5 L 774.09961 155.40039 L 775.90039 155.40039 C 783.30039 139.00038 803.1 136.80078 819 136.80078 z M 1073.8008 136.80078 C 1094.0008 136.80078 1111.7996 140.19999 1122.0996 159 C 1130.1996 139.2 1148.9996 136.80078 1168.0996 136.80078 C 1183.5996 136.80078 1200.8996 138.60001 1212.0996 150.5 C 1215.8996 154.49999 1218.8004 158.79922 1220.4004 164.19922 C 1223.5004 174.49923 1223.3008 185.49962 1223.3008 196.09961 L 1223.3008 245.69922 L 1183.5 245.59961 L 1183.5 196 C 1183.5 173.09999 1180.9996 166.59961 1156.5996 166.59961 C 1129.1996 166.59961 1127.1992 177.4004 1127.1992 201.90039 L 1127.1992 245.69922 L 1087.5 245.69922 L 1087.5 196.09961 L 1087.5 188.69922 C 1087.5 169.39925 1079.1992 166.69922 1061.1992 166.69922 C 1032.8992 166.69922 1031.0996 176.8 1031.0996 202 L 1031.0996 245.80078 L 991.40039 245.80078 L 991.40039 139.5 L 1028.9004 139.5 L 1028.9004 155.40039 L 1030.6992 155.40039 C 1038.0992 139.00038 1057.9008 136.80078 1073.8008 136.80078 z M 1837.3008 136.80078 C 1849.7008 136.80078 1864.5008 138.39921 1872.8008 148.69922 C 1880.2008 157.89923 1880 171.2004 1880 182.40039 C 1880 183.8004 1879.8008 185.29921 1879.8008 186.69922 L 1842.5 186.69922 C 1842.5 170.99921 1837.2996 166.69922 1821.5996 166.69922 C 1797.0996 166.69922 1796.4004 182.1992 1796.4004 201.69922 L 1796.4004 245.69922 L 1756.6992 245.69922 L 1756.6992 139.5 L 1794.1992 139.5 L 1794.1992 155.40039 L 1796 155.40039 C 1805.2 139.00038 1820.0008 136.80078 1837.3008 136.80078 z M 1960.7598 136.89062 C 1963.1193 136.89011 1965.3504 136.90039 1967.4004 136.90039 C 1982.4004 136.90039 1998.8004 136.49922 2013.4004 140.69922 C 2037.0004 147.69924 2038.5996 169.19962 2038.5996 190.59961 C 2038.5996 193.99963 2038.6003 197.59922 2038.4004 201.19922 L 1934.6992 201.19922 C 1934.6992 207.29919 1934.4997 214.19999 1939.5996 218.5 C 1944.9996 222.80001 1960 223 1966.5 223 C 1973 223 1991.2 223.19992 1995.5 218.5 C 1997.3 216.7 1997.6992 214.20078 1998.1992 211.80078 L 2037.6992 211.80078 C 2036.7992 221.90077 2034.7996 229.79924 2027.0996 236.69922 C 2013.3996 249.09924 1980.6008 248.40039 1963.3008 248.40039 C 1947.6008 248.40039 1921.3008 248.59996 1908.3008 238.5 C 1904.3008 235.40003 1901.6008 231.8008 1899.3008 227.30078 C 1894.4008 217.00077 1894.8008 204.19923 1894.8008 193.19922 C 1894.8008 186.49921 1894.8 179.69921 1895.5 173.19922 C 1896.6 162.39922 1900.1992 152.80077 1909.1992 146.30078 C 1921.3617 137.46329 1944.2428 136.89473 1960.7598 136.89062 z M 3599.5996 139.30078 L 3509.0996 201.19922 L 3509.0996 208.80078 L 3611.5996 208.80078 L 3611.5996 139.30078 L 3599.5996 139.30078 z M 222.19922 140.40039 L 324.80078 140.40039 L 277.69922 187.5 L 222.19922 187.5 L 222.19922 140.40039 z M 1968.0996 161.5 C 1961.9996 161.5 1955.9996 161.50041 1950.0996 162.40039 C 1938.8996 164.00042 1934.7996 168.20001 1934.5996 179.5 L 1998.5996 179.5 L 1998.5996 177 C 1998.5996 173.00001 1998.4 169.79923 1995.5 166.69922 C 1990.8 161.49923 1974.5996 161.5 1968.0996 161.5 z M 1483.832 166.67188 C 1473.4308 166.71937 1459.4813 167.70079 1455.5 176.80078 C 1453.7 181.3008 1453.5 187.10079 1453.5 191.80078 C 1453.5 198.1008 1453.3 207.69924 1458 212.69922 C 1463.4 218.49924 1480.7004 218.5 1487.9004 218.5 C 1496.0004 218.5 1505.9 218.09958 1513.5 215.59961 C 1524.3 212.19958 1524.0996 201.89919 1524.0996 192.19922 C 1523.8997 187.29921 1523.6992 181.2996 1521.6992 176.59961 C 1516.9992 165.79961 1499.9008 166.69922 1490.3008 166.69922 C 1488.4445 166.69922 1486.2323 166.66089 1483.832 166.67188 z M 639.90039 166.69922 C 632.70039 166.69922 625.30078 166.90073 618.30078 168.30078 C 604.40076 171.0008 604.19922 181.80038 604.19922 193.90039 C 604.19922 199.70038 603.99929 207.59963 608.19922 212.09961 C 614.29922 218.59964 631.80039 218.59961 639.90039 218.59961 C 647.50039 218.59961 655.6 218.59962 663 216.59961 C 675.4 213.19962 675.09961 201.99997 675.09961 191 C 675.09961 184.89999 674.8992 177.00002 670.19922 172.5 C 664.39922 166.90003 647.30039 166.69922 639.90039 166.69922 z M 1319.3008 166.69922 C 1312.1008 166.69922 1304.6992 166.90073 1297.6992 168.30078 C 1283.7992 171.0008 1283.5996 181.80038 1283.5996 193.90039 C 1283.5996 199.70038 1283.3996 207.59963 1287.5996 212.09961 C 1293.6996 218.59964 1311.2008 218.59961 1319.3008 218.59961 C 1326.9008 218.59961 1335.0004 218.59962 1342.4004 216.59961 C 1354.8004 213.19962 1354.5 201.99997 1354.5 191 C 1354.6 184.89999 1354.2996 177.00002 1349.5996 172.5 C 1343.7996 166.90003 1326.7008 166.69922 1319.3008 166.69922 z M 1660.3008 166.69922 C 1653.1008 166.69922 1645.6992 166.90073 1638.6992 168.30078 C 1624.7992 171.0008 1624.5996 181.80038 1624.5996 193.90039 C 1624.5996 199.70038 1624.3997 207.59963 1628.5996 212.09961 C 1634.6996 218.59964 1652.2008 218.59961 1660.3008 218.59961 C 1667.9008 218.59961 1676.0004 218.59962 1683.4004 216.59961 C 1695.8004 213.19962 1695.5 201.99997 1695.5 191 C 1695.5 184.89999 1695.2997 177.00002 1690.5996 172.5 C 1684.7996 166.90003 1667.7008 166.69922 1660.3008 166.69922 z M 2114 177.80078 L 3132 177.80078 L 3132 205.69922 L 2114 205.69922 L 2114 177.80078 z M 222.19922 196 L 277.69922 196 L 324.80078 243.09961 L 222.19922 243.09961 L 222.19922 196 z M 3302.8477 206.20508 C 3295.4561 206.1875 3288.0508 206.375 3280.8008 207.5 C 3269.4008 209.3 3265 216.30037 3265 227.40039 C 3265 232.4004 3266.1992 238.7996 3269.6992 242.59961 C 3275.4992 248.69958 3308.4996 247.30078 3316.0996 247.30078 C 3326.2996 247.30078 3336.2 246.99912 3346.5 246.69922 C 3353.8 246.39912 3368.7 247.29923 3374.5 241.69922 C 3378 238.19923 3378.5996 231.79964 3378.5996 227.09961 C 3378.5996 216.29961 3376.3004 209.7996 3364.9004 208.09961 C 3349.1004 205.79962 3332.1996 206.30078 3316.0996 206.30078 C 3311.7121 206.30078 3307.2826 206.21562 3302.8477 206.20508 z M 2114 238.80078 L 3132 238.80078 L 3132 266.90039 L 2114 266.90039 L 2114 238.80078 z M 2114 300 L 3132 300 L 3132 328 L 2114 328 L 2114 300 z "
       transform="matrix(0.26458333,0,0,0.26458333,-260.41127,-331.39583)" />
  </g>
  <style
     id="style1092">.st0{stroke:#000}.st1{fill:url(#path6288-1-5-9-9_1_)}.st2{fill:url(#path7243_1_)}.st3,.st4{stroke:#000;stroke-width:1}.st4{stroke-width:1.2393}.st5{fill:url(#rect7344_1_)}</style>
  <style
     type="text/css"
     id="style2670">
	.st0{fill-rule:evenodd;clip-rule:evenodd;fill:#002684;}
	.st1{fill-rule:evenodd;clip-rule:evenodd;fill:#12506F;}
	.st2{fill-rule:evenodd;clip-rule:evenodd;fill:#247A5B;}
	.st3{fill-rule:evenodd;clip-rule:evenodd;fill:#36A346;}
	.st4{fill-rule:evenodd;clip-rule:evenodd;fill:#48CD31;}
	.st5{fill-rule:evenodd;clip-rule:evenodd;fill:#6AD534;}
	.st6{fill-rule:evenodd;clip-rule:evenodd;fill:#8CDD37;}
	.st7{fill-rule:evenodd;clip-rule:evenodd;fill:#AFE63A;}
	.st8{fill-rule:evenodd;clip-rule:evenodd;fill:#D1EE3D;}
	.st9{fill-rule:evenodd;clip-rule:evenodd;fill:#F3F640;}
	.st10{fill-rule:evenodd;clip-rule:evenodd;fill:#F6D730;}
	.st11{fill-rule:evenodd;clip-rule:evenodd;fill:#F9B721;}
	.st12{fill-rule:evenodd;clip-rule:evenodd;fill:#FB9811;}
	.st13{fill-rule:evenodd;clip-rule:evenodd;fill:#FE7801;}
	.st14{fill-rule:evenodd;clip-rule:evenodd;fill:#FE5C13;}
	.st15{fill-rule:evenodd;clip-rule:evenodd;fill:#FE4125;}
	.st16{fill-rule:evenodd;clip-rule:evenodd;fill:#FE2537;}
	.st17{fill-rule:evenodd;clip-rule:evenodd;fill:#14A4FE;}
	.st18{fill-rule:evenodd;clip-rule:evenodd;fill:#21AECB;}
	.st19{fill-rule:evenodd;clip-rule:evenodd;fill:#2EB998;}
	.st20{fill-rule:evenodd;clip-rule:evenodd;fill:#3BC364;}
	.st21{fill-rule:evenodd;clip-rule:evenodd;fill:#24795B;}
	.st22{fill-rule:evenodd;clip-rule:evenodd;fill:#48CC31;}
	.st23{fill-rule:evenodd;clip-rule:evenodd;fill:#6AD434;}
	.st24{fill-rule:evenodd;clip-rule:evenodd;fill:#8BDC37;}
	.st25{fill-rule:evenodd;clip-rule:evenodd;fill:#AEE53A;}
	.st26{fill-rule:evenodd;clip-rule:evenodd;fill:#D0ED3D;}
	.st27{fill-rule:evenodd;clip-rule:evenodd;fill:#F2F540;}
	.st28{fill-rule:evenodd;clip-rule:evenodd;fill:#F5D630;}
	.st29{fill-rule:evenodd;clip-rule:evenodd;fill:#F8B621;}
	.st30{fill-rule:evenodd;clip-rule:evenodd;fill:#FA9711;}
	.st31{fill-rule:evenodd;clip-rule:evenodd;fill:#FD7801;}
	.st32{fill-rule:evenodd;clip-rule:evenodd;fill:#F9500E;}
	.st33{fill-rule:evenodd;clip-rule:evenodd;fill:#F6281C;}
	.st34{fill-rule:evenodd;clip-rule:evenodd;fill:#F20029;}
	.st35{fill:#002684;}
	.st36{fill:#F20029;}
	.st37{fill:#FFFFFF;}
	.st38{fill-rule:evenodd;clip-rule:evenodd;fill:#14A3FD;}
	.st39{fill-rule:evenodd;clip-rule:evenodd;fill:#3E3632;}
	.st40{fill:#282422;}
	.st41{fill:url(#SVGID_1_);}
	.st42{fill:url(#SVGID_00000181046151383570067460000000294772370223865533_);}
	.st43{fill:url(#SVGID_00000090257185461541661930000002531334694149582753_);}
	.st44{fill:url(#SVGID_00000138557408404788649140000010507871772509071502_);}
	.st45{fill:url(#SVGID_00000006677309031614552040000009734908211782691505_);}
	.st46{fill:url(#SVGID_00000119092855508346375520000010715546433031344269_);}
	.st47{fill:url(#SVGID_00000112620972155751229590000017147901743680986791_);}
	.st48{fill:url(#SVGID_00000069378504887869945380000004290423147811225770_);}
	.st49{fill:url(#SVGID_00000009567789285636497290000002401442772095686278_);}
	.st50{fill:url(#SVGID_00000136408787255542223960000001883821825305869959_);}
	.st51{fill:url(#SVGID_00000050636177808668514410000007906613583105039759_);}
	.st52{fill:url(#SVGID_00000160911886831152826220000012327077098316255381_);}
	.st53{fill:url(#SVGID_00000179616847128116252960000016998207587280401572_);}
	.st54{fill:url(#SVGID_00000124149130554122076560000017895371281112138906_);}
	.st55{fill:url(#SVGID_00000092432800900476078680000015168911933157078936_);}
	.st56{fill:url(#SVGID_00000061462674445249506980000006847082881819447471_);}
	.st57{fill:url(#SVGID_00000056426157518507606320000001482115923274984846_);}
	.st58{fill:url(#SVGID_00000170978031229855895570000003339089247107479685_);}
	.st59{fill:url(#SVGID_00000147192989265030381510000010440237256868955033_);}
	.st60{fill:url(#SVGID_00000012464343813194106150000005955044998336470412_);}
	.st61{fill:url(#SVGID_00000121964028021246636150000010406889973615081626_);}
	.st62{fill:url(#SVGID_00000164496415941617677720000015455809302934269849_);}
	.st63{fill:url(#SVGID_00000078729467306068564450000015056793260343739293_);}
	.st64{fill:url(#SVGID_00000047046177651772190950000005426542601724599485_);}
	.st65{fill:url(#SVGID_00000049915732862507551820000004322870690973898629_);}
	.st66{fill:url(#SVGID_00000179626395789586519900000003589999081134306229_);}
	.st67{fill:url(#SVGID_00000083072144040339432500000011649934454071535276_);}
	.st68{fill:url(#SVGID_00000038415312952508894420000017103574059899170734_);}
	.st69{fill:url(#SVGID_00000153696502949114962070000004636147518955706535_);}
	.st70{fill-rule:evenodd;clip-rule:evenodd;fill:#FFFFFF;}
	.st71{fill:url(#SVGID_00000106129185827819903060000009646036880877619365_);}
	.st72{fill:url(#SVGID_00000170258023913727442520000017019729163244542889_);}
	.st73{fill:url(#SVGID_00000103267222053209330520000015457517713942980994_);}
	.st74{fill:url(#SVGID_00000131355178585851322020000013360223209900746882_);}
	.st75{fill:url(#SVGID_00000031905060425953729150000012179799660019896478_);}
	.st76{fill:url(#SVGID_00000101809607736894972840000016898848857999744394_);}
	.st77{fill:url(#SVGID_00000063598781888835000780000005532437558766463669_);}
	.st78{fill:url(#SVGID_00000049910079829834316140000010215833812932959887_);}
	.st79{fill:url(#SVGID_00000049186182595044875000000015888072957255100851_);}
	.st80{fill:url(#SVGID_00000033340832617498326310000016995255294085783735_);}
	.st81{fill:url(#SVGID_00000173149143044055865210000016655573220634393489_);}
	.st82{fill:url(#SVGID_00000173155343751905844170000018366617784827114384_);}
	.st83{fill:url(#SVGID_00000154383682932674896550000014520384737293495998_);}
	.st84{fill:url(#SVGID_00000176007290965390382920000007652662694358021816_);}
	.st85{fill:url(#SVGID_00000061440103296667086110000007432856366302983840_);}
	.st86{fill:url(#SVGID_00000023248424159914467410000010439810963924535170_);}
	.st87{fill:url(#SVGID_00000142135872626470825600000006944205714580978104_);}
	.st88{fill:url(#SVGID_00000132790123285240630360000016017686017940237961_);}
	.st89{fill:url(#SVGID_00000127029067777420629290000012123278013142527666_);}
	.st90{fill:url(#SVGID_00000042008756264305839070000001942137732529002388_);}
	.st91{fill:url(#SVGID_00000149367197042711259380000000731101160096961449_);}
	.st92{fill:url(#SVGID_00000100372082360864252150000010145760669646198443_);}
	.st93{fill:url(#SVGID_00000079448290466017801300000000580426367749418416_);}
	.st94{fill:url(#SVGID_00000056399935527512884580000015670979693829221042_);}
	.st95{fill:url(#SVGID_00000002374572674865333210000014550939264907440014_);}
	.st96{fill:url(#SVGID_00000048497784620354485530000014858252617941688737_);}
	.st97{fill:url(#SVGID_00000124871273866489318980000010806020154644511628_);}
	.st98{fill:url(#SVGID_00000041987799122456600730000005869577904598022785_);}
	.st99{fill:url(#SVGID_00000000932976345783551360000012775697191361216948_);}
	.st100{fill:#0F2166;}
	.st101{fill:#FD2537;}
</style>
</svg>
